M48
; DRILL file {KiCad (6.0.2)} date Tue Sep  6 11:12:14 2022
; FORMAT={-:-/ absolute / inch / decimal}
; #@! TF.CreationDate,2022-09-06T11:12:14-04:00
; #@! TF.GenerationSoftware,Kicad,Pcbnew,(6.0.2)
; #@! TF.FileFunction,MixedPlating,1,2
FMAT,2
INCH
; #@! TA.AperFunction,Plated,PTH,ViaDrill
T1C0.0157
; #@! TA.AperFunction,Plated,PTH,ComponentDrill
T2C0.0177
; #@! TA.AperFunction,Plated,PTH,ComponentDrill
T3C0.0315
; #@! TA.AperFunction,Plated,PTH,ComponentDrill
T4C0.0394
; #@! TA.AperFunction,Plated,PTH,ComponentDrill
T5C0.0512
%
G90
G05
T1
X5.703Y-3.095
X5.75Y-3.066
X5.917Y-2.944
X6.274Y-3.29
X6.3275Y-3.153
X6.585Y-3.039
X6.612Y-2.735
X6.625Y-2.827
X6.627Y-2.946
X6.628Y-3.247
X6.629Y-3.138
X6.672Y-3.038
X6.697Y-3.138
X6.745Y-2.847
X6.745Y-2.937
X6.746Y-3.243
T4
X5.63Y-3.29
X5.73Y-3.29
X5.93Y-3.29
X6.03Y-3.29
T5
X7.025Y-2.7
X7.025Y-2.9
X7.025Y-3.1
X7.025Y-3.3
T2
G00X6.1326Y-2.8807
M15
G01X6.1326Y-2.9457
M16
G05
G00X6.3275Y-2.8807
M15
G01X6.3275Y-2.9457
M16
G05
T3
G00X6.11Y-2.7085
M15
G01X6.11Y-2.7715
M16
G05
G00X6.3502Y-2.7085
M15
G01X6.3502Y-2.7715
M16
G05
T4
G00X5.7017Y-2.73
M15
G01X5.6229Y-2.73
M16
G05
G00X5.7017Y-2.9662
M15
G01X5.6229Y-2.9662
M16
G05
G00X5.8473Y-2.8087
M15
G01X5.8473Y-2.8875
M16
G05
T0
M30
