%TF.GenerationSoftware,KiCad,Pcbnew,(6.0.2)*%
%TF.CreationDate,2022-08-31T14:57:05-04:00*%
%TF.ProjectId,PowerSupply,506f7765-7253-4757-9070-6c792e6b6963,rev?*%
%TF.SameCoordinates,Original*%
%TF.FileFunction,Copper,L1,Top*%
%TF.FilePolarity,Positive*%
%FSLAX46Y46*%
G04 Gerber Fmt 4.6, Leading zero omitted, Abs format (unit mm)*
G04 Created by KiCad (PCBNEW (6.0.2)) date 2022-08-31 14:57:05*
%MOMM*%
%LPD*%
G01*
G04 APERTURE LIST*
G04 Aperture macros list*
%AMRoundRect*
0 Rectangle with rounded corners*
0 $1 Rounding radius*
0 $2 $3 $4 $5 $6 $7 $8 $9 X,Y pos of 4 corners*
0 Add a 4 corners polygon primitive as box body*
4,1,4,$2,$3,$4,$5,$6,$7,$8,$9,$2,$3,0*
0 Add four circle primitives for the rounded corners*
1,1,$1+$1,$2,$3*
1,1,$1+$1,$4,$5*
1,1,$1+$1,$6,$7*
1,1,$1+$1,$8,$9*
0 Add four rect primitives between the rounded corners*
20,1,$1+$1,$2,$3,$4,$5,0*
20,1,$1+$1,$4,$5,$6,$7,0*
20,1,$1+$1,$6,$7,$8,$9,0*
20,1,$1+$1,$8,$9,$2,$3,0*%
G04 Aperture macros list end*
%TA.AperFunction,SMDPad,CuDef*%
%ADD10RoundRect,0.150000X0.512500X0.150000X-0.512500X0.150000X-0.512500X-0.150000X0.512500X-0.150000X0*%
%TD*%
%TA.AperFunction,SMDPad,CuDef*%
%ADD11RoundRect,0.200000X0.200000X0.275000X-0.200000X0.275000X-0.200000X-0.275000X0.200000X-0.275000X0*%
%TD*%
%TA.AperFunction,SMDPad,CuDef*%
%ADD12R,1.100000X1.100000*%
%TD*%
%TA.AperFunction,SMDPad,CuDef*%
%ADD13RoundRect,0.250000X-0.375000X-0.850000X0.375000X-0.850000X0.375000X0.850000X-0.375000X0.850000X0*%
%TD*%
%TA.AperFunction,SMDPad,CuDef*%
%ADD14RoundRect,0.200000X0.275000X-0.200000X0.275000X0.200000X-0.275000X0.200000X-0.275000X-0.200000X0*%
%TD*%
%TA.AperFunction,SMDPad,CuDef*%
%ADD15RoundRect,0.150000X-0.150000X0.587500X-0.150000X-0.587500X0.150000X-0.587500X0.150000X0.587500X0*%
%TD*%
%TA.AperFunction,SMDPad,CuDef*%
%ADD16RoundRect,0.225000X-0.225000X-0.250000X0.225000X-0.250000X0.225000X0.250000X-0.225000X0.250000X0*%
%TD*%
%TA.AperFunction,SMDPad,CuDef*%
%ADD17RoundRect,0.200000X-0.200000X-0.275000X0.200000X-0.275000X0.200000X0.275000X-0.200000X0.275000X0*%
%TD*%
%TA.AperFunction,ComponentPad*%
%ADD18RoundRect,0.500000X-3.250000X-0.500000X3.250000X-0.500000X3.250000X0.500000X-3.250000X0.500000X0*%
%TD*%
%TA.AperFunction,SMDPad,CuDef*%
%ADD19RoundRect,0.225000X0.225000X0.250000X-0.225000X0.250000X-0.225000X-0.250000X0.225000X-0.250000X0*%
%TD*%
%TA.AperFunction,SMDPad,CuDef*%
%ADD20RoundRect,0.225000X0.250000X-0.225000X0.250000X0.225000X-0.250000X0.225000X-0.250000X-0.225000X0*%
%TD*%
%TA.AperFunction,ComponentPad*%
%ADD21R,1.700000X1.700000*%
%TD*%
%TA.AperFunction,ComponentPad*%
%ADD22O,1.700000X1.700000*%
%TD*%
%TA.AperFunction,ComponentPad*%
%ADD23R,3.500000X3.500000*%
%TD*%
%TA.AperFunction,ComponentPad*%
%ADD24RoundRect,0.750000X-0.750000X-1.000000X0.750000X-1.000000X0.750000X1.000000X-0.750000X1.000000X0*%
%TD*%
%TA.AperFunction,ComponentPad*%
%ADD25RoundRect,0.875000X-0.875000X-0.875000X0.875000X-0.875000X0.875000X0.875000X-0.875000X0.875000X0*%
%TD*%
%TA.AperFunction,SMDPad,CuDef*%
%ADD26RoundRect,0.150000X0.150000X-0.512500X0.150000X0.512500X-0.150000X0.512500X-0.150000X-0.512500X0*%
%TD*%
%TA.AperFunction,ViaPad*%
%ADD27C,0.800000*%
%TD*%
%TA.AperFunction,Conductor*%
%ADD28C,0.250000*%
%TD*%
G04 APERTURE END LIST*
D10*
%TO.P,U1,1,SW*%
%TO.N,Net-(D4-Pad2)*%
X165602500Y-70419000D03*
%TO.P,U1,2,GND*%
%TO.N,GND*%
X165602500Y-69469000D03*
%TO.P,U1,3,FB*%
%TO.N,Net-(R1-Pad2)*%
X165602500Y-68519000D03*
%TO.P,U1,4,~{SHDN}*%
%TO.N,Net-(C1-Pad1)*%
X163327500Y-68519000D03*
%TO.P,U1,5,IN*%
X163327500Y-70419000D03*
%TD*%
D11*
%TO.P,R3,1*%
%TO.N,+6V*%
X171513000Y-79756000D03*
%TO.P,R3,2*%
%TO.N,Net-(R3-Pad2)*%
X169863000Y-79756000D03*
%TD*%
%TO.P,R1,1*%
%TO.N,+24V*%
X171436800Y-70866000D03*
%TO.P,R1,2*%
%TO.N,Net-(R1-Pad2)*%
X169786800Y-70866000D03*
%TD*%
D12*
%TO.P,D4,1,K*%
%TO.N,+24V*%
X171580000Y-73914000D03*
%TO.P,D4,2,A*%
%TO.N,Net-(D4-Pad2)*%
X168780000Y-73914000D03*
%TD*%
%TO.P,D5,1,K*%
%TO.N,+6V*%
X171580000Y-85090000D03*
%TO.P,D5,2,A*%
%TO.N,Net-(D5-Pad2)*%
X168780000Y-85090000D03*
%TD*%
D13*
%TO.P,L1,1,1*%
%TO.N,Net-(C1-Pad1)*%
X163390000Y-73914000D03*
%TO.P,L1,2,2*%
%TO.N,Net-(D4-Pad2)*%
X165540000Y-73914000D03*
%TD*%
D14*
%TO.P,R5,1*%
%TO.N,+5V*%
X142240000Y-79819000D03*
%TO.P,R5,2*%
%TO.N,GND*%
X142240000Y-78169000D03*
%TD*%
D15*
%TO.P,Q1,1,G*%
%TO.N,+5V*%
X158531600Y-76989700D03*
%TO.P,Q1,2,S*%
%TO.N,Net-(D1-Pad1)*%
X156631600Y-76989700D03*
%TO.P,Q1,3,D*%
%TO.N,+BATT*%
X157581600Y-78864700D03*
%TD*%
D13*
%TO.P,L2,1,1*%
%TO.N,Net-(C1-Pad1)*%
X163390000Y-85090000D03*
%TO.P,L2,2,2*%
%TO.N,Net-(D5-Pad2)*%
X165540000Y-85090000D03*
%TD*%
D16*
%TO.P,C2,1*%
%TO.N,Net-(C1-Pad1)*%
X163309000Y-77470000D03*
%TO.P,C2,2*%
%TO.N,GND*%
X164859000Y-77470000D03*
%TD*%
D12*
%TO.P,D1,1,K*%
%TO.N,Net-(D1-Pad1)*%
X156638800Y-73634600D03*
%TO.P,D1,2,A*%
%TO.N,+5V*%
X159438800Y-73634600D03*
%TD*%
D17*
%TO.P,R8,1*%
%TO.N,GND*%
X146495000Y-78232000D03*
%TO.P,R8,2*%
%TO.N,Net-(IC1-Pad5)*%
X148145000Y-78232000D03*
%TD*%
D18*
%TO.P,J1,1,Pin_1*%
%TO.N,+24V*%
X178435000Y-68580000D03*
%TO.P,J1,2,Pin_2*%
%TO.N,GND*%
X178435000Y-73660000D03*
%TO.P,J1,3,Pin_3*%
X178435000Y-78740000D03*
%TO.P,J1,4,Pin_4*%
%TO.N,+6V*%
X178435000Y-83820000D03*
%TD*%
D16*
%TO.P,C1,1*%
%TO.N,Net-(C1-Pad1)*%
X163309000Y-66294000D03*
%TO.P,C1,2*%
%TO.N,GND*%
X164859000Y-66294000D03*
%TD*%
D19*
%TO.P,C6,1*%
%TO.N,+6V*%
X171463000Y-82296000D03*
%TO.P,C6,2*%
%TO.N,GND*%
X169913000Y-82296000D03*
%TD*%
D20*
%TO.P,C3,1*%
%TO.N,GND*%
X157581600Y-83274200D03*
%TO.P,C3,2*%
%TO.N,+BATT*%
X157581600Y-81724200D03*
%TD*%
D21*
%TO.P,BT1,1,+*%
%TO.N,+BATT*%
X152400000Y-83566000D03*
D22*
%TO.P,BT1,2,-*%
%TO.N,GND*%
X149860000Y-83566000D03*
%TD*%
D21*
%TO.P,D3,1,K*%
%TO.N,Net-(D3-Pad1)*%
X144780000Y-83566000D03*
D22*
%TO.P,D3,2,A*%
%TO.N,+5V*%
X142240000Y-83566000D03*
%TD*%
D23*
%TO.P,J2,1*%
%TO.N,+5V*%
X149860000Y-69850000D03*
D24*
%TO.P,J2,2*%
%TO.N,GND*%
X143860000Y-69850000D03*
D25*
%TO.P,J2,3*%
%TO.N,unconnected-(J2-Pad3)*%
X146860000Y-74550000D03*
%TD*%
D20*
%TO.P,C5,1*%
%TO.N,+24V*%
X171450000Y-68339000D03*
%TO.P,C5,2*%
%TO.N,GND*%
X171450000Y-66789000D03*
%TD*%
D10*
%TO.P,U2,1,SW*%
%TO.N,Net-(D5-Pad2)*%
X165602500Y-81595000D03*
%TO.P,U2,2,GND*%
%TO.N,GND*%
X165602500Y-80645000D03*
%TO.P,U2,3,FB*%
%TO.N,Net-(R3-Pad2)*%
X165602500Y-79695000D03*
%TO.P,U2,4,~{SHDN}*%
%TO.N,Net-(C1-Pad1)*%
X163327500Y-79695000D03*
%TO.P,U2,5,IN*%
X163327500Y-81595000D03*
%TD*%
D20*
%TO.P,C4,1*%
%TO.N,+5V*%
X153339800Y-74612800D03*
%TO.P,C4,2*%
%TO.N,GND*%
X153339800Y-73062800D03*
%TD*%
D21*
%TO.P,SW1,1,A*%
%TO.N,Net-(D1-Pad1)*%
X155930600Y-68891000D03*
D22*
%TO.P,SW1,2,B*%
%TO.N,Net-(C1-Pad1)*%
X158470600Y-68891000D03*
%TD*%
D11*
%TO.P,R7,1*%
%TO.N,Net-(IC1-Pad1)*%
X148145000Y-80264000D03*
%TO.P,R7,2*%
%TO.N,Net-(D3-Pad1)*%
X146495000Y-80264000D03*
%TD*%
D14*
%TO.P,R2,1*%
%TO.N,Net-(R1-Pad2)*%
X168783000Y-68414400D03*
%TO.P,R2,2*%
%TO.N,GND*%
X168783000Y-66764400D03*
%TD*%
D26*
%TO.P,IC1,1,STAT*%
%TO.N,Net-(IC1-Pad1)*%
X151450000Y-79369500D03*
%TO.P,IC1,2,VSS*%
%TO.N,GND*%
X152400000Y-79369500D03*
%TO.P,IC1,3,VBAT*%
%TO.N,+BATT*%
X153350000Y-79369500D03*
%TO.P,IC1,4,VDD*%
%TO.N,+5V*%
X153350000Y-77094500D03*
%TO.P,IC1,5,PROG*%
%TO.N,Net-(IC1-Pad5)*%
X151450000Y-77094500D03*
%TD*%
D17*
%TO.P,R4,1*%
%TO.N,Net-(R3-Pad2)*%
X169863000Y-76962000D03*
%TO.P,R4,2*%
%TO.N,GND*%
X171513000Y-76962000D03*
%TD*%
D27*
%TO.N,GND*%
X145237200Y-78232000D03*
X167132000Y-80645000D03*
X157581600Y-84582000D03*
X170129200Y-66776600D03*
X166116000Y-66294000D03*
X167182800Y-69469000D03*
X142240000Y-76962000D03*
X166116000Y-77470000D03*
X172770800Y-76962000D03*
X153339800Y-71755000D03*
X152400000Y-80899000D03*
X168630600Y-82296000D03*
%TD*%
D28*
%TO.N,Net-(C1-Pad1)*%
X161233000Y-68891000D02*
X158470600Y-68891000D01*
%TO.N,Net-(D1-Pad1)*%
X156638800Y-73634600D02*
X156638800Y-69624600D01*
X156638800Y-69624600D02*
X155905200Y-68891000D01*
%TO.N,+BATT*%
X152285700Y-83693000D02*
X154197200Y-83693000D01*
X152273000Y-83439000D02*
X152273000Y-81940400D01*
X153350000Y-79369500D02*
X153416000Y-79435500D01*
X155220550Y-79248000D02*
X155728550Y-78740000D01*
X153634900Y-79248000D02*
X155220550Y-79248000D01*
X155728550Y-78740000D02*
X157707450Y-78740000D01*
X154197200Y-83693000D02*
X156051400Y-81838800D01*
X157708600Y-78864700D02*
X157708600Y-81724200D01*
X152400000Y-83566000D02*
X152273000Y-83439000D01*
X156051400Y-81838800D02*
X157486200Y-81838800D01*
%TO.N,GND*%
X157581600Y-83274200D02*
X157581600Y-84582000D01*
X153339800Y-73062800D02*
X153339800Y-71755000D01*
X146495000Y-78232000D02*
X145237200Y-78232000D01*
X167182800Y-69469000D02*
X165602500Y-69469000D01*
X165602500Y-80645000D02*
X167132000Y-80645000D01*
X152400000Y-79369500D02*
X152400000Y-80899000D01*
X171513000Y-76962000D02*
X172770800Y-76962000D01*
X164859000Y-77470000D02*
X166116000Y-77470000D01*
X169913000Y-82296000D02*
X168630600Y-82296000D01*
X164859000Y-66294000D02*
X166116000Y-66294000D01*
X142240000Y-78169000D02*
X142240000Y-76962000D01*
%TO.N,Net-(C1-Pad1)*%
X163390000Y-73914000D02*
X163327500Y-73851500D01*
X163327500Y-81595000D02*
X163327500Y-79695000D01*
X163390000Y-81657500D02*
X163327500Y-81595000D01*
X163390000Y-79632500D02*
X163327500Y-79695000D01*
X163327500Y-66312500D02*
X163309000Y-66294000D01*
X163390000Y-73660000D02*
X163390000Y-79632500D01*
X163327500Y-70419000D02*
X163327500Y-68519000D01*
X163390000Y-85090000D02*
X163390000Y-81657500D01*
X161605000Y-68519000D02*
X161233000Y-68891000D01*
X163327500Y-68519000D02*
X163327500Y-66312500D01*
X163327500Y-68519000D02*
X161605000Y-68519000D01*
X163327500Y-73851500D02*
X163327500Y-70419000D01*
%TO.N,Net-(D1-Pad1)*%
X156631600Y-76989700D02*
X156638800Y-76982500D01*
X156638800Y-76982500D02*
X156638800Y-73634600D01*
%TO.N,+5V*%
X153339800Y-74612800D02*
X153339800Y-77084300D01*
X153339800Y-77084300D02*
X153350000Y-77094500D01*
%TO.N,+24V*%
X171436800Y-70866000D02*
X171436800Y-73770800D01*
X171450000Y-68339000D02*
X178194000Y-68339000D01*
X171450000Y-70852800D02*
X171450000Y-68339000D01*
X178194000Y-68339000D02*
X178435000Y-68580000D01*
X177952400Y-68097400D02*
X178435000Y-68580000D01*
X171436800Y-73770800D02*
X171580000Y-73914000D01*
X171436800Y-70866000D02*
X171450000Y-70852800D01*
%TO.N,+6V*%
X171627800Y-83820000D02*
X171580000Y-83772200D01*
X171463000Y-82296000D02*
X171463000Y-79806000D01*
X171580000Y-82413000D02*
X171463000Y-82296000D01*
X178435000Y-83820000D02*
X171627800Y-83820000D01*
X171580000Y-85090000D02*
X171580000Y-83772200D01*
X171463000Y-79806000D02*
X171513000Y-79756000D01*
X171580000Y-83772200D02*
X171580000Y-82413000D01*
%TO.N,Net-(D3-Pad1)*%
X146495000Y-81851000D02*
X144780000Y-83566000D01*
X146495000Y-80264000D02*
X146495000Y-81851000D01*
%TO.N,Net-(D4-Pad2)*%
X165540000Y-70481500D02*
X165602500Y-70419000D01*
X165540000Y-73914000D02*
X165540000Y-70481500D01*
X168780000Y-73914000D02*
X165540000Y-73914000D01*
%TO.N,Net-(D5-Pad2)*%
X165540000Y-81657500D02*
X165602500Y-81595000D01*
X165540000Y-85090000D02*
X165540000Y-81657500D01*
X168780000Y-85090000D02*
X165540000Y-85090000D01*
%TO.N,Net-(IC1-Pad1)*%
X150876000Y-80264000D02*
X151450000Y-79690000D01*
X151450000Y-79690000D02*
X151450000Y-79369500D01*
X148145000Y-80264000D02*
X150876000Y-80264000D01*
%TO.N,Net-(IC1-Pad5)*%
X150622000Y-78232000D02*
X151450000Y-77404000D01*
X151450000Y-77404000D02*
X151450000Y-77094500D01*
X148145000Y-78232000D02*
X150622000Y-78232000D01*
%TO.N,Net-(R1-Pad2)*%
X169786800Y-70866000D02*
X169786800Y-70803000D01*
X168783000Y-69799200D02*
X168783000Y-68389000D01*
X165602500Y-68519000D02*
X168653000Y-68519000D01*
X168653000Y-68519000D02*
X168783000Y-68389000D01*
X169786800Y-70803000D02*
X168783000Y-69799200D01*
%TO.N,Net-(R3-Pad2)*%
X165602500Y-79695000D02*
X169802000Y-79695000D01*
X169863000Y-76962000D02*
X169863000Y-79756000D01*
X169802000Y-79695000D02*
X169863000Y-79756000D01*
%TD*%
%TA.AperFunction,Conductor*%
%TO.N,+5V*%
G36*
X162576513Y-65298002D02*
G01*
X162623006Y-65351658D01*
X162633110Y-65421932D01*
X162603616Y-65486512D01*
X162597565Y-65493018D01*
X162509619Y-65581117D01*
X162509615Y-65581122D01*
X162504448Y-65586298D01*
X162414698Y-65731899D01*
X162360851Y-65894243D01*
X162350500Y-65995268D01*
X162350500Y-66592732D01*
X162361113Y-66695019D01*
X162415244Y-66857268D01*
X162505248Y-67002713D01*
X162626298Y-67123552D01*
X162632530Y-67127394D01*
X162632532Y-67127395D01*
X162634115Y-67128371D01*
X162634969Y-67129320D01*
X162638274Y-67131930D01*
X162637827Y-67132496D01*
X162681609Y-67181142D01*
X162694000Y-67235631D01*
X162694000Y-67623822D01*
X162673998Y-67691943D01*
X162620342Y-67738436D01*
X162603153Y-67744819D01*
X162559012Y-67757643D01*
X162559010Y-67757644D01*
X162551399Y-67759855D01*
X162544572Y-67763892D01*
X162544573Y-67763892D01*
X162415020Y-67840509D01*
X162415017Y-67840511D01*
X162408193Y-67844547D01*
X162402585Y-67850155D01*
X162396325Y-67855011D01*
X162395156Y-67853504D01*
X162341833Y-67882621D01*
X162315050Y-67885500D01*
X161683763Y-67885500D01*
X161672579Y-67884973D01*
X161665091Y-67883299D01*
X161657168Y-67883548D01*
X161597033Y-67885438D01*
X161593075Y-67885500D01*
X161565144Y-67885500D01*
X161561229Y-67885995D01*
X161561225Y-67885995D01*
X161561167Y-67886003D01*
X161561138Y-67886006D01*
X161549296Y-67886939D01*
X161505110Y-67888327D01*
X161487744Y-67893372D01*
X161485658Y-67893978D01*
X161466306Y-67897986D01*
X161454068Y-67899532D01*
X161454066Y-67899533D01*
X161446203Y-67900526D01*
X161405086Y-67916806D01*
X161393885Y-67920641D01*
X161351406Y-67932982D01*
X161344587Y-67937015D01*
X161344582Y-67937017D01*
X161333971Y-67943293D01*
X161316221Y-67951990D01*
X161297383Y-67959448D01*
X161290967Y-67964109D01*
X161290966Y-67964110D01*
X161261625Y-67985428D01*
X161251701Y-67991947D01*
X161220460Y-68010422D01*
X161220455Y-68010426D01*
X161213637Y-68014458D01*
X161199313Y-68028782D01*
X161184281Y-68041621D01*
X161167893Y-68053528D01*
X161159547Y-68063617D01*
X161139712Y-68087593D01*
X161131722Y-68096373D01*
X161007500Y-68220595D01*
X160945188Y-68254621D01*
X160918405Y-68257500D01*
X159747405Y-68257500D01*
X159679284Y-68237498D01*
X159641613Y-68199940D01*
X159553422Y-68063617D01*
X159553420Y-68063614D01*
X159550614Y-68059277D01*
X159400270Y-67894051D01*
X159396219Y-67890852D01*
X159396215Y-67890848D01*
X159229014Y-67758800D01*
X159229010Y-67758798D01*
X159224959Y-67755598D01*
X159029389Y-67647638D01*
X159024520Y-67645914D01*
X159024516Y-67645912D01*
X158823687Y-67574795D01*
X158823683Y-67574794D01*
X158818812Y-67573069D01*
X158813719Y-67572162D01*
X158813716Y-67572161D01*
X158603973Y-67534800D01*
X158603967Y-67534799D01*
X158598884Y-67533894D01*
X158525052Y-67532992D01*
X158380681Y-67531228D01*
X158380679Y-67531228D01*
X158375511Y-67531165D01*
X158154691Y-67564955D01*
X157942356Y-67634357D01*
X157744207Y-67737507D01*
X157740074Y-67740610D01*
X157740071Y-67740612D01*
X157569700Y-67868530D01*
X157565565Y-67871635D01*
X157503085Y-67937017D01*
X157484883Y-67956064D01*
X157423359Y-67991494D01*
X157352446Y-67988037D01*
X157294660Y-67946791D01*
X157275807Y-67913243D01*
X157234367Y-67802703D01*
X157231215Y-67794295D01*
X157143861Y-67677739D01*
X157027305Y-67590385D01*
X156890916Y-67539255D01*
X156828734Y-67532500D01*
X155032466Y-67532500D01*
X154970284Y-67539255D01*
X154833895Y-67590385D01*
X154717339Y-67677739D01*
X154629985Y-67794295D01*
X154578855Y-67930684D01*
X154572100Y-67992866D01*
X154572100Y-69789134D01*
X154578855Y-69851316D01*
X154629985Y-69987705D01*
X154717339Y-70104261D01*
X154833895Y-70191615D01*
X154970284Y-70242745D01*
X155032466Y-70249500D01*
X155879300Y-70249500D01*
X155947421Y-70269502D01*
X155993914Y-70323158D01*
X156005300Y-70375500D01*
X156005300Y-72485474D01*
X155985298Y-72553595D01*
X155931642Y-72600088D01*
X155923530Y-72603456D01*
X155854661Y-72629274D01*
X155842095Y-72633985D01*
X155725539Y-72721339D01*
X155638185Y-72837895D01*
X155587055Y-72974284D01*
X155580300Y-73036466D01*
X155580300Y-74232734D01*
X155587055Y-74294916D01*
X155638185Y-74431305D01*
X155725539Y-74547861D01*
X155842095Y-74635215D01*
X155850503Y-74638367D01*
X155923530Y-74665744D01*
X155980294Y-74708386D01*
X156004994Y-74774948D01*
X156005300Y-74783726D01*
X156005300Y-75895050D01*
X155985298Y-75963171D01*
X155968395Y-75984145D01*
X155957147Y-75995393D01*
X155953111Y-76002217D01*
X155953109Y-76002220D01*
X155889493Y-76109789D01*
X155872455Y-76138599D01*
X155870244Y-76146210D01*
X155870243Y-76146212D01*
X155859840Y-76182020D01*
X155826038Y-76298369D01*
X155825534Y-76304774D01*
X155825533Y-76304779D01*
X155823293Y-76333242D01*
X155823100Y-76335698D01*
X155823100Y-77643702D01*
X155823293Y-77646150D01*
X155823293Y-77646158D01*
X155825527Y-77674533D01*
X155826038Y-77681031D01*
X155834696Y-77710831D01*
X155870186Y-77832990D01*
X155872455Y-77840801D01*
X155917143Y-77916363D01*
X155934601Y-77985177D01*
X155912084Y-78052508D01*
X155856740Y-78096978D01*
X155808688Y-78106500D01*
X155807313Y-78106500D01*
X155796129Y-78105973D01*
X155788641Y-78104299D01*
X155780718Y-78104548D01*
X155720583Y-78106438D01*
X155716625Y-78106500D01*
X155688694Y-78106500D01*
X155684779Y-78106995D01*
X155684775Y-78106995D01*
X155684717Y-78107003D01*
X155684688Y-78107006D01*
X155672846Y-78107939D01*
X155628660Y-78109327D01*
X155611294Y-78114372D01*
X155609208Y-78114978D01*
X155589856Y-78118986D01*
X155577618Y-78120532D01*
X155577616Y-78120533D01*
X155569753Y-78121526D01*
X155528636Y-78137806D01*
X155517435Y-78141641D01*
X155474956Y-78153982D01*
X155468137Y-78158015D01*
X155468132Y-78158017D01*
X155457521Y-78164293D01*
X155439771Y-78172990D01*
X155420933Y-78180448D01*
X155414517Y-78185109D01*
X155414516Y-78185110D01*
X155385175Y-78206428D01*
X155375251Y-78212947D01*
X155344010Y-78231422D01*
X155344005Y-78231426D01*
X155337187Y-78235458D01*
X155322863Y-78249782D01*
X155307831Y-78262621D01*
X155291443Y-78274528D01*
X155267564Y-78303393D01*
X155263262Y-78308593D01*
X155255272Y-78317373D01*
X154995050Y-78577595D01*
X154932738Y-78611621D01*
X154905955Y-78614500D01*
X154193493Y-78614500D01*
X154125372Y-78594498D01*
X154085040Y-78552640D01*
X154024453Y-78450193D01*
X153906807Y-78332547D01*
X153902681Y-78330107D01*
X153861934Y-78273680D01*
X153858086Y-78202788D01*
X153893175Y-78141069D01*
X153903500Y-78132123D01*
X153912105Y-78125448D01*
X154018449Y-78019104D01*
X154028089Y-78006678D01*
X154104648Y-77877221D01*
X154110893Y-77862790D01*
X154153269Y-77716935D01*
X154155570Y-77704333D01*
X154157807Y-77675916D01*
X154158000Y-77670986D01*
X154158000Y-77366615D01*
X154153525Y-77351376D01*
X154152135Y-77350171D01*
X154144452Y-77348500D01*
X152560116Y-77348500D01*
X152544877Y-77352975D01*
X152543672Y-77354365D01*
X152542001Y-77362048D01*
X152542001Y-77670984D01*
X152542195Y-77675920D01*
X152544430Y-77704336D01*
X152546730Y-77716931D01*
X152589107Y-77862790D01*
X152595352Y-77877221D01*
X152672907Y-78008361D01*
X152690366Y-78077178D01*
X152667849Y-78144509D01*
X152612504Y-78188978D01*
X152564453Y-78198500D01*
X152236127Y-78198500D01*
X152168006Y-78178498D01*
X152121513Y-78124842D01*
X152111409Y-78054568D01*
X152127672Y-78008364D01*
X152209145Y-77870601D01*
X152211415Y-77862790D01*
X152253767Y-77717008D01*
X152255562Y-77710831D01*
X152256074Y-77704336D01*
X152258307Y-77675958D01*
X152258307Y-77675950D01*
X152258500Y-77673502D01*
X152258500Y-76822385D01*
X152542000Y-76822385D01*
X152546475Y-76837624D01*
X152547865Y-76838829D01*
X152555548Y-76840500D01*
X153077885Y-76840500D01*
X153093124Y-76836025D01*
X153094329Y-76834635D01*
X153096000Y-76826952D01*
X153096000Y-76822385D01*
X153604000Y-76822385D01*
X153608475Y-76837624D01*
X153609865Y-76838829D01*
X153617548Y-76840500D01*
X154139884Y-76840500D01*
X154155123Y-76836025D01*
X154156328Y-76834635D01*
X154157999Y-76826952D01*
X154157999Y-76518017D01*
X154157805Y-76513080D01*
X154155570Y-76484664D01*
X154153270Y-76472069D01*
X154110893Y-76326210D01*
X154104648Y-76311779D01*
X154028089Y-76182322D01*
X154018449Y-76169896D01*
X153912104Y-76063551D01*
X153899678Y-76053911D01*
X153770221Y-75977352D01*
X153755790Y-75971107D01*
X153621395Y-75932061D01*
X153607294Y-75932101D01*
X153604000Y-75939370D01*
X153604000Y-76822385D01*
X153096000Y-76822385D01*
X153096000Y-75945122D01*
X153092027Y-75931591D01*
X153084129Y-75930456D01*
X152944210Y-75971107D01*
X152929779Y-75977352D01*
X152800322Y-76053911D01*
X152787896Y-76063551D01*
X152681551Y-76169896D01*
X152671911Y-76182322D01*
X152595352Y-76311779D01*
X152589107Y-76326210D01*
X152546731Y-76472065D01*
X152544430Y-76484667D01*
X152542193Y-76513084D01*
X152542000Y-76518014D01*
X152542000Y-76822385D01*
X152258500Y-76822385D01*
X152258500Y-76515498D01*
X152258307Y-76513042D01*
X152256067Y-76484579D01*
X152256066Y-76484574D01*
X152255562Y-76478169D01*
X152214902Y-76338214D01*
X152211357Y-76326012D01*
X152211356Y-76326010D01*
X152209145Y-76318399D01*
X152155302Y-76227356D01*
X152128491Y-76182020D01*
X152128489Y-76182017D01*
X152124453Y-76175193D01*
X152006807Y-76057547D01*
X151999983Y-76053511D01*
X151999980Y-76053509D01*
X151870427Y-75976892D01*
X151870428Y-75976892D01*
X151863601Y-75972855D01*
X151855990Y-75970644D01*
X151855988Y-75970643D01*
X151803769Y-75955472D01*
X151703831Y-75926438D01*
X151697426Y-75925934D01*
X151697421Y-75925933D01*
X151668958Y-75923693D01*
X151668950Y-75923693D01*
X151666502Y-75923500D01*
X151233498Y-75923500D01*
X151231050Y-75923693D01*
X151231042Y-75923693D01*
X151202579Y-75925933D01*
X151202574Y-75925934D01*
X151196169Y-75926438D01*
X151096231Y-75955472D01*
X151044012Y-75970643D01*
X151044010Y-75970644D01*
X151036399Y-75972855D01*
X151029572Y-75976892D01*
X151029573Y-75976892D01*
X150900020Y-76053509D01*
X150900017Y-76053511D01*
X150893193Y-76057547D01*
X150775547Y-76175193D01*
X150771511Y-76182017D01*
X150771509Y-76182020D01*
X150744698Y-76227356D01*
X150690855Y-76318399D01*
X150688644Y-76326010D01*
X150688643Y-76326012D01*
X150685098Y-76338214D01*
X150644438Y-76478169D01*
X150643934Y-76484574D01*
X150643933Y-76484579D01*
X150641693Y-76513042D01*
X150641500Y-76515498D01*
X150641500Y-77264405D01*
X150621498Y-77332526D01*
X150604595Y-77353501D01*
X150396499Y-77561596D01*
X150334187Y-77595621D01*
X150307404Y-77598500D01*
X149027225Y-77598500D01*
X148959104Y-77578498D01*
X148919449Y-77537771D01*
X148910576Y-77523120D01*
X148906639Y-77516619D01*
X148785381Y-77395361D01*
X148638699Y-77306528D01*
X148631452Y-77304257D01*
X148631450Y-77304256D01*
X148565164Y-77283483D01*
X148475062Y-77255247D01*
X148401635Y-77248500D01*
X148398737Y-77248500D01*
X148144335Y-77248501D01*
X147888366Y-77248501D01*
X147885508Y-77248764D01*
X147885499Y-77248764D01*
X147849996Y-77252026D01*
X147814938Y-77255247D01*
X147808560Y-77257246D01*
X147808559Y-77257246D01*
X147658550Y-77304256D01*
X147658548Y-77304257D01*
X147651301Y-77306528D01*
X147504619Y-77395361D01*
X147409095Y-77490885D01*
X147346783Y-77524911D01*
X147275968Y-77519846D01*
X147230905Y-77490885D01*
X147135381Y-77395361D01*
X146988699Y-77306528D01*
X146981452Y-77304257D01*
X146981450Y-77304256D01*
X146915164Y-77283483D01*
X146825062Y-77255247D01*
X146751635Y-77248500D01*
X146748737Y-77248500D01*
X146494335Y-77248501D01*
X146238366Y-77248501D01*
X146235508Y-77248764D01*
X146235499Y-77248764D01*
X146199996Y-77252026D01*
X146164938Y-77255247D01*
X146158560Y-77257246D01*
X146158559Y-77257246D01*
X146008550Y-77304256D01*
X146008548Y-77304257D01*
X146001301Y-77306528D01*
X145854619Y-77395361D01*
X145834812Y-77415168D01*
X145772500Y-77449194D01*
X145701685Y-77444129D01*
X145694098Y-77440554D01*
X145693952Y-77440882D01*
X145525519Y-77365891D01*
X145525518Y-77365891D01*
X145519488Y-77363206D01*
X145426088Y-77343353D01*
X145339144Y-77324872D01*
X145339139Y-77324872D01*
X145332687Y-77323500D01*
X145141713Y-77323500D01*
X145135261Y-77324872D01*
X145135256Y-77324872D01*
X145048312Y-77343353D01*
X144954912Y-77363206D01*
X144948882Y-77365891D01*
X144948881Y-77365891D01*
X144786478Y-77438197D01*
X144786476Y-77438198D01*
X144780448Y-77440882D01*
X144775107Y-77444762D01*
X144775106Y-77444763D01*
X144759802Y-77455882D01*
X144625947Y-77553134D01*
X144621526Y-77558044D01*
X144621525Y-77558045D01*
X144519835Y-77670984D01*
X144498160Y-77695056D01*
X144485528Y-77716935D01*
X144411243Y-77845601D01*
X144402673Y-77860444D01*
X144343658Y-78042072D01*
X144342968Y-78048633D01*
X144342968Y-78048635D01*
X144329951Y-78172485D01*
X144323696Y-78232000D01*
X144324386Y-78238565D01*
X144335352Y-78342897D01*
X144343658Y-78421928D01*
X144402673Y-78603556D01*
X144405976Y-78609278D01*
X144405977Y-78609279D01*
X144432634Y-78655450D01*
X144498160Y-78768944D01*
X144502578Y-78773851D01*
X144502579Y-78773852D01*
X144539410Y-78814757D01*
X144625947Y-78910866D01*
X144711625Y-78973115D01*
X144771352Y-79016509D01*
X144780448Y-79023118D01*
X144786476Y-79025802D01*
X144786478Y-79025803D01*
X144915954Y-79083449D01*
X144954912Y-79100794D01*
X145048313Y-79120647D01*
X145135256Y-79139128D01*
X145135261Y-79139128D01*
X145141713Y-79140500D01*
X145332687Y-79140500D01*
X145339139Y-79139128D01*
X145339144Y-79139128D01*
X145426087Y-79120647D01*
X145519488Y-79100794D01*
X145571808Y-79077500D01*
X145693952Y-79023118D01*
X145695144Y-79025796D01*
X145751696Y-79012069D01*
X145818791Y-79035281D01*
X145834812Y-79048832D01*
X145854619Y-79068639D01*
X145903280Y-79098109D01*
X145972821Y-79140224D01*
X146020728Y-79192621D01*
X146032701Y-79262601D01*
X146004940Y-79327945D01*
X145972821Y-79355776D01*
X145854619Y-79427361D01*
X145733361Y-79548619D01*
X145644528Y-79695301D01*
X145642257Y-79702548D01*
X145642256Y-79702550D01*
X145628348Y-79746931D01*
X145593247Y-79858938D01*
X145586500Y-79932365D01*
X145586501Y-80595634D01*
X145593247Y-80669062D01*
X145595246Y-80675440D01*
X145595246Y-80675441D01*
X145638805Y-80814436D01*
X145644528Y-80832699D01*
X145733361Y-80979381D01*
X145824595Y-81070615D01*
X145858621Y-81132927D01*
X145861500Y-81159710D01*
X145861500Y-81536405D01*
X145841498Y-81604526D01*
X145824595Y-81625500D01*
X145279500Y-82170595D01*
X145217188Y-82204621D01*
X145190405Y-82207500D01*
X143881866Y-82207500D01*
X143819684Y-82214255D01*
X143683295Y-82265385D01*
X143566739Y-82352739D01*
X143479385Y-82469295D01*
X143476233Y-82477703D01*
X143476232Y-82477705D01*
X143434722Y-82588433D01*
X143392081Y-82645198D01*
X143325519Y-82669898D01*
X143256170Y-82654691D01*
X143223546Y-82629004D01*
X143172799Y-82573234D01*
X143165273Y-82566215D01*
X142998139Y-82434222D01*
X142989552Y-82428517D01*
X142803117Y-82325599D01*
X142793705Y-82321369D01*
X142592959Y-82250280D01*
X142582988Y-82247646D01*
X142511837Y-82234972D01*
X142498540Y-82236432D01*
X142494000Y-82250989D01*
X142494000Y-84884517D01*
X142498064Y-84898359D01*
X142511478Y-84900393D01*
X142518184Y-84899534D01*
X142528262Y-84897392D01*
X142732255Y-84836191D01*
X142741842Y-84832433D01*
X142933095Y-84738739D01*
X142941945Y-84733464D01*
X143115328Y-84609792D01*
X143123193Y-84603145D01*
X143227897Y-84498805D01*
X143290268Y-84464889D01*
X143361075Y-84470077D01*
X143417837Y-84512723D01*
X143434819Y-84543826D01*
X143479385Y-84662705D01*
X143566739Y-84779261D01*
X143683295Y-84866615D01*
X143819684Y-84917745D01*
X143881866Y-84924500D01*
X145678134Y-84924500D01*
X145740316Y-84917745D01*
X145876705Y-84866615D01*
X145993261Y-84779261D01*
X146080615Y-84662705D01*
X146131745Y-84526316D01*
X146138500Y-84464134D01*
X146138500Y-83155594D01*
X146158502Y-83087473D01*
X146175405Y-83066499D01*
X146887247Y-82354657D01*
X146895537Y-82347113D01*
X146902018Y-82343000D01*
X146918359Y-82325599D01*
X146948658Y-82293333D01*
X146951413Y-82290491D01*
X146971134Y-82270770D01*
X146973612Y-82267575D01*
X146981318Y-82258553D01*
X147006158Y-82232101D01*
X147011586Y-82226321D01*
X147018688Y-82213402D01*
X147021346Y-82208568D01*
X147032199Y-82192045D01*
X147039753Y-82182306D01*
X147044613Y-82176041D01*
X147062176Y-82135457D01*
X147067383Y-82124827D01*
X147088695Y-82086060D01*
X147090666Y-82078383D01*
X147090668Y-82078378D01*
X147093732Y-82066442D01*
X147100138Y-82047730D01*
X147105033Y-82036419D01*
X147108181Y-82029145D01*
X147109421Y-82021317D01*
X147109423Y-82021310D01*
X147115099Y-81985476D01*
X147117505Y-81973856D01*
X147126528Y-81938711D01*
X147126528Y-81938710D01*
X147128500Y-81931030D01*
X147128500Y-81910776D01*
X147130051Y-81891065D01*
X147131980Y-81878886D01*
X147133220Y-81871057D01*
X147129059Y-81827038D01*
X147128500Y-81815181D01*
X147128500Y-81159710D01*
X147148502Y-81091589D01*
X147165405Y-81070615D01*
X147230905Y-81005115D01*
X147293217Y-80971089D01*
X147364032Y-80976154D01*
X147409095Y-81005115D01*
X147504619Y-81100639D01*
X147651301Y-81189472D01*
X147658548Y-81191743D01*
X147658550Y-81191744D01*
X147717887Y-81210339D01*
X147814938Y-81240753D01*
X147888365Y-81247500D01*
X147891263Y-81247500D01*
X148145665Y-81247499D01*
X148401634Y-81247499D01*
X148404492Y-81247236D01*
X148404501Y-81247236D01*
X148440004Y-81243974D01*
X148475062Y-81240753D01*
X148530933Y-81223244D01*
X148631450Y-81191744D01*
X148631452Y-81191743D01*
X148638699Y-81189472D01*
X148785381Y-81100639D01*
X148906639Y-80979381D01*
X148919449Y-80958229D01*
X148971846Y-80910322D01*
X149027225Y-80897500D01*
X150797233Y-80897500D01*
X150808416Y-80898027D01*
X150815909Y-80899702D01*
X150823835Y-80899453D01*
X150823836Y-80899453D01*
X150883986Y-80897562D01*
X150887945Y-80897500D01*
X150915856Y-80897500D01*
X150919791Y-80897003D01*
X150919856Y-80896995D01*
X150931693Y-80896062D01*
X150963951Y-80895048D01*
X150967970Y-80894922D01*
X150975889Y-80894673D01*
X150995343Y-80889021D01*
X151014700Y-80885013D01*
X151026930Y-80883468D01*
X151026931Y-80883468D01*
X151034797Y-80882474D01*
X151042168Y-80879555D01*
X151042170Y-80879555D01*
X151075912Y-80866196D01*
X151087142Y-80862351D01*
X151121983Y-80852229D01*
X151121984Y-80852229D01*
X151129593Y-80850018D01*
X151136412Y-80845985D01*
X151136417Y-80845983D01*
X151147028Y-80839707D01*
X151164776Y-80831012D01*
X151183617Y-80823552D01*
X151219387Y-80797564D01*
X151229307Y-80791048D01*
X151260535Y-80772580D01*
X151260538Y-80772578D01*
X151267362Y-80768542D01*
X151275958Y-80759946D01*
X151278874Y-80758354D01*
X151279228Y-80758079D01*
X151279272Y-80758136D01*
X151338270Y-80725920D01*
X151409085Y-80730985D01*
X151465921Y-80773532D01*
X151490732Y-80840052D01*
X151490363Y-80862206D01*
X151486496Y-80899000D01*
X151487186Y-80905565D01*
X151501126Y-81038193D01*
X151506458Y-81088928D01*
X151565473Y-81270556D01*
X151568776Y-81276278D01*
X151568777Y-81276279D01*
X151599920Y-81330220D01*
X151660960Y-81435944D01*
X151665378Y-81440851D01*
X151665379Y-81440852D01*
X151704390Y-81484178D01*
X151735108Y-81548185D01*
X151726343Y-81618639D01*
X151721169Y-81629189D01*
X151705366Y-81657934D01*
X151679305Y-81705340D01*
X151639500Y-81860370D01*
X151639500Y-82081500D01*
X151619498Y-82149621D01*
X151565842Y-82196114D01*
X151513500Y-82207500D01*
X151501866Y-82207500D01*
X151439684Y-82214255D01*
X151303295Y-82265385D01*
X151186739Y-82352739D01*
X151099385Y-82469295D01*
X151096233Y-82477703D01*
X151054919Y-82587907D01*
X151012277Y-82644671D01*
X150945716Y-82669371D01*
X150876367Y-82654163D01*
X150843743Y-82628476D01*
X150793151Y-82572875D01*
X150793142Y-82572866D01*
X150789670Y-82569051D01*
X150785619Y-82565852D01*
X150785615Y-82565848D01*
X150618414Y-82433800D01*
X150618410Y-82433798D01*
X150614359Y-82430598D01*
X150578028Y-82410542D01*
X150535995Y-82387339D01*
X150418789Y-82322638D01*
X150413920Y-82320914D01*
X150413916Y-82320912D01*
X150213087Y-82249795D01*
X150213083Y-82249794D01*
X150208212Y-82248069D01*
X150203119Y-82247162D01*
X150203116Y-82247161D01*
X149993373Y-82209800D01*
X149993367Y-82209799D01*
X149988284Y-82208894D01*
X149914452Y-82207992D01*
X149770081Y-82206228D01*
X149770079Y-82206228D01*
X149764911Y-82206165D01*
X149544091Y-82239955D01*
X149331756Y-82309357D01*
X149133607Y-82412507D01*
X149129474Y-82415610D01*
X149129471Y-82415612D01*
X149004817Y-82509205D01*
X148954965Y-82546635D01*
X148923482Y-82579580D01*
X148861280Y-82644671D01*
X148800629Y-82708138D01*
X148797715Y-82712410D01*
X148797714Y-82712411D01*
X148712556Y-82837249D01*
X148674743Y-82892680D01*
X148580688Y-83095305D01*
X148520989Y-83310570D01*
X148497251Y-83532695D01*
X148497548Y-83537848D01*
X148497548Y-83537851D01*
X148503954Y-83648957D01*
X148510110Y-83755715D01*
X148511247Y-83760761D01*
X148511248Y-83760767D01*
X148525493Y-83823973D01*
X148559222Y-83973639D01*
X148603967Y-84083834D01*
X148639110Y-84170380D01*
X148643266Y-84180616D01*
X148650200Y-84191931D01*
X148732702Y-84326562D01*
X148759987Y-84371088D01*
X148906250Y-84539938D01*
X149078126Y-84682632D01*
X149271000Y-84795338D01*
X149479692Y-84875030D01*
X149484760Y-84876061D01*
X149484763Y-84876062D01*
X149579862Y-84895410D01*
X149698597Y-84919567D01*
X149703772Y-84919757D01*
X149703774Y-84919757D01*
X149916673Y-84927564D01*
X149916677Y-84927564D01*
X149921837Y-84927753D01*
X149926957Y-84927097D01*
X149926959Y-84927097D01*
X150138288Y-84900025D01*
X150138289Y-84900025D01*
X150143416Y-84899368D01*
X150148366Y-84897883D01*
X150352429Y-84836661D01*
X150352434Y-84836659D01*
X150357384Y-84835174D01*
X150557994Y-84736896D01*
X150739860Y-84607173D01*
X150848091Y-84499319D01*
X150910462Y-84465404D01*
X150981268Y-84470592D01*
X151038030Y-84513238D01*
X151055012Y-84544341D01*
X151099385Y-84662705D01*
X151186739Y-84779261D01*
X151303295Y-84866615D01*
X151439684Y-84917745D01*
X151501866Y-84924500D01*
X153298134Y-84924500D01*
X153360316Y-84917745D01*
X153496705Y-84866615D01*
X153613261Y-84779261D01*
X153700615Y-84662705D01*
X153751745Y-84526316D01*
X153758500Y-84464134D01*
X153758500Y-84452500D01*
X153778502Y-84384379D01*
X153832158Y-84337886D01*
X153884500Y-84326500D01*
X154118433Y-84326500D01*
X154129616Y-84327027D01*
X154137109Y-84328702D01*
X154145035Y-84328453D01*
X154145036Y-84328453D01*
X154205186Y-84326562D01*
X154209145Y-84326500D01*
X154237056Y-84326500D01*
X154240991Y-84326003D01*
X154241056Y-84325995D01*
X154252893Y-84325062D01*
X154285151Y-84324048D01*
X154289170Y-84323922D01*
X154297089Y-84323673D01*
X154316543Y-84318021D01*
X154335900Y-84314013D01*
X154348130Y-84312468D01*
X154348131Y-84312468D01*
X154355997Y-84311474D01*
X154363368Y-84308555D01*
X154363370Y-84308555D01*
X154397112Y-84295196D01*
X154408342Y-84291351D01*
X154443183Y-84281229D01*
X154443184Y-84281229D01*
X154450793Y-84279018D01*
X154457612Y-84274985D01*
X154457617Y-84274983D01*
X154468228Y-84268707D01*
X154485976Y-84260012D01*
X154504817Y-84252552D01*
X154540587Y-84226564D01*
X154550507Y-84220048D01*
X154581735Y-84201580D01*
X154581738Y-84201578D01*
X154588562Y-84197542D01*
X154602883Y-84183221D01*
X154617917Y-84170380D01*
X154627894Y-84163131D01*
X154634307Y-84158472D01*
X154662498Y-84124395D01*
X154670488Y-84115616D01*
X156276900Y-82509205D01*
X156339212Y-82475179D01*
X156365995Y-82472300D01*
X156599841Y-82472300D01*
X156667962Y-82492302D01*
X156714455Y-82545958D01*
X156724559Y-82616232D01*
X156707102Y-82664413D01*
X156662298Y-82737099D01*
X156608451Y-82899443D01*
X156598100Y-83000468D01*
X156598100Y-83547932D01*
X156608713Y-83650219D01*
X156610895Y-83656759D01*
X156660137Y-83804353D01*
X156662844Y-83812468D01*
X156666696Y-83818692D01*
X156666696Y-83818693D01*
X156676147Y-83833966D01*
X156752848Y-83957913D01*
X156758031Y-83963087D01*
X156773191Y-83978221D01*
X156807269Y-84040504D01*
X156802266Y-84111324D01*
X156793296Y-84130384D01*
X156747073Y-84210444D01*
X156688058Y-84392072D01*
X156687368Y-84398633D01*
X156687368Y-84398635D01*
X156673171Y-84533715D01*
X156668096Y-84582000D01*
X156688058Y-84771928D01*
X156747073Y-84953556D01*
X156842560Y-85118944D01*
X156970347Y-85260866D01*
X157124848Y-85373118D01*
X157130876Y-85375802D01*
X157130878Y-85375803D01*
X157293281Y-85448109D01*
X157299312Y-85450794D01*
X157392712Y-85470647D01*
X157479656Y-85489128D01*
X157479661Y-85489128D01*
X157486113Y-85490500D01*
X157677087Y-85490500D01*
X157683539Y-85489128D01*
X157683544Y-85489128D01*
X157770488Y-85470647D01*
X157863888Y-85450794D01*
X157869919Y-85448109D01*
X158032322Y-85375803D01*
X158032324Y-85375802D01*
X158038352Y-85373118D01*
X158192853Y-85260866D01*
X158320640Y-85118944D01*
X158416127Y-84953556D01*
X158475142Y-84771928D01*
X158495104Y-84582000D01*
X158490029Y-84533715D01*
X158475832Y-84398635D01*
X158475832Y-84398633D01*
X158475142Y-84392072D01*
X158416127Y-84210444D01*
X158369857Y-84130303D01*
X158353120Y-84061311D01*
X158376340Y-83994219D01*
X158389804Y-83978287D01*
X158405981Y-83962082D01*
X158411152Y-83956902D01*
X158495540Y-83820000D01*
X158497062Y-83817531D01*
X158497063Y-83817529D01*
X158500902Y-83811301D01*
X158554749Y-83648957D01*
X158565100Y-83547932D01*
X158565100Y-83000468D01*
X158554487Y-82898181D01*
X158542904Y-82863463D01*
X158502673Y-82742876D01*
X158502672Y-82742874D01*
X158500356Y-82735932D01*
X158458236Y-82667866D01*
X158414205Y-82596713D01*
X158414204Y-82596712D01*
X158410352Y-82590487D01*
X158405170Y-82585314D01*
X158400625Y-82579580D01*
X158402545Y-82578058D01*
X158374055Y-82525994D01*
X158379056Y-82455174D01*
X158402482Y-82418648D01*
X158401443Y-82417828D01*
X158405981Y-82412082D01*
X158411152Y-82406902D01*
X158423211Y-82387339D01*
X158497062Y-82267531D01*
X158497063Y-82267529D01*
X158500902Y-82261301D01*
X158554749Y-82098957D01*
X158556071Y-82086060D01*
X158561902Y-82029145D01*
X158565100Y-81997932D01*
X158565100Y-81450468D01*
X158554487Y-81348181D01*
X158518646Y-81240753D01*
X158502673Y-81192876D01*
X158502672Y-81192874D01*
X158500356Y-81185932D01*
X158410352Y-81040487D01*
X158379082Y-81009272D01*
X158345003Y-80946991D01*
X158342100Y-80920099D01*
X158342100Y-79729069D01*
X158347103Y-79693916D01*
X158384556Y-79565000D01*
X158387162Y-79556031D01*
X158387746Y-79548619D01*
X158389907Y-79521158D01*
X158389907Y-79521150D01*
X158390100Y-79518702D01*
X158390100Y-78214078D01*
X158785600Y-78214078D01*
X158789573Y-78227609D01*
X158797471Y-78228744D01*
X158937390Y-78188093D01*
X158951821Y-78181848D01*
X159081278Y-78105289D01*
X159093704Y-78095649D01*
X159200049Y-77989304D01*
X159209689Y-77976878D01*
X159286248Y-77847421D01*
X159292493Y-77832990D01*
X159334869Y-77687135D01*
X159337170Y-77674533D01*
X159339407Y-77646116D01*
X159339600Y-77641186D01*
X159339600Y-77261815D01*
X159335125Y-77246576D01*
X159333735Y-77245371D01*
X159326052Y-77243700D01*
X158803715Y-77243700D01*
X158788476Y-77248175D01*
X158787271Y-77249565D01*
X158785600Y-77257248D01*
X158785600Y-78214078D01*
X158390100Y-78214078D01*
X158390100Y-78210698D01*
X158389764Y-78206428D01*
X158387667Y-78179779D01*
X158387666Y-78179774D01*
X158387162Y-78173369D01*
X158358128Y-78073431D01*
X158342957Y-78021212D01*
X158342956Y-78021210D01*
X158340745Y-78013599D01*
X158295147Y-77936497D01*
X158277600Y-77872358D01*
X158277600Y-77261815D01*
X158273125Y-77246576D01*
X158271735Y-77245371D01*
X158264052Y-77243700D01*
X157741716Y-77243700D01*
X157726477Y-77248175D01*
X157725272Y-77249565D01*
X157723601Y-77257248D01*
X157723601Y-77492700D01*
X157703599Y-77560821D01*
X157649943Y-77607314D01*
X157597601Y-77618700D01*
X157566100Y-77618700D01*
X157497979Y-77598698D01*
X157451486Y-77545042D01*
X157440100Y-77492700D01*
X157440100Y-76717585D01*
X157723600Y-76717585D01*
X157728075Y-76732824D01*
X157729465Y-76734029D01*
X157737148Y-76735700D01*
X158259485Y-76735700D01*
X158274724Y-76731225D01*
X158275929Y-76729835D01*
X158277600Y-76722152D01*
X158277600Y-76717585D01*
X158785600Y-76717585D01*
X158790075Y-76732824D01*
X158791465Y-76734029D01*
X158799148Y-76735700D01*
X159321484Y-76735700D01*
X159336723Y-76731225D01*
X159337928Y-76729835D01*
X159339599Y-76722152D01*
X159339599Y-76338217D01*
X159339405Y-76333280D01*
X159337170Y-76304864D01*
X159334870Y-76292269D01*
X159292493Y-76146410D01*
X159286248Y-76131979D01*
X159209689Y-76002522D01*
X159200049Y-75990096D01*
X159093704Y-75883751D01*
X159081278Y-75874111D01*
X158951821Y-75797552D01*
X158937390Y-75791307D01*
X158802995Y-75752261D01*
X158788894Y-75752301D01*
X158785600Y-75759570D01*
X158785600Y-76717585D01*
X158277600Y-76717585D01*
X158277600Y-75765322D01*
X158273627Y-75751791D01*
X158265729Y-75750656D01*
X158125810Y-75791307D01*
X158111379Y-75797552D01*
X157981922Y-75874111D01*
X157969496Y-75883751D01*
X157863151Y-75990096D01*
X157853511Y-76002522D01*
X157776952Y-76131979D01*
X157770707Y-76146410D01*
X157728331Y-76292265D01*
X157726030Y-76304867D01*
X157723793Y-76333284D01*
X157723600Y-76338214D01*
X157723600Y-76717585D01*
X157440100Y-76717585D01*
X157440100Y-76335698D01*
X157439907Y-76333242D01*
X157437667Y-76304779D01*
X157437666Y-76304774D01*
X157437162Y-76298369D01*
X157403360Y-76182020D01*
X157392957Y-76146212D01*
X157392956Y-76146210D01*
X157390745Y-76138599D01*
X157306053Y-75995393D01*
X157300443Y-75989783D01*
X157298742Y-75987590D01*
X157272794Y-75921505D01*
X157272300Y-75910362D01*
X157272300Y-74783726D01*
X157292302Y-74715605D01*
X157345958Y-74669112D01*
X157354070Y-74665744D01*
X157427097Y-74638367D01*
X157435505Y-74635215D01*
X157552061Y-74547861D01*
X157639415Y-74431305D01*
X157690545Y-74294916D01*
X157697300Y-74232734D01*
X157697300Y-74229269D01*
X158380801Y-74229269D01*
X158381171Y-74236090D01*
X158386695Y-74286952D01*
X158390321Y-74302204D01*
X158435476Y-74422654D01*
X158444014Y-74438249D01*
X158520515Y-74540324D01*
X158533076Y-74552885D01*
X158635151Y-74629386D01*
X158650746Y-74637924D01*
X158771194Y-74683078D01*
X158786449Y-74686705D01*
X158837314Y-74692231D01*
X158844128Y-74692600D01*
X159166685Y-74692600D01*
X159181924Y-74688125D01*
X159183129Y-74686735D01*
X159184800Y-74679052D01*
X159184800Y-74674484D01*
X159692800Y-74674484D01*
X159697275Y-74689723D01*
X159698665Y-74690928D01*
X159706348Y-74692599D01*
X160033469Y-74692599D01*
X160040290Y-74692229D01*
X160091152Y-74686705D01*
X160106404Y-74683079D01*
X160226854Y-74637924D01*
X160242449Y-74629386D01*
X160344524Y-74552885D01*
X160357085Y-74540324D01*
X160433586Y-74438249D01*
X160442124Y-74422654D01*
X160487278Y-74302206D01*
X160490905Y-74286951D01*
X160496431Y-74236086D01*
X160496800Y-74229272D01*
X160496800Y-73906715D01*
X160492325Y-73891476D01*
X160490935Y-73890271D01*
X160483252Y-73888600D01*
X159710915Y-73888600D01*
X159695676Y-73893075D01*
X159694471Y-73894465D01*
X159692800Y-73902148D01*
X159692800Y-74674484D01*
X159184800Y-74674484D01*
X159184800Y-73906715D01*
X159180325Y-73891476D01*
X159178935Y-73890271D01*
X159171252Y-73888600D01*
X158398916Y-73888600D01*
X158383677Y-73893075D01*
X158382472Y-73894465D01*
X158380801Y-73902148D01*
X158380801Y-74229269D01*
X157697300Y-74229269D01*
X157697300Y-73362485D01*
X158380800Y-73362485D01*
X158385275Y-73377724D01*
X158386665Y-73378929D01*
X158394348Y-73380600D01*
X159166685Y-73380600D01*
X159181924Y-73376125D01*
X159183129Y-73374735D01*
X159184800Y-73367052D01*
X159184800Y-73362485D01*
X159692800Y-73362485D01*
X159697275Y-73377724D01*
X159698665Y-73378929D01*
X159706348Y-73380600D01*
X160478684Y-73380600D01*
X160493923Y-73376125D01*
X160495128Y-73374735D01*
X160496799Y-73367052D01*
X160496799Y-73039931D01*
X160496429Y-73033110D01*
X160490905Y-72982248D01*
X160487279Y-72966996D01*
X160442124Y-72846546D01*
X160433586Y-72830951D01*
X160357085Y-72728876D01*
X160344524Y-72716315D01*
X160242449Y-72639814D01*
X160226854Y-72631276D01*
X160106406Y-72586122D01*
X160091151Y-72582495D01*
X160040286Y-72576969D01*
X160033472Y-72576600D01*
X159710915Y-72576600D01*
X159695676Y-72581075D01*
X159694471Y-72582465D01*
X159692800Y-72590148D01*
X159692800Y-73362485D01*
X159184800Y-73362485D01*
X159184800Y-72594716D01*
X159180325Y-72579477D01*
X159178935Y-72578272D01*
X159171252Y-72576601D01*
X158844131Y-72576601D01*
X158837310Y-72576971D01*
X158786448Y-72582495D01*
X158771196Y-72586121D01*
X158650746Y-72631276D01*
X158635151Y-72639814D01*
X158533076Y-72716315D01*
X158520515Y-72728876D01*
X158444014Y-72830951D01*
X158435476Y-72846546D01*
X158390322Y-72966994D01*
X158386695Y-72982249D01*
X158381169Y-73033114D01*
X158380800Y-73039928D01*
X158380800Y-73362485D01*
X157697300Y-73362485D01*
X157697300Y-73036466D01*
X157690545Y-72974284D01*
X157639415Y-72837895D01*
X157552061Y-72721339D01*
X157435505Y-72633985D01*
X157422939Y-72629274D01*
X157354070Y-72603456D01*
X157297306Y-72560814D01*
X157272606Y-72494252D01*
X157272300Y-72485474D01*
X157272300Y-69920523D01*
X157292302Y-69852402D01*
X157345958Y-69805909D01*
X157416232Y-69795805D01*
X157480812Y-69825299D01*
X157493537Y-69838025D01*
X157513465Y-69861031D01*
X157513469Y-69861035D01*
X157516850Y-69864938D01*
X157688726Y-70007632D01*
X157881600Y-70120338D01*
X158090292Y-70200030D01*
X158095360Y-70201061D01*
X158095363Y-70201062D01*
X158202617Y-70222883D01*
X158309197Y-70244567D01*
X158314372Y-70244757D01*
X158314374Y-70244757D01*
X158527273Y-70252564D01*
X158527277Y-70252564D01*
X158532437Y-70252753D01*
X158537557Y-70252097D01*
X158537559Y-70252097D01*
X158748888Y-70225025D01*
X158748889Y-70225025D01*
X158754016Y-70224368D01*
X158758966Y-70222883D01*
X158963029Y-70161661D01*
X158963034Y-70161659D01*
X158967984Y-70160174D01*
X159168594Y-70061896D01*
X159350460Y-69932173D01*
X159508696Y-69774489D01*
X159530212Y-69744547D01*
X159636035Y-69597277D01*
X159639053Y-69593077D01*
X159641346Y-69588437D01*
X159643046Y-69585608D01*
X159695274Y-69537518D01*
X159751051Y-69524500D01*
X161154233Y-69524500D01*
X161165416Y-69525027D01*
X161172909Y-69526702D01*
X161180835Y-69526453D01*
X161180836Y-69526453D01*
X161240986Y-69524562D01*
X161244945Y-69524500D01*
X161272856Y-69524500D01*
X161276791Y-69524003D01*
X161276856Y-69523995D01*
X161288693Y-69523062D01*
X161320951Y-69522048D01*
X161324970Y-69521922D01*
X161332889Y-69521673D01*
X161352343Y-69516021D01*
X161371700Y-69512013D01*
X161383930Y-69510468D01*
X161383931Y-69510468D01*
X161391797Y-69509474D01*
X161399168Y-69506555D01*
X161399170Y-69506555D01*
X161432912Y-69493196D01*
X161444142Y-69489351D01*
X161478983Y-69479229D01*
X161478984Y-69479229D01*
X161486593Y-69477018D01*
X161493412Y-69472985D01*
X161493417Y-69472983D01*
X161504028Y-69466707D01*
X161521776Y-69458012D01*
X161540617Y-69450552D01*
X161576387Y-69424564D01*
X161586307Y-69418048D01*
X161617535Y-69399580D01*
X161617538Y-69399578D01*
X161624362Y-69395542D01*
X161638683Y-69381221D01*
X161653717Y-69368380D01*
X161663694Y-69361131D01*
X161670107Y-69356472D01*
X161698298Y-69322395D01*
X161706288Y-69313616D01*
X161830499Y-69189405D01*
X161892811Y-69155379D01*
X161919594Y-69152500D01*
X162315050Y-69152500D01*
X162383171Y-69172502D01*
X162396271Y-69183059D01*
X162396325Y-69182989D01*
X162402585Y-69187845D01*
X162408193Y-69193453D01*
X162415017Y-69197489D01*
X162415020Y-69197491D01*
X162522589Y-69261107D01*
X162551399Y-69278145D01*
X162559010Y-69280356D01*
X162559012Y-69280357D01*
X162603153Y-69293181D01*
X162662989Y-69331394D01*
X162692666Y-69395890D01*
X162694000Y-69414178D01*
X162694000Y-69523822D01*
X162673998Y-69591943D01*
X162620342Y-69638436D01*
X162603153Y-69644819D01*
X162559012Y-69657643D01*
X162559010Y-69657644D01*
X162551399Y-69659855D01*
X162544572Y-69663892D01*
X162544573Y-69663892D01*
X162415020Y-69740509D01*
X162415017Y-69740511D01*
X162408193Y-69744547D01*
X162290547Y-69862193D01*
X162286511Y-69869017D01*
X162286509Y-69869020D01*
X162251316Y-69928529D01*
X162205855Y-70005399D01*
X162159438Y-70165169D01*
X162158934Y-70171574D01*
X162158933Y-70171579D01*
X162157108Y-70194767D01*
X162156500Y-70202498D01*
X162156500Y-70635502D01*
X162159438Y-70672831D01*
X162205855Y-70832601D01*
X162209892Y-70839427D01*
X162286509Y-70968980D01*
X162286511Y-70968983D01*
X162290547Y-70975807D01*
X162408193Y-71093453D01*
X162415017Y-71097489D01*
X162415020Y-71097491D01*
X162522589Y-71161107D01*
X162551399Y-71178145D01*
X162559010Y-71180356D01*
X162559012Y-71180357D01*
X162603153Y-71193181D01*
X162662989Y-71231394D01*
X162692666Y-71295890D01*
X162694000Y-71314178D01*
X162694000Y-72300425D01*
X162673998Y-72368546D01*
X162634304Y-72407568D01*
X162540652Y-72465522D01*
X162415695Y-72590697D01*
X162411855Y-72596927D01*
X162411854Y-72596928D01*
X162338263Y-72716315D01*
X162322885Y-72741262D01*
X162267203Y-72909139D01*
X162256500Y-73013600D01*
X162256500Y-74814400D01*
X162256837Y-74817646D01*
X162256837Y-74817650D01*
X162263343Y-74880348D01*
X162267474Y-74920166D01*
X162323450Y-75087946D01*
X162416522Y-75238348D01*
X162541697Y-75363305D01*
X162547927Y-75367145D01*
X162547928Y-75367146D01*
X162692262Y-75456115D01*
X162691226Y-75457795D01*
X162737031Y-75498121D01*
X162756500Y-75565405D01*
X162756500Y-76489849D01*
X162736498Y-76557970D01*
X162696804Y-76596992D01*
X162625287Y-76641248D01*
X162504448Y-76762298D01*
X162500608Y-76768528D01*
X162500607Y-76768529D01*
X162464595Y-76826952D01*
X162414698Y-76907899D01*
X162360851Y-77070243D01*
X162350500Y-77171268D01*
X162350500Y-77768732D01*
X162361113Y-77871019D01*
X162363295Y-77877559D01*
X162411222Y-78021212D01*
X162415244Y-78033268D01*
X162419096Y-78039492D01*
X162419096Y-78039493D01*
X162484082Y-78144509D01*
X162505248Y-78178713D01*
X162626298Y-78299552D01*
X162632528Y-78303392D01*
X162632529Y-78303393D01*
X162696616Y-78342897D01*
X162744110Y-78395670D01*
X162756500Y-78450157D01*
X162756500Y-78781664D01*
X162736498Y-78849785D01*
X162682842Y-78896278D01*
X162665653Y-78902661D01*
X162559012Y-78933643D01*
X162559010Y-78933644D01*
X162551399Y-78935855D01*
X162544572Y-78939892D01*
X162544573Y-78939892D01*
X162415020Y-79016509D01*
X162415017Y-79016511D01*
X162408193Y-79020547D01*
X162290547Y-79138193D01*
X162286511Y-79145017D01*
X162286509Y-79145020D01*
X162234242Y-79233399D01*
X162205855Y-79281399D01*
X162203644Y-79289010D01*
X162203643Y-79289012D01*
X162192332Y-79327945D01*
X162159438Y-79441169D01*
X162156500Y-79478498D01*
X162156500Y-79911502D01*
X162159438Y-79948831D01*
X162171983Y-79992011D01*
X162199700Y-80087414D01*
X162205855Y-80108601D01*
X162209892Y-80115427D01*
X162286509Y-80244980D01*
X162286511Y-80244983D01*
X162290547Y-80251807D01*
X162408193Y-80369453D01*
X162415017Y-80373489D01*
X162415020Y-80373491D01*
X162461272Y-80400844D01*
X162551399Y-80454145D01*
X162559010Y-80456356D01*
X162559012Y-80456357D01*
X162603153Y-80469181D01*
X162662989Y-80507394D01*
X162692666Y-80571890D01*
X162694000Y-80590178D01*
X162694000Y-80699822D01*
X162673998Y-80767943D01*
X162620342Y-80814436D01*
X162603153Y-80820819D01*
X162559012Y-80833643D01*
X162559010Y-80833644D01*
X162551399Y-80835855D01*
X162544572Y-80839892D01*
X162544573Y-80839892D01*
X162415020Y-80916509D01*
X162415017Y-80916511D01*
X162408193Y-80920547D01*
X162290547Y-81038193D01*
X162286511Y-81045017D01*
X162286509Y-81045020D01*
X162256796Y-81095263D01*
X162205855Y-81181399D01*
X162203644Y-81189010D01*
X162203643Y-81189012D01*
X162198090Y-81208126D01*
X162159438Y-81341169D01*
X162158934Y-81347574D01*
X162158933Y-81347579D01*
X162156907Y-81373328D01*
X162156500Y-81378498D01*
X162156500Y-81811502D01*
X162156693Y-81813950D01*
X162156693Y-81813958D01*
X162157723Y-81827039D01*
X162159438Y-81848831D01*
X162168170Y-81878886D01*
X162199137Y-81985476D01*
X162205855Y-82008601D01*
X162209892Y-82015427D01*
X162286509Y-82144980D01*
X162286511Y-82144983D01*
X162290547Y-82151807D01*
X162408193Y-82269453D01*
X162415017Y-82273489D01*
X162415020Y-82273491D01*
X162479708Y-82311747D01*
X162551399Y-82354145D01*
X162559010Y-82356356D01*
X162559012Y-82356357D01*
X162665653Y-82387339D01*
X162725488Y-82425552D01*
X162755166Y-82490048D01*
X162756500Y-82508336D01*
X162756500Y-83438613D01*
X162736498Y-83506734D01*
X162690270Y-83547184D01*
X162691054Y-83548450D01*
X162540652Y-83641522D01*
X162415695Y-83766697D01*
X162411855Y-83772927D01*
X162411854Y-83772928D01*
X162374230Y-83833966D01*
X162322885Y-83917262D01*
X162267203Y-84085139D01*
X162256500Y-84189600D01*
X162256500Y-85990400D01*
X162267474Y-86096166D01*
X162323450Y-86263946D01*
X162416522Y-86414348D01*
X162541697Y-86539305D01*
X162692262Y-86632115D01*
X162772005Y-86658564D01*
X162853611Y-86685632D01*
X162853613Y-86685632D01*
X162860139Y-86687797D01*
X162866975Y-86688497D01*
X162866978Y-86688498D01*
X162910031Y-86692909D01*
X162964600Y-86698500D01*
X163119800Y-86698500D01*
X163187921Y-86718502D01*
X163234414Y-86772158D01*
X163245800Y-86824500D01*
X163245800Y-86996000D01*
X163225798Y-87064121D01*
X163172142Y-87110614D01*
X163119800Y-87122000D01*
X140334000Y-87122000D01*
X140265879Y-87101998D01*
X140219386Y-87048342D01*
X140208000Y-86996000D01*
X140208000Y-83833966D01*
X140908257Y-83833966D01*
X140938565Y-83968446D01*
X140941645Y-83978275D01*
X141021770Y-84175603D01*
X141026413Y-84184794D01*
X141137694Y-84366388D01*
X141143777Y-84374699D01*
X141283213Y-84535667D01*
X141290580Y-84542883D01*
X141454434Y-84678916D01*
X141462881Y-84684831D01*
X141646756Y-84792279D01*
X141656042Y-84796729D01*
X141855001Y-84872703D01*
X141864899Y-84875579D01*
X141968250Y-84896606D01*
X141982299Y-84895410D01*
X141986000Y-84885065D01*
X141986000Y-83838115D01*
X141981525Y-83822876D01*
X141980135Y-83821671D01*
X141972452Y-83820000D01*
X140923225Y-83820000D01*
X140909694Y-83823973D01*
X140908257Y-83833966D01*
X140208000Y-83833966D01*
X140208000Y-83300183D01*
X140904389Y-83300183D01*
X140905912Y-83308607D01*
X140918292Y-83312000D01*
X141967885Y-83312000D01*
X141983124Y-83307525D01*
X141984329Y-83306135D01*
X141986000Y-83298452D01*
X141986000Y-82249102D01*
X141982082Y-82235758D01*
X141967806Y-82233771D01*
X141929324Y-82239660D01*
X141919288Y-82242051D01*
X141716868Y-82308212D01*
X141707359Y-82312209D01*
X141518463Y-82410542D01*
X141509738Y-82416036D01*
X141339433Y-82543905D01*
X141331726Y-82550748D01*
X141184590Y-82704717D01*
X141178104Y-82712727D01*
X141058098Y-82888649D01*
X141053000Y-82897623D01*
X140963338Y-83090783D01*
X140959775Y-83100470D01*
X140904389Y-83300183D01*
X140208000Y-83300183D01*
X140208000Y-80083294D01*
X141257709Y-80083294D01*
X141263132Y-80142315D01*
X141265743Y-80155351D01*
X141312715Y-80305243D01*
X141318921Y-80318988D01*
X141399824Y-80452574D01*
X141409131Y-80464443D01*
X141519557Y-80574869D01*
X141531426Y-80584176D01*
X141665012Y-80665079D01*
X141678757Y-80671285D01*
X141828644Y-80718256D01*
X141841694Y-80720869D01*
X141905521Y-80726734D01*
X141911309Y-80727000D01*
X141967885Y-80727000D01*
X141983124Y-80722525D01*
X141984329Y-80721135D01*
X141986000Y-80713452D01*
X141986000Y-80708884D01*
X142494000Y-80708884D01*
X142498475Y-80724123D01*
X142499865Y-80725328D01*
X142507548Y-80726999D01*
X142568705Y-80726999D01*
X142574454Y-80726736D01*
X142638315Y-80720868D01*
X142651351Y-80718257D01*
X142801243Y-80671285D01*
X142814988Y-80665079D01*
X142948574Y-80584176D01*
X142960443Y-80574869D01*
X143070869Y-80464443D01*
X143080176Y-80452574D01*
X143161079Y-80318988D01*
X143167285Y-80305243D01*
X143214256Y-80155356D01*
X143216869Y-80142306D01*
X143221913Y-80087414D01*
X143218525Y-80075876D01*
X143217135Y-80074671D01*
X143209452Y-80073000D01*
X142512115Y-80073000D01*
X142496876Y-80077475D01*
X142495671Y-80078865D01*
X142494000Y-80086548D01*
X142494000Y-80708884D01*
X141986000Y-80708884D01*
X141986000Y-80091115D01*
X141981525Y-80075876D01*
X141980135Y-80074671D01*
X141972452Y-80073000D01*
X141275116Y-80073000D01*
X141259877Y-80077475D01*
X141258672Y-80078865D01*
X141257709Y-80083294D01*
X140208000Y-80083294D01*
X140208000Y-77912365D01*
X141256500Y-77912365D01*
X141256501Y-78425634D01*
X141256764Y-78428492D01*
X141256764Y-78428501D01*
X141258242Y-78444584D01*
X141263247Y-78499062D01*
X141265246Y-78505440D01*
X141265246Y-78505441D01*
X141295994Y-78603556D01*
X141314528Y-78662699D01*
X141403361Y-78809381D01*
X141499239Y-78905259D01*
X141533265Y-78967571D01*
X141528200Y-79038386D01*
X141499239Y-79083449D01*
X141409131Y-79173557D01*
X141399824Y-79185426D01*
X141318921Y-79319012D01*
X141312715Y-79332757D01*
X141265744Y-79482644D01*
X141263131Y-79495694D01*
X141258087Y-79550586D01*
X141261475Y-79562124D01*
X141262865Y-79563329D01*
X141270548Y-79565000D01*
X143204884Y-79565000D01*
X143220123Y-79560525D01*
X143221328Y-79559135D01*
X143222291Y-79554706D01*
X143216868Y-79495685D01*
X143214257Y-79482649D01*
X143167285Y-79332757D01*
X143161079Y-79319012D01*
X143080176Y-79185426D01*
X143070869Y-79173557D01*
X142980761Y-79083449D01*
X142946735Y-79021137D01*
X142951800Y-78950322D01*
X142980761Y-78905259D01*
X143076639Y-78809381D01*
X143165472Y-78662699D01*
X143216753Y-78499062D01*
X143223500Y-78425635D01*
X143223499Y-77912366D01*
X143223234Y-77909474D01*
X143219070Y-77864163D01*
X143216753Y-77838938D01*
X143178542Y-77717008D01*
X143167744Y-77682550D01*
X143167743Y-77682548D01*
X143165472Y-77675301D01*
X143076639Y-77528619D01*
X143071263Y-77523243D01*
X143066581Y-77517272D01*
X143067895Y-77516241D01*
X143038241Y-77461935D01*
X143043306Y-77391120D01*
X143052244Y-77372151D01*
X143071222Y-77339281D01*
X143071223Y-77339278D01*
X143074527Y-77333556D01*
X143133542Y-77151928D01*
X143153504Y-76962000D01*
X143133542Y-76772072D01*
X143074527Y-76590444D01*
X142979040Y-76425056D01*
X142962620Y-76406819D01*
X142855675Y-76288045D01*
X142855674Y-76288044D01*
X142851253Y-76283134D01*
X142696752Y-76170882D01*
X142690724Y-76168198D01*
X142690722Y-76168197D01*
X142528319Y-76095891D01*
X142528318Y-76095891D01*
X142522288Y-76093206D01*
X142428887Y-76073353D01*
X142341944Y-76054872D01*
X142341939Y-76054872D01*
X142335487Y-76053500D01*
X142144513Y-76053500D01*
X142138061Y-76054872D01*
X142138056Y-76054872D01*
X142051113Y-76073353D01*
X141957712Y-76093206D01*
X141951682Y-76095891D01*
X141951681Y-76095891D01*
X141789278Y-76168197D01*
X141789276Y-76168198D01*
X141783248Y-76170882D01*
X141628747Y-76283134D01*
X141624326Y-76288044D01*
X141624325Y-76288045D01*
X141517381Y-76406819D01*
X141500960Y-76425056D01*
X141405473Y-76590444D01*
X141346458Y-76772072D01*
X141326496Y-76962000D01*
X141346458Y-77151928D01*
X141405473Y-77333556D01*
X141408777Y-77339278D01*
X141408778Y-77339281D01*
X141427756Y-77372151D01*
X141444495Y-77441146D01*
X141421275Y-77508238D01*
X141410701Y-77520739D01*
X141408739Y-77523241D01*
X141403361Y-77528619D01*
X141314528Y-77675301D01*
X141312257Y-77682548D01*
X141312256Y-77682550D01*
X141301458Y-77717008D01*
X141263247Y-77838938D01*
X141256500Y-77912365D01*
X140208000Y-77912365D01*
X140208000Y-75517364D01*
X144601500Y-75517364D01*
X144604619Y-75574957D01*
X144649620Y-75805393D01*
X144732804Y-76024952D01*
X144851791Y-76227356D01*
X145003181Y-76406819D01*
X145182644Y-76558209D01*
X145385048Y-76677196D01*
X145604607Y-76760380D01*
X145835043Y-76805381D01*
X145839401Y-76805617D01*
X145890948Y-76808409D01*
X145890963Y-76808409D01*
X145892636Y-76808500D01*
X147827364Y-76808500D01*
X147829037Y-76808409D01*
X147829052Y-76808409D01*
X147880599Y-76805617D01*
X147884957Y-76805381D01*
X148115393Y-76760380D01*
X148334952Y-76677196D01*
X148537356Y-76558209D01*
X148716819Y-76406819D01*
X148868209Y-76227356D01*
X148987196Y-76024952D01*
X149070380Y-75805393D01*
X149115381Y-75574957D01*
X149118500Y-75517364D01*
X149118500Y-74883238D01*
X152356800Y-74883238D01*
X152357137Y-74889753D01*
X152366694Y-74981857D01*
X152369588Y-74995256D01*
X152419181Y-75143907D01*
X152425355Y-75157086D01*
X152507588Y-75289973D01*
X152516624Y-75301374D01*
X152627229Y-75411786D01*
X152638640Y-75420798D01*
X152771680Y-75502804D01*
X152784861Y-75508951D01*
X152933614Y-75558291D01*
X152946990Y-75561158D01*
X153037897Y-75570472D01*
X153044313Y-75570800D01*
X153067685Y-75570800D01*
X153082924Y-75566325D01*
X153084129Y-75564935D01*
X153085800Y-75557252D01*
X153085800Y-75552685D01*
X153593800Y-75552685D01*
X153598275Y-75567924D01*
X153599665Y-75569129D01*
X153607348Y-75570800D01*
X153635238Y-75570800D01*
X153641753Y-75570463D01*
X153733857Y-75560906D01*
X153747256Y-75558012D01*
X153895907Y-75508419D01*
X153909086Y-75502245D01*
X154041973Y-75420012D01*
X154053374Y-75410976D01*
X154163786Y-75300371D01*
X154172798Y-75288960D01*
X154254804Y-75155920D01*
X154260951Y-75142739D01*
X154310291Y-74993986D01*
X154313158Y-74980610D01*
X154322472Y-74889703D01*
X154322729Y-74884674D01*
X154318325Y-74869676D01*
X154316935Y-74868471D01*
X154309252Y-74866800D01*
X153611915Y-74866800D01*
X153596676Y-74871275D01*
X153595471Y-74872665D01*
X153593800Y-74880348D01*
X153593800Y-75552685D01*
X153085800Y-75552685D01*
X153085800Y-74884915D01*
X153081325Y-74869676D01*
X153079935Y-74868471D01*
X153072252Y-74866800D01*
X152374915Y-74866800D01*
X152359676Y-74871275D01*
X152358471Y-74872665D01*
X152356800Y-74880348D01*
X152356800Y-74883238D01*
X149118500Y-74883238D01*
X149118500Y-73582636D01*
X149115381Y-73525043D01*
X149078567Y-73336532D01*
X152356300Y-73336532D01*
X152366913Y-73438819D01*
X152369095Y-73445359D01*
X152418337Y-73592953D01*
X152421044Y-73601068D01*
X152511048Y-73746513D01*
X152516230Y-73751686D01*
X152520777Y-73757423D01*
X152518970Y-73758855D01*
X152547702Y-73811375D01*
X152542692Y-73882195D01*
X152519301Y-73918653D01*
X152520352Y-73919483D01*
X152506802Y-73936640D01*
X152424796Y-74069680D01*
X152418649Y-74082861D01*
X152369309Y-74231614D01*
X152366442Y-74244990D01*
X152357128Y-74335897D01*
X152356871Y-74340926D01*
X152361275Y-74355924D01*
X152362665Y-74357129D01*
X152370348Y-74358800D01*
X154304685Y-74358800D01*
X154319924Y-74354325D01*
X154321129Y-74352935D01*
X154322800Y-74345252D01*
X154322800Y-74342362D01*
X154322463Y-74335847D01*
X154312906Y-74243743D01*
X154310012Y-74230344D01*
X154260419Y-74081693D01*
X154254245Y-74068514D01*
X154172012Y-73935627D01*
X154158429Y-73918489D01*
X154160359Y-73916959D01*
X154131897Y-73864920D01*
X154136913Y-73794101D01*
X154160599Y-73757183D01*
X154159643Y-73756428D01*
X154164181Y-73750682D01*
X154169352Y-73745502D01*
X154173193Y-73739271D01*
X154255262Y-73606131D01*
X154255263Y-73606129D01*
X154259102Y-73599901D01*
X154312949Y-73437557D01*
X154323300Y-73336532D01*
X154323300Y-72789068D01*
X154312687Y-72686781D01*
X154283764Y-72600088D01*
X154260873Y-72531476D01*
X154260872Y-72531474D01*
X154258556Y-72524532D01*
X154168552Y-72379087D01*
X154161903Y-72372450D01*
X154148209Y-72358779D01*
X154114131Y-72296496D01*
X154119134Y-72225676D01*
X154128104Y-72206616D01*
X154174327Y-72126556D01*
X154233342Y-71944928D01*
X154246538Y-71819380D01*
X154252614Y-71761565D01*
X154253304Y-71755000D01*
X154233342Y-71565072D01*
X154174327Y-71383444D01*
X154078840Y-71218056D01*
X154056443Y-71193181D01*
X153955475Y-71081045D01*
X153955474Y-71081044D01*
X153951053Y-71076134D01*
X153851957Y-71004136D01*
X153801894Y-70967763D01*
X153801893Y-70967762D01*
X153796552Y-70963882D01*
X153790524Y-70961198D01*
X153790522Y-70961197D01*
X153628119Y-70888891D01*
X153628118Y-70888891D01*
X153622088Y-70886206D01*
X153528688Y-70866353D01*
X153441744Y-70847872D01*
X153441739Y-70847872D01*
X153435287Y-70846500D01*
X153244313Y-70846500D01*
X153237861Y-70847872D01*
X153237856Y-70847872D01*
X153150912Y-70866353D01*
X153057512Y-70886206D01*
X153051482Y-70888891D01*
X153051481Y-70888891D01*
X152889078Y-70961197D01*
X152889076Y-70961198D01*
X152883048Y-70963882D01*
X152877707Y-70967762D01*
X152877706Y-70967763D01*
X152827643Y-71004136D01*
X152728547Y-71076134D01*
X152724126Y-71081044D01*
X152724125Y-71081045D01*
X152623158Y-71193181D01*
X152600760Y-71218056D01*
X152505273Y-71383444D01*
X152446258Y-71565072D01*
X152426296Y-71755000D01*
X152426986Y-71761565D01*
X152433063Y-71819380D01*
X152446258Y-71944928D01*
X152505273Y-72126556D01*
X152551543Y-72206697D01*
X152568280Y-72275689D01*
X152545060Y-72342781D01*
X152531597Y-72358712D01*
X152510248Y-72380098D01*
X152506408Y-72386328D01*
X152506407Y-72386329D01*
X152425055Y-72518307D01*
X152420498Y-72525699D01*
X152366651Y-72688043D01*
X152356300Y-72789068D01*
X152356300Y-73336532D01*
X149078567Y-73336532D01*
X149070380Y-73294607D01*
X148987196Y-73075048D01*
X148868209Y-72872644D01*
X148716819Y-72693181D01*
X148537356Y-72541791D01*
X148507998Y-72524532D01*
X148441557Y-72485474D01*
X148334952Y-72422804D01*
X148202046Y-72372450D01*
X148147613Y-72351827D01*
X148090998Y-72308988D01*
X148066530Y-72242340D01*
X148081979Y-72173045D01*
X148132440Y-72123102D01*
X148192254Y-72108000D01*
X149587885Y-72108000D01*
X149603124Y-72103525D01*
X149604329Y-72102135D01*
X149606000Y-72094452D01*
X149606000Y-72089884D01*
X150114000Y-72089884D01*
X150118475Y-72105123D01*
X150119865Y-72106328D01*
X150127548Y-72107999D01*
X151654669Y-72107999D01*
X151661490Y-72107629D01*
X151712352Y-72102105D01*
X151727604Y-72098479D01*
X151848054Y-72053324D01*
X151863649Y-72044786D01*
X151965724Y-71968285D01*
X151978285Y-71955724D01*
X152054786Y-71853649D01*
X152063324Y-71838054D01*
X152108478Y-71717606D01*
X152112105Y-71702351D01*
X152117631Y-71651486D01*
X152118000Y-71644672D01*
X152118000Y-70122115D01*
X152113525Y-70106876D01*
X152112135Y-70105671D01*
X152104452Y-70104000D01*
X150132115Y-70104000D01*
X150116876Y-70108475D01*
X150115671Y-70109865D01*
X150114000Y-70117548D01*
X150114000Y-72089884D01*
X149606000Y-72089884D01*
X149606000Y-70122115D01*
X149601525Y-70106876D01*
X149600135Y-70105671D01*
X149592452Y-70104000D01*
X147620116Y-70104000D01*
X147604877Y-70108475D01*
X147603672Y-70109865D01*
X147602001Y-70117548D01*
X147602001Y-71644669D01*
X147602371Y-71651490D01*
X147607895Y-71702352D01*
X147611521Y-71717604D01*
X147656676Y-71838054D01*
X147665214Y-71853649D01*
X147741715Y-71955724D01*
X147754276Y-71968285D01*
X147856354Y-72044788D01*
X147874970Y-72054980D01*
X147925116Y-72105238D01*
X147940130Y-72174629D01*
X147915245Y-72241122D01*
X147858362Y-72283605D01*
X147814461Y-72291500D01*
X145892636Y-72291500D01*
X145890963Y-72291591D01*
X145890948Y-72291591D01*
X145840773Y-72294309D01*
X145835043Y-72294619D01*
X145604607Y-72339620D01*
X145385048Y-72422804D01*
X145278443Y-72485474D01*
X145212003Y-72524532D01*
X145182644Y-72541791D01*
X145003181Y-72693181D01*
X144851791Y-72872644D01*
X144732804Y-73075048D01*
X144649620Y-73294607D01*
X144604619Y-73525043D01*
X144601500Y-73582636D01*
X144601500Y-75517364D01*
X140208000Y-75517364D01*
X140208000Y-70912542D01*
X141851500Y-70912542D01*
X141863022Y-71054200D01*
X141864356Y-71059395D01*
X141864356Y-71059396D01*
X141871660Y-71087844D01*
X141918890Y-71271794D01*
X142012409Y-71476055D01*
X142140620Y-71660527D01*
X142299473Y-71819380D01*
X142483945Y-71947591D01*
X142688206Y-72041110D01*
X142693638Y-72042505D01*
X142693639Y-72042505D01*
X142895962Y-72094452D01*
X142905800Y-72096978D01*
X142959705Y-72101362D01*
X143044908Y-72108293D01*
X143044918Y-72108293D01*
X143047458Y-72108500D01*
X144672542Y-72108500D01*
X144675082Y-72108293D01*
X144675092Y-72108293D01*
X144760295Y-72101362D01*
X144814200Y-72096978D01*
X144824039Y-72094452D01*
X145026361Y-72042505D01*
X145026362Y-72042505D01*
X145031794Y-72041110D01*
X145236055Y-71947591D01*
X145420527Y-71819380D01*
X145579380Y-71660527D01*
X145707591Y-71476055D01*
X145801110Y-71271794D01*
X145848340Y-71087844D01*
X145855644Y-71059396D01*
X145855644Y-71059395D01*
X145856978Y-71054200D01*
X145868500Y-70912542D01*
X145868500Y-69577885D01*
X147602000Y-69577885D01*
X147606475Y-69593124D01*
X147607865Y-69594329D01*
X147615548Y-69596000D01*
X149587885Y-69596000D01*
X149603124Y-69591525D01*
X149604329Y-69590135D01*
X149606000Y-69582452D01*
X149606000Y-69577885D01*
X150114000Y-69577885D01*
X150118475Y-69593124D01*
X150119865Y-69594329D01*
X150127548Y-69596000D01*
X152099884Y-69596000D01*
X152115123Y-69591525D01*
X152116328Y-69590135D01*
X152117999Y-69582452D01*
X152117999Y-68055331D01*
X152117629Y-68048510D01*
X152112105Y-67997648D01*
X152108479Y-67982396D01*
X152063324Y-67861946D01*
X152054786Y-67846351D01*
X151978285Y-67744276D01*
X151965724Y-67731715D01*
X151863649Y-67655214D01*
X151848054Y-67646676D01*
X151727606Y-67601522D01*
X151712351Y-67597895D01*
X151661486Y-67592369D01*
X151654672Y-67592000D01*
X150132115Y-67592000D01*
X150116876Y-67596475D01*
X150115671Y-67597865D01*
X150114000Y-67605548D01*
X150114000Y-69577885D01*
X149606000Y-69577885D01*
X149606000Y-67610116D01*
X149601525Y-67594877D01*
X149600135Y-67593672D01*
X149592452Y-67592001D01*
X148065331Y-67592001D01*
X148058510Y-67592371D01*
X148007648Y-67597895D01*
X147992396Y-67601521D01*
X147871946Y-67646676D01*
X147856351Y-67655214D01*
X147754276Y-67731715D01*
X147741715Y-67744276D01*
X147665214Y-67846351D01*
X147656676Y-67861946D01*
X147611522Y-67982394D01*
X147607895Y-67997649D01*
X147602369Y-68048514D01*
X147602000Y-68055328D01*
X147602000Y-69577885D01*
X145868500Y-69577885D01*
X145868500Y-68787458D01*
X145867311Y-68772831D01*
X145857413Y-68651151D01*
X145856978Y-68645800D01*
X145801110Y-68428206D01*
X145707591Y-68223945D01*
X145579380Y-68039473D01*
X145420527Y-67880620D01*
X145252577Y-67763892D01*
X145240661Y-67755610D01*
X145240659Y-67755609D01*
X145236055Y-67752409D01*
X145031794Y-67658890D01*
X144984223Y-67646676D01*
X144819396Y-67604356D01*
X144819395Y-67604356D01*
X144814200Y-67603022D01*
X144750797Y-67597865D01*
X144675092Y-67591707D01*
X144675082Y-67591707D01*
X144672542Y-67591500D01*
X143047458Y-67591500D01*
X143044918Y-67591707D01*
X143044908Y-67591707D01*
X142969203Y-67597865D01*
X142905800Y-67603022D01*
X142900605Y-67604356D01*
X142900604Y-67604356D01*
X142735777Y-67646676D01*
X142688206Y-67658890D01*
X142483945Y-67752409D01*
X142479341Y-67755609D01*
X142479339Y-67755610D01*
X142467423Y-67763892D01*
X142299473Y-67880620D01*
X142140620Y-68039473D01*
X142012409Y-68223945D01*
X141918890Y-68428206D01*
X141863022Y-68645800D01*
X141862587Y-68651151D01*
X141852690Y-68772831D01*
X141851500Y-68787458D01*
X141851500Y-70912542D01*
X140208000Y-70912542D01*
X140208000Y-65404000D01*
X140228002Y-65335879D01*
X140281658Y-65289386D01*
X140334000Y-65278000D01*
X162508392Y-65278000D01*
X162576513Y-65298002D01*
G37*
%TD.AperFunction*%
%TD*%
%TA.AperFunction,Conductor*%
%TO.N,+BATT*%
G36*
X157708600Y-81864200D02*
G01*
X156083000Y-81864200D01*
X155978961Y-81966814D01*
X154265596Y-83656708D01*
X154203051Y-83690302D01*
X154177117Y-83693000D01*
X152146000Y-83693000D01*
X152146000Y-83293885D01*
X152654000Y-83293885D01*
X152658475Y-83309124D01*
X152659865Y-83310329D01*
X152667548Y-83312000D01*
X153739885Y-83312000D01*
X153755124Y-83307525D01*
X153756329Y-83306135D01*
X153758000Y-83298452D01*
X153757999Y-82671331D01*
X153757629Y-82664510D01*
X153752105Y-82613648D01*
X153748479Y-82598396D01*
X153703324Y-82477946D01*
X153694786Y-82462351D01*
X153618285Y-82360276D01*
X153605724Y-82347715D01*
X153503649Y-82271214D01*
X153488054Y-82262676D01*
X153367606Y-82217522D01*
X153352351Y-82213895D01*
X153301486Y-82208369D01*
X153294672Y-82208000D01*
X152672115Y-82208001D01*
X152656876Y-82212476D01*
X152655671Y-82213866D01*
X152654000Y-82221549D01*
X152654000Y-83293885D01*
X152146000Y-83293885D01*
X152146000Y-81929404D01*
X152166002Y-81861283D01*
X152219658Y-81814790D01*
X152289932Y-81804686D01*
X152297991Y-81806121D01*
X152298059Y-81806128D01*
X152304513Y-81807500D01*
X152495487Y-81807500D01*
X152501939Y-81806128D01*
X152501944Y-81806128D01*
X152588888Y-81787647D01*
X152682288Y-81767794D01*
X152688319Y-81765109D01*
X152850722Y-81692803D01*
X152850724Y-81692802D01*
X152856752Y-81690118D01*
X153011253Y-81577866D01*
X153108196Y-81470200D01*
X153124290Y-81452326D01*
X156598671Y-81452326D01*
X156603075Y-81467324D01*
X156604465Y-81468529D01*
X156612148Y-81470200D01*
X157309485Y-81470200D01*
X157324724Y-81465725D01*
X157325929Y-81464335D01*
X157327600Y-81456652D01*
X157327600Y-80784315D01*
X157323125Y-80769076D01*
X157321735Y-80767871D01*
X157314052Y-80766200D01*
X157286162Y-80766200D01*
X157279647Y-80766537D01*
X157187543Y-80776094D01*
X157174144Y-80778988D01*
X157025493Y-80828581D01*
X157012314Y-80834755D01*
X156879427Y-80916988D01*
X156868026Y-80926024D01*
X156757614Y-81036629D01*
X156748602Y-81048040D01*
X156666596Y-81181080D01*
X156660449Y-81194261D01*
X156611109Y-81343014D01*
X156608242Y-81356390D01*
X156598928Y-81447297D01*
X156598671Y-81452326D01*
X153124290Y-81452326D01*
X153134621Y-81440852D01*
X153134622Y-81440851D01*
X153139040Y-81435944D01*
X153234527Y-81270556D01*
X153293542Y-81088928D01*
X153297840Y-81048040D01*
X153312814Y-80905565D01*
X153313504Y-80899000D01*
X153301450Y-80784315D01*
X153294232Y-80715635D01*
X153294232Y-80715633D01*
X153293542Y-80709072D01*
X153234527Y-80527444D01*
X153229582Y-80518878D01*
X153604000Y-80518878D01*
X153607973Y-80532409D01*
X153615871Y-80533544D01*
X153755790Y-80492893D01*
X153770221Y-80486648D01*
X153899678Y-80410089D01*
X153912104Y-80400449D01*
X154018449Y-80294104D01*
X154028089Y-80281678D01*
X154104648Y-80152221D01*
X154110893Y-80137790D01*
X154153269Y-79991935D01*
X154155570Y-79979333D01*
X154157807Y-79950916D01*
X154158000Y-79945986D01*
X154158000Y-79641615D01*
X154153525Y-79626376D01*
X154152135Y-79625171D01*
X154144452Y-79623500D01*
X153622115Y-79623500D01*
X153606876Y-79627975D01*
X153605671Y-79629365D01*
X153604000Y-79637048D01*
X153604000Y-80518878D01*
X153229582Y-80518878D01*
X153166772Y-80410089D01*
X153139040Y-80362056D01*
X153134620Y-80357147D01*
X153130741Y-80351808D01*
X153132139Y-80350792D01*
X153105124Y-80294491D01*
X153113892Y-80224038D01*
X153121020Y-80210066D01*
X153159145Y-80145601D01*
X153161415Y-80137790D01*
X153176528Y-80085769D01*
X153205562Y-79985831D01*
X153206074Y-79979333D01*
X153208307Y-79950958D01*
X153208307Y-79950950D01*
X153208500Y-79948502D01*
X153208500Y-79516184D01*
X156773601Y-79516184D01*
X156773795Y-79521120D01*
X156776030Y-79549536D01*
X156778330Y-79562131D01*
X156820707Y-79707990D01*
X156826952Y-79722421D01*
X156903511Y-79851878D01*
X156913151Y-79864304D01*
X157019496Y-79970649D01*
X157031922Y-79980289D01*
X157161379Y-80056848D01*
X157175810Y-80063093D01*
X157310205Y-80102139D01*
X157324306Y-80102099D01*
X157327600Y-80094830D01*
X157327600Y-79136815D01*
X157323125Y-79121576D01*
X157321735Y-79120371D01*
X157314052Y-79118700D01*
X156791716Y-79118700D01*
X156776477Y-79123175D01*
X156775272Y-79124565D01*
X156773601Y-79132248D01*
X156773601Y-79516184D01*
X153208500Y-79516184D01*
X153208500Y-79248000D01*
X155168600Y-79248000D01*
X155639359Y-78753703D01*
X155700823Y-78718169D01*
X155730600Y-78714600D01*
X157708600Y-78714600D01*
X157708600Y-81864200D01*
G37*
%TD.AperFunction*%
%TD*%
%TA.AperFunction,Conductor*%
%TO.N,GND*%
G36*
X169011953Y-80348502D02*
G01*
X169051608Y-80389229D01*
X169069952Y-80419518D01*
X169101361Y-80471381D01*
X169222619Y-80592639D01*
X169369301Y-80681472D01*
X169376548Y-80683743D01*
X169376550Y-80683744D01*
X169442836Y-80704517D01*
X169532938Y-80732753D01*
X169606365Y-80739500D01*
X169609263Y-80739500D01*
X169863665Y-80739499D01*
X170119634Y-80739499D01*
X170122492Y-80739236D01*
X170122501Y-80739236D01*
X170158004Y-80735974D01*
X170193062Y-80732753D01*
X170239788Y-80718110D01*
X170349450Y-80683744D01*
X170349452Y-80683743D01*
X170356699Y-80681472D01*
X170503381Y-80592639D01*
X170598905Y-80497115D01*
X170661217Y-80463089D01*
X170732032Y-80468154D01*
X170777095Y-80497115D01*
X170792595Y-80512615D01*
X170826621Y-80574927D01*
X170829500Y-80601710D01*
X170829500Y-81367621D01*
X170809498Y-81435742D01*
X170783106Y-81464884D01*
X170779287Y-81467248D01*
X170774112Y-81472432D01*
X170768376Y-81476978D01*
X170766944Y-81475171D01*
X170714425Y-81503902D01*
X170643605Y-81498892D01*
X170607147Y-81475501D01*
X170606317Y-81476552D01*
X170589160Y-81463002D01*
X170456120Y-81380996D01*
X170442939Y-81374849D01*
X170294186Y-81325509D01*
X170280810Y-81322642D01*
X170189903Y-81313328D01*
X170184874Y-81313071D01*
X170169876Y-81317475D01*
X170168671Y-81318865D01*
X170167000Y-81326548D01*
X170167000Y-83260885D01*
X170171475Y-83276124D01*
X170172865Y-83277329D01*
X170180548Y-83279000D01*
X170183438Y-83279000D01*
X170189953Y-83278663D01*
X170282057Y-83269106D01*
X170295456Y-83266212D01*
X170444107Y-83216619D01*
X170457286Y-83210445D01*
X170590173Y-83128212D01*
X170607311Y-83114629D01*
X170608841Y-83116559D01*
X170660880Y-83088097D01*
X170731699Y-83093113D01*
X170768617Y-83116799D01*
X170769372Y-83115843D01*
X170775118Y-83120381D01*
X170780298Y-83125552D01*
X170786528Y-83129392D01*
X170786529Y-83129393D01*
X170886616Y-83191088D01*
X170934110Y-83243861D01*
X170946500Y-83298348D01*
X170946500Y-83693433D01*
X170945973Y-83704616D01*
X170944298Y-83712109D01*
X170944547Y-83720035D01*
X170944547Y-83720036D01*
X170946438Y-83780186D01*
X170946500Y-83784145D01*
X170946500Y-83940874D01*
X170926498Y-84008995D01*
X170872842Y-84055488D01*
X170864730Y-84058856D01*
X170815542Y-84077296D01*
X170783295Y-84089385D01*
X170666739Y-84176739D01*
X170579385Y-84293295D01*
X170528255Y-84429684D01*
X170521500Y-84491866D01*
X170521500Y-85688134D01*
X170528255Y-85750316D01*
X170579385Y-85886705D01*
X170666739Y-86003261D01*
X170783295Y-86090615D01*
X170919684Y-86141745D01*
X170981866Y-86148500D01*
X172178134Y-86148500D01*
X172240316Y-86141745D01*
X172376705Y-86090615D01*
X172493261Y-86003261D01*
X172580615Y-85886705D01*
X172631745Y-85750316D01*
X172638500Y-85688134D01*
X172638500Y-84579500D01*
X172658502Y-84511379D01*
X172712158Y-84464886D01*
X172764500Y-84453500D01*
X174079947Y-84453500D01*
X174148068Y-84473502D01*
X174194561Y-84527158D01*
X174203461Y-84554595D01*
X174214682Y-84610246D01*
X174214684Y-84610251D01*
X174215900Y-84616284D01*
X174218267Y-84621970D01*
X174218269Y-84621977D01*
X174233556Y-84658702D01*
X174241269Y-84729278D01*
X174211674Y-84790529D01*
X174201991Y-84801494D01*
X174196044Y-84808228D01*
X174183490Y-84834966D01*
X174175176Y-84849935D01*
X174159107Y-84874727D01*
X174156535Y-84883327D01*
X174151761Y-84899290D01*
X174145099Y-84916736D01*
X174134201Y-84939948D01*
X174132820Y-84948821D01*
X174129658Y-84969128D01*
X174125874Y-84985849D01*
X174119986Y-85005536D01*
X174119985Y-85005539D01*
X174117413Y-85014141D01*
X174117358Y-85023116D01*
X174117358Y-85023117D01*
X174117203Y-85048546D01*
X174117170Y-85049328D01*
X174117000Y-85050423D01*
X174117000Y-85081298D01*
X174116998Y-85082068D01*
X174116524Y-85159652D01*
X174116908Y-85160996D01*
X174117000Y-85162341D01*
X174117000Y-86996000D01*
X174096998Y-87064121D01*
X174043342Y-87110614D01*
X173991000Y-87122000D01*
X163956000Y-87122000D01*
X163887879Y-87101998D01*
X163841386Y-87048342D01*
X163830000Y-86996000D01*
X163830000Y-86808139D01*
X163850002Y-86740018D01*
X163903658Y-86693525D01*
X163921222Y-86687694D01*
X163921166Y-86687526D01*
X163927703Y-86685345D01*
X164088946Y-86631550D01*
X164239348Y-86538478D01*
X164364305Y-86413303D01*
X164366906Y-86409084D01*
X164424030Y-86368583D01*
X164494953Y-86365351D01*
X164556365Y-86400976D01*
X164562922Y-86408530D01*
X164566522Y-86414348D01*
X164691697Y-86539305D01*
X164697927Y-86543145D01*
X164697928Y-86543146D01*
X164835090Y-86627694D01*
X164842262Y-86632115D01*
X164922005Y-86658564D01*
X165003611Y-86685632D01*
X165003613Y-86685632D01*
X165010139Y-86687797D01*
X165016975Y-86688497D01*
X165016978Y-86688498D01*
X165060031Y-86692909D01*
X165114600Y-86698500D01*
X165965400Y-86698500D01*
X165968646Y-86698163D01*
X165968650Y-86698163D01*
X166064308Y-86688238D01*
X166064312Y-86688237D01*
X166071166Y-86687526D01*
X166077702Y-86685345D01*
X166077704Y-86685345D01*
X166209806Y-86641272D01*
X166238946Y-86631550D01*
X166389348Y-86538478D01*
X166514305Y-86413303D01*
X166607115Y-86262738D01*
X166645128Y-86148131D01*
X166660632Y-86101389D01*
X166660632Y-86101387D01*
X166662797Y-86094861D01*
X166673500Y-85990400D01*
X166673500Y-85849500D01*
X166693502Y-85781379D01*
X166747158Y-85734886D01*
X166799500Y-85723500D01*
X167630874Y-85723500D01*
X167698995Y-85743502D01*
X167745488Y-85797158D01*
X167748856Y-85805270D01*
X167779385Y-85886705D01*
X167866739Y-86003261D01*
X167983295Y-86090615D01*
X168119684Y-86141745D01*
X168181866Y-86148500D01*
X169378134Y-86148500D01*
X169440316Y-86141745D01*
X169576705Y-86090615D01*
X169693261Y-86003261D01*
X169780615Y-85886705D01*
X169831745Y-85750316D01*
X169838500Y-85688134D01*
X169838500Y-84491866D01*
X169831745Y-84429684D01*
X169780615Y-84293295D01*
X169693261Y-84176739D01*
X169576705Y-84089385D01*
X169440316Y-84038255D01*
X169378134Y-84031500D01*
X168181866Y-84031500D01*
X168119684Y-84038255D01*
X167983295Y-84089385D01*
X167866739Y-84176739D01*
X167779385Y-84293295D01*
X167776233Y-84301703D01*
X167748856Y-84374730D01*
X167706214Y-84431494D01*
X167639652Y-84456194D01*
X167630874Y-84456500D01*
X166799500Y-84456500D01*
X166731379Y-84436498D01*
X166684886Y-84382842D01*
X166673500Y-84330500D01*
X166673500Y-84189600D01*
X166672166Y-84176739D01*
X166663238Y-84090692D01*
X166663237Y-84090688D01*
X166662526Y-84083834D01*
X166606550Y-83916054D01*
X166513478Y-83765652D01*
X166388303Y-83640695D01*
X166237738Y-83547885D01*
X166238774Y-83546205D01*
X166192969Y-83505879D01*
X166173500Y-83438595D01*
X166173500Y-82591438D01*
X168955000Y-82591438D01*
X168955337Y-82597953D01*
X168964894Y-82690057D01*
X168967788Y-82703456D01*
X169017381Y-82852107D01*
X169023555Y-82865286D01*
X169105788Y-82998173D01*
X169114824Y-83009574D01*
X169225429Y-83119986D01*
X169236840Y-83128998D01*
X169369880Y-83211004D01*
X169383061Y-83217151D01*
X169531814Y-83266491D01*
X169545190Y-83269358D01*
X169636097Y-83278672D01*
X169641126Y-83278929D01*
X169656124Y-83274525D01*
X169657329Y-83273135D01*
X169659000Y-83265452D01*
X169659000Y-82568115D01*
X169654525Y-82552876D01*
X169653135Y-82551671D01*
X169645452Y-82550000D01*
X168973115Y-82550000D01*
X168957876Y-82554475D01*
X168956671Y-82555865D01*
X168955000Y-82563548D01*
X168955000Y-82591438D01*
X166173500Y-82591438D01*
X166173500Y-82508336D01*
X166193502Y-82440215D01*
X166247158Y-82393722D01*
X166264347Y-82387339D01*
X166370988Y-82356357D01*
X166370990Y-82356356D01*
X166378601Y-82354145D01*
X166456298Y-82308195D01*
X166514980Y-82273491D01*
X166514983Y-82273489D01*
X166521807Y-82269453D01*
X166639453Y-82151807D01*
X166643489Y-82144983D01*
X166643491Y-82144980D01*
X166715106Y-82023885D01*
X168955000Y-82023885D01*
X168959475Y-82039124D01*
X168960865Y-82040329D01*
X168968548Y-82042000D01*
X169640885Y-82042000D01*
X169656124Y-82037525D01*
X169657329Y-82036135D01*
X169659000Y-82028452D01*
X169659000Y-81331115D01*
X169654525Y-81315876D01*
X169653135Y-81314671D01*
X169645452Y-81313000D01*
X169642562Y-81313000D01*
X169636047Y-81313337D01*
X169543943Y-81322894D01*
X169530544Y-81325788D01*
X169381893Y-81375381D01*
X169368714Y-81381555D01*
X169235827Y-81463788D01*
X169224426Y-81472824D01*
X169114014Y-81583429D01*
X169105002Y-81594840D01*
X169022996Y-81727880D01*
X169016849Y-81741061D01*
X168967509Y-81889814D01*
X168964642Y-81903190D01*
X168955328Y-81994097D01*
X168955000Y-82000514D01*
X168955000Y-82023885D01*
X166715106Y-82023885D01*
X166720108Y-82015427D01*
X166724145Y-82008601D01*
X166726495Y-82000514D01*
X166755162Y-81901837D01*
X166770562Y-81848831D01*
X166773500Y-81811502D01*
X166773500Y-81378498D01*
X166773213Y-81374849D01*
X166771067Y-81347579D01*
X166771066Y-81347574D01*
X166770562Y-81341169D01*
X166724145Y-81181399D01*
X166720111Y-81174577D01*
X166717872Y-81169404D01*
X166709176Y-81098942D01*
X166717872Y-81069326D01*
X166725893Y-81050790D01*
X166764939Y-80916395D01*
X166764899Y-80902294D01*
X166757630Y-80899000D01*
X166519842Y-80899000D01*
X166455703Y-80881453D01*
X166385427Y-80839892D01*
X166385428Y-80839892D01*
X166378601Y-80835855D01*
X166370990Y-80833644D01*
X166370988Y-80833643D01*
X166318769Y-80818472D01*
X166218831Y-80789438D01*
X166212426Y-80788934D01*
X166212421Y-80788933D01*
X166183958Y-80786693D01*
X166183950Y-80786693D01*
X166181502Y-80786500D01*
X165023498Y-80786500D01*
X165021050Y-80786693D01*
X165021042Y-80786693D01*
X164992579Y-80788933D01*
X164992574Y-80788934D01*
X164986169Y-80789438D01*
X164886231Y-80818472D01*
X164834012Y-80833643D01*
X164834010Y-80833644D01*
X164826399Y-80835855D01*
X164819572Y-80839892D01*
X164819573Y-80839892D01*
X164749297Y-80881453D01*
X164685158Y-80899000D01*
X164453122Y-80899000D01*
X164437884Y-80903474D01*
X164429732Y-80912882D01*
X164370006Y-80951266D01*
X164299010Y-80951266D01*
X164257280Y-80929929D01*
X164252415Y-80926155D01*
X164246807Y-80920547D01*
X164239983Y-80916511D01*
X164239980Y-80916509D01*
X164110427Y-80839892D01*
X164110428Y-80839892D01*
X164103601Y-80835855D01*
X164095990Y-80833644D01*
X164095988Y-80833643D01*
X164051847Y-80820819D01*
X163992011Y-80782606D01*
X163962334Y-80718110D01*
X163961000Y-80699822D01*
X163961000Y-80590178D01*
X163981002Y-80522057D01*
X164034658Y-80475564D01*
X164051847Y-80469181D01*
X164095988Y-80456357D01*
X164095990Y-80456356D01*
X164103601Y-80454145D01*
X164246807Y-80369453D01*
X164252416Y-80363844D01*
X164257886Y-80359601D01*
X164323971Y-80333654D01*
X164393594Y-80347555D01*
X164435116Y-80385446D01*
X164447370Y-80391000D01*
X164685158Y-80391000D01*
X164749297Y-80408547D01*
X164826399Y-80454145D01*
X164834010Y-80456356D01*
X164834012Y-80456357D01*
X164863349Y-80464880D01*
X164986169Y-80500562D01*
X164992574Y-80501066D01*
X164992579Y-80501067D01*
X165021042Y-80503307D01*
X165021050Y-80503307D01*
X165023498Y-80503500D01*
X166181502Y-80503500D01*
X166183950Y-80503307D01*
X166183958Y-80503307D01*
X166212421Y-80501067D01*
X166212426Y-80501066D01*
X166218831Y-80500562D01*
X166341651Y-80464880D01*
X166370988Y-80456357D01*
X166370990Y-80456356D01*
X166378601Y-80454145D01*
X166455703Y-80408547D01*
X166519842Y-80391000D01*
X166751878Y-80391000D01*
X166767117Y-80386525D01*
X166779715Y-80371987D01*
X166839441Y-80333604D01*
X166874939Y-80328500D01*
X168943832Y-80328500D01*
X169011953Y-80348502D01*
G37*
%TD.AperFunction*%
%TA.AperFunction,Conductor*%
G36*
X174118621Y-68992502D02*
G01*
X174165114Y-69046158D01*
X174176500Y-69098500D01*
X174176500Y-69176328D01*
X174176808Y-69182408D01*
X174215900Y-69376284D01*
X174218267Y-69381970D01*
X174218269Y-69381977D01*
X174233556Y-69418702D01*
X174241269Y-69489278D01*
X174211674Y-69550529D01*
X174201991Y-69561494D01*
X174196044Y-69568228D01*
X174183490Y-69594966D01*
X174175176Y-69609935D01*
X174159107Y-69634727D01*
X174156535Y-69643327D01*
X174151761Y-69659290D01*
X174145099Y-69676736D01*
X174134201Y-69699948D01*
X174129658Y-69729128D01*
X174125874Y-69745849D01*
X174119986Y-69765536D01*
X174119985Y-69765539D01*
X174117413Y-69774141D01*
X174117358Y-69783116D01*
X174117358Y-69783117D01*
X174117203Y-69808546D01*
X174117170Y-69809328D01*
X174117000Y-69810423D01*
X174117000Y-69841298D01*
X174116998Y-69842068D01*
X174116524Y-69919652D01*
X174116908Y-69920996D01*
X174117000Y-69922341D01*
X174117000Y-72381298D01*
X174116998Y-72382068D01*
X174116524Y-72459652D01*
X174118990Y-72468281D01*
X174118991Y-72468286D01*
X174124639Y-72488048D01*
X174128217Y-72504809D01*
X174131130Y-72525152D01*
X174131133Y-72525162D01*
X174132405Y-72534045D01*
X174143021Y-72557395D01*
X174149464Y-72574907D01*
X174156512Y-72599565D01*
X174172274Y-72624548D01*
X174180404Y-72639614D01*
X174192633Y-72666510D01*
X174209374Y-72685939D01*
X174220483Y-72700953D01*
X174223986Y-72706506D01*
X174243414Y-72774793D01*
X174233743Y-72822153D01*
X174218747Y-72858179D01*
X174215163Y-72869901D01*
X174178233Y-73053055D01*
X174177077Y-73062267D01*
X174177000Y-73065319D01*
X174177000Y-73387885D01*
X174181475Y-73403124D01*
X174182865Y-73404329D01*
X174190548Y-73406000D01*
X178563000Y-73406000D01*
X178631121Y-73426002D01*
X178677614Y-73479658D01*
X178689000Y-73532000D01*
X178689000Y-73788000D01*
X178668998Y-73856121D01*
X178615342Y-73902614D01*
X178563000Y-73914000D01*
X174195115Y-73914000D01*
X174179876Y-73918475D01*
X174178671Y-73919865D01*
X174177000Y-73927548D01*
X174177000Y-74254681D01*
X174177077Y-74257733D01*
X174178233Y-74266945D01*
X174215163Y-74450099D01*
X174218748Y-74461826D01*
X174233925Y-74498284D01*
X174241638Y-74568860D01*
X174212042Y-74630113D01*
X174196044Y-74648228D01*
X174183490Y-74674966D01*
X174175176Y-74689935D01*
X174159107Y-74714727D01*
X174156535Y-74723327D01*
X174151761Y-74739290D01*
X174145099Y-74756736D01*
X174134201Y-74779948D01*
X174132820Y-74788821D01*
X174129658Y-74809128D01*
X174125874Y-74825849D01*
X174119986Y-74845536D01*
X174119985Y-74845539D01*
X174117413Y-74854141D01*
X174117358Y-74863116D01*
X174117358Y-74863117D01*
X174117203Y-74888546D01*
X174117170Y-74889328D01*
X174117000Y-74890423D01*
X174117000Y-74921298D01*
X174116998Y-74922068D01*
X174116524Y-74999652D01*
X174116908Y-75000996D01*
X174117000Y-75002341D01*
X174117000Y-77461298D01*
X174116998Y-77462068D01*
X174116524Y-77539652D01*
X174118990Y-77548281D01*
X174118991Y-77548286D01*
X174124639Y-77568048D01*
X174128217Y-77584809D01*
X174131130Y-77605152D01*
X174131133Y-77605162D01*
X174132405Y-77614045D01*
X174143021Y-77637395D01*
X174149464Y-77654907D01*
X174156512Y-77679565D01*
X174172274Y-77704548D01*
X174180404Y-77719614D01*
X174192633Y-77746510D01*
X174209374Y-77765939D01*
X174220483Y-77780953D01*
X174223986Y-77786506D01*
X174243414Y-77854793D01*
X174233743Y-77902153D01*
X174218747Y-77938179D01*
X174215163Y-77949901D01*
X174178233Y-78133055D01*
X174177077Y-78142267D01*
X174177000Y-78145319D01*
X174177000Y-78467885D01*
X174181475Y-78483124D01*
X174182865Y-78484329D01*
X174190548Y-78486000D01*
X178563000Y-78486000D01*
X178631121Y-78506002D01*
X178677614Y-78559658D01*
X178689000Y-78612000D01*
X178689000Y-78868000D01*
X178668998Y-78936121D01*
X178615342Y-78982614D01*
X178563000Y-78994000D01*
X174195115Y-78994000D01*
X174179876Y-78998475D01*
X174178671Y-78999865D01*
X174177000Y-79007548D01*
X174177000Y-79334681D01*
X174177077Y-79337733D01*
X174178233Y-79346945D01*
X174215163Y-79530099D01*
X174218748Y-79541826D01*
X174233925Y-79578284D01*
X174241638Y-79648860D01*
X174212042Y-79710113D01*
X174196044Y-79728228D01*
X174183490Y-79754966D01*
X174175176Y-79769935D01*
X174159107Y-79794727D01*
X174156535Y-79803327D01*
X174151761Y-79819290D01*
X174145099Y-79836736D01*
X174134201Y-79859948D01*
X174132820Y-79868821D01*
X174129658Y-79889128D01*
X174125874Y-79905849D01*
X174119986Y-79925536D01*
X174119985Y-79925539D01*
X174117413Y-79934141D01*
X174117358Y-79943116D01*
X174117358Y-79943117D01*
X174117203Y-79968546D01*
X174117170Y-79969328D01*
X174117000Y-79970423D01*
X174117000Y-80001298D01*
X174116998Y-80002068D01*
X174116524Y-80079652D01*
X174116908Y-80080996D01*
X174117000Y-80082341D01*
X174117000Y-82541298D01*
X174116998Y-82542068D01*
X174116524Y-82619652D01*
X174118990Y-82628281D01*
X174118991Y-82628286D01*
X174124639Y-82648048D01*
X174128217Y-82664809D01*
X174131130Y-82685152D01*
X174131133Y-82685162D01*
X174132405Y-82694045D01*
X174143021Y-82717395D01*
X174149464Y-82734907D01*
X174156512Y-82759565D01*
X174172274Y-82784548D01*
X174180404Y-82799614D01*
X174192633Y-82826510D01*
X174209374Y-82845939D01*
X174220481Y-82860951D01*
X174223658Y-82865987D01*
X174243088Y-82934273D01*
X174233418Y-82981633D01*
X174215900Y-83023716D01*
X174214681Y-83029762D01*
X174203461Y-83085405D01*
X174170389Y-83148229D01*
X174108602Y-83183198D01*
X174079947Y-83186500D01*
X172380556Y-83186500D01*
X172312435Y-83166498D01*
X172265942Y-83112842D01*
X172255838Y-83042568D01*
X172273296Y-82994384D01*
X172353462Y-82864331D01*
X172353463Y-82864329D01*
X172357302Y-82858101D01*
X172411149Y-82695757D01*
X172421500Y-82594732D01*
X172421500Y-81997268D01*
X172410887Y-81894981D01*
X172356756Y-81732732D01*
X172266752Y-81587287D01*
X172145702Y-81466448D01*
X172143330Y-81464986D01*
X172103345Y-81408588D01*
X172096500Y-81367624D01*
X172096500Y-80697398D01*
X172116502Y-80629277D01*
X172144751Y-80598246D01*
X172146882Y-80596575D01*
X172153381Y-80592639D01*
X172274639Y-80471381D01*
X172363472Y-80324699D01*
X172414753Y-80161062D01*
X172421500Y-80087635D01*
X172421499Y-79424366D01*
X172414753Y-79350938D01*
X172363472Y-79187301D01*
X172274639Y-79040619D01*
X172153381Y-78919361D01*
X172006699Y-78830528D01*
X171999452Y-78828257D01*
X171999450Y-78828256D01*
X171933164Y-78807483D01*
X171843062Y-78779247D01*
X171769635Y-78772500D01*
X171766737Y-78772500D01*
X171512335Y-78772501D01*
X171256366Y-78772501D01*
X171253508Y-78772764D01*
X171253499Y-78772764D01*
X171217996Y-78776026D01*
X171182938Y-78779247D01*
X171176560Y-78781246D01*
X171176559Y-78781246D01*
X171026550Y-78828256D01*
X171026548Y-78828257D01*
X171019301Y-78830528D01*
X170872619Y-78919361D01*
X170777095Y-79014885D01*
X170714783Y-79048911D01*
X170643968Y-79043846D01*
X170598905Y-79014885D01*
X170533405Y-78949385D01*
X170499379Y-78887073D01*
X170496500Y-78860290D01*
X170496500Y-77857710D01*
X170516502Y-77789589D01*
X170533405Y-77768615D01*
X170599259Y-77702761D01*
X170661571Y-77668735D01*
X170732386Y-77673800D01*
X170777449Y-77702761D01*
X170867557Y-77792869D01*
X170879426Y-77802176D01*
X171013012Y-77883079D01*
X171026757Y-77889285D01*
X171176644Y-77936256D01*
X171189694Y-77938869D01*
X171244586Y-77943913D01*
X171256124Y-77940525D01*
X171257329Y-77939135D01*
X171259000Y-77931452D01*
X171259000Y-77926884D01*
X171767000Y-77926884D01*
X171771475Y-77942123D01*
X171772865Y-77943328D01*
X171777294Y-77944291D01*
X171836315Y-77938868D01*
X171849351Y-77936257D01*
X171999243Y-77889285D01*
X172012988Y-77883079D01*
X172146574Y-77802176D01*
X172158443Y-77792869D01*
X172268869Y-77682443D01*
X172278176Y-77670574D01*
X172359079Y-77536988D01*
X172365285Y-77523243D01*
X172412256Y-77373356D01*
X172414869Y-77360306D01*
X172420734Y-77296479D01*
X172421000Y-77290691D01*
X172421000Y-77234115D01*
X172416525Y-77218876D01*
X172415135Y-77217671D01*
X172407452Y-77216000D01*
X171785115Y-77216000D01*
X171769876Y-77220475D01*
X171768671Y-77221865D01*
X171767000Y-77229548D01*
X171767000Y-77926884D01*
X171259000Y-77926884D01*
X171259000Y-76689885D01*
X171767000Y-76689885D01*
X171771475Y-76705124D01*
X171772865Y-76706329D01*
X171780548Y-76708000D01*
X172402884Y-76708000D01*
X172418123Y-76703525D01*
X172419328Y-76702135D01*
X172420999Y-76694452D01*
X172420999Y-76633295D01*
X172420736Y-76627546D01*
X172414868Y-76563685D01*
X172412257Y-76550649D01*
X172365285Y-76400757D01*
X172359079Y-76387012D01*
X172278176Y-76253426D01*
X172268869Y-76241557D01*
X172158443Y-76131131D01*
X172146574Y-76121824D01*
X172012988Y-76040921D01*
X171999243Y-76034715D01*
X171849356Y-75987744D01*
X171836306Y-75985131D01*
X171781414Y-75980087D01*
X171769876Y-75983475D01*
X171768671Y-75984865D01*
X171767000Y-75992548D01*
X171767000Y-76689885D01*
X171259000Y-76689885D01*
X171259000Y-75997116D01*
X171254525Y-75981877D01*
X171253135Y-75980672D01*
X171248706Y-75979709D01*
X171189685Y-75985132D01*
X171176649Y-75987743D01*
X171026757Y-76034715D01*
X171013012Y-76040921D01*
X170879426Y-76121824D01*
X170867557Y-76131131D01*
X170777449Y-76221239D01*
X170715137Y-76255265D01*
X170644322Y-76250200D01*
X170599259Y-76221239D01*
X170503381Y-76125361D01*
X170356699Y-76036528D01*
X170349452Y-76034257D01*
X170349450Y-76034256D01*
X170283164Y-76013483D01*
X170193062Y-75985247D01*
X170119635Y-75978500D01*
X170116737Y-75978500D01*
X169862335Y-75978501D01*
X169606366Y-75978501D01*
X169603508Y-75978764D01*
X169603499Y-75978764D01*
X169569619Y-75981877D01*
X169532938Y-75985247D01*
X169526560Y-75987246D01*
X169526559Y-75987246D01*
X169376550Y-76034256D01*
X169376548Y-76034257D01*
X169369301Y-76036528D01*
X169222619Y-76125361D01*
X169101361Y-76246619D01*
X169012528Y-76393301D01*
X168961247Y-76556938D01*
X168954500Y-76630365D01*
X168954500Y-76633263D01*
X168954501Y-76962199D01*
X168954501Y-77293634D01*
X168961247Y-77367062D01*
X169012528Y-77530699D01*
X169101361Y-77677381D01*
X169192595Y-77768615D01*
X169226621Y-77830927D01*
X169229500Y-77857710D01*
X169229500Y-78860290D01*
X169209498Y-78928411D01*
X169192595Y-78949385D01*
X169117385Y-79024595D01*
X169055073Y-79058621D01*
X169028290Y-79061500D01*
X166614950Y-79061500D01*
X166546829Y-79041498D01*
X166533729Y-79030941D01*
X166533675Y-79031011D01*
X166527415Y-79026155D01*
X166521807Y-79020547D01*
X166514983Y-79016511D01*
X166514980Y-79016509D01*
X166385427Y-78939892D01*
X166385425Y-78939891D01*
X166378601Y-78935855D01*
X166370990Y-78933644D01*
X166370988Y-78933643D01*
X166308276Y-78915424D01*
X166218831Y-78889438D01*
X166212426Y-78888934D01*
X166212421Y-78888933D01*
X166183958Y-78886693D01*
X166183950Y-78886693D01*
X166181502Y-78886500D01*
X165023498Y-78886500D01*
X165021050Y-78886693D01*
X165021042Y-78886693D01*
X164992579Y-78888933D01*
X164992574Y-78888934D01*
X164986169Y-78889438D01*
X164896724Y-78915424D01*
X164834012Y-78933643D01*
X164834010Y-78933644D01*
X164826399Y-78935855D01*
X164819575Y-78939891D01*
X164819573Y-78939892D01*
X164690020Y-79016509D01*
X164690017Y-79016511D01*
X164683193Y-79020547D01*
X164565547Y-79138193D01*
X164563294Y-79142002D01*
X164507004Y-79182655D01*
X164436112Y-79186506D01*
X164374391Y-79151418D01*
X164367724Y-79143724D01*
X164364453Y-79138193D01*
X164246807Y-79020547D01*
X164239983Y-79016511D01*
X164239980Y-79016509D01*
X164110426Y-78939891D01*
X164110424Y-78939890D01*
X164103601Y-78935855D01*
X164098548Y-78934387D01*
X164044886Y-78889736D01*
X164023500Y-78819509D01*
X164023500Y-78430461D01*
X164043502Y-78362340D01*
X164097158Y-78315847D01*
X164167432Y-78305743D01*
X164215616Y-78323201D01*
X164315880Y-78385004D01*
X164329061Y-78391151D01*
X164477814Y-78440491D01*
X164491190Y-78443358D01*
X164582097Y-78452672D01*
X164587126Y-78452929D01*
X164602124Y-78448525D01*
X164603329Y-78447135D01*
X164605000Y-78439452D01*
X164605000Y-78434885D01*
X165113000Y-78434885D01*
X165117475Y-78450124D01*
X165118865Y-78451329D01*
X165126548Y-78453000D01*
X165129438Y-78453000D01*
X165135953Y-78452663D01*
X165228057Y-78443106D01*
X165241456Y-78440212D01*
X165390107Y-78390619D01*
X165403286Y-78384445D01*
X165536173Y-78302212D01*
X165547574Y-78293176D01*
X165657986Y-78182571D01*
X165666998Y-78171160D01*
X165749004Y-78038120D01*
X165755151Y-78024939D01*
X165804491Y-77876186D01*
X165807358Y-77862810D01*
X165816672Y-77771903D01*
X165817000Y-77765487D01*
X165817000Y-77742115D01*
X165812525Y-77726876D01*
X165811135Y-77725671D01*
X165803452Y-77724000D01*
X165131115Y-77724000D01*
X165115876Y-77728475D01*
X165114671Y-77729865D01*
X165113000Y-77737548D01*
X165113000Y-78434885D01*
X164605000Y-78434885D01*
X164605000Y-77197885D01*
X165113000Y-77197885D01*
X165117475Y-77213124D01*
X165118865Y-77214329D01*
X165126548Y-77216000D01*
X165798885Y-77216000D01*
X165814124Y-77211525D01*
X165815329Y-77210135D01*
X165817000Y-77202452D01*
X165817000Y-77174562D01*
X165816663Y-77168047D01*
X165807106Y-77075943D01*
X165804212Y-77062544D01*
X165754619Y-76913893D01*
X165748445Y-76900714D01*
X165666212Y-76767827D01*
X165657176Y-76756426D01*
X165546571Y-76646014D01*
X165535160Y-76637002D01*
X165402120Y-76554996D01*
X165388939Y-76548849D01*
X165240186Y-76499509D01*
X165226810Y-76496642D01*
X165135903Y-76487328D01*
X165130874Y-76487071D01*
X165115876Y-76491475D01*
X165114671Y-76492865D01*
X165113000Y-76500548D01*
X165113000Y-77197885D01*
X164605000Y-77197885D01*
X164605000Y-76505115D01*
X164600525Y-76489876D01*
X164599135Y-76488671D01*
X164591452Y-76487000D01*
X164588562Y-76487000D01*
X164582047Y-76487337D01*
X164489943Y-76496894D01*
X164476544Y-76499788D01*
X164327893Y-76549381D01*
X164314715Y-76555555D01*
X164215803Y-76616763D01*
X164147351Y-76635601D01*
X164079581Y-76614440D01*
X164034010Y-76559999D01*
X164023500Y-76509619D01*
X164023500Y-75565387D01*
X164043502Y-75497266D01*
X164089730Y-75456816D01*
X164088946Y-75455550D01*
X164233120Y-75366332D01*
X164239348Y-75362478D01*
X164364305Y-75237303D01*
X164366906Y-75233084D01*
X164424030Y-75192583D01*
X164494953Y-75189351D01*
X164556365Y-75224976D01*
X164562922Y-75232530D01*
X164566522Y-75238348D01*
X164691697Y-75363305D01*
X164697927Y-75367145D01*
X164697928Y-75367146D01*
X164835090Y-75451694D01*
X164842262Y-75456115D01*
X164906501Y-75477422D01*
X165003611Y-75509632D01*
X165003613Y-75509632D01*
X165010139Y-75511797D01*
X165016975Y-75512497D01*
X165016978Y-75512498D01*
X165060031Y-75516909D01*
X165114600Y-75522500D01*
X165965400Y-75522500D01*
X165968646Y-75522163D01*
X165968650Y-75522163D01*
X166064308Y-75512238D01*
X166064312Y-75512237D01*
X166071166Y-75511526D01*
X166077702Y-75509345D01*
X166077704Y-75509345D01*
X166209806Y-75465272D01*
X166238946Y-75455550D01*
X166389348Y-75362478D01*
X166514305Y-75237303D01*
X166551314Y-75177264D01*
X166603275Y-75092968D01*
X166603276Y-75092966D01*
X166607115Y-75086738D01*
X166636000Y-74999652D01*
X166660632Y-74925389D01*
X166660632Y-74925387D01*
X166662797Y-74918861D01*
X166673500Y-74814400D01*
X166673500Y-74673500D01*
X166693502Y-74605379D01*
X166747158Y-74558886D01*
X166799500Y-74547500D01*
X167630874Y-74547500D01*
X167698995Y-74567502D01*
X167745488Y-74621158D01*
X167748856Y-74629270D01*
X167753440Y-74641498D01*
X167779385Y-74710705D01*
X167866739Y-74827261D01*
X167983295Y-74914615D01*
X168119684Y-74965745D01*
X168181866Y-74972500D01*
X169378134Y-74972500D01*
X169440316Y-74965745D01*
X169576705Y-74914615D01*
X169693261Y-74827261D01*
X169780615Y-74710705D01*
X169831745Y-74574316D01*
X169838500Y-74512134D01*
X169838500Y-73315866D01*
X169831745Y-73253684D01*
X169780615Y-73117295D01*
X169693261Y-73000739D01*
X169576705Y-72913385D01*
X169440316Y-72862255D01*
X169378134Y-72855500D01*
X168181866Y-72855500D01*
X168119684Y-72862255D01*
X167983295Y-72913385D01*
X167866739Y-73000739D01*
X167779385Y-73117295D01*
X167776233Y-73125703D01*
X167748856Y-73198730D01*
X167706214Y-73255494D01*
X167639652Y-73280194D01*
X167630874Y-73280500D01*
X166799500Y-73280500D01*
X166731379Y-73260498D01*
X166684886Y-73206842D01*
X166673500Y-73154500D01*
X166673500Y-73013600D01*
X166672166Y-73000739D01*
X166663238Y-72914692D01*
X166663237Y-72914688D01*
X166662526Y-72907834D01*
X166659108Y-72897587D01*
X166608868Y-72747002D01*
X166606550Y-72740054D01*
X166513478Y-72589652D01*
X166388303Y-72464695D01*
X166365564Y-72450678D01*
X166237738Y-72371885D01*
X166238774Y-72370205D01*
X166192969Y-72329879D01*
X166173500Y-72262595D01*
X166173500Y-71332336D01*
X166193502Y-71264215D01*
X166247158Y-71217722D01*
X166264347Y-71211339D01*
X166370988Y-71180357D01*
X166370990Y-71180356D01*
X166378601Y-71178145D01*
X166407411Y-71161107D01*
X166514980Y-71097491D01*
X166514983Y-71097489D01*
X166521807Y-71093453D01*
X166639453Y-70975807D01*
X166643489Y-70968983D01*
X166643491Y-70968980D01*
X166720108Y-70839427D01*
X166724145Y-70832601D01*
X166770562Y-70672831D01*
X166773500Y-70635502D01*
X166773500Y-70202498D01*
X166773307Y-70200042D01*
X166771067Y-70171579D01*
X166771066Y-70171574D01*
X166770562Y-70165169D01*
X166732942Y-70035680D01*
X166726357Y-70013012D01*
X166726356Y-70013010D01*
X166724145Y-70005399D01*
X166720111Y-69998577D01*
X166717872Y-69993404D01*
X166709176Y-69922942D01*
X166717872Y-69893326D01*
X166725893Y-69874790D01*
X166764939Y-69740395D01*
X166764899Y-69726294D01*
X166757630Y-69723000D01*
X166519842Y-69723000D01*
X166455703Y-69705453D01*
X166385427Y-69663892D01*
X166385428Y-69663892D01*
X166378601Y-69659855D01*
X166370990Y-69657644D01*
X166370988Y-69657643D01*
X166292109Y-69634727D01*
X166218831Y-69613438D01*
X166212426Y-69612934D01*
X166212421Y-69612933D01*
X166183958Y-69610693D01*
X166183950Y-69610693D01*
X166181502Y-69610500D01*
X165023498Y-69610500D01*
X165021050Y-69610693D01*
X165021042Y-69610693D01*
X164992579Y-69612933D01*
X164992574Y-69612934D01*
X164986169Y-69613438D01*
X164912891Y-69634727D01*
X164834012Y-69657643D01*
X164834010Y-69657644D01*
X164826399Y-69659855D01*
X164819572Y-69663892D01*
X164819573Y-69663892D01*
X164749297Y-69705453D01*
X164685158Y-69723000D01*
X164453122Y-69723000D01*
X164437884Y-69727474D01*
X164429732Y-69736882D01*
X164370006Y-69775266D01*
X164299010Y-69775266D01*
X164257280Y-69753929D01*
X164252415Y-69750155D01*
X164246807Y-69744547D01*
X164239983Y-69740511D01*
X164239980Y-69740509D01*
X164110427Y-69663892D01*
X164110428Y-69663892D01*
X164103601Y-69659855D01*
X164095990Y-69657644D01*
X164095988Y-69657643D01*
X164051847Y-69644819D01*
X163992011Y-69606606D01*
X163962334Y-69542110D01*
X163961000Y-69523822D01*
X163961000Y-69414178D01*
X163981002Y-69346057D01*
X164034658Y-69299564D01*
X164051847Y-69293181D01*
X164095988Y-69280357D01*
X164095990Y-69280356D01*
X164103601Y-69278145D01*
X164246807Y-69193453D01*
X164252416Y-69187844D01*
X164257886Y-69183601D01*
X164323971Y-69157654D01*
X164393594Y-69171555D01*
X164435116Y-69209446D01*
X164447370Y-69215000D01*
X164685158Y-69215000D01*
X164749297Y-69232547D01*
X164826399Y-69278145D01*
X164834010Y-69280356D01*
X164834012Y-69280357D01*
X164878154Y-69293181D01*
X164986169Y-69324562D01*
X164992574Y-69325066D01*
X164992579Y-69325067D01*
X165021042Y-69327307D01*
X165021050Y-69327307D01*
X165023498Y-69327500D01*
X166181502Y-69327500D01*
X166183950Y-69327307D01*
X166183958Y-69327307D01*
X166212421Y-69325067D01*
X166212426Y-69325066D01*
X166218831Y-69324562D01*
X166326846Y-69293181D01*
X166370988Y-69280357D01*
X166370990Y-69280356D01*
X166378601Y-69278145D01*
X166455703Y-69232547D01*
X166519842Y-69215000D01*
X166751878Y-69215000D01*
X166767117Y-69210525D01*
X166779715Y-69195987D01*
X166839441Y-69157604D01*
X166874939Y-69152500D01*
X167995570Y-69152500D01*
X168063691Y-69172502D01*
X168065044Y-69173464D01*
X168067619Y-69176039D01*
X168078136Y-69182408D01*
X168088771Y-69188849D01*
X168136678Y-69241246D01*
X168149500Y-69296625D01*
X168149500Y-69720433D01*
X168148973Y-69731616D01*
X168147298Y-69739109D01*
X168147547Y-69747035D01*
X168147547Y-69747036D01*
X168149438Y-69807186D01*
X168149500Y-69811145D01*
X168149500Y-69839056D01*
X168149997Y-69842990D01*
X168149997Y-69842991D01*
X168150005Y-69843056D01*
X168150938Y-69854893D01*
X168152327Y-69899089D01*
X168157158Y-69915716D01*
X168157978Y-69918539D01*
X168161987Y-69937900D01*
X168164526Y-69957997D01*
X168167445Y-69965368D01*
X168167445Y-69965370D01*
X168180804Y-69999112D01*
X168184649Y-70010342D01*
X168190865Y-70031739D01*
X168196982Y-70052793D01*
X168201015Y-70059612D01*
X168201017Y-70059617D01*
X168207293Y-70070228D01*
X168215988Y-70087976D01*
X168223448Y-70106817D01*
X168228110Y-70113233D01*
X168228110Y-70113234D01*
X168249436Y-70142587D01*
X168255952Y-70152507D01*
X168278458Y-70190562D01*
X168292779Y-70204883D01*
X168305619Y-70219916D01*
X168317528Y-70236307D01*
X168323634Y-70241358D01*
X168351605Y-70264498D01*
X168360384Y-70272488D01*
X168841395Y-70753499D01*
X168875421Y-70815811D01*
X168878300Y-70842594D01*
X168878301Y-71197634D01*
X168878564Y-71200492D01*
X168878564Y-71200501D01*
X168880775Y-71224562D01*
X168885047Y-71271062D01*
X168936328Y-71434699D01*
X169025161Y-71581381D01*
X169146419Y-71702639D01*
X169293101Y-71791472D01*
X169300348Y-71793743D01*
X169300350Y-71793744D01*
X169366636Y-71814517D01*
X169456738Y-71842753D01*
X169530165Y-71849500D01*
X169533063Y-71849500D01*
X169787465Y-71849499D01*
X170043434Y-71849499D01*
X170046292Y-71849236D01*
X170046301Y-71849236D01*
X170081804Y-71845974D01*
X170116862Y-71842753D01*
X170123247Y-71840752D01*
X170273250Y-71793744D01*
X170273252Y-71793743D01*
X170280499Y-71791472D01*
X170427181Y-71702639D01*
X170522705Y-71607115D01*
X170585017Y-71573089D01*
X170655832Y-71578154D01*
X170700895Y-71607115D01*
X170766395Y-71672615D01*
X170800421Y-71734927D01*
X170803300Y-71761710D01*
X170803300Y-72835365D01*
X170783298Y-72903486D01*
X170752865Y-72936191D01*
X170666739Y-73000739D01*
X170579385Y-73117295D01*
X170528255Y-73253684D01*
X170521500Y-73315866D01*
X170521500Y-74512134D01*
X170528255Y-74574316D01*
X170579385Y-74710705D01*
X170666739Y-74827261D01*
X170783295Y-74914615D01*
X170919684Y-74965745D01*
X170981866Y-74972500D01*
X172178134Y-74972500D01*
X172240316Y-74965745D01*
X172376705Y-74914615D01*
X172493261Y-74827261D01*
X172580615Y-74710705D01*
X172631745Y-74574316D01*
X172638500Y-74512134D01*
X172638500Y-73315866D01*
X172631745Y-73253684D01*
X172580615Y-73117295D01*
X172493261Y-73000739D01*
X172376705Y-72913385D01*
X172240316Y-72862255D01*
X172195687Y-72857407D01*
X172182692Y-72855995D01*
X172117130Y-72828753D01*
X172076704Y-72770390D01*
X172070300Y-72730732D01*
X172070300Y-71761710D01*
X172090302Y-71693589D01*
X172107205Y-71672615D01*
X172198439Y-71581381D01*
X172287272Y-71434699D01*
X172338553Y-71271062D01*
X172345300Y-71197635D01*
X172345299Y-70534366D01*
X172338553Y-70460938D01*
X172303160Y-70347999D01*
X172289544Y-70304550D01*
X172289543Y-70304548D01*
X172287272Y-70297301D01*
X172198439Y-70150619D01*
X172120405Y-70072585D01*
X172086379Y-70010273D01*
X172083500Y-69983490D01*
X172083500Y-69259499D01*
X172103502Y-69191378D01*
X172143195Y-69152356D01*
X172152488Y-69146605D01*
X172152493Y-69146601D01*
X172158713Y-69142752D01*
X172279552Y-69021702D01*
X172281014Y-69019330D01*
X172337412Y-68979345D01*
X172378376Y-68972500D01*
X174050500Y-68972500D01*
X174118621Y-68992502D01*
G37*
%TD.AperFunction*%
%TA.AperFunction,Conductor*%
G36*
X174059121Y-65298002D02*
G01*
X174105614Y-65351658D01*
X174117000Y-65404000D01*
X174117000Y-67301298D01*
X174116998Y-67302068D01*
X174116524Y-67379652D01*
X174118990Y-67388281D01*
X174118991Y-67388286D01*
X174124639Y-67408048D01*
X174128217Y-67424809D01*
X174131130Y-67445152D01*
X174131133Y-67445162D01*
X174132405Y-67454045D01*
X174143021Y-67477395D01*
X174149464Y-67494907D01*
X174152607Y-67505901D01*
X174156512Y-67519565D01*
X174161300Y-67527155D01*
X174161701Y-67528050D01*
X174171258Y-67598400D01*
X174141265Y-67662750D01*
X174081242Y-67700668D01*
X174046684Y-67705500D01*
X172378379Y-67705500D01*
X172310258Y-67685498D01*
X172281116Y-67659106D01*
X172278752Y-67655287D01*
X172273568Y-67650112D01*
X172269022Y-67644376D01*
X172270829Y-67642944D01*
X172242098Y-67590425D01*
X172247108Y-67519605D01*
X172270499Y-67483147D01*
X172269448Y-67482317D01*
X172282998Y-67465160D01*
X172365004Y-67332120D01*
X172371151Y-67318939D01*
X172420491Y-67170186D01*
X172423358Y-67156810D01*
X172432672Y-67065903D01*
X172432929Y-67060874D01*
X172428525Y-67045876D01*
X172427135Y-67044671D01*
X172419452Y-67043000D01*
X170485115Y-67043000D01*
X170469876Y-67047475D01*
X170468671Y-67048865D01*
X170467000Y-67056548D01*
X170467000Y-67059438D01*
X170467337Y-67065953D01*
X170476894Y-67158057D01*
X170479788Y-67171456D01*
X170529381Y-67320107D01*
X170535555Y-67333286D01*
X170617788Y-67466173D01*
X170631371Y-67483311D01*
X170629441Y-67484841D01*
X170657903Y-67536880D01*
X170652887Y-67607699D01*
X170629201Y-67644617D01*
X170630157Y-67645372D01*
X170625619Y-67651118D01*
X170620448Y-67656298D01*
X170616608Y-67662528D01*
X170616607Y-67662529D01*
X170547884Y-67774019D01*
X170530698Y-67801899D01*
X170476851Y-67964243D01*
X170466500Y-68065268D01*
X170466500Y-68612732D01*
X170477113Y-68715019D01*
X170531244Y-68877268D01*
X170621248Y-69022713D01*
X170742298Y-69143552D01*
X170748530Y-69147394D01*
X170748532Y-69147395D01*
X170756617Y-69152379D01*
X170804110Y-69205152D01*
X170816500Y-69259638D01*
X170816500Y-69957090D01*
X170796498Y-70025211D01*
X170779595Y-70046185D01*
X170700895Y-70124885D01*
X170638583Y-70158911D01*
X170567768Y-70153846D01*
X170522705Y-70124885D01*
X170427181Y-70029361D01*
X170280499Y-69940528D01*
X170273252Y-69938257D01*
X170273250Y-69938256D01*
X170201324Y-69915716D01*
X170116862Y-69889247D01*
X170043435Y-69882500D01*
X170028641Y-69882500D01*
X169814396Y-69882501D01*
X169746276Y-69862499D01*
X169725300Y-69845596D01*
X169453404Y-69573699D01*
X169419379Y-69511387D01*
X169416500Y-69484604D01*
X169416500Y-69296625D01*
X169436502Y-69228504D01*
X169477229Y-69188849D01*
X169491880Y-69179976D01*
X169498381Y-69176039D01*
X169619639Y-69054781D01*
X169708472Y-68908099D01*
X169759753Y-68744462D01*
X169766500Y-68671035D01*
X169766499Y-68157766D01*
X169759753Y-68084338D01*
X169736615Y-68010506D01*
X169710744Y-67927950D01*
X169710743Y-67927948D01*
X169708472Y-67920701D01*
X169619639Y-67774019D01*
X169523761Y-67678141D01*
X169489735Y-67615829D01*
X169494800Y-67545014D01*
X169523761Y-67499951D01*
X169613869Y-67409843D01*
X169623176Y-67397974D01*
X169704079Y-67264388D01*
X169710285Y-67250643D01*
X169757256Y-67100756D01*
X169759869Y-67087706D01*
X169764913Y-67032814D01*
X169761525Y-67021276D01*
X169760135Y-67020071D01*
X169752452Y-67018400D01*
X167818116Y-67018400D01*
X167802877Y-67022875D01*
X167801672Y-67024265D01*
X167800709Y-67028694D01*
X167806132Y-67087715D01*
X167808743Y-67100751D01*
X167855715Y-67250643D01*
X167861921Y-67264388D01*
X167942824Y-67397974D01*
X167952131Y-67409843D01*
X168042239Y-67499951D01*
X168076265Y-67562263D01*
X168071200Y-67633078D01*
X168042239Y-67678141D01*
X167946361Y-67774019D01*
X167929477Y-67801899D01*
X167915625Y-67824771D01*
X167863228Y-67872677D01*
X167807849Y-67885500D01*
X166614950Y-67885500D01*
X166546829Y-67865498D01*
X166533729Y-67854941D01*
X166533675Y-67855011D01*
X166527415Y-67850155D01*
X166521807Y-67844547D01*
X166514983Y-67840511D01*
X166514980Y-67840509D01*
X166385427Y-67763892D01*
X166385428Y-67763892D01*
X166378601Y-67759855D01*
X166370990Y-67757644D01*
X166370988Y-67757643D01*
X166318769Y-67742472D01*
X166218831Y-67713438D01*
X166212426Y-67712934D01*
X166212421Y-67712933D01*
X166183958Y-67710693D01*
X166183950Y-67710693D01*
X166181502Y-67710500D01*
X165023498Y-67710500D01*
X165021050Y-67710693D01*
X165021042Y-67710693D01*
X164992579Y-67712933D01*
X164992574Y-67712934D01*
X164986169Y-67713438D01*
X164886231Y-67742472D01*
X164834012Y-67757643D01*
X164834010Y-67757644D01*
X164826399Y-67759855D01*
X164819572Y-67763892D01*
X164819573Y-67763892D01*
X164690020Y-67840509D01*
X164690017Y-67840511D01*
X164683193Y-67844547D01*
X164565547Y-67962193D01*
X164563294Y-67966002D01*
X164507004Y-68006655D01*
X164436112Y-68010506D01*
X164374391Y-67975418D01*
X164367724Y-67967724D01*
X164364453Y-67962193D01*
X164246807Y-67844547D01*
X164239983Y-67840511D01*
X164239980Y-67840509D01*
X164110427Y-67763892D01*
X164110428Y-67763892D01*
X164103601Y-67759855D01*
X164095990Y-67757644D01*
X164095988Y-67757643D01*
X164051847Y-67744819D01*
X163992011Y-67706606D01*
X163962334Y-67642110D01*
X163961000Y-67623822D01*
X163961000Y-67211740D01*
X163981002Y-67143619D01*
X164034658Y-67097126D01*
X164104932Y-67087022D01*
X164164917Y-67114418D01*
X164165683Y-67113448D01*
X164182840Y-67126998D01*
X164315880Y-67209004D01*
X164329061Y-67215151D01*
X164477814Y-67264491D01*
X164491190Y-67267358D01*
X164582097Y-67276672D01*
X164587126Y-67276929D01*
X164602124Y-67272525D01*
X164603329Y-67271135D01*
X164605000Y-67263452D01*
X164605000Y-67258885D01*
X165113000Y-67258885D01*
X165117475Y-67274124D01*
X165118865Y-67275329D01*
X165126548Y-67277000D01*
X165129438Y-67277000D01*
X165135953Y-67276663D01*
X165228057Y-67267106D01*
X165241456Y-67264212D01*
X165390107Y-67214619D01*
X165403286Y-67208445D01*
X165536173Y-67126212D01*
X165547574Y-67117176D01*
X165657986Y-67006571D01*
X165666998Y-66995160D01*
X165749004Y-66862120D01*
X165755151Y-66848939D01*
X165804491Y-66700186D01*
X165807358Y-66686810D01*
X165816672Y-66595903D01*
X165817000Y-66589487D01*
X165817000Y-66566115D01*
X165812525Y-66550876D01*
X165811135Y-66549671D01*
X165803452Y-66548000D01*
X165131115Y-66548000D01*
X165115876Y-66552475D01*
X165114671Y-66553865D01*
X165113000Y-66561548D01*
X165113000Y-67258885D01*
X164605000Y-67258885D01*
X164605000Y-66517126D01*
X170467071Y-66517126D01*
X170471475Y-66532124D01*
X170472865Y-66533329D01*
X170480548Y-66535000D01*
X171177885Y-66535000D01*
X171193124Y-66530525D01*
X171194329Y-66529135D01*
X171196000Y-66521452D01*
X171196000Y-66516885D01*
X171704000Y-66516885D01*
X171708475Y-66532124D01*
X171709865Y-66533329D01*
X171717548Y-66535000D01*
X172414885Y-66535000D01*
X172430124Y-66530525D01*
X172431329Y-66529135D01*
X172433000Y-66521452D01*
X172433000Y-66518562D01*
X172432663Y-66512047D01*
X172423106Y-66419943D01*
X172420212Y-66406544D01*
X172370619Y-66257893D01*
X172364445Y-66244714D01*
X172282212Y-66111827D01*
X172273176Y-66100426D01*
X172162571Y-65990014D01*
X172151160Y-65981002D01*
X172018120Y-65898996D01*
X172004939Y-65892849D01*
X171856186Y-65843509D01*
X171842810Y-65840642D01*
X171751903Y-65831328D01*
X171745486Y-65831000D01*
X171722115Y-65831000D01*
X171706876Y-65835475D01*
X171705671Y-65836865D01*
X171704000Y-65844548D01*
X171704000Y-66516885D01*
X171196000Y-66516885D01*
X171196000Y-65849115D01*
X171191525Y-65833876D01*
X171190135Y-65832671D01*
X171182452Y-65831000D01*
X171154562Y-65831000D01*
X171148047Y-65831337D01*
X171055943Y-65840894D01*
X171042544Y-65843788D01*
X170893893Y-65893381D01*
X170880714Y-65899555D01*
X170747827Y-65981788D01*
X170736426Y-65990824D01*
X170626014Y-66101429D01*
X170617002Y-66112840D01*
X170534996Y-66245880D01*
X170528849Y-66259061D01*
X170479509Y-66407814D01*
X170476642Y-66421190D01*
X170467328Y-66512097D01*
X170467071Y-66517126D01*
X164605000Y-66517126D01*
X164605000Y-66495986D01*
X167801087Y-66495986D01*
X167804475Y-66507524D01*
X167805865Y-66508729D01*
X167813548Y-66510400D01*
X168510885Y-66510400D01*
X168526124Y-66505925D01*
X168527329Y-66504535D01*
X168529000Y-66496852D01*
X168529000Y-66492285D01*
X169037000Y-66492285D01*
X169041475Y-66507524D01*
X169042865Y-66508729D01*
X169050548Y-66510400D01*
X169747884Y-66510400D01*
X169763123Y-66505925D01*
X169764328Y-66504535D01*
X169765291Y-66500106D01*
X169759868Y-66441085D01*
X169757257Y-66428049D01*
X169710285Y-66278157D01*
X169704079Y-66264412D01*
X169623176Y-66130826D01*
X169613869Y-66118957D01*
X169503443Y-66008531D01*
X169491574Y-65999224D01*
X169357988Y-65918321D01*
X169344243Y-65912115D01*
X169194356Y-65865144D01*
X169181306Y-65862531D01*
X169117479Y-65856666D01*
X169111691Y-65856400D01*
X169055115Y-65856400D01*
X169039876Y-65860875D01*
X169038671Y-65862265D01*
X169037000Y-65869948D01*
X169037000Y-66492285D01*
X168529000Y-66492285D01*
X168529000Y-65874516D01*
X168524525Y-65859277D01*
X168523135Y-65858072D01*
X168515452Y-65856401D01*
X168454295Y-65856401D01*
X168448546Y-65856664D01*
X168384685Y-65862532D01*
X168371649Y-65865143D01*
X168221757Y-65912115D01*
X168208012Y-65918321D01*
X168074426Y-65999224D01*
X168062557Y-66008531D01*
X167952131Y-66118957D01*
X167942824Y-66130826D01*
X167861921Y-66264412D01*
X167855715Y-66278157D01*
X167808744Y-66428044D01*
X167806131Y-66441094D01*
X167801087Y-66495986D01*
X164605000Y-66495986D01*
X164605000Y-66166000D01*
X164625002Y-66097879D01*
X164678658Y-66051386D01*
X164731000Y-66040000D01*
X165798885Y-66040000D01*
X165814124Y-66035525D01*
X165815329Y-66034135D01*
X165817000Y-66026452D01*
X165817000Y-65998562D01*
X165816663Y-65992047D01*
X165807106Y-65899943D01*
X165804212Y-65886544D01*
X165754619Y-65737893D01*
X165748445Y-65724714D01*
X165666212Y-65591827D01*
X165657176Y-65580426D01*
X165569771Y-65493173D01*
X165535692Y-65430890D01*
X165540695Y-65360070D01*
X165583192Y-65303198D01*
X165649691Y-65278329D01*
X165658789Y-65278000D01*
X173991000Y-65278000D01*
X174059121Y-65298002D01*
G37*
%TD.AperFunction*%
%TD*%
M02*
