%TF.GenerationSoftware,KiCad,Pcbnew,(6.0.2)*%
%TF.CreationDate,2022-09-06T11:12:12-04:00*%
%TF.ProjectId,PowerSupply,506f7765-7253-4757-9070-6c792e6b6963,rev?*%
%TF.SameCoordinates,Original*%
%TF.FileFunction,Copper,L2,Bot*%
%TF.FilePolarity,Positive*%
%FSLAX46Y46*%
G04 Gerber Fmt 4.6, Leading zero omitted, Abs format (unit mm)*
G04 Created by KiCad (PCBNEW (6.0.2)) date 2022-09-06 11:12:12*
%MOMM*%
%LPD*%
G01*
G04 APERTURE LIST*
G04 Aperture macros list*
%AMRoundRect*
0 Rectangle with rounded corners*
0 $1 Rounding radius*
0 $2 $3 $4 $5 $6 $7 $8 $9 X,Y pos of 4 corners*
0 Add a 4 corners polygon primitive as box body*
4,1,4,$2,$3,$4,$5,$6,$7,$8,$9,$2,$3,0*
0 Add four circle primitives for the rounded corners*
1,1,$1+$1,$2,$3*
1,1,$1+$1,$4,$5*
1,1,$1+$1,$6,$7*
1,1,$1+$1,$8,$9*
0 Add four rect primitives between the rounded corners*
20,1,$1+$1,$2,$3,$4,$5,0*
20,1,$1+$1,$4,$5,$6,$7,0*
20,1,$1+$1,$6,$7,$8,$9,0*
20,1,$1+$1,$8,$9,$2,$3,0*%
G04 Aperture macros list end*
%TA.AperFunction,ComponentPad*%
%ADD10RoundRect,0.500000X-3.250000X-0.500000X3.250000X-0.500000X3.250000X0.500000X-3.250000X0.500000X0*%
%TD*%
%TA.AperFunction,ComponentPad*%
%ADD11R,1.700000X1.700000*%
%TD*%
%TA.AperFunction,ComponentPad*%
%ADD12O,1.700000X1.700000*%
%TD*%
%TA.AperFunction,ComponentPad*%
%ADD13R,3.500000X3.500000*%
%TD*%
%TA.AperFunction,ComponentPad*%
%ADD14RoundRect,0.750000X-1.000000X0.750000X-1.000000X-0.750000X1.000000X-0.750000X1.000000X0.750000X0*%
%TD*%
%TA.AperFunction,ComponentPad*%
%ADD15RoundRect,0.875000X-0.875000X0.875000X-0.875000X-0.875000X0.875000X-0.875000X0.875000X0.875000X0*%
%TD*%
%TA.AperFunction,ComponentPad*%
%ADD16O,1.800000X3.400000*%
%TD*%
%TA.AperFunction,ComponentPad*%
%ADD17O,1.450000X3.100000*%
%TD*%
%TA.AperFunction,ViaPad*%
%ADD18C,0.800000*%
%TD*%
G04 APERTURE END LIST*
D10*
%TO.P,J1,1,Pin_1*%
%TO.N,+24V*%
X178435000Y-68580000D03*
%TO.P,J1,2,Pin_2*%
%TO.N,GND*%
X178435000Y-73660000D03*
%TO.P,J1,3,Pin_3*%
X178435000Y-78740000D03*
%TO.P,J1,4,Pin_4*%
%TO.N,+6V*%
X178435000Y-83820000D03*
%TD*%
D11*
%TO.P,BT1,1,+*%
%TO.N,+BATT*%
X153162000Y-83566000D03*
D12*
%TO.P,BT1,2,-*%
%TO.N,GND*%
X150622000Y-83566000D03*
%TD*%
D11*
%TO.P,D3,1,K*%
%TO.N,Net-(D3-Pad1)*%
X145542000Y-83566000D03*
D12*
%TO.P,D3,2,A*%
%TO.N,+5V*%
X143002000Y-83566000D03*
%TD*%
D13*
%TO.P,J2,1*%
%TO.N,+5V*%
X143822496Y-75341988D03*
D14*
%TO.P,J2,2*%
%TO.N,GND*%
X143822496Y-69341988D03*
D15*
%TO.P,J2,3*%
%TO.N,unconnected-(J2-Pad3)*%
X148522496Y-72341988D03*
%TD*%
D16*
%TO.P,SW1,1,1*%
%TO.N,Net-(D1-Pad1)*%
X155194000Y-69596000D03*
%TO.P,SW1,2,2*%
%TO.N,VBUS*%
X161294000Y-69596000D03*
D17*
%TO.P,SW1,3,K*%
%TO.N,Net-(R6-Pad2)*%
X160719000Y-73996000D03*
%TO.P,SW1,4,A*%
%TO.N,VBUS*%
X155769000Y-73996000D03*
%TD*%
D18*
%TO.N,GND*%
X150291800Y-74777600D03*
X159359600Y-83566000D03*
X170103800Y-79705200D03*
X171323000Y-72313800D03*
X167259000Y-77190600D03*
X167944800Y-69469000D03*
X171323000Y-74599800D03*
X160719008Y-80086200D03*
X168325800Y-74828400D03*
X168275000Y-71805800D03*
X169468800Y-77165200D03*
X168351200Y-82473800D03*
X171348400Y-82372200D03*
X144856200Y-78613000D03*
X146050000Y-77876400D03*
X168376600Y-79705200D03*
%TD*%
%TA.AperFunction,Conductor*%
%TO.N,GND*%
G36*
X153997299Y-67835986D02*
G01*
X154039105Y-67884233D01*
X154048191Y-67947424D01*
X154029880Y-67994286D01*
X154029022Y-67995333D01*
X154026651Y-67999499D01*
X153931998Y-68165780D01*
X153910773Y-68203066D01*
X153909135Y-68207579D01*
X153841947Y-68392680D01*
X153829216Y-68427753D01*
X153828362Y-68432474D01*
X153828362Y-68432475D01*
X153804831Y-68562606D01*
X153786682Y-68662969D01*
X153785500Y-68688032D01*
X153785500Y-70456012D01*
X153800617Y-70634175D01*
X153801821Y-70638815D01*
X153801822Y-70638819D01*
X153834377Y-70764247D01*
X153860668Y-70865540D01*
X153958843Y-71083480D01*
X154092334Y-71281762D01*
X154257326Y-71454718D01*
X154449100Y-71597402D01*
X154662172Y-71705733D01*
X154890452Y-71776616D01*
X155127411Y-71808023D01*
X155162739Y-71806697D01*
X155263204Y-71802925D01*
X155325091Y-71818600D01*
X155368678Y-71865245D01*
X155380128Y-71928051D01*
X155355805Y-71987076D01*
X155310264Y-72021046D01*
X155305875Y-72022837D01*
X155301049Y-72024322D01*
X155105386Y-72125312D01*
X154930699Y-72259354D01*
X154927303Y-72263086D01*
X154927302Y-72263087D01*
X154785906Y-72418478D01*
X154785903Y-72418483D01*
X154782509Y-72422212D01*
X154665501Y-72608739D01*
X154663620Y-72613418D01*
X154663618Y-72613422D01*
X154599278Y-72773472D01*
X154583373Y-72813038D01*
X154582351Y-72817974D01*
X154582349Y-72817980D01*
X154565778Y-72898000D01*
X154538722Y-73028652D01*
X154535500Y-73084530D01*
X154535500Y-74876866D01*
X154538377Y-74909104D01*
X154547013Y-75005859D01*
X154550088Y-75040317D01*
X154551420Y-75045186D01*
X154569627Y-75111739D01*
X154608189Y-75252702D01*
X154610359Y-75257251D01*
X154691802Y-75427999D01*
X154702983Y-75451441D01*
X154705924Y-75455533D01*
X154705927Y-75455539D01*
X154828526Y-75626153D01*
X154828529Y-75626157D01*
X154831472Y-75630252D01*
X154989596Y-75783484D01*
X154993788Y-75786301D01*
X155168165Y-75903479D01*
X155168170Y-75903482D01*
X155172355Y-75906294D01*
X155176970Y-75908320D01*
X155176974Y-75908322D01*
X155279427Y-75953295D01*
X155373973Y-75994798D01*
X155378867Y-75995973D01*
X155378870Y-75995974D01*
X155583175Y-76045023D01*
X155588078Y-76046200D01*
X155807902Y-76058875D01*
X156026496Y-76032422D01*
X156236951Y-75967678D01*
X156241435Y-75965364D01*
X156241439Y-75965362D01*
X156361333Y-75903479D01*
X156432614Y-75866688D01*
X156607301Y-75732646D01*
X156704203Y-75626153D01*
X156752094Y-75573522D01*
X156752097Y-75573517D01*
X156755491Y-75569788D01*
X156872499Y-75383261D01*
X156880899Y-75362367D01*
X156952745Y-75183644D01*
X156952745Y-75183642D01*
X156954627Y-75178962D01*
X156955649Y-75174026D01*
X156955651Y-75174020D01*
X156998435Y-74967417D01*
X156999278Y-74963348D01*
X157002500Y-74907470D01*
X157002500Y-73115134D01*
X156987912Y-72951683D01*
X156929811Y-72739298D01*
X156850968Y-72574001D01*
X156837189Y-72545112D01*
X156837187Y-72545109D01*
X156835017Y-72540559D01*
X156832076Y-72536467D01*
X156832073Y-72536461D01*
X156709474Y-72365847D01*
X156709471Y-72365843D01*
X156706528Y-72361748D01*
X156548404Y-72208516D01*
X156544212Y-72205699D01*
X156369835Y-72088521D01*
X156369830Y-72088518D01*
X156365645Y-72085706D01*
X156361030Y-72083680D01*
X156361026Y-72083678D01*
X156218345Y-72021046D01*
X156164027Y-71997202D01*
X156159133Y-71996027D01*
X156159130Y-71996026D01*
X155954825Y-71946977D01*
X155954824Y-71946977D01*
X155949922Y-71945800D01*
X155770030Y-71935427D01*
X155735129Y-71933415D01*
X155735128Y-71933415D01*
X155734080Y-71933355D01*
X155734078Y-71933354D01*
X155730098Y-71933125D01*
X155730144Y-71932332D01*
X155672611Y-71917381D01*
X155629313Y-71870468D01*
X155618251Y-71807593D01*
X155642938Y-71748719D01*
X155689232Y-71714814D01*
X155818074Y-71663932D01*
X155818076Y-71663931D01*
X155822533Y-71662171D01*
X155933995Y-71594534D01*
X156022777Y-71540660D01*
X156022780Y-71540658D01*
X156026883Y-71538168D01*
X156123051Y-71454718D01*
X156203793Y-71384654D01*
X156203796Y-71384651D01*
X156207419Y-71381507D01*
X156358978Y-71196667D01*
X156376210Y-71166396D01*
X156474853Y-70993105D01*
X156474854Y-70993102D01*
X156477227Y-70988934D01*
X156510216Y-70898050D01*
X156557147Y-70768758D01*
X156557148Y-70768754D01*
X156558784Y-70764247D01*
X156576050Y-70668767D01*
X156600653Y-70532710D01*
X156600653Y-70532706D01*
X156601318Y-70529031D01*
X156602500Y-70503968D01*
X156602500Y-68735988D01*
X156587383Y-68557825D01*
X156580623Y-68531778D01*
X156528539Y-68331110D01*
X156528539Y-68331109D01*
X156527332Y-68326460D01*
X156429157Y-68108520D01*
X156352443Y-67994573D01*
X156333155Y-67933718D01*
X156349830Y-67872093D01*
X156397174Y-67829267D01*
X156446429Y-67818000D01*
X160036044Y-67818000D01*
X160097299Y-67835986D01*
X160139105Y-67884233D01*
X160148191Y-67947424D01*
X160129880Y-67994286D01*
X160129022Y-67995333D01*
X160126651Y-67999499D01*
X160031998Y-68165780D01*
X160010773Y-68203066D01*
X160009135Y-68207579D01*
X159941947Y-68392680D01*
X159929216Y-68427753D01*
X159928362Y-68432474D01*
X159928362Y-68432475D01*
X159904831Y-68562606D01*
X159886682Y-68662969D01*
X159885500Y-68688032D01*
X159885500Y-70456012D01*
X159900617Y-70634175D01*
X159901821Y-70638815D01*
X159901822Y-70638819D01*
X159934377Y-70764247D01*
X159960668Y-70865540D01*
X160058843Y-71083480D01*
X160192334Y-71281762D01*
X160357326Y-71454718D01*
X160549100Y-71597402D01*
X160762172Y-71705733D01*
X160795769Y-71716165D01*
X160848935Y-71751506D01*
X160874554Y-71809981D01*
X160864492Y-71873024D01*
X160821944Y-71920619D01*
X160755649Y-71937481D01*
X160730371Y-71936024D01*
X160680098Y-71933125D01*
X160461504Y-71959578D01*
X160251049Y-72024322D01*
X160246565Y-72026636D01*
X160246561Y-72026638D01*
X160187022Y-72057369D01*
X160055386Y-72125312D01*
X159880699Y-72259354D01*
X159877303Y-72263086D01*
X159877302Y-72263087D01*
X159735906Y-72418478D01*
X159735903Y-72418483D01*
X159732509Y-72422212D01*
X159615501Y-72608739D01*
X159613620Y-72613418D01*
X159613618Y-72613422D01*
X159549278Y-72773472D01*
X159533373Y-72813038D01*
X159532351Y-72817974D01*
X159532349Y-72817980D01*
X159515778Y-72898000D01*
X159488722Y-73028652D01*
X159485500Y-73084530D01*
X159485500Y-74876866D01*
X159488377Y-74909104D01*
X159497013Y-75005859D01*
X159500088Y-75040317D01*
X159501420Y-75045186D01*
X159519627Y-75111739D01*
X159558189Y-75252702D01*
X159560359Y-75257251D01*
X159641802Y-75427999D01*
X159652983Y-75451441D01*
X159655924Y-75455533D01*
X159655927Y-75455539D01*
X159778526Y-75626153D01*
X159778529Y-75626157D01*
X159781472Y-75630252D01*
X159939596Y-75783484D01*
X159943788Y-75786301D01*
X160118165Y-75903479D01*
X160118170Y-75903482D01*
X160122355Y-75906294D01*
X160126970Y-75908320D01*
X160126974Y-75908322D01*
X160229427Y-75953295D01*
X160323973Y-75994798D01*
X160328867Y-75995973D01*
X160328870Y-75995974D01*
X160533175Y-76045023D01*
X160538078Y-76046200D01*
X160757902Y-76058875D01*
X160976496Y-76032422D01*
X161186951Y-75967678D01*
X161191435Y-75965364D01*
X161191439Y-75965362D01*
X161311333Y-75903479D01*
X161382614Y-75866688D01*
X161557301Y-75732646D01*
X161654203Y-75626153D01*
X161702094Y-75573522D01*
X161702097Y-75573517D01*
X161705491Y-75569788D01*
X161822499Y-75383261D01*
X161830899Y-75362367D01*
X161902745Y-75183644D01*
X161902745Y-75183642D01*
X161904627Y-75178962D01*
X161905649Y-75174026D01*
X161905651Y-75174020D01*
X161948435Y-74967417D01*
X161949278Y-74963348D01*
X161952500Y-74907470D01*
X161952500Y-73115134D01*
X161937912Y-72951683D01*
X161879811Y-72739298D01*
X161800968Y-72574001D01*
X161787189Y-72545112D01*
X161787187Y-72545109D01*
X161785017Y-72540559D01*
X161782076Y-72536467D01*
X161782073Y-72536461D01*
X161659474Y-72365847D01*
X161659471Y-72365843D01*
X161656528Y-72361748D01*
X161498404Y-72208516D01*
X161494212Y-72205699D01*
X161319835Y-72088521D01*
X161319830Y-72088518D01*
X161315645Y-72085706D01*
X161311028Y-72083679D01*
X161311022Y-72083676D01*
X161176268Y-72024524D01*
X161127408Y-71983434D01*
X161108520Y-71922451D01*
X161125600Y-71860938D01*
X161173225Y-71818424D01*
X161225989Y-71807834D01*
X161227411Y-71808023D01*
X161232207Y-71807843D01*
X161232209Y-71807843D01*
X161461480Y-71799235D01*
X161466274Y-71799055D01*
X161470966Y-71798070D01*
X161470970Y-71798070D01*
X161695513Y-71750956D01*
X161695516Y-71750955D01*
X161700211Y-71749970D01*
X161812227Y-71705733D01*
X161918078Y-71663931D01*
X161918084Y-71663928D01*
X161922533Y-71662171D01*
X162033995Y-71594534D01*
X162122777Y-71540660D01*
X162122780Y-71540658D01*
X162126883Y-71538168D01*
X162223051Y-71454718D01*
X162303793Y-71384654D01*
X162303796Y-71384651D01*
X162307419Y-71381507D01*
X162458978Y-71196667D01*
X162476210Y-71166396D01*
X162574853Y-70993105D01*
X162574854Y-70993102D01*
X162577227Y-70988934D01*
X162610216Y-70898050D01*
X162657147Y-70768758D01*
X162657148Y-70768754D01*
X162658784Y-70764247D01*
X162676050Y-70668767D01*
X162700653Y-70532710D01*
X162700653Y-70532706D01*
X162701318Y-70529031D01*
X162702500Y-70503968D01*
X162702500Y-68735988D01*
X162687383Y-68557825D01*
X162680623Y-68531778D01*
X162628539Y-68331110D01*
X162628539Y-68331109D01*
X162627332Y-68326460D01*
X162529157Y-68108520D01*
X162452443Y-67994573D01*
X162433155Y-67933718D01*
X162449830Y-67872093D01*
X162497174Y-67829267D01*
X162546429Y-67818000D01*
X174070562Y-67818000D01*
X174131817Y-67835986D01*
X174173623Y-67884233D01*
X174181626Y-67953696D01*
X174177639Y-67973467D01*
X174177638Y-67973477D01*
X174176808Y-67977592D01*
X174176500Y-67983672D01*
X174176500Y-69176328D01*
X174176808Y-69182408D01*
X174215900Y-69376284D01*
X174218029Y-69381398D01*
X174236267Y-69425212D01*
X174243202Y-69488675D01*
X174226747Y-69530371D01*
X174223793Y-69534928D01*
X174213640Y-69548304D01*
X174196044Y-69568228D01*
X174183125Y-69595744D01*
X174175643Y-69609213D01*
X174163498Y-69627951D01*
X174163496Y-69627956D01*
X174159107Y-69634727D01*
X174151488Y-69660202D01*
X174145504Y-69675874D01*
X174134201Y-69699948D01*
X174132959Y-69707928D01*
X174129524Y-69729987D01*
X174126124Y-69745013D01*
X174117413Y-69774141D01*
X174117364Y-69782213D01*
X174117203Y-69808463D01*
X174117166Y-69809358D01*
X174117000Y-69810423D01*
X174117000Y-69841376D01*
X174116998Y-69842068D01*
X174116524Y-69919652D01*
X174116901Y-69920972D01*
X174117000Y-69922419D01*
X174117000Y-72381376D01*
X174116998Y-72382068D01*
X174116727Y-72426488D01*
X174116524Y-72459652D01*
X174118743Y-72467415D01*
X174118743Y-72467417D01*
X174124878Y-72488883D01*
X174128096Y-72503956D01*
X174132405Y-72534045D01*
X174143410Y-72558251D01*
X174149205Y-72574001D01*
X174156512Y-72599565D01*
X174160814Y-72606384D01*
X174160816Y-72606388D01*
X174172732Y-72625273D01*
X174180044Y-72638823D01*
X174192633Y-72666510D01*
X174197903Y-72672626D01*
X174197905Y-72672629D01*
X174209985Y-72686649D01*
X174219973Y-72700147D01*
X174227496Y-72712070D01*
X174244972Y-72773472D01*
X174236276Y-72816070D01*
X174218509Y-72858752D01*
X174215286Y-72869293D01*
X174178138Y-73053527D01*
X174177096Y-73061836D01*
X174177073Y-73062284D01*
X174177000Y-73065164D01*
X174177000Y-73389709D01*
X174181024Y-73403415D01*
X174182273Y-73404497D01*
X174189183Y-73406000D01*
X178575700Y-73406000D01*
X178636955Y-73423986D01*
X178678761Y-73472233D01*
X178689000Y-73519300D01*
X178689000Y-73800700D01*
X178671014Y-73861955D01*
X178622767Y-73903761D01*
X178575700Y-73914000D01*
X174193291Y-73914000D01*
X174179585Y-73918024D01*
X174178503Y-73919273D01*
X174177000Y-73926183D01*
X174177000Y-74254836D01*
X174177073Y-74257716D01*
X174177096Y-74258164D01*
X174178138Y-74266473D01*
X174215287Y-74450711D01*
X174218508Y-74461247D01*
X174236597Y-74504703D01*
X174243532Y-74568166D01*
X174227075Y-74609864D01*
X174223795Y-74614925D01*
X174213640Y-74628304D01*
X174196044Y-74648228D01*
X174183125Y-74675744D01*
X174175643Y-74689213D01*
X174163498Y-74707951D01*
X174163496Y-74707956D01*
X174159107Y-74714727D01*
X174151488Y-74740202D01*
X174145504Y-74755874D01*
X174134201Y-74779948D01*
X174132959Y-74787928D01*
X174129524Y-74809987D01*
X174126124Y-74825013D01*
X174117413Y-74854141D01*
X174117364Y-74862213D01*
X174117203Y-74888463D01*
X174117166Y-74889358D01*
X174117000Y-74890423D01*
X174117000Y-74921376D01*
X174116998Y-74922068D01*
X174116524Y-74999652D01*
X174116901Y-75000972D01*
X174117000Y-75002419D01*
X174117000Y-77461376D01*
X174116998Y-77462068D01*
X174116524Y-77539652D01*
X174118743Y-77547415D01*
X174118743Y-77547417D01*
X174124878Y-77568883D01*
X174128096Y-77583956D01*
X174132405Y-77614045D01*
X174143410Y-77638251D01*
X174149205Y-77654001D01*
X174156512Y-77679565D01*
X174160814Y-77686384D01*
X174160816Y-77686388D01*
X174172732Y-77705273D01*
X174180044Y-77718823D01*
X174192633Y-77746510D01*
X174197903Y-77752626D01*
X174197905Y-77752629D01*
X174209985Y-77766649D01*
X174219973Y-77780147D01*
X174227496Y-77792070D01*
X174244972Y-77853472D01*
X174236276Y-77896070D01*
X174218509Y-77938752D01*
X174215286Y-77949293D01*
X174178138Y-78133527D01*
X174177096Y-78141836D01*
X174177073Y-78142284D01*
X174177000Y-78145164D01*
X174177000Y-78469709D01*
X174181024Y-78483415D01*
X174182273Y-78484497D01*
X174189183Y-78486000D01*
X178575700Y-78486000D01*
X178636955Y-78503986D01*
X178678761Y-78552233D01*
X178689000Y-78599300D01*
X178689000Y-78880700D01*
X178671014Y-78941955D01*
X178622767Y-78983761D01*
X178575700Y-78994000D01*
X174193291Y-78994000D01*
X174179585Y-78998024D01*
X174178503Y-78999273D01*
X174177000Y-79006183D01*
X174177000Y-79334836D01*
X174177073Y-79337716D01*
X174177096Y-79338164D01*
X174178138Y-79346473D01*
X174215287Y-79530711D01*
X174218508Y-79541247D01*
X174236597Y-79584703D01*
X174243532Y-79648166D01*
X174227075Y-79689864D01*
X174223795Y-79694925D01*
X174213640Y-79708304D01*
X174196044Y-79728228D01*
X174183125Y-79755744D01*
X174175643Y-79769213D01*
X174163498Y-79787951D01*
X174163496Y-79787956D01*
X174159107Y-79794727D01*
X174151488Y-79820202D01*
X174145504Y-79835874D01*
X174134201Y-79859948D01*
X174132959Y-79867928D01*
X174129524Y-79889987D01*
X174126124Y-79905013D01*
X174117413Y-79934141D01*
X174117364Y-79942213D01*
X174117203Y-79968463D01*
X174117166Y-79969358D01*
X174117000Y-79970423D01*
X174117000Y-80001376D01*
X174116998Y-80002068D01*
X174116524Y-80079652D01*
X174116901Y-80080972D01*
X174117000Y-80082419D01*
X174117000Y-82541376D01*
X174116998Y-82542068D01*
X174116615Y-82604825D01*
X174116524Y-82619652D01*
X174118743Y-82627415D01*
X174118743Y-82627417D01*
X174124878Y-82648883D01*
X174128096Y-82663956D01*
X174132405Y-82694045D01*
X174143410Y-82718251D01*
X174149205Y-82734001D01*
X174156512Y-82759565D01*
X174160814Y-82766384D01*
X174160816Y-82766388D01*
X174172732Y-82785273D01*
X174180044Y-82798823D01*
X174192633Y-82826510D01*
X174197903Y-82832626D01*
X174197905Y-82832629D01*
X174209985Y-82846649D01*
X174219974Y-82860148D01*
X174227170Y-82871553D01*
X174244645Y-82932955D01*
X174235949Y-82975551D01*
X174215900Y-83023716D01*
X174176808Y-83217592D01*
X174176500Y-83223672D01*
X174176500Y-84416328D01*
X174176808Y-84422408D01*
X174177638Y-84426523D01*
X174177639Y-84426533D01*
X174181626Y-84446304D01*
X174176104Y-84509905D01*
X174137072Y-84560424D01*
X174070562Y-84582000D01*
X154633553Y-84582000D01*
X154572298Y-84564014D01*
X154530492Y-84515767D01*
X154520712Y-84464134D01*
X154520500Y-84464134D01*
X154520500Y-82667866D01*
X154520170Y-82664824D01*
X154520169Y-82664814D01*
X154514512Y-82612749D01*
X154513745Y-82605684D01*
X154495967Y-82558259D01*
X154465449Y-82476854D01*
X154465448Y-82476853D01*
X154462615Y-82469295D01*
X154375261Y-82352739D01*
X154258705Y-82265385D01*
X154251147Y-82262552D01*
X154251146Y-82262551D01*
X154128970Y-82216749D01*
X154128967Y-82216748D01*
X154122316Y-82214255D01*
X154090646Y-82210815D01*
X154063186Y-82207831D01*
X154063176Y-82207830D01*
X154060134Y-82207500D01*
X152263866Y-82207500D01*
X152260824Y-82207830D01*
X152260814Y-82207831D01*
X152233354Y-82210815D01*
X152201684Y-82214255D01*
X152195033Y-82216748D01*
X152195030Y-82216749D01*
X152072854Y-82262551D01*
X152072853Y-82262552D01*
X152065295Y-82265385D01*
X151948739Y-82352739D01*
X151861385Y-82469295D01*
X151858552Y-82476853D01*
X151858551Y-82476854D01*
X151830989Y-82550375D01*
X151810255Y-82605684D01*
X151807963Y-82604825D01*
X151782127Y-82650039D01*
X151725514Y-82679545D01*
X151661936Y-82673760D01*
X151619776Y-82644642D01*
X151554454Y-82572855D01*
X151547677Y-82566535D01*
X151379735Y-82433903D01*
X151372005Y-82428767D01*
X151184657Y-82325345D01*
X151176194Y-82321542D01*
X150974472Y-82250108D01*
X150965501Y-82247738D01*
X150892039Y-82234652D01*
X150880083Y-82235964D01*
X150876000Y-82249055D01*
X150876000Y-83706700D01*
X150858014Y-83767955D01*
X150809767Y-83809761D01*
X150762700Y-83820000D01*
X149303401Y-83820000D01*
X149291233Y-83823573D01*
X149289941Y-83832561D01*
X149320679Y-83968952D01*
X149323450Y-83977797D01*
X149403966Y-84176085D01*
X149408143Y-84184354D01*
X149519963Y-84366827D01*
X149525436Y-84374305D01*
X149542945Y-84394518D01*
X149569456Y-84452593D01*
X149560361Y-84515783D01*
X149518547Y-84564024D01*
X149457307Y-84582000D01*
X147013553Y-84582000D01*
X146952298Y-84564014D01*
X146910492Y-84515767D01*
X146900712Y-84464134D01*
X146900500Y-84464134D01*
X146900500Y-83301327D01*
X149286071Y-83301327D01*
X149287450Y-83308948D01*
X149298584Y-83312000D01*
X150351709Y-83312000D01*
X150365415Y-83307976D01*
X150366497Y-83306727D01*
X150368000Y-83299817D01*
X150368000Y-82247278D01*
X150364476Y-82235278D01*
X150351636Y-82233491D01*
X150310801Y-82239740D01*
X150301794Y-82241886D01*
X150098372Y-82308374D01*
X150089820Y-82311969D01*
X149900002Y-82410782D01*
X149892154Y-82415724D01*
X149721020Y-82544216D01*
X149714082Y-82550375D01*
X149566231Y-82705093D01*
X149560401Y-82712293D01*
X149439796Y-82889091D01*
X149435222Y-82897144D01*
X149345119Y-83091255D01*
X149341915Y-83099965D01*
X149286071Y-83301327D01*
X146900500Y-83301327D01*
X146900500Y-82667866D01*
X146900170Y-82664824D01*
X146900169Y-82664814D01*
X146894512Y-82612749D01*
X146893745Y-82605684D01*
X146875967Y-82558259D01*
X146845449Y-82476854D01*
X146845448Y-82476853D01*
X146842615Y-82469295D01*
X146755261Y-82352739D01*
X146638705Y-82265385D01*
X146631147Y-82262552D01*
X146631146Y-82262551D01*
X146508970Y-82216749D01*
X146508967Y-82216748D01*
X146502316Y-82214255D01*
X146470646Y-82210815D01*
X146443186Y-82207831D01*
X146443176Y-82207830D01*
X146440134Y-82207500D01*
X144643866Y-82207500D01*
X144640824Y-82207830D01*
X144640814Y-82207831D01*
X144613354Y-82210815D01*
X144581684Y-82214255D01*
X144575033Y-82216748D01*
X144575030Y-82216749D01*
X144452854Y-82262551D01*
X144452853Y-82262552D01*
X144445295Y-82265385D01*
X144328739Y-82352739D01*
X144241385Y-82469295D01*
X144238552Y-82476853D01*
X144238551Y-82476854D01*
X144210989Y-82550375D01*
X144190255Y-82605684D01*
X144187801Y-82604764D01*
X144162272Y-82649446D01*
X144105661Y-82678955D01*
X144042082Y-82673174D01*
X143999919Y-82644056D01*
X143931670Y-82569051D01*
X143928023Y-82566171D01*
X143928019Y-82566167D01*
X143790602Y-82457642D01*
X143756359Y-82430598D01*
X143560789Y-82322638D01*
X143391108Y-82262551D01*
X143354601Y-82249623D01*
X143354599Y-82249622D01*
X143350212Y-82248069D01*
X143130284Y-82208894D01*
X143125639Y-82208837D01*
X143125636Y-82208837D01*
X143012127Y-82207450D01*
X142906911Y-82206165D01*
X142902311Y-82206869D01*
X142902309Y-82206869D01*
X142712172Y-82235964D01*
X142686091Y-82239955D01*
X142473756Y-82309357D01*
X142469631Y-82311504D01*
X142469627Y-82311506D01*
X142288193Y-82405955D01*
X142275607Y-82412507D01*
X142271887Y-82415300D01*
X142167328Y-82493805D01*
X142107544Y-82516201D01*
X142045143Y-82502719D01*
X141999937Y-82457642D01*
X141986000Y-82403201D01*
X141986000Y-77713788D01*
X142003986Y-77652533D01*
X142052233Y-77610727D01*
X142099300Y-77600488D01*
X145620630Y-77600488D01*
X145623672Y-77600158D01*
X145623682Y-77600157D01*
X145651142Y-77597173D01*
X145682812Y-77593733D01*
X145689463Y-77591240D01*
X145689466Y-77591239D01*
X145811642Y-77545437D01*
X145811643Y-77545436D01*
X145819201Y-77542603D01*
X145935757Y-77455249D01*
X146023111Y-77338693D01*
X146025945Y-77331134D01*
X146071747Y-77208958D01*
X146071748Y-77208955D01*
X146074241Y-77202304D01*
X146078079Y-77166973D01*
X146080665Y-77143174D01*
X146080666Y-77143164D01*
X146080996Y-77140122D01*
X146080996Y-73585193D01*
X146098982Y-73523938D01*
X146145107Y-73483971D01*
X146143854Y-73484221D01*
X146129234Y-73478478D01*
X146172640Y-73478478D01*
X146210420Y-73473046D01*
X146268492Y-73499567D01*
X146303007Y-73553273D01*
X146305495Y-73563477D01*
X146312116Y-73597381D01*
X146395300Y-73816940D01*
X146397729Y-73821071D01*
X146397729Y-73821072D01*
X146459521Y-73926183D01*
X146514287Y-74019344D01*
X146665677Y-74198807D01*
X146845140Y-74350197D01*
X147047544Y-74469184D01*
X147267103Y-74552368D01*
X147497539Y-74597369D01*
X147501461Y-74597581D01*
X147501466Y-74597582D01*
X147553611Y-74600406D01*
X147553625Y-74600406D01*
X147555132Y-74600488D01*
X149489860Y-74600488D01*
X149491367Y-74600406D01*
X149491381Y-74600406D01*
X149543526Y-74597582D01*
X149543531Y-74597581D01*
X149547453Y-74597369D01*
X149777889Y-74552368D01*
X149997448Y-74469184D01*
X150199852Y-74350197D01*
X150379315Y-74198807D01*
X150530705Y-74019344D01*
X150585472Y-73926183D01*
X150647263Y-73821072D01*
X150647263Y-73821071D01*
X150649692Y-73816940D01*
X150732876Y-73597381D01*
X150777877Y-73366945D01*
X150780996Y-73309352D01*
X150780996Y-71374624D01*
X150779581Y-71348484D01*
X150778090Y-71320958D01*
X150778089Y-71320953D01*
X150777877Y-71317031D01*
X150732876Y-71086595D01*
X150649692Y-70867036D01*
X150646079Y-70860890D01*
X150533136Y-70668767D01*
X150533135Y-70668766D01*
X150530705Y-70664632D01*
X150379315Y-70485169D01*
X150199852Y-70333779D01*
X149997448Y-70214792D01*
X149777889Y-70131608D01*
X149547453Y-70086607D01*
X149543531Y-70086395D01*
X149543526Y-70086394D01*
X149491381Y-70083570D01*
X149491367Y-70083570D01*
X149489860Y-70083488D01*
X147555132Y-70083488D01*
X147553625Y-70083570D01*
X147553611Y-70083570D01*
X147501466Y-70086394D01*
X147501461Y-70086395D01*
X147497539Y-70086607D01*
X147267103Y-70131608D01*
X147047544Y-70214792D01*
X146845140Y-70333779D01*
X146665677Y-70485169D01*
X146514287Y-70664632D01*
X146511857Y-70668766D01*
X146511856Y-70668767D01*
X146398913Y-70860890D01*
X146395300Y-70867036D01*
X146312116Y-71086595D01*
X146267115Y-71317031D01*
X146266903Y-71320953D01*
X146266902Y-71320958D01*
X146265412Y-71348484D01*
X146263996Y-71374624D01*
X146263996Y-73309352D01*
X146266903Y-73363018D01*
X146267023Y-73365238D01*
X146252376Y-73427376D01*
X146206461Y-73471731D01*
X146172640Y-73478478D01*
X146129234Y-73478478D01*
X146084433Y-73460880D01*
X146047799Y-73411138D01*
X146025944Y-73352840D01*
X146023111Y-73345283D01*
X145935757Y-73228727D01*
X145819201Y-73141373D01*
X145811643Y-73138540D01*
X145811642Y-73138539D01*
X145689466Y-73092737D01*
X145689463Y-73092736D01*
X145682812Y-73090243D01*
X145651142Y-73086803D01*
X145623682Y-73083819D01*
X145623672Y-73083818D01*
X145620630Y-73083488D01*
X142099300Y-73083488D01*
X142038045Y-73065502D01*
X141996239Y-73017255D01*
X141986000Y-72970188D01*
X141986000Y-71259433D01*
X142003986Y-71198178D01*
X142052233Y-71156372D01*
X142115424Y-71147286D01*
X142163961Y-71166396D01*
X142192549Y-71186265D01*
X142201278Y-71191243D01*
X142396283Y-71280524D01*
X142405757Y-71283879D01*
X142613699Y-71337270D01*
X142623189Y-71338862D01*
X142757677Y-71349801D01*
X142762284Y-71349988D01*
X143552205Y-71349988D01*
X143565911Y-71345964D01*
X143566993Y-71344715D01*
X143568496Y-71337805D01*
X143568496Y-71333696D01*
X144076496Y-71333696D01*
X144080520Y-71347402D01*
X144081769Y-71348484D01*
X144088679Y-71349987D01*
X144882706Y-71349987D01*
X144887317Y-71349800D01*
X145021804Y-71338862D01*
X145031291Y-71337270D01*
X145239235Y-71283879D01*
X145248709Y-71280524D01*
X145443714Y-71191243D01*
X145452445Y-71186264D01*
X145628558Y-71063863D01*
X145636270Y-71057414D01*
X145787922Y-70905762D01*
X145794371Y-70898050D01*
X145916772Y-70721937D01*
X145921751Y-70713206D01*
X146011032Y-70518201D01*
X146014387Y-70508727D01*
X146067778Y-70300785D01*
X146069370Y-70291295D01*
X146080309Y-70156807D01*
X146080496Y-70152200D01*
X146080496Y-69612279D01*
X146076472Y-69598573D01*
X146075223Y-69597491D01*
X146068313Y-69595988D01*
X144092787Y-69595988D01*
X144079081Y-69600012D01*
X144077999Y-69601261D01*
X144076496Y-69608171D01*
X144076496Y-71333696D01*
X143568496Y-71333696D01*
X143568496Y-69201288D01*
X143586482Y-69140033D01*
X143634729Y-69098227D01*
X143681796Y-69087988D01*
X146064204Y-69087988D01*
X146077910Y-69083964D01*
X146078992Y-69082715D01*
X146080495Y-69075805D01*
X146080495Y-68531778D01*
X146080308Y-68527167D01*
X146069370Y-68392680D01*
X146067778Y-68383193D01*
X146014387Y-68175249D01*
X146011034Y-68165780D01*
X145925274Y-67978464D01*
X145916129Y-67915282D01*
X145942594Y-67857186D01*
X145996267Y-67822620D01*
X146028291Y-67818000D01*
X153936044Y-67818000D01*
X153997299Y-67835986D01*
G37*
%TD.AperFunction*%
%TD*%
M02*
