%TF.GenerationSoftware,KiCad,Pcbnew,(6.0.2)*%
%TF.CreationDate,2022-08-31T14:57:05-04:00*%
%TF.ProjectId,PowerSupply,506f7765-7253-4757-9070-6c792e6b6963,rev?*%
%TF.SameCoordinates,Original*%
%TF.FileFunction,Paste,Top*%
%TF.FilePolarity,Positive*%
%FSLAX46Y46*%
G04 Gerber Fmt 4.6, Leading zero omitted, Abs format (unit mm)*
G04 Created by KiCad (PCBNEW (6.0.2)) date 2022-08-31 14:57:05*
%MOMM*%
%LPD*%
G01*
G04 APERTURE LIST*
G04 Aperture macros list*
%AMRoundRect*
0 Rectangle with rounded corners*
0 $1 Rounding radius*
0 $2 $3 $4 $5 $6 $7 $8 $9 X,Y pos of 4 corners*
0 Add a 4 corners polygon primitive as box body*
4,1,4,$2,$3,$4,$5,$6,$7,$8,$9,$2,$3,0*
0 Add four circle primitives for the rounded corners*
1,1,$1+$1,$2,$3*
1,1,$1+$1,$4,$5*
1,1,$1+$1,$6,$7*
1,1,$1+$1,$8,$9*
0 Add four rect primitives between the rounded corners*
20,1,$1+$1,$2,$3,$4,$5,0*
20,1,$1+$1,$4,$5,$6,$7,0*
20,1,$1+$1,$6,$7,$8,$9,0*
20,1,$1+$1,$8,$9,$2,$3,0*%
G04 Aperture macros list end*
%ADD10RoundRect,0.150000X0.512500X0.150000X-0.512500X0.150000X-0.512500X-0.150000X0.512500X-0.150000X0*%
%ADD11RoundRect,0.200000X0.200000X0.275000X-0.200000X0.275000X-0.200000X-0.275000X0.200000X-0.275000X0*%
%ADD12R,1.100000X1.100000*%
%ADD13RoundRect,0.250000X-0.375000X-0.850000X0.375000X-0.850000X0.375000X0.850000X-0.375000X0.850000X0*%
%ADD14RoundRect,0.200000X0.275000X-0.200000X0.275000X0.200000X-0.275000X0.200000X-0.275000X-0.200000X0*%
%ADD15RoundRect,0.150000X-0.150000X0.587500X-0.150000X-0.587500X0.150000X-0.587500X0.150000X0.587500X0*%
%ADD16RoundRect,0.225000X-0.225000X-0.250000X0.225000X-0.250000X0.225000X0.250000X-0.225000X0.250000X0*%
%ADD17RoundRect,0.200000X-0.200000X-0.275000X0.200000X-0.275000X0.200000X0.275000X-0.200000X0.275000X0*%
%ADD18RoundRect,0.225000X0.225000X0.250000X-0.225000X0.250000X-0.225000X-0.250000X0.225000X-0.250000X0*%
%ADD19RoundRect,0.225000X0.250000X-0.225000X0.250000X0.225000X-0.250000X0.225000X-0.250000X-0.225000X0*%
%ADD20RoundRect,0.150000X0.150000X-0.512500X0.150000X0.512500X-0.150000X0.512500X-0.150000X-0.512500X0*%
G04 APERTURE END LIST*
D10*
%TO.C,U1*%
X165602500Y-70419000D03*
X165602500Y-69469000D03*
X165602500Y-68519000D03*
X163327500Y-68519000D03*
X163327500Y-70419000D03*
%TD*%
D11*
%TO.C,R3*%
X171513000Y-79756000D03*
X169863000Y-79756000D03*
%TD*%
%TO.C,R1*%
X171436800Y-70866000D03*
X169786800Y-70866000D03*
%TD*%
D12*
%TO.C,D4*%
X171580000Y-73914000D03*
X168780000Y-73914000D03*
%TD*%
%TO.C,D5*%
X171580000Y-85090000D03*
X168780000Y-85090000D03*
%TD*%
D13*
%TO.C,L1*%
X163390000Y-73914000D03*
X165540000Y-73914000D03*
%TD*%
D14*
%TO.C,R5*%
X142240000Y-79819000D03*
X142240000Y-78169000D03*
%TD*%
D15*
%TO.C,Q1*%
X158531600Y-76989700D03*
X156631600Y-76989700D03*
X157581600Y-78864700D03*
%TD*%
D13*
%TO.C,L2*%
X163390000Y-85090000D03*
X165540000Y-85090000D03*
%TD*%
D16*
%TO.C,C2*%
X163309000Y-77470000D03*
X164859000Y-77470000D03*
%TD*%
D12*
%TO.C,D1*%
X156638800Y-73634600D03*
X159438800Y-73634600D03*
%TD*%
D17*
%TO.C,R8*%
X146495000Y-78232000D03*
X148145000Y-78232000D03*
%TD*%
D16*
%TO.C,C1*%
X163309000Y-66294000D03*
X164859000Y-66294000D03*
%TD*%
D18*
%TO.C,C6*%
X171463000Y-82296000D03*
X169913000Y-82296000D03*
%TD*%
D19*
%TO.C,C3*%
X157581600Y-83274200D03*
X157581600Y-81724200D03*
%TD*%
%TO.C,C5*%
X171450000Y-68339000D03*
X171450000Y-66789000D03*
%TD*%
D10*
%TO.C,U2*%
X165602500Y-81595000D03*
X165602500Y-80645000D03*
X165602500Y-79695000D03*
X163327500Y-79695000D03*
X163327500Y-81595000D03*
%TD*%
D19*
%TO.C,C4*%
X153339800Y-74612800D03*
X153339800Y-73062800D03*
%TD*%
D11*
%TO.C,R7*%
X148145000Y-80264000D03*
X146495000Y-80264000D03*
%TD*%
D14*
%TO.C,R2*%
X168783000Y-68414400D03*
X168783000Y-66764400D03*
%TD*%
D20*
%TO.C,IC1*%
X151450000Y-79369500D03*
X152400000Y-79369500D03*
X153350000Y-79369500D03*
X153350000Y-77094500D03*
X151450000Y-77094500D03*
%TD*%
D17*
%TO.C,R4*%
X169863000Y-76962000D03*
X171513000Y-76962000D03*
%TD*%
M02*
