%TF.GenerationSoftware,KiCad,Pcbnew,(6.0.2)*%
%TF.CreationDate,2022-09-06T11:12:12-04:00*%
%TF.ProjectId,PowerSupply,506f7765-7253-4757-9070-6c792e6b6963,rev?*%
%TF.SameCoordinates,Original*%
%TF.FileFunction,Copper,L1,Top*%
%TF.FilePolarity,Positive*%
%FSLAX46Y46*%
G04 Gerber Fmt 4.6, Leading zero omitted, Abs format (unit mm)*
G04 Created by KiCad (PCBNEW (6.0.2)) date 2022-09-06 11:12:12*
%MOMM*%
%LPD*%
G01*
G04 APERTURE LIST*
G04 Aperture macros list*
%AMRoundRect*
0 Rectangle with rounded corners*
0 $1 Rounding radius*
0 $2 $3 $4 $5 $6 $7 $8 $9 X,Y pos of 4 corners*
0 Add a 4 corners polygon primitive as box body*
4,1,4,$2,$3,$4,$5,$6,$7,$8,$9,$2,$3,0*
0 Add four circle primitives for the rounded corners*
1,1,$1+$1,$2,$3*
1,1,$1+$1,$4,$5*
1,1,$1+$1,$6,$7*
1,1,$1+$1,$8,$9*
0 Add four rect primitives between the rounded corners*
20,1,$1+$1,$2,$3,$4,$5,0*
20,1,$1+$1,$4,$5,$6,$7,0*
20,1,$1+$1,$6,$7,$8,$9,0*
20,1,$1+$1,$8,$9,$2,$3,0*%
G04 Aperture macros list end*
%TA.AperFunction,SMDPad,CuDef*%
%ADD10RoundRect,0.150000X0.512500X0.150000X-0.512500X0.150000X-0.512500X-0.150000X0.512500X-0.150000X0*%
%TD*%
%TA.AperFunction,SMDPad,CuDef*%
%ADD11RoundRect,0.200000X0.200000X0.275000X-0.200000X0.275000X-0.200000X-0.275000X0.200000X-0.275000X0*%
%TD*%
%TA.AperFunction,SMDPad,CuDef*%
%ADD12R,1.100000X1.100000*%
%TD*%
%TA.AperFunction,SMDPad,CuDef*%
%ADD13RoundRect,0.250000X-0.375000X-0.850000X0.375000X-0.850000X0.375000X0.850000X-0.375000X0.850000X0*%
%TD*%
%TA.AperFunction,SMDPad,CuDef*%
%ADD14RoundRect,0.200000X-0.200000X-0.275000X0.200000X-0.275000X0.200000X0.275000X-0.200000X0.275000X0*%
%TD*%
%TA.AperFunction,SMDPad,CuDef*%
%ADD15RoundRect,0.150000X0.150000X-0.587500X0.150000X0.587500X-0.150000X0.587500X-0.150000X-0.587500X0*%
%TD*%
%TA.AperFunction,ComponentPad*%
%ADD16RoundRect,0.500000X-3.250000X-0.500000X3.250000X-0.500000X3.250000X0.500000X-3.250000X0.500000X0*%
%TD*%
%TA.AperFunction,SMDPad,CuDef*%
%ADD17RoundRect,0.225000X-0.225000X-0.250000X0.225000X-0.250000X0.225000X0.250000X-0.225000X0.250000X0*%
%TD*%
%TA.AperFunction,SMDPad,CuDef*%
%ADD18RoundRect,0.225000X0.225000X0.250000X-0.225000X0.250000X-0.225000X-0.250000X0.225000X-0.250000X0*%
%TD*%
%TA.AperFunction,ComponentPad*%
%ADD19R,1.700000X1.700000*%
%TD*%
%TA.AperFunction,ComponentPad*%
%ADD20O,1.700000X1.700000*%
%TD*%
%TA.AperFunction,SMDPad,CuDef*%
%ADD21RoundRect,0.200000X0.275000X-0.200000X0.275000X0.200000X-0.275000X0.200000X-0.275000X-0.200000X0*%
%TD*%
%TA.AperFunction,SMDPad,CuDef*%
%ADD22RoundRect,0.200000X-0.275000X0.200000X-0.275000X-0.200000X0.275000X-0.200000X0.275000X0.200000X0*%
%TD*%
%TA.AperFunction,SMDPad,CuDef*%
%ADD23RoundRect,0.150000X0.150000X-0.512500X0.150000X0.512500X-0.150000X0.512500X-0.150000X-0.512500X0*%
%TD*%
%TA.AperFunction,ComponentPad*%
%ADD24R,3.500000X3.500000*%
%TD*%
%TA.AperFunction,ComponentPad*%
%ADD25RoundRect,0.750000X-1.000000X0.750000X-1.000000X-0.750000X1.000000X-0.750000X1.000000X0.750000X0*%
%TD*%
%TA.AperFunction,ComponentPad*%
%ADD26RoundRect,0.875000X-0.875000X0.875000X-0.875000X-0.875000X0.875000X-0.875000X0.875000X0.875000X0*%
%TD*%
%TA.AperFunction,ComponentPad*%
%ADD27O,1.800000X3.400000*%
%TD*%
%TA.AperFunction,ComponentPad*%
%ADD28O,1.450000X3.100000*%
%TD*%
%TA.AperFunction,ViaPad*%
%ADD29C,0.800000*%
%TD*%
%TA.AperFunction,Conductor*%
%ADD30C,0.250000*%
%TD*%
%TA.AperFunction,Conductor*%
%ADD31C,0.508000*%
%TD*%
G04 APERTURE END LIST*
D10*
%TO.P,U1,1,SW*%
%TO.N,Net-(D4-Pad2)*%
X166669300Y-70419000D03*
%TO.P,U1,2,GND*%
%TO.N,GND*%
X166669300Y-69469000D03*
%TO.P,U1,3,FB*%
%TO.N,Net-(R1-Pad2)*%
X166669300Y-68519000D03*
%TO.P,U1,4,~{SHDN}*%
%TO.N,VBUS*%
X164394300Y-68519000D03*
%TO.P,U1,5,IN*%
X164394300Y-70419000D03*
%TD*%
D11*
%TO.P,R3,1*%
%TO.N,+6V*%
X172732200Y-78562200D03*
%TO.P,R3,2*%
%TO.N,Net-(R3-Pad2)*%
X171082200Y-78562200D03*
%TD*%
%TO.P,R1,1*%
%TO.N,+24V*%
X172706800Y-68580000D03*
%TO.P,R1,2*%
%TO.N,Net-(R1-Pad2)*%
X171056800Y-68580000D03*
%TD*%
D12*
%TO.P,D4,1,K*%
%TO.N,+24V*%
X172723000Y-73406000D03*
%TO.P,D4,2,A*%
%TO.N,Net-(D4-Pad2)*%
X169923000Y-73406000D03*
%TD*%
%TO.P,D5,1,K*%
%TO.N,+6V*%
X172723000Y-83820000D03*
%TO.P,D5,2,A*%
%TO.N,Net-(D5-Pad2)*%
X169923000Y-83820000D03*
%TD*%
D13*
%TO.P,L1,1,1*%
%TO.N,VBUS*%
X164456800Y-73355200D03*
%TO.P,L1,2,2*%
%TO.N,Net-(D4-Pad2)*%
X166606800Y-73355200D03*
%TD*%
D14*
%TO.P,R5,1*%
%TO.N,+5V*%
X143193000Y-79877488D03*
%TO.P,R5,2*%
%TO.N,GND*%
X144843000Y-79877488D03*
%TD*%
D15*
%TO.P,Q1,1,G*%
%TO.N,+5V*%
X155514000Y-79474300D03*
%TO.P,Q1,2,S*%
%TO.N,Net-(D1-Pad1)*%
X157414000Y-79474300D03*
%TO.P,Q1,3,D*%
%TO.N,+BATT*%
X156464000Y-77599300D03*
%TD*%
D13*
%TO.P,L2,1,1*%
%TO.N,VBUS*%
X164456800Y-83261200D03*
%TO.P,L2,2,2*%
%TO.N,Net-(D5-Pad2)*%
X166606800Y-83261200D03*
%TD*%
D12*
%TO.P,D1,1,K*%
%TO.N,Net-(D1-Pad1)*%
X152400000Y-69262800D03*
%TO.P,D1,2,A*%
%TO.N,+5V*%
X152400000Y-72062800D03*
%TD*%
D14*
%TO.P,R8,1*%
%TO.N,GND*%
X147257000Y-77724000D03*
%TO.P,R8,2*%
%TO.N,Net-(IC1-Pad5)*%
X148907000Y-77724000D03*
%TD*%
D16*
%TO.P,J1,1,Pin_1*%
%TO.N,+24V*%
X178435000Y-68580000D03*
%TO.P,J1,2,Pin_2*%
%TO.N,GND*%
X178435000Y-73660000D03*
%TO.P,J1,3,Pin_3*%
X178435000Y-78740000D03*
%TO.P,J1,4,Pin_4*%
%TO.N,+6V*%
X178435000Y-83820000D03*
%TD*%
D17*
%TO.P,C1,1*%
%TO.N,VBUS*%
X164401200Y-76200000D03*
%TO.P,C1,2*%
%TO.N,GND*%
X165951200Y-76200000D03*
%TD*%
D18*
%TO.P,C6,1*%
%TO.N,+6V*%
X172733000Y-80772000D03*
%TO.P,C6,2*%
%TO.N,GND*%
X171183000Y-80772000D03*
%TD*%
%TO.P,C3,1*%
%TO.N,GND*%
X158014005Y-83566000D03*
%TO.P,C3,2*%
%TO.N,+BATT*%
X156464005Y-83566000D03*
%TD*%
D19*
%TO.P,BT1,1,+*%
%TO.N,+BATT*%
X153162000Y-83566000D03*
D20*
%TO.P,BT1,2,-*%
%TO.N,GND*%
X150622000Y-83566000D03*
%TD*%
D19*
%TO.P,D3,1,K*%
%TO.N,Net-(D3-Pad1)*%
X145542000Y-83566000D03*
D20*
%TO.P,D3,2,A*%
%TO.N,+5V*%
X143002000Y-83566000D03*
%TD*%
D18*
%TO.P,C5,1*%
%TO.N,+24V*%
X172707600Y-70840600D03*
%TO.P,C5,2*%
%TO.N,GND*%
X171157600Y-70840600D03*
%TD*%
D21*
%TO.P,R6,1*%
%TO.N,GND*%
X160719008Y-78930000D03*
%TO.P,R6,2*%
%TO.N,Net-(R6-Pad2)*%
X160719008Y-77280000D03*
%TD*%
D10*
%TO.P,U2,1,SW*%
%TO.N,Net-(D5-Pad2)*%
X166669300Y-80452000D03*
%TO.P,U2,2,GND*%
%TO.N,GND*%
X166669300Y-79502000D03*
%TO.P,U2,3,FB*%
%TO.N,Net-(R3-Pad2)*%
X166669300Y-78552000D03*
%TO.P,U2,4,~{SHDN}*%
%TO.N,VBUS*%
X164394300Y-78552000D03*
%TO.P,U2,5,IN*%
X164394300Y-80452000D03*
%TD*%
D18*
%TO.P,C4,1*%
%TO.N,+5V*%
X153175000Y-74777600D03*
%TO.P,C4,2*%
%TO.N,GND*%
X151625000Y-74777600D03*
%TD*%
D11*
%TO.P,R7,1*%
%TO.N,Net-(IC1-Pad1)*%
X148907000Y-79877488D03*
%TO.P,R7,2*%
%TO.N,Net-(D3-Pad1)*%
X147257000Y-79877488D03*
%TD*%
D22*
%TO.P,R2,1*%
%TO.N,Net-(R1-Pad2)*%
X169062400Y-68593200D03*
%TO.P,R2,2*%
%TO.N,GND*%
X169062400Y-70243200D03*
%TD*%
D23*
%TO.P,IC1,1,STAT*%
%TO.N,Net-(IC1-Pad1)*%
X151261989Y-79877500D03*
%TO.P,IC1,2,VSS*%
%TO.N,GND*%
X152211989Y-79877500D03*
%TO.P,IC1,3,VBAT*%
%TO.N,+BATT*%
X153161989Y-79877500D03*
%TO.P,IC1,4,VDD*%
%TO.N,+5V*%
X153161989Y-77602500D03*
%TO.P,IC1,5,PROG*%
%TO.N,Net-(IC1-Pad5)*%
X151261989Y-77602500D03*
%TD*%
D14*
%TO.P,R4,1*%
%TO.N,Net-(R3-Pad2)*%
X171082200Y-76184608D03*
%TO.P,R4,2*%
%TO.N,GND*%
X172732200Y-76184608D03*
%TD*%
D24*
%TO.P,J2,1*%
%TO.N,+5V*%
X143822496Y-75341988D03*
D25*
%TO.P,J2,2*%
%TO.N,GND*%
X143822496Y-69341988D03*
D26*
%TO.P,J2,3*%
%TO.N,unconnected-(J2-Pad3)*%
X148522496Y-72341988D03*
%TD*%
D27*
%TO.P,SW1,1,1*%
%TO.N,Net-(D1-Pad1)*%
X155194000Y-69596000D03*
%TO.P,SW1,2,2*%
%TO.N,VBUS*%
X161294000Y-69596000D03*
D28*
%TO.P,SW1,3,K*%
%TO.N,Net-(R6-Pad2)*%
X160719000Y-73996000D03*
%TO.P,SW1,4,A*%
%TO.N,VBUS*%
X155769000Y-73996000D03*
%TD*%
D29*
%TO.N,GND*%
X150291800Y-74777600D03*
X159359600Y-83566000D03*
X170103800Y-79705200D03*
X171323000Y-72313800D03*
X167259000Y-77190600D03*
X167944800Y-69469000D03*
X171323000Y-74599800D03*
X160719008Y-80086200D03*
X168325800Y-74828400D03*
X168275000Y-71805800D03*
X169468800Y-77165200D03*
X168351200Y-82473800D03*
X171348400Y-82372200D03*
X144856200Y-78613000D03*
X146050000Y-77876400D03*
X168376600Y-79705200D03*
%TD*%
D30*
%TO.N,Net-(R6-Pad2)*%
X160719000Y-77279992D02*
X160719000Y-73996000D01*
X160719008Y-77280000D02*
X160719000Y-77279992D01*
%TO.N,GND*%
X160719008Y-78930000D02*
X160719008Y-80086200D01*
D31*
%TO.N,+BATT*%
X156464005Y-77599305D02*
X156464000Y-77599300D01*
X153162000Y-79877511D02*
X153161989Y-79877500D01*
X156464005Y-83566000D02*
X156464005Y-77599305D01*
D30*
X156460800Y-79877500D02*
X156464000Y-79880700D01*
D31*
X153162000Y-83566000D02*
X153162000Y-79877511D01*
D30*
%TO.N,GND*%
X144843000Y-78626200D02*
X144856200Y-78613000D01*
X158001000Y-83566000D02*
X159359600Y-83566000D01*
X147257000Y-77724000D02*
X146050000Y-77724000D01*
X151625000Y-74777600D02*
X150291800Y-74777600D01*
X144843000Y-79877488D02*
X144843000Y-78626200D01*
X152211989Y-79877500D02*
X152211989Y-80261072D01*
D31*
%TO.N,Net-(D1-Pad1)*%
X157414000Y-79474300D02*
X157414000Y-76642000D01*
X155194000Y-76200000D02*
X154355800Y-75361800D01*
X154355800Y-71323200D02*
X155194000Y-70485000D01*
X154860800Y-69262800D02*
X155194000Y-69596000D01*
X157414000Y-76642000D02*
X156972000Y-76200000D01*
X155194000Y-70485000D02*
X155194000Y-69596000D01*
X152400000Y-69262800D02*
X154860800Y-69262800D01*
X154355800Y-75361800D02*
X154355800Y-71323200D01*
X156972000Y-76200000D02*
X155194000Y-76200000D01*
%TO.N,+24V*%
X172706792Y-68580000D02*
X172706792Y-70839813D01*
X172722997Y-70855992D02*
X172722997Y-73406000D01*
D30*
X172707600Y-70840600D02*
X172723000Y-70856000D01*
D31*
X172706792Y-68580000D02*
X178435000Y-68580000D01*
D30*
X172706800Y-70839800D02*
X172707600Y-70840600D01*
D31*
%TO.N,+6V*%
X178435000Y-83820000D02*
X172722997Y-83820000D01*
D30*
X172733000Y-78563000D02*
X172732200Y-78562200D01*
D31*
X172733005Y-80772000D02*
X172733005Y-78562987D01*
X172722997Y-80782008D02*
X172722997Y-83820000D01*
D30*
X172733000Y-80772000D02*
X172723000Y-80782000D01*
%TO.N,Net-(D3-Pad1)*%
X147257000Y-81851000D02*
X145542000Y-83566000D01*
X147257000Y-79877488D02*
X147257000Y-81851000D01*
%TO.N,Net-(D4-Pad2)*%
X166669300Y-70495200D02*
X166606800Y-70557700D01*
D31*
X166606804Y-70557695D02*
X166606804Y-73406000D01*
X166606804Y-73406000D02*
X169923003Y-73406000D01*
%TO.N,Net-(D5-Pad2)*%
X166606804Y-83312000D02*
X166606804Y-80514495D01*
D30*
X167114800Y-83820000D02*
X166606800Y-83312000D01*
X166606800Y-80514500D02*
X166669300Y-80452000D01*
D31*
X169923003Y-83820000D02*
X167114804Y-83820000D01*
D30*
%TO.N,Net-(IC1-Pad1)*%
X151261977Y-79877488D02*
X151261989Y-79877500D01*
X148907000Y-79877488D02*
X151261977Y-79877488D01*
%TO.N,Net-(IC1-Pad5)*%
X151140489Y-77724000D02*
X151261989Y-77602500D01*
X148907000Y-77724000D02*
X151140489Y-77724000D01*
%TO.N,Net-(R1-Pad2)*%
X169075600Y-68580000D02*
X169062400Y-68593200D01*
X166669300Y-68519000D02*
X168988200Y-68519000D01*
X168988200Y-68519000D02*
X169062400Y-68593200D01*
X171056800Y-68580000D02*
X169075600Y-68580000D01*
%TO.N,Net-(R3-Pad2)*%
X171072000Y-78552000D02*
X171082200Y-78562200D01*
X171082200Y-78562200D02*
X171082200Y-76184608D01*
X166669300Y-78552000D02*
X171072000Y-78552000D01*
%TO.N,VBUS*%
X161294000Y-70404800D02*
X161294000Y-69596000D01*
%TD*%
%TA.AperFunction,Conductor*%
%TO.N,+5V*%
G36*
X153981380Y-67838002D02*
G01*
X154027873Y-67891658D01*
X154037977Y-67961932D01*
X154022761Y-68006332D01*
X153910773Y-68203066D01*
X153833014Y-68417291D01*
X153790970Y-68474499D01*
X153724671Y-68499895D01*
X153714575Y-68500300D01*
X153489277Y-68500300D01*
X153421156Y-68480298D01*
X153388451Y-68449865D01*
X153363915Y-68417126D01*
X153313261Y-68349539D01*
X153196705Y-68262185D01*
X153060316Y-68211055D01*
X152998134Y-68204300D01*
X151801866Y-68204300D01*
X151739684Y-68211055D01*
X151603295Y-68262185D01*
X151486739Y-68349539D01*
X151399385Y-68466095D01*
X151348255Y-68602484D01*
X151341500Y-68664666D01*
X151341500Y-69860934D01*
X151348255Y-69923116D01*
X151399385Y-70059505D01*
X151486739Y-70176061D01*
X151603295Y-70263415D01*
X151739684Y-70314545D01*
X151801866Y-70321300D01*
X152998134Y-70321300D01*
X153060316Y-70314545D01*
X153196705Y-70263415D01*
X153313261Y-70176061D01*
X153388452Y-70075735D01*
X153445310Y-70033220D01*
X153489277Y-70025300D01*
X153659500Y-70025300D01*
X153727621Y-70045302D01*
X153774114Y-70098958D01*
X153785500Y-70151300D01*
X153785500Y-70456012D01*
X153800617Y-70634175D01*
X153801957Y-70639339D01*
X153801958Y-70639343D01*
X153816720Y-70696215D01*
X153814473Y-70767176D01*
X153788870Y-70811652D01*
X153787734Y-70812928D01*
X153785147Y-70815515D01*
X153782881Y-70818379D01*
X153782874Y-70818387D01*
X153767428Y-70837911D01*
X153764637Y-70841315D01*
X153721855Y-70891672D01*
X153721852Y-70891676D01*
X153717116Y-70897251D01*
X153713788Y-70903768D01*
X153710411Y-70908832D01*
X153707184Y-70914056D01*
X153702640Y-70919800D01*
X153699541Y-70926431D01*
X153671568Y-70986282D01*
X153669637Y-70990233D01*
X153662009Y-71005171D01*
X153636257Y-71055604D01*
X153634516Y-71062719D01*
X153632379Y-71068465D01*
X153630455Y-71074248D01*
X153627356Y-71080879D01*
X153625866Y-71088043D01*
X153612408Y-71152747D01*
X153611436Y-71157040D01*
X153602629Y-71193028D01*
X153567008Y-71254442D01*
X153503839Y-71286848D01*
X153433177Y-71279957D01*
X153379415Y-71238642D01*
X153318285Y-71157076D01*
X153305724Y-71144515D01*
X153203649Y-71068014D01*
X153188054Y-71059476D01*
X153067606Y-71014322D01*
X153052351Y-71010695D01*
X153001486Y-71005169D01*
X152994672Y-71004800D01*
X152672115Y-71004800D01*
X152656876Y-71009275D01*
X152655671Y-71010665D01*
X152654000Y-71018348D01*
X152654000Y-73102684D01*
X152658475Y-73117923D01*
X152659865Y-73119128D01*
X152667548Y-73120799D01*
X152994669Y-73120799D01*
X153001490Y-73120429D01*
X153052352Y-73114905D01*
X153067604Y-73111279D01*
X153188054Y-73066124D01*
X153203649Y-73057586D01*
X153305724Y-72981085D01*
X153318281Y-72968528D01*
X153366473Y-72904225D01*
X153423333Y-72861710D01*
X153494151Y-72856684D01*
X153556445Y-72890744D01*
X153590435Y-72953075D01*
X153593300Y-72979790D01*
X153593300Y-73669846D01*
X153573298Y-73737967D01*
X153519642Y-73784460D01*
X153455119Y-73795079D01*
X153455118Y-73795092D01*
X153455057Y-73795089D01*
X153454448Y-73795189D01*
X153451898Y-73794927D01*
X153446874Y-73794671D01*
X153431876Y-73799075D01*
X153430671Y-73800465D01*
X153429000Y-73808148D01*
X153429000Y-75742485D01*
X153433475Y-75757724D01*
X153434865Y-75758929D01*
X153442548Y-75760600D01*
X153445438Y-75760600D01*
X153451953Y-75760263D01*
X153544057Y-75750706D01*
X153557460Y-75747811D01*
X153579008Y-75740622D01*
X153649958Y-75738037D01*
X153711042Y-75774220D01*
X153726598Y-75794773D01*
X153750027Y-75833381D01*
X153753741Y-75837586D01*
X153753743Y-75837589D01*
X153757467Y-75841805D01*
X153757438Y-75841831D01*
X153760038Y-75844762D01*
X153762842Y-75848116D01*
X153766854Y-75854235D01*
X153772166Y-75859267D01*
X153823386Y-75907788D01*
X153825828Y-75910166D01*
X154607190Y-76691528D01*
X154619577Y-76705941D01*
X154632546Y-76723564D01*
X154660423Y-76747247D01*
X154673055Y-76757979D01*
X154680571Y-76764909D01*
X154686315Y-76770653D01*
X154689189Y-76772927D01*
X154689196Y-76772933D01*
X154708711Y-76788372D01*
X154712115Y-76791163D01*
X154762472Y-76833945D01*
X154762476Y-76833948D01*
X154768051Y-76838684D01*
X154774568Y-76842012D01*
X154779632Y-76845389D01*
X154784856Y-76848616D01*
X154790600Y-76853160D01*
X154857104Y-76884242D01*
X154861001Y-76886147D01*
X154926404Y-76919543D01*
X154933518Y-76921284D01*
X154939252Y-76923416D01*
X154945048Y-76925344D01*
X154951680Y-76928444D01*
X155023555Y-76943394D01*
X155027839Y-76944364D01*
X155099112Y-76961804D01*
X155104714Y-76962152D01*
X155104717Y-76962152D01*
X155110330Y-76962500D01*
X155110328Y-76962537D01*
X155114227Y-76962773D01*
X155118598Y-76963163D01*
X155125757Y-76964652D01*
X155203577Y-76962546D01*
X155206986Y-76962500D01*
X155529500Y-76962500D01*
X155597621Y-76982502D01*
X155644114Y-77036158D01*
X155655500Y-77088500D01*
X155655500Y-78253302D01*
X155655693Y-78255750D01*
X155655693Y-78255758D01*
X155657771Y-78282152D01*
X155658438Y-78290631D01*
X155696502Y-78421649D01*
X155701505Y-78456802D01*
X155701505Y-79602300D01*
X155681503Y-79670421D01*
X155627847Y-79716914D01*
X155575505Y-79728300D01*
X155386000Y-79728300D01*
X155317879Y-79708298D01*
X155271386Y-79654642D01*
X155260000Y-79602300D01*
X155260000Y-78249922D01*
X155256027Y-78236391D01*
X155248129Y-78235256D01*
X155108210Y-78275907D01*
X155093779Y-78282152D01*
X154964322Y-78358711D01*
X154951896Y-78368351D01*
X154845551Y-78474696D01*
X154835911Y-78487122D01*
X154759352Y-78616579D01*
X154753107Y-78631010D01*
X154710731Y-78776865D01*
X154708430Y-78789467D01*
X154706193Y-78817884D01*
X154706000Y-78822814D01*
X154706000Y-78995036D01*
X154685998Y-79063157D01*
X154632342Y-79109650D01*
X154579500Y-79119171D01*
X154579500Y-79121000D01*
X154004594Y-79121000D01*
X153936473Y-79100998D01*
X153896144Y-79059143D01*
X153836442Y-78958193D01*
X153718796Y-78840547D01*
X153714670Y-78838107D01*
X153673923Y-78781680D01*
X153670075Y-78710788D01*
X153705164Y-78649069D01*
X153715489Y-78640123D01*
X153724094Y-78633448D01*
X153830438Y-78527104D01*
X153840078Y-78514678D01*
X153916637Y-78385221D01*
X153922882Y-78370790D01*
X153965258Y-78224935D01*
X153967559Y-78212333D01*
X153969796Y-78183916D01*
X153969989Y-78178986D01*
X153969989Y-77874615D01*
X153965514Y-77859376D01*
X153964124Y-77858171D01*
X153956441Y-77856500D01*
X152372105Y-77856500D01*
X152356866Y-77860975D01*
X152355661Y-77862365D01*
X152353990Y-77870048D01*
X152353990Y-78178984D01*
X152354184Y-78183920D01*
X152356419Y-78212336D01*
X152358719Y-78224931D01*
X152401096Y-78370790D01*
X152407341Y-78385221D01*
X152484896Y-78516361D01*
X152502355Y-78585178D01*
X152479838Y-78652509D01*
X152424493Y-78696978D01*
X152376442Y-78706500D01*
X152048116Y-78706500D01*
X151979995Y-78686498D01*
X151933502Y-78632842D01*
X151923398Y-78562568D01*
X151939661Y-78516364D01*
X152021134Y-78378601D01*
X152023404Y-78370790D01*
X152046691Y-78290631D01*
X152067551Y-78218831D01*
X152068062Y-78212336D01*
X152070296Y-78183958D01*
X152070296Y-78183950D01*
X152070489Y-78181502D01*
X152070489Y-77330385D01*
X152353989Y-77330385D01*
X152358464Y-77345624D01*
X152359854Y-77346829D01*
X152367537Y-77348500D01*
X152889874Y-77348500D01*
X152905113Y-77344025D01*
X152906318Y-77342635D01*
X152907989Y-77334952D01*
X152907989Y-77330385D01*
X153415989Y-77330385D01*
X153420464Y-77345624D01*
X153421854Y-77346829D01*
X153429537Y-77348500D01*
X153951873Y-77348500D01*
X153967112Y-77344025D01*
X153968317Y-77342635D01*
X153969988Y-77334952D01*
X153969988Y-77026017D01*
X153969794Y-77021080D01*
X153967559Y-76992664D01*
X153965259Y-76980069D01*
X153922882Y-76834210D01*
X153916637Y-76819779D01*
X153840078Y-76690322D01*
X153830438Y-76677896D01*
X153724093Y-76571551D01*
X153711667Y-76561911D01*
X153582210Y-76485352D01*
X153567779Y-76479107D01*
X153433384Y-76440061D01*
X153419283Y-76440101D01*
X153415989Y-76447370D01*
X153415989Y-77330385D01*
X152907989Y-77330385D01*
X152907989Y-76453122D01*
X152904016Y-76439591D01*
X152896118Y-76438456D01*
X152756199Y-76479107D01*
X152741768Y-76485352D01*
X152612311Y-76561911D01*
X152599885Y-76571551D01*
X152493540Y-76677896D01*
X152483900Y-76690322D01*
X152407341Y-76819779D01*
X152401096Y-76834210D01*
X152358720Y-76980065D01*
X152356419Y-76992667D01*
X152354182Y-77021084D01*
X152353989Y-77026014D01*
X152353989Y-77330385D01*
X152070489Y-77330385D01*
X152070489Y-77023498D01*
X152069318Y-77008619D01*
X152068056Y-76992579D01*
X152068055Y-76992574D01*
X152067551Y-76986169D01*
X152024703Y-76838684D01*
X152023346Y-76834012D01*
X152023345Y-76834010D01*
X152021134Y-76826399D01*
X152000295Y-76791163D01*
X151940480Y-76690020D01*
X151940478Y-76690017D01*
X151936442Y-76683193D01*
X151818796Y-76565547D01*
X151811972Y-76561511D01*
X151811969Y-76561509D01*
X151682416Y-76484892D01*
X151682417Y-76484892D01*
X151675590Y-76480855D01*
X151667979Y-76478644D01*
X151667977Y-76478643D01*
X151580131Y-76453122D01*
X151515820Y-76434438D01*
X151509415Y-76433934D01*
X151509410Y-76433933D01*
X151480947Y-76431693D01*
X151480939Y-76431693D01*
X151478491Y-76431500D01*
X151045487Y-76431500D01*
X151043039Y-76431693D01*
X151043031Y-76431693D01*
X151014568Y-76433933D01*
X151014563Y-76433934D01*
X151008158Y-76434438D01*
X150943847Y-76453122D01*
X150856001Y-76478643D01*
X150855999Y-76478644D01*
X150848388Y-76480855D01*
X150841561Y-76484892D01*
X150841562Y-76484892D01*
X150712009Y-76561509D01*
X150712006Y-76561511D01*
X150705182Y-76565547D01*
X150587536Y-76683193D01*
X150583500Y-76690017D01*
X150583498Y-76690020D01*
X150523683Y-76791163D01*
X150502844Y-76826399D01*
X150500633Y-76834010D01*
X150500632Y-76834012D01*
X150458222Y-76979989D01*
X150458221Y-76979993D01*
X150456427Y-76986169D01*
X150456246Y-76988473D01*
X150424999Y-77050559D01*
X150363863Y-77086653D01*
X150332967Y-77090500D01*
X149789225Y-77090500D01*
X149721104Y-77070498D01*
X149681449Y-77029771D01*
X149672576Y-77015120D01*
X149668639Y-77008619D01*
X149547381Y-76887361D01*
X149400699Y-76798528D01*
X149393452Y-76796257D01*
X149393450Y-76796256D01*
X149293421Y-76764909D01*
X149237062Y-76747247D01*
X149163635Y-76740500D01*
X149160737Y-76740500D01*
X148906335Y-76740501D01*
X148650366Y-76740501D01*
X148647508Y-76740764D01*
X148647499Y-76740764D01*
X148611996Y-76744026D01*
X148576938Y-76747247D01*
X148570560Y-76749246D01*
X148570559Y-76749246D01*
X148420550Y-76796256D01*
X148420548Y-76796257D01*
X148413301Y-76798528D01*
X148266619Y-76887361D01*
X148171095Y-76982885D01*
X148108783Y-77016911D01*
X148037968Y-77011846D01*
X147992905Y-76982885D01*
X147897381Y-76887361D01*
X147750699Y-76798528D01*
X147743452Y-76796257D01*
X147743450Y-76796256D01*
X147643421Y-76764909D01*
X147587062Y-76747247D01*
X147513635Y-76740500D01*
X147510737Y-76740500D01*
X147256335Y-76740501D01*
X147000366Y-76740501D01*
X146997508Y-76740764D01*
X146997499Y-76740764D01*
X146961996Y-76744026D01*
X146926938Y-76747247D01*
X146920560Y-76749246D01*
X146920559Y-76749246D01*
X146770550Y-76796256D01*
X146770548Y-76796257D01*
X146763301Y-76798528D01*
X146616619Y-76887361D01*
X146507058Y-76996922D01*
X146444746Y-77030948D01*
X146373931Y-77025883D01*
X146366734Y-77022942D01*
X146332288Y-77007606D01*
X146180298Y-76975299D01*
X146117826Y-76941572D01*
X146083504Y-76879422D01*
X146080496Y-76852053D01*
X146080496Y-75614103D01*
X146076021Y-75598864D01*
X146074631Y-75597659D01*
X146066948Y-75595988D01*
X144094611Y-75595988D01*
X144079372Y-75600463D01*
X144078167Y-75601853D01*
X144076496Y-75609536D01*
X144076496Y-77581872D01*
X144080971Y-77597111D01*
X144082361Y-77598316D01*
X144090044Y-77599987D01*
X144317072Y-77599987D01*
X144385193Y-77619989D01*
X144431686Y-77673645D01*
X144441790Y-77743919D01*
X144412296Y-77808499D01*
X144391133Y-77827923D01*
X144366972Y-77845477D01*
X144244947Y-77934134D01*
X144117160Y-78076056D01*
X144094988Y-78114459D01*
X144025246Y-78235256D01*
X144021673Y-78241444D01*
X143962658Y-78423072D01*
X143961968Y-78429633D01*
X143961968Y-78429635D01*
X143945620Y-78585178D01*
X143942696Y-78613000D01*
X143943386Y-78619565D01*
X143959086Y-78768939D01*
X143962658Y-78802928D01*
X143986114Y-78875118D01*
X143988142Y-78946084D01*
X143951479Y-79006882D01*
X143887767Y-79038207D01*
X143817234Y-79030115D01*
X143801010Y-79021829D01*
X143692992Y-78956411D01*
X143679243Y-78950203D01*
X143529356Y-78903232D01*
X143516306Y-78900619D01*
X143461414Y-78895575D01*
X143449876Y-78898963D01*
X143448671Y-78900353D01*
X143447000Y-78908036D01*
X143447000Y-80842372D01*
X143451475Y-80857611D01*
X143452865Y-80858816D01*
X143457294Y-80859779D01*
X143516315Y-80854356D01*
X143529351Y-80851745D01*
X143679243Y-80804773D01*
X143692988Y-80798567D01*
X143826574Y-80717664D01*
X143838443Y-80708357D01*
X143928551Y-80618249D01*
X143990863Y-80584223D01*
X144061678Y-80589288D01*
X144106741Y-80618249D01*
X144202619Y-80714127D01*
X144349301Y-80802960D01*
X144356548Y-80805231D01*
X144356550Y-80805232D01*
X144422836Y-80826005D01*
X144512938Y-80854241D01*
X144586365Y-80860988D01*
X144589263Y-80860988D01*
X144843665Y-80860987D01*
X145099634Y-80860987D01*
X145102492Y-80860724D01*
X145102501Y-80860724D01*
X145138004Y-80857462D01*
X145173062Y-80854241D01*
X145181030Y-80851744D01*
X145329450Y-80805232D01*
X145329452Y-80805231D01*
X145336699Y-80802960D01*
X145483381Y-80714127D01*
X145604639Y-80592869D01*
X145693472Y-80446187D01*
X145744753Y-80282550D01*
X145751500Y-80209123D01*
X145751499Y-79545854D01*
X145751234Y-79542962D01*
X145746517Y-79491628D01*
X145744753Y-79472426D01*
X145740797Y-79459802D01*
X145695744Y-79316038D01*
X145695743Y-79316036D01*
X145693472Y-79308789D01*
X145634833Y-79211963D01*
X145616654Y-79143334D01*
X145633490Y-79083693D01*
X145687423Y-78990279D01*
X145687424Y-78990278D01*
X145690727Y-78984556D01*
X145733391Y-78853249D01*
X145773464Y-78794644D01*
X145838861Y-78767007D01*
X145879420Y-78768939D01*
X145939132Y-78781631D01*
X145954513Y-78784900D01*
X146145487Y-78784900D01*
X146151939Y-78783528D01*
X146151944Y-78783528D01*
X146238887Y-78765047D01*
X146332288Y-78745194D01*
X146338319Y-78742509D01*
X146500722Y-78670203D01*
X146500724Y-78670202D01*
X146506752Y-78667518D01*
X146527410Y-78652509D01*
X146569203Y-78622145D01*
X146636071Y-78598286D01*
X146708533Y-78616304D01*
X146751272Y-78642187D01*
X146799177Y-78694582D01*
X146812000Y-78749962D01*
X146812000Y-78851526D01*
X146791998Y-78919647D01*
X146751272Y-78959301D01*
X146616619Y-79040849D01*
X146495361Y-79162107D01*
X146406528Y-79308789D01*
X146404257Y-79316036D01*
X146404256Y-79316038D01*
X146389146Y-79364254D01*
X146355247Y-79472426D01*
X146348500Y-79545853D01*
X146348501Y-80209122D01*
X146348764Y-80211980D01*
X146348764Y-80211989D01*
X146352026Y-80247492D01*
X146355247Y-80282550D01*
X146357246Y-80288928D01*
X146357246Y-80288929D01*
X146387501Y-80385471D01*
X146406528Y-80446187D01*
X146495361Y-80592869D01*
X146586595Y-80684103D01*
X146620621Y-80746415D01*
X146623500Y-80773198D01*
X146623500Y-81536405D01*
X146603498Y-81604526D01*
X146586595Y-81625500D01*
X146041500Y-82170595D01*
X145979188Y-82204621D01*
X145952405Y-82207500D01*
X144643866Y-82207500D01*
X144581684Y-82214255D01*
X144445295Y-82265385D01*
X144328739Y-82352739D01*
X144241385Y-82469295D01*
X144238233Y-82477704D01*
X144238232Y-82477705D01*
X144196722Y-82588433D01*
X144154081Y-82645198D01*
X144087519Y-82669898D01*
X144018170Y-82654691D01*
X143985546Y-82629004D01*
X143934799Y-82573234D01*
X143927273Y-82566215D01*
X143760139Y-82434222D01*
X143751552Y-82428517D01*
X143565117Y-82325599D01*
X143555705Y-82321369D01*
X143354959Y-82250280D01*
X143344988Y-82247646D01*
X143273837Y-82234972D01*
X143260540Y-82236432D01*
X143256000Y-82250989D01*
X143256000Y-83694000D01*
X143235998Y-83762121D01*
X143182342Y-83808614D01*
X143130000Y-83820000D01*
X142874000Y-83820000D01*
X142805879Y-83799998D01*
X142759386Y-83746342D01*
X142748000Y-83694000D01*
X142748000Y-82249102D01*
X142744082Y-82235758D01*
X142729806Y-82233771D01*
X142691324Y-82239660D01*
X142681288Y-82242051D01*
X142478868Y-82308212D01*
X142469359Y-82312209D01*
X142280463Y-82410542D01*
X142271738Y-82416036D01*
X142187653Y-82479169D01*
X142121168Y-82504075D01*
X142051772Y-82489083D01*
X142001499Y-82438952D01*
X141986000Y-82378409D01*
X141986000Y-80206193D01*
X142285001Y-80206193D01*
X142285264Y-80211942D01*
X142291132Y-80275803D01*
X142293743Y-80288839D01*
X142340715Y-80438731D01*
X142346921Y-80452476D01*
X142427824Y-80586062D01*
X142437131Y-80597931D01*
X142547557Y-80708357D01*
X142559426Y-80717664D01*
X142693012Y-80798567D01*
X142706757Y-80804773D01*
X142856644Y-80851744D01*
X142869694Y-80854357D01*
X142924586Y-80859401D01*
X142936124Y-80856013D01*
X142937329Y-80854623D01*
X142939000Y-80846940D01*
X142939000Y-80149603D01*
X142934525Y-80134364D01*
X142933135Y-80133159D01*
X142925452Y-80131488D01*
X142303116Y-80131488D01*
X142287877Y-80135963D01*
X142286672Y-80137353D01*
X142285001Y-80145036D01*
X142285001Y-80206193D01*
X141986000Y-80206193D01*
X141986000Y-79605373D01*
X142285000Y-79605373D01*
X142289475Y-79620612D01*
X142290865Y-79621817D01*
X142298548Y-79623488D01*
X142920885Y-79623488D01*
X142936124Y-79619013D01*
X142937329Y-79617623D01*
X142939000Y-79609940D01*
X142939000Y-78912604D01*
X142934525Y-78897365D01*
X142933135Y-78896160D01*
X142928706Y-78895197D01*
X142869685Y-78900620D01*
X142856649Y-78903231D01*
X142706757Y-78950203D01*
X142693012Y-78956409D01*
X142559426Y-79037312D01*
X142547557Y-79046619D01*
X142437131Y-79157045D01*
X142427824Y-79168914D01*
X142346921Y-79302500D01*
X142340715Y-79316245D01*
X142293744Y-79466132D01*
X142291131Y-79479182D01*
X142285266Y-79543009D01*
X142285000Y-79548797D01*
X142285000Y-79605373D01*
X141986000Y-79605373D01*
X141986000Y-77725988D01*
X142006002Y-77657867D01*
X142059658Y-77611374D01*
X142112000Y-77599988D01*
X143550381Y-77599988D01*
X143565620Y-77595513D01*
X143566825Y-77594123D01*
X143568496Y-77586440D01*
X143568496Y-75069873D01*
X144076496Y-75069873D01*
X144080971Y-75085112D01*
X144082361Y-75086317D01*
X144090044Y-75087988D01*
X146062380Y-75087988D01*
X146077619Y-75083513D01*
X146078824Y-75082123D01*
X146080495Y-75074440D01*
X146080495Y-73674239D01*
X146100497Y-73606118D01*
X146154153Y-73559625D01*
X146224427Y-73549521D01*
X146289007Y-73579015D01*
X146324322Y-73629598D01*
X146395300Y-73816940D01*
X146514287Y-74019344D01*
X146665677Y-74198807D01*
X146845140Y-74350197D01*
X147047544Y-74469184D01*
X147267103Y-74552368D01*
X147497539Y-74597369D01*
X147501897Y-74597605D01*
X147553444Y-74600397D01*
X147553459Y-74600397D01*
X147555132Y-74600488D01*
X149256974Y-74600488D01*
X149325095Y-74620490D01*
X149371588Y-74674146D01*
X149382284Y-74739658D01*
X149378296Y-74777600D01*
X149378986Y-74784165D01*
X149395992Y-74945964D01*
X149398258Y-74967528D01*
X149457273Y-75149156D01*
X149552760Y-75314544D01*
X149557178Y-75319451D01*
X149557179Y-75319452D01*
X149635400Y-75406325D01*
X149680547Y-75456466D01*
X149745198Y-75503438D01*
X149821469Y-75558852D01*
X149835048Y-75568718D01*
X149841076Y-75571402D01*
X149841078Y-75571403D01*
X150003481Y-75643709D01*
X150009512Y-75646394D01*
X150102913Y-75666247D01*
X150189856Y-75684728D01*
X150189861Y-75684728D01*
X150196313Y-75686100D01*
X150387287Y-75686100D01*
X150393739Y-75684728D01*
X150393744Y-75684728D01*
X150480687Y-75666247D01*
X150574088Y-75646394D01*
X150580119Y-75643709D01*
X150742522Y-75571403D01*
X150742524Y-75571402D01*
X150748552Y-75568718D01*
X150753893Y-75564837D01*
X150759611Y-75561536D01*
X150760654Y-75563343D01*
X150818272Y-75542778D01*
X150887425Y-75558852D01*
X150914495Y-75579398D01*
X150942298Y-75607152D01*
X150948528Y-75610992D01*
X150948529Y-75610993D01*
X151062710Y-75681375D01*
X151087899Y-75696902D01*
X151250243Y-75750749D01*
X151257080Y-75751449D01*
X151257082Y-75751450D01*
X151298401Y-75755683D01*
X151351268Y-75761100D01*
X151898732Y-75761100D01*
X151901978Y-75760763D01*
X151901982Y-75760763D01*
X151936083Y-75757225D01*
X152001019Y-75750487D01*
X152038336Y-75738037D01*
X152156324Y-75698673D01*
X152156326Y-75698672D01*
X152163268Y-75696356D01*
X152308713Y-75606352D01*
X152313886Y-75601170D01*
X152319623Y-75596623D01*
X152321055Y-75598430D01*
X152373575Y-75569698D01*
X152444395Y-75574708D01*
X152480853Y-75598099D01*
X152481683Y-75597048D01*
X152498840Y-75610598D01*
X152631880Y-75692604D01*
X152645061Y-75698751D01*
X152793814Y-75748091D01*
X152807190Y-75750958D01*
X152898097Y-75760272D01*
X152903126Y-75760529D01*
X152918124Y-75756125D01*
X152919329Y-75754735D01*
X152921000Y-75747052D01*
X152921000Y-73812715D01*
X152916525Y-73797476D01*
X152915135Y-73796271D01*
X152907452Y-73794600D01*
X152904562Y-73794600D01*
X152898047Y-73794937D01*
X152805943Y-73804494D01*
X152792544Y-73807388D01*
X152643893Y-73856981D01*
X152630714Y-73863155D01*
X152497827Y-73945388D01*
X152480689Y-73958971D01*
X152479159Y-73957041D01*
X152427120Y-73985503D01*
X152356301Y-73980487D01*
X152319383Y-73956801D01*
X152318628Y-73957757D01*
X152312882Y-73953219D01*
X152307702Y-73948048D01*
X152256405Y-73916428D01*
X152168331Y-73862138D01*
X152168329Y-73862137D01*
X152162101Y-73858298D01*
X151999757Y-73804451D01*
X151992920Y-73803751D01*
X151992918Y-73803750D01*
X151951599Y-73799517D01*
X151898732Y-73794100D01*
X151351268Y-73794100D01*
X151348022Y-73794437D01*
X151348018Y-73794437D01*
X151318730Y-73797476D01*
X151248981Y-73804713D01*
X151242440Y-73806895D01*
X151242441Y-73806895D01*
X151093676Y-73856527D01*
X151093674Y-73856528D01*
X151086732Y-73858844D01*
X151080508Y-73862696D01*
X151080507Y-73862696D01*
X150948787Y-73944207D01*
X150941287Y-73948848D01*
X150936113Y-73954031D01*
X150914583Y-73975598D01*
X150852300Y-74009676D01*
X150781480Y-74004673D01*
X150759930Y-73993116D01*
X150759613Y-73993665D01*
X150753893Y-73990363D01*
X150748552Y-73986482D01*
X150717753Y-73972770D01*
X150663660Y-73926793D01*
X150643009Y-73858866D01*
X150651176Y-73813023D01*
X150657933Y-73795189D01*
X150732876Y-73597381D01*
X150777877Y-73366945D01*
X150780996Y-73309352D01*
X150780996Y-72657469D01*
X151342001Y-72657469D01*
X151342371Y-72664290D01*
X151347895Y-72715152D01*
X151351521Y-72730404D01*
X151396676Y-72850854D01*
X151405214Y-72866449D01*
X151481715Y-72968524D01*
X151494276Y-72981085D01*
X151596351Y-73057586D01*
X151611946Y-73066124D01*
X151732394Y-73111278D01*
X151747649Y-73114905D01*
X151798514Y-73120431D01*
X151805328Y-73120800D01*
X152127885Y-73120800D01*
X152143124Y-73116325D01*
X152144329Y-73114935D01*
X152146000Y-73107252D01*
X152146000Y-72334915D01*
X152141525Y-72319676D01*
X152140135Y-72318471D01*
X152132452Y-72316800D01*
X151360116Y-72316800D01*
X151344877Y-72321275D01*
X151343672Y-72322665D01*
X151342001Y-72330348D01*
X151342001Y-72657469D01*
X150780996Y-72657469D01*
X150780996Y-71790685D01*
X151342000Y-71790685D01*
X151346475Y-71805924D01*
X151347865Y-71807129D01*
X151355548Y-71808800D01*
X152127885Y-71808800D01*
X152143124Y-71804325D01*
X152144329Y-71802935D01*
X152146000Y-71795252D01*
X152146000Y-71022916D01*
X152141525Y-71007677D01*
X152140135Y-71006472D01*
X152132452Y-71004801D01*
X151805331Y-71004801D01*
X151798510Y-71005171D01*
X151747648Y-71010695D01*
X151732396Y-71014321D01*
X151611946Y-71059476D01*
X151596351Y-71068014D01*
X151494276Y-71144515D01*
X151481715Y-71157076D01*
X151405214Y-71259151D01*
X151396676Y-71274746D01*
X151351522Y-71395194D01*
X151347895Y-71410449D01*
X151342369Y-71461314D01*
X151342000Y-71468128D01*
X151342000Y-71790685D01*
X150780996Y-71790685D01*
X150780996Y-71374624D01*
X150779089Y-71339401D01*
X150778113Y-71321389D01*
X150777877Y-71317031D01*
X150732876Y-71086595D01*
X150649692Y-70867036D01*
X150530705Y-70664632D01*
X150379315Y-70485169D01*
X150199852Y-70333779D01*
X150178625Y-70321300D01*
X150085520Y-70266567D01*
X149997448Y-70214792D01*
X149777889Y-70131608D01*
X149547453Y-70086607D01*
X149541723Y-70086297D01*
X149491548Y-70083579D01*
X149491533Y-70083579D01*
X149489860Y-70083488D01*
X147555132Y-70083488D01*
X147553459Y-70083579D01*
X147553444Y-70083579D01*
X147503269Y-70086297D01*
X147497539Y-70086607D01*
X147267103Y-70131608D01*
X147047544Y-70214792D01*
X146959472Y-70266567D01*
X146866368Y-70321300D01*
X146845140Y-70333779D01*
X146665677Y-70485169D01*
X146514287Y-70664632D01*
X146395300Y-70867036D01*
X146312116Y-71086595D01*
X146267115Y-71317031D01*
X146266879Y-71321389D01*
X146265904Y-71339401D01*
X146263996Y-71374624D01*
X146263996Y-73296449D01*
X146243994Y-73364570D01*
X146190338Y-73411063D01*
X146120064Y-73421167D01*
X146055484Y-73391673D01*
X146027476Y-73356958D01*
X146017284Y-73338342D01*
X145940781Y-73236264D01*
X145928220Y-73223703D01*
X145826145Y-73147202D01*
X145810550Y-73138664D01*
X145690102Y-73093510D01*
X145674847Y-73089883D01*
X145623982Y-73084357D01*
X145617168Y-73083988D01*
X144094611Y-73083988D01*
X144079372Y-73088463D01*
X144078167Y-73089853D01*
X144076496Y-73097536D01*
X144076496Y-75069873D01*
X143568496Y-75069873D01*
X143568496Y-73102104D01*
X143564021Y-73086865D01*
X143562631Y-73085660D01*
X143554948Y-73083989D01*
X142112000Y-73083989D01*
X142043879Y-73063987D01*
X141997386Y-73010331D01*
X141986000Y-72957989D01*
X141986000Y-71284335D01*
X142006002Y-71216214D01*
X142059658Y-71169721D01*
X142129932Y-71159617D01*
X142183908Y-71180869D01*
X142191831Y-71186375D01*
X142196441Y-71189579D01*
X142400702Y-71283098D01*
X142406134Y-71284493D01*
X142406135Y-71284493D01*
X142516171Y-71312745D01*
X142618296Y-71338966D01*
X142672201Y-71343350D01*
X142757404Y-71350281D01*
X142757414Y-71350281D01*
X142759954Y-71350488D01*
X144885038Y-71350488D01*
X144887578Y-71350281D01*
X144887588Y-71350281D01*
X144972791Y-71343350D01*
X145026696Y-71338966D01*
X145128822Y-71312745D01*
X145238857Y-71284493D01*
X145238858Y-71284493D01*
X145244290Y-71283098D01*
X145448551Y-71189579D01*
X145633023Y-71061368D01*
X145791876Y-70902515D01*
X145920087Y-70718043D01*
X146013606Y-70513782D01*
X146019907Y-70489241D01*
X146068140Y-70301384D01*
X146068140Y-70301383D01*
X146069474Y-70296188D01*
X146075875Y-70217495D01*
X146080789Y-70157080D01*
X146080789Y-70157070D01*
X146080996Y-70154530D01*
X146080996Y-68529446D01*
X146078626Y-68500300D01*
X146069909Y-68393139D01*
X146069474Y-68387788D01*
X146059654Y-68349539D01*
X146015001Y-68175627D01*
X146015001Y-68175626D01*
X146013606Y-68170194D01*
X145934060Y-67996452D01*
X145923889Y-67926187D01*
X145953321Y-67861579D01*
X146013010Y-67823138D01*
X146048624Y-67818000D01*
X153913259Y-67818000D01*
X153981380Y-67838002D01*
G37*
%TD.AperFunction*%
%TD*%
%TA.AperFunction,Conductor*%
%TO.N,GND*%
G36*
X152295610Y-79643502D02*
G01*
X152342103Y-79697158D01*
X152353489Y-79749500D01*
X152353489Y-80456502D01*
X152356427Y-80493831D01*
X152394497Y-80624869D01*
X152399500Y-80660022D01*
X152399500Y-82081500D01*
X152379498Y-82149621D01*
X152325842Y-82196114D01*
X152273500Y-82207500D01*
X152263866Y-82207500D01*
X152201684Y-82214255D01*
X152065295Y-82265385D01*
X151948739Y-82352739D01*
X151861385Y-82469295D01*
X151858233Y-82477704D01*
X151858232Y-82477705D01*
X151816722Y-82588433D01*
X151774081Y-82645198D01*
X151707519Y-82669898D01*
X151638170Y-82654691D01*
X151605546Y-82629004D01*
X151554799Y-82573234D01*
X151547273Y-82566215D01*
X151380139Y-82434222D01*
X151371552Y-82428517D01*
X151185117Y-82325599D01*
X151175705Y-82321369D01*
X150974959Y-82250280D01*
X150964988Y-82247646D01*
X150893837Y-82234972D01*
X150880540Y-82236432D01*
X150876000Y-82250989D01*
X150876000Y-83694000D01*
X150855998Y-83762121D01*
X150802342Y-83808614D01*
X150750000Y-83820000D01*
X149305225Y-83820000D01*
X149291694Y-83823973D01*
X149290257Y-83833966D01*
X149320565Y-83968446D01*
X149323645Y-83978275D01*
X149403770Y-84175603D01*
X149408413Y-84184794D01*
X149519694Y-84366388D01*
X149528828Y-84378867D01*
X149527601Y-84379765D01*
X149554225Y-84438094D01*
X149544107Y-84508366D01*
X149497603Y-84562012D01*
X149429504Y-84582000D01*
X147026500Y-84582000D01*
X146958379Y-84561998D01*
X146911886Y-84508342D01*
X146900500Y-84456000D01*
X146900500Y-83300183D01*
X149286389Y-83300183D01*
X149287912Y-83308607D01*
X149300292Y-83312000D01*
X150349885Y-83312000D01*
X150365124Y-83307525D01*
X150366329Y-83306135D01*
X150368000Y-83298452D01*
X150368000Y-82249102D01*
X150364082Y-82235758D01*
X150349806Y-82233771D01*
X150311324Y-82239660D01*
X150301288Y-82242051D01*
X150098868Y-82308212D01*
X150089359Y-82312209D01*
X149900463Y-82410542D01*
X149891738Y-82416036D01*
X149721433Y-82543905D01*
X149713726Y-82550748D01*
X149566590Y-82704717D01*
X149560104Y-82712727D01*
X149440098Y-82888649D01*
X149435000Y-82897623D01*
X149345338Y-83090783D01*
X149341775Y-83100470D01*
X149286389Y-83300183D01*
X146900500Y-83300183D01*
X146900500Y-83155594D01*
X146920502Y-83087473D01*
X146937405Y-83066499D01*
X147649247Y-82354657D01*
X147657537Y-82347113D01*
X147664018Y-82343000D01*
X147680359Y-82325599D01*
X147710658Y-82293333D01*
X147713413Y-82290491D01*
X147733134Y-82270770D01*
X147735612Y-82267575D01*
X147743318Y-82258553D01*
X147768158Y-82232101D01*
X147773586Y-82226321D01*
X147783346Y-82208568D01*
X147794199Y-82192045D01*
X147801753Y-82182306D01*
X147806613Y-82176041D01*
X147824176Y-82135457D01*
X147829383Y-82124827D01*
X147850695Y-82086060D01*
X147852666Y-82078383D01*
X147852668Y-82078378D01*
X147855732Y-82066442D01*
X147862138Y-82047730D01*
X147867033Y-82036419D01*
X147870181Y-82029145D01*
X147871421Y-82021317D01*
X147871423Y-82021310D01*
X147877099Y-81985476D01*
X147879505Y-81973856D01*
X147888528Y-81938711D01*
X147888528Y-81938710D01*
X147890500Y-81931030D01*
X147890500Y-81910776D01*
X147892051Y-81891065D01*
X147893980Y-81878886D01*
X147895220Y-81871057D01*
X147891059Y-81827038D01*
X147890500Y-81815181D01*
X147890500Y-80773198D01*
X147910502Y-80705077D01*
X147927405Y-80684103D01*
X147992905Y-80618603D01*
X148055217Y-80584577D01*
X148126032Y-80589642D01*
X148171095Y-80618603D01*
X148266619Y-80714127D01*
X148413301Y-80802960D01*
X148420548Y-80805231D01*
X148420550Y-80805232D01*
X148486836Y-80826005D01*
X148576938Y-80854241D01*
X148650365Y-80860988D01*
X148653263Y-80860988D01*
X148907665Y-80860987D01*
X149163634Y-80860987D01*
X149166492Y-80860724D01*
X149166501Y-80860724D01*
X149202004Y-80857462D01*
X149237062Y-80854241D01*
X149243447Y-80852240D01*
X149393450Y-80805232D01*
X149393452Y-80805231D01*
X149400699Y-80802960D01*
X149547381Y-80714127D01*
X149668639Y-80592869D01*
X149681449Y-80571717D01*
X149733846Y-80523810D01*
X149789225Y-80510988D01*
X150366808Y-80510988D01*
X150434929Y-80530990D01*
X150481422Y-80584646D01*
X150487805Y-80601834D01*
X150502844Y-80653601D01*
X150520883Y-80684103D01*
X150583498Y-80789980D01*
X150583500Y-80789983D01*
X150587536Y-80796807D01*
X150705182Y-80914453D01*
X150712006Y-80918489D01*
X150712009Y-80918491D01*
X150819578Y-80982107D01*
X150848388Y-80999145D01*
X150855999Y-81001356D01*
X150856001Y-81001357D01*
X150908220Y-81016528D01*
X151008158Y-81045562D01*
X151014563Y-81046066D01*
X151014568Y-81046067D01*
X151043031Y-81048307D01*
X151043039Y-81048307D01*
X151045487Y-81048500D01*
X151478491Y-81048500D01*
X151480939Y-81048307D01*
X151480947Y-81048307D01*
X151509410Y-81046067D01*
X151509415Y-81046066D01*
X151515820Y-81045562D01*
X151615758Y-81016528D01*
X151667977Y-81001357D01*
X151667979Y-81001356D01*
X151675590Y-80999145D01*
X151682412Y-80995111D01*
X151687585Y-80992872D01*
X151758047Y-80984176D01*
X151787663Y-80992872D01*
X151806199Y-81000893D01*
X151940594Y-81039939D01*
X151954695Y-81039899D01*
X151957989Y-81032630D01*
X151957989Y-80794842D01*
X151975536Y-80730703D01*
X152003095Y-80684103D01*
X152021134Y-80653601D01*
X152067551Y-80493831D01*
X152070489Y-80456502D01*
X152070489Y-79749500D01*
X152090491Y-79681379D01*
X152144147Y-79634886D01*
X152196489Y-79623500D01*
X152227489Y-79623500D01*
X152295610Y-79643502D01*
G37*
%TD.AperFunction*%
%TD*%
%TA.AperFunction,Conductor*%
%TO.N,VBUS*%
G36*
X160081954Y-67838002D02*
G01*
X160128447Y-67891658D01*
X160138551Y-67961932D01*
X160123335Y-68006332D01*
X160013871Y-68198633D01*
X160009405Y-68208297D01*
X159931519Y-68422868D01*
X159928749Y-68433135D01*
X159887919Y-68658932D01*
X159886984Y-68667162D01*
X159886070Y-68686550D01*
X159886000Y-68689526D01*
X159886000Y-69323885D01*
X159890475Y-69339124D01*
X159891865Y-69340329D01*
X159899548Y-69342000D01*
X162683885Y-69342000D01*
X162699124Y-69337525D01*
X162700329Y-69336135D01*
X162702000Y-69328452D01*
X162702000Y-68784871D01*
X163230256Y-68784871D01*
X163270907Y-68924790D01*
X163277152Y-68939221D01*
X163353711Y-69068678D01*
X163363351Y-69081104D01*
X163469696Y-69187449D01*
X163482122Y-69197089D01*
X163611579Y-69273648D01*
X163626010Y-69279893D01*
X163771865Y-69322269D01*
X163784467Y-69324570D01*
X163812884Y-69326807D01*
X163817814Y-69327000D01*
X164122185Y-69327000D01*
X164137424Y-69322525D01*
X164138629Y-69321135D01*
X164140300Y-69313452D01*
X164140300Y-68791115D01*
X164135825Y-68775876D01*
X164134435Y-68774671D01*
X164126752Y-68773000D01*
X163244922Y-68773000D01*
X163231391Y-68776973D01*
X163230256Y-68784871D01*
X162702000Y-68784871D01*
X162702000Y-68738660D01*
X162701775Y-68733351D01*
X162687340Y-68563229D01*
X162685548Y-68552741D01*
X162628199Y-68331789D01*
X162624667Y-68321761D01*
X162530915Y-68113637D01*
X162525735Y-68104331D01*
X162465168Y-68014367D01*
X162443717Y-67946689D01*
X162462260Y-67878157D01*
X162514912Y-67830529D01*
X162569688Y-67818000D01*
X163222302Y-67818000D01*
X163290423Y-67838002D01*
X163336916Y-67891658D01*
X163347020Y-67961932D01*
X163330756Y-68008139D01*
X163277152Y-68098779D01*
X163270907Y-68113210D01*
X163231861Y-68247605D01*
X163231901Y-68261706D01*
X163239170Y-68265000D01*
X164522300Y-68265000D01*
X164590421Y-68285002D01*
X164636914Y-68338658D01*
X164648300Y-68391000D01*
X164648300Y-69308884D01*
X164652775Y-69324123D01*
X164675512Y-69343825D01*
X164713896Y-69403552D01*
X164719000Y-69439050D01*
X164719000Y-69501237D01*
X164698998Y-69569358D01*
X164667447Y-69596697D01*
X164649971Y-69616865D01*
X164648300Y-69624548D01*
X164648300Y-71208884D01*
X164652775Y-71224123D01*
X164675512Y-71243825D01*
X164713896Y-71303552D01*
X164719000Y-71339050D01*
X164719000Y-71709504D01*
X164716121Y-71736286D01*
X164710800Y-71760747D01*
X164710800Y-74945084D01*
X164713896Y-74955628D01*
X164719000Y-74991126D01*
X164719000Y-75109263D01*
X164698998Y-75177384D01*
X164681343Y-75192682D01*
X164682304Y-75193514D01*
X164656871Y-75222865D01*
X164655200Y-75230548D01*
X164655200Y-77164885D01*
X164659675Y-77180124D01*
X164675512Y-77193847D01*
X164713896Y-77253573D01*
X164719000Y-77289072D01*
X164719000Y-77634237D01*
X164698998Y-77702358D01*
X164667447Y-77729697D01*
X164649971Y-77749865D01*
X164648300Y-77757548D01*
X164648300Y-79341884D01*
X164652775Y-79357123D01*
X164675512Y-79376825D01*
X164713896Y-79436552D01*
X164719000Y-79472050D01*
X164719000Y-79534237D01*
X164698998Y-79602358D01*
X164667447Y-79629697D01*
X164649971Y-79649865D01*
X164648300Y-79657548D01*
X164648300Y-81241884D01*
X164652775Y-81257123D01*
X164675512Y-81276825D01*
X164713896Y-81336552D01*
X164719000Y-81372050D01*
X164719000Y-81615504D01*
X164716121Y-81642286D01*
X164710800Y-81666747D01*
X164710800Y-83389200D01*
X164690798Y-83457321D01*
X164637142Y-83503814D01*
X164584800Y-83515200D01*
X163341916Y-83515200D01*
X163326677Y-83519675D01*
X163325472Y-83521065D01*
X163323801Y-83528748D01*
X163323801Y-84158295D01*
X163324138Y-84164814D01*
X163334057Y-84260406D01*
X163336949Y-84273800D01*
X163384431Y-84416124D01*
X163387015Y-84487074D01*
X163350831Y-84548158D01*
X163287367Y-84579982D01*
X163264907Y-84582000D01*
X159894616Y-84582000D01*
X159826495Y-84561998D01*
X159780002Y-84508342D01*
X159769898Y-84438068D01*
X159799392Y-84373488D01*
X159820555Y-84354064D01*
X159855458Y-84328706D01*
X159970853Y-84244866D01*
X160098640Y-84102944D01*
X160194127Y-83937556D01*
X160253142Y-83755928D01*
X160273104Y-83566000D01*
X160253142Y-83376072D01*
X160194127Y-83194444D01*
X160098640Y-83029056D01*
X160074932Y-83002725D01*
X160062650Y-82989085D01*
X163323800Y-82989085D01*
X163328275Y-83004324D01*
X163329665Y-83005529D01*
X163337348Y-83007200D01*
X164184685Y-83007200D01*
X164199924Y-83002725D01*
X164201129Y-83001335D01*
X164202800Y-82993652D01*
X164202800Y-81671316D01*
X164198325Y-81656077D01*
X164196935Y-81654872D01*
X164189252Y-81653201D01*
X164034705Y-81653201D01*
X164028186Y-81653538D01*
X163932594Y-81663457D01*
X163919200Y-81666349D01*
X163765016Y-81717788D01*
X163751838Y-81723961D01*
X163613993Y-81809263D01*
X163602592Y-81818299D01*
X163488061Y-81933029D01*
X163479049Y-81944440D01*
X163393984Y-82082443D01*
X163387837Y-82095624D01*
X163336662Y-82249910D01*
X163333795Y-82263286D01*
X163324128Y-82357638D01*
X163323800Y-82364055D01*
X163323800Y-82989085D01*
X160062650Y-82989085D01*
X159975275Y-82892045D01*
X159975274Y-82892044D01*
X159970853Y-82887134D01*
X159816352Y-82774882D01*
X159810324Y-82772198D01*
X159810322Y-82772197D01*
X159647919Y-82699891D01*
X159647918Y-82699891D01*
X159641888Y-82697206D01*
X159548488Y-82677353D01*
X159461544Y-82658872D01*
X159461539Y-82658872D01*
X159455087Y-82657500D01*
X159264113Y-82657500D01*
X159257661Y-82658872D01*
X159257656Y-82658872D01*
X159170713Y-82677353D01*
X159077312Y-82697206D01*
X159071282Y-82699891D01*
X159071281Y-82699891D01*
X158908879Y-82772197D01*
X158902848Y-82774882D01*
X158897509Y-82778761D01*
X158892810Y-82782175D01*
X158825942Y-82806034D01*
X158756790Y-82789955D01*
X158729729Y-82769412D01*
X158701892Y-82741623D01*
X158701887Y-82741619D01*
X158696707Y-82736448D01*
X158690476Y-82732607D01*
X158557336Y-82650538D01*
X158557334Y-82650537D01*
X158551106Y-82646698D01*
X158388762Y-82592851D01*
X158381925Y-82592151D01*
X158381923Y-82592150D01*
X158340604Y-82587917D01*
X158287737Y-82582500D01*
X157740273Y-82582500D01*
X157737027Y-82582837D01*
X157737023Y-82582837D01*
X157702922Y-82586375D01*
X157637986Y-82593113D01*
X157631445Y-82595295D01*
X157631446Y-82595295D01*
X157482681Y-82644927D01*
X157482679Y-82644928D01*
X157475737Y-82647244D01*
X157422562Y-82680150D01*
X157418808Y-82682473D01*
X157350356Y-82701311D01*
X157282587Y-82680150D01*
X157237015Y-82625709D01*
X157226505Y-82575329D01*
X157226505Y-80846300D01*
X157246507Y-80778179D01*
X157300163Y-80731686D01*
X157352505Y-80720300D01*
X157630502Y-80720300D01*
X157632950Y-80720107D01*
X157632958Y-80720107D01*
X157661421Y-80717867D01*
X157661426Y-80717866D01*
X157667831Y-80717362D01*
X157767769Y-80688328D01*
X157819988Y-80673157D01*
X157819990Y-80673156D01*
X157827601Y-80670945D01*
X157908428Y-80623144D01*
X157963980Y-80590291D01*
X157963983Y-80590289D01*
X157970807Y-80586253D01*
X158088453Y-80468607D01*
X158092489Y-80461783D01*
X158092491Y-80461780D01*
X158169108Y-80332227D01*
X158173145Y-80325401D01*
X158219562Y-80165631D01*
X158222500Y-80128302D01*
X158222500Y-78820298D01*
X158222307Y-78817842D01*
X158220067Y-78789379D01*
X158220066Y-78789374D01*
X158219562Y-78782969D01*
X158181503Y-78651967D01*
X158176500Y-78616815D01*
X158176500Y-76709368D01*
X158177933Y-76690417D01*
X158180123Y-76676024D01*
X158180123Y-76676022D01*
X158181223Y-76668792D01*
X158176915Y-76615825D01*
X158176500Y-76605611D01*
X158176500Y-76597475D01*
X158173190Y-76569084D01*
X158172757Y-76564709D01*
X158167403Y-76498872D01*
X158167402Y-76498869D01*
X158166809Y-76491573D01*
X158164554Y-76484611D01*
X158163354Y-76478607D01*
X158161948Y-76472660D01*
X158161101Y-76465393D01*
X158136053Y-76396387D01*
X158134625Y-76392227D01*
X158114268Y-76329387D01*
X158114266Y-76329382D01*
X158112012Y-76322425D01*
X158108218Y-76316173D01*
X158105666Y-76310598D01*
X158102930Y-76305135D01*
X158100434Y-76298259D01*
X158060181Y-76236863D01*
X158057834Y-76233144D01*
X158019772Y-76170419D01*
X158012332Y-76161994D01*
X158012360Y-76161969D01*
X158009766Y-76159044D01*
X158006961Y-76155690D01*
X158002946Y-76149565D01*
X157946413Y-76096011D01*
X157943972Y-76093634D01*
X157558810Y-75708472D01*
X157546423Y-75694059D01*
X157533454Y-75676436D01*
X157492945Y-75642021D01*
X157485429Y-75635091D01*
X157479685Y-75629347D01*
X157476811Y-75627073D01*
X157476804Y-75627067D01*
X157457289Y-75611628D01*
X157453885Y-75608837D01*
X157403528Y-75566055D01*
X157403524Y-75566052D01*
X157397949Y-75561316D01*
X157391432Y-75557988D01*
X157386368Y-75554611D01*
X157381144Y-75551384D01*
X157375400Y-75546840D01*
X157328741Y-75525033D01*
X157308918Y-75515768D01*
X157304967Y-75513837D01*
X157246117Y-75483787D01*
X157239596Y-75480457D01*
X157232481Y-75478716D01*
X157226735Y-75476579D01*
X157220952Y-75474655D01*
X157214321Y-75471556D01*
X157142443Y-75456606D01*
X157138171Y-75455639D01*
X157066888Y-75438196D01*
X157061289Y-75437849D01*
X157061285Y-75437848D01*
X157055670Y-75437500D01*
X157055672Y-75437461D01*
X157051770Y-75437228D01*
X157047412Y-75436839D01*
X157040244Y-75435348D01*
X157032928Y-75435546D01*
X157026229Y-75434948D01*
X156960156Y-75408968D01*
X156918618Y-75351391D01*
X156914803Y-75280497D01*
X156920525Y-75262450D01*
X156952051Y-75184027D01*
X156955285Y-75173316D01*
X156997843Y-74967814D01*
X156999046Y-74958678D01*
X157001895Y-74909265D01*
X157002000Y-74905618D01*
X157002000Y-74876866D01*
X159485500Y-74876866D01*
X159485749Y-74879653D01*
X159485749Y-74879659D01*
X159495698Y-74991126D01*
X159500088Y-75040317D01*
X159558189Y-75252702D01*
X159560605Y-75257767D01*
X159560606Y-75257770D01*
X159647302Y-75439530D01*
X159652983Y-75451441D01*
X159721534Y-75546840D01*
X159767106Y-75610259D01*
X159781472Y-75630252D01*
X159939596Y-75783484D01*
X159944260Y-75786618D01*
X160029776Y-75844083D01*
X160075161Y-75898679D01*
X160085500Y-75948664D01*
X160085500Y-76397780D01*
X160065498Y-76465901D01*
X160024770Y-76505556D01*
X160010131Y-76514421D01*
X160010125Y-76514426D01*
X160003627Y-76518361D01*
X159882369Y-76639619D01*
X159793536Y-76786301D01*
X159742255Y-76949938D01*
X159735508Y-77023365D01*
X159735509Y-77536634D01*
X159735772Y-77539492D01*
X159735772Y-77539501D01*
X159739034Y-77575004D01*
X159742255Y-77610062D01*
X159744254Y-77616440D01*
X159744254Y-77616441D01*
X159788475Y-77757548D01*
X159793536Y-77773699D01*
X159882369Y-77920381D01*
X159977893Y-78015905D01*
X160011919Y-78078217D01*
X160006854Y-78149032D01*
X159977893Y-78194095D01*
X159882369Y-78289619D01*
X159793536Y-78436301D01*
X159742255Y-78599938D01*
X159735508Y-78673365D01*
X159735509Y-79186634D01*
X159735772Y-79189492D01*
X159735772Y-79189501D01*
X159738616Y-79220449D01*
X159742255Y-79260062D01*
X159744254Y-79266440D01*
X159744254Y-79266441D01*
X159778847Y-79376825D01*
X159793536Y-79423699D01*
X159797471Y-79430196D01*
X159860480Y-79534237D01*
X159879971Y-79566421D01*
X159882369Y-79570381D01*
X159881709Y-79570781D01*
X159905799Y-79631189D01*
X159890178Y-79702764D01*
X159890469Y-79702893D01*
X159889843Y-79704298D01*
X159889472Y-79705999D01*
X159884481Y-79714644D01*
X159825466Y-79896272D01*
X159805504Y-80086200D01*
X159806194Y-80092765D01*
X159817255Y-80198000D01*
X159825466Y-80276128D01*
X159884481Y-80457756D01*
X159979968Y-80623144D01*
X159984386Y-80628051D01*
X159984387Y-80628052D01*
X160103333Y-80760155D01*
X160107755Y-80765066D01*
X160148683Y-80794802D01*
X160255241Y-80872221D01*
X160262256Y-80877318D01*
X160268284Y-80880002D01*
X160268286Y-80880003D01*
X160430689Y-80952309D01*
X160436720Y-80954994D01*
X160530121Y-80974847D01*
X160617064Y-80993328D01*
X160617069Y-80993328D01*
X160623521Y-80994700D01*
X160814495Y-80994700D01*
X160820947Y-80993328D01*
X160820952Y-80993328D01*
X160907895Y-80974847D01*
X161001296Y-80954994D01*
X161007327Y-80952309D01*
X161169730Y-80880003D01*
X161169732Y-80880002D01*
X161175760Y-80877318D01*
X161182776Y-80872221D01*
X161289333Y-80794802D01*
X161330261Y-80765066D01*
X161334683Y-80760155D01*
X161372756Y-80717871D01*
X163230256Y-80717871D01*
X163270907Y-80857790D01*
X163277152Y-80872221D01*
X163353711Y-81001678D01*
X163363351Y-81014104D01*
X163469696Y-81120449D01*
X163482122Y-81130089D01*
X163611579Y-81206648D01*
X163626010Y-81212893D01*
X163771865Y-81255269D01*
X163784467Y-81257570D01*
X163812884Y-81259807D01*
X163817814Y-81260000D01*
X164122185Y-81260000D01*
X164137424Y-81255525D01*
X164138629Y-81254135D01*
X164140300Y-81246452D01*
X164140300Y-80724115D01*
X164135825Y-80708876D01*
X164134435Y-80707671D01*
X164126752Y-80706000D01*
X163244922Y-80706000D01*
X163231391Y-80709973D01*
X163230256Y-80717871D01*
X161372756Y-80717871D01*
X161453629Y-80628052D01*
X161453630Y-80628051D01*
X161458048Y-80623144D01*
X161553535Y-80457756D01*
X161612550Y-80276128D01*
X161620762Y-80198000D01*
X161622590Y-80180605D01*
X163231861Y-80180605D01*
X163231901Y-80194706D01*
X163239170Y-80198000D01*
X164122185Y-80198000D01*
X164137424Y-80193525D01*
X164138629Y-80192135D01*
X164140300Y-80184452D01*
X164140300Y-79662116D01*
X164135825Y-79646877D01*
X164134435Y-79645672D01*
X164126752Y-79644001D01*
X163817817Y-79644001D01*
X163812880Y-79644195D01*
X163784464Y-79646430D01*
X163771869Y-79648730D01*
X163626010Y-79691107D01*
X163611579Y-79697352D01*
X163482122Y-79773911D01*
X163469696Y-79783551D01*
X163363351Y-79889896D01*
X163353711Y-79902322D01*
X163277152Y-80031779D01*
X163270907Y-80046210D01*
X163231861Y-80180605D01*
X161622590Y-80180605D01*
X161631822Y-80092765D01*
X161632512Y-80086200D01*
X161612550Y-79896272D01*
X161553535Y-79714644D01*
X161548544Y-79705999D01*
X161548081Y-79704093D01*
X161547547Y-79702893D01*
X161547766Y-79702795D01*
X161531805Y-79637005D01*
X161556427Y-79570853D01*
X161555647Y-79570381D01*
X161558126Y-79566287D01*
X161577537Y-79534237D01*
X161640545Y-79430196D01*
X161644480Y-79423699D01*
X161659170Y-79376825D01*
X161693760Y-79266446D01*
X161695761Y-79260062D01*
X161702508Y-79186635D01*
X161702507Y-78817871D01*
X163230256Y-78817871D01*
X163270907Y-78957790D01*
X163277152Y-78972221D01*
X163353711Y-79101678D01*
X163363351Y-79114104D01*
X163469696Y-79220449D01*
X163482122Y-79230089D01*
X163611579Y-79306648D01*
X163626010Y-79312893D01*
X163771865Y-79355269D01*
X163784467Y-79357570D01*
X163812884Y-79359807D01*
X163817814Y-79360000D01*
X164122185Y-79360000D01*
X164137424Y-79355525D01*
X164138629Y-79354135D01*
X164140300Y-79346452D01*
X164140300Y-78824115D01*
X164135825Y-78808876D01*
X164134435Y-78807671D01*
X164126752Y-78806000D01*
X163244922Y-78806000D01*
X163231391Y-78809973D01*
X163230256Y-78817871D01*
X161702507Y-78817871D01*
X161702507Y-78673366D01*
X161702242Y-78670474D01*
X161697898Y-78623199D01*
X161695761Y-78599938D01*
X161693760Y-78593554D01*
X161646752Y-78443550D01*
X161646751Y-78443548D01*
X161644480Y-78436301D01*
X161555647Y-78289619D01*
X161546633Y-78280605D01*
X163231861Y-78280605D01*
X163231901Y-78294706D01*
X163239170Y-78298000D01*
X164122185Y-78298000D01*
X164137424Y-78293525D01*
X164138629Y-78292135D01*
X164140300Y-78284452D01*
X164140300Y-77762116D01*
X164135825Y-77746877D01*
X164134435Y-77745672D01*
X164126752Y-77744001D01*
X163817817Y-77744001D01*
X163812880Y-77744195D01*
X163784464Y-77746430D01*
X163771869Y-77748730D01*
X163626010Y-77791107D01*
X163611579Y-77797352D01*
X163482122Y-77873911D01*
X163469696Y-77883551D01*
X163363351Y-77989896D01*
X163353711Y-78002322D01*
X163277152Y-78131779D01*
X163270907Y-78146210D01*
X163231861Y-78280605D01*
X161546633Y-78280605D01*
X161460123Y-78194095D01*
X161426097Y-78131783D01*
X161431162Y-78060968D01*
X161460123Y-78015905D01*
X161555647Y-77920381D01*
X161644480Y-77773699D01*
X161649542Y-77757548D01*
X161693760Y-77616446D01*
X161695761Y-77610062D01*
X161702508Y-77536635D01*
X161702507Y-77023366D01*
X161702242Y-77020474D01*
X161696372Y-76956592D01*
X161695761Y-76949938D01*
X161675462Y-76885164D01*
X161646752Y-76793550D01*
X161646751Y-76793548D01*
X161644480Y-76786301D01*
X161555647Y-76639619D01*
X161434389Y-76518361D01*
X161413227Y-76505545D01*
X161403986Y-76495438D01*
X163443200Y-76495438D01*
X163443537Y-76501953D01*
X163453094Y-76594057D01*
X163455988Y-76607456D01*
X163505581Y-76756107D01*
X163511755Y-76769286D01*
X163593988Y-76902173D01*
X163603024Y-76913574D01*
X163713629Y-77023986D01*
X163725040Y-77032998D01*
X163858080Y-77115004D01*
X163871261Y-77121151D01*
X164020014Y-77170491D01*
X164033390Y-77173358D01*
X164124297Y-77182672D01*
X164129326Y-77182929D01*
X164144324Y-77178525D01*
X164145529Y-77177135D01*
X164147200Y-77169452D01*
X164147200Y-76472115D01*
X164142725Y-76456876D01*
X164141335Y-76455671D01*
X164133652Y-76454000D01*
X163461315Y-76454000D01*
X163446076Y-76458475D01*
X163444871Y-76459865D01*
X163443200Y-76467548D01*
X163443200Y-76495438D01*
X161403986Y-76495438D01*
X161365322Y-76453148D01*
X161352500Y-76397770D01*
X161352500Y-75951932D01*
X161359561Y-75927885D01*
X163443200Y-75927885D01*
X163447675Y-75943124D01*
X163449065Y-75944329D01*
X163456748Y-75946000D01*
X164129085Y-75946000D01*
X164144324Y-75941525D01*
X164145529Y-75940135D01*
X164147200Y-75932452D01*
X164147200Y-75235115D01*
X164142725Y-75219876D01*
X164141335Y-75218671D01*
X164133652Y-75217000D01*
X164130762Y-75217000D01*
X164124247Y-75217337D01*
X164032143Y-75226894D01*
X164018744Y-75229788D01*
X163870093Y-75279381D01*
X163856914Y-75285555D01*
X163724027Y-75367788D01*
X163712626Y-75376824D01*
X163602214Y-75487429D01*
X163593202Y-75498840D01*
X163511196Y-75631880D01*
X163505049Y-75645061D01*
X163455709Y-75793814D01*
X163452842Y-75807190D01*
X163443528Y-75898097D01*
X163443200Y-75904514D01*
X163443200Y-75927885D01*
X161359561Y-75927885D01*
X161372502Y-75883811D01*
X161401796Y-75851969D01*
X161415042Y-75841805D01*
X161557301Y-75732646D01*
X161705491Y-75569788D01*
X161822499Y-75383261D01*
X161904627Y-75178962D01*
X161949278Y-74963348D01*
X161952500Y-74907470D01*
X161952500Y-74252295D01*
X163323801Y-74252295D01*
X163324138Y-74258814D01*
X163334057Y-74354406D01*
X163336949Y-74367800D01*
X163388388Y-74521984D01*
X163394561Y-74535162D01*
X163479863Y-74673007D01*
X163488899Y-74684408D01*
X163603629Y-74798939D01*
X163615040Y-74807951D01*
X163753043Y-74893016D01*
X163766224Y-74899163D01*
X163920510Y-74950338D01*
X163933886Y-74953205D01*
X164028238Y-74962872D01*
X164034654Y-74963200D01*
X164184685Y-74963200D01*
X164199924Y-74958725D01*
X164201129Y-74957335D01*
X164202800Y-74949652D01*
X164202800Y-73627315D01*
X164198325Y-73612076D01*
X164196935Y-73610871D01*
X164189252Y-73609200D01*
X163341916Y-73609200D01*
X163326677Y-73613675D01*
X163325472Y-73615065D01*
X163323801Y-73622748D01*
X163323801Y-74252295D01*
X161952500Y-74252295D01*
X161952500Y-73115134D01*
X161952251Y-73112341D01*
X161949640Y-73083085D01*
X163323800Y-73083085D01*
X163328275Y-73098324D01*
X163329665Y-73099529D01*
X163337348Y-73101200D01*
X164184685Y-73101200D01*
X164199924Y-73096725D01*
X164201129Y-73095335D01*
X164202800Y-73087652D01*
X164202800Y-71765316D01*
X164198325Y-71750077D01*
X164196935Y-71748872D01*
X164189252Y-71747201D01*
X164034705Y-71747201D01*
X164028186Y-71747538D01*
X163932594Y-71757457D01*
X163919200Y-71760349D01*
X163765016Y-71811788D01*
X163751838Y-71817961D01*
X163613993Y-71903263D01*
X163602592Y-71912299D01*
X163488061Y-72027029D01*
X163479049Y-72038440D01*
X163393984Y-72176443D01*
X163387837Y-72189624D01*
X163336662Y-72343910D01*
X163333795Y-72357286D01*
X163324128Y-72451638D01*
X163323800Y-72458055D01*
X163323800Y-73083085D01*
X161949640Y-73083085D01*
X161938411Y-72957270D01*
X161938410Y-72957266D01*
X161937912Y-72951683D01*
X161879811Y-72739298D01*
X161820023Y-72613950D01*
X161787429Y-72545615D01*
X161787427Y-72545611D01*
X161785017Y-72540559D01*
X161656528Y-72361748D01*
X161498404Y-72208516D01*
X161450675Y-72176443D01*
X161320305Y-72088837D01*
X161320302Y-72088835D01*
X161315645Y-72085706D01*
X161114027Y-71997202D01*
X161108576Y-71995893D01*
X161108572Y-71995892D01*
X161094375Y-71992484D01*
X161032806Y-71957132D01*
X161000123Y-71894105D01*
X161006703Y-71823414D01*
X161034607Y-71783668D01*
X161040000Y-71764919D01*
X161040000Y-71763282D01*
X161548000Y-71763282D01*
X161551973Y-71776813D01*
X161562580Y-71778338D01*
X161694840Y-71750587D01*
X161705037Y-71747527D01*
X161917340Y-71663685D01*
X161926876Y-71658951D01*
X162122025Y-71540532D01*
X162130618Y-71534266D01*
X162303027Y-71384658D01*
X162310447Y-71377028D01*
X162455180Y-71200512D01*
X162461206Y-71191745D01*
X162574129Y-70993367D01*
X162578595Y-70983703D01*
X162656481Y-70769132D01*
X162659251Y-70758865D01*
X162672631Y-70684871D01*
X163230256Y-70684871D01*
X163270907Y-70824790D01*
X163277152Y-70839221D01*
X163353711Y-70968678D01*
X163363351Y-70981104D01*
X163469696Y-71087449D01*
X163482122Y-71097089D01*
X163611579Y-71173648D01*
X163626010Y-71179893D01*
X163771865Y-71222269D01*
X163784467Y-71224570D01*
X163812884Y-71226807D01*
X163817814Y-71227000D01*
X164122185Y-71227000D01*
X164137424Y-71222525D01*
X164138629Y-71221135D01*
X164140300Y-71213452D01*
X164140300Y-70691115D01*
X164135825Y-70675876D01*
X164134435Y-70674671D01*
X164126752Y-70673000D01*
X163244922Y-70673000D01*
X163231391Y-70676973D01*
X163230256Y-70684871D01*
X162672631Y-70684871D01*
X162700081Y-70533068D01*
X162701016Y-70524838D01*
X162701930Y-70505450D01*
X162702000Y-70502474D01*
X162702000Y-70147605D01*
X163231861Y-70147605D01*
X163231901Y-70161706D01*
X163239170Y-70165000D01*
X164122185Y-70165000D01*
X164137424Y-70160525D01*
X164138629Y-70159135D01*
X164140300Y-70151452D01*
X164140300Y-69629116D01*
X164135825Y-69613877D01*
X164134435Y-69612672D01*
X164126752Y-69611001D01*
X163817817Y-69611001D01*
X163812880Y-69611195D01*
X163784464Y-69613430D01*
X163771869Y-69615730D01*
X163626010Y-69658107D01*
X163611579Y-69664352D01*
X163482122Y-69740911D01*
X163469696Y-69750551D01*
X163363351Y-69856896D01*
X163353711Y-69869322D01*
X163277152Y-69998779D01*
X163270907Y-70013210D01*
X163231861Y-70147605D01*
X162702000Y-70147605D01*
X162702000Y-69868115D01*
X162697525Y-69852876D01*
X162696135Y-69851671D01*
X162688452Y-69850000D01*
X161566115Y-69850000D01*
X161550876Y-69854475D01*
X161549671Y-69855865D01*
X161548000Y-69863548D01*
X161548000Y-71763282D01*
X161040000Y-71763282D01*
X161040000Y-69868115D01*
X161035525Y-69852876D01*
X161034135Y-69851671D01*
X161026452Y-69850000D01*
X159904115Y-69850000D01*
X159888876Y-69854475D01*
X159887671Y-69855865D01*
X159886000Y-69863548D01*
X159886000Y-70453340D01*
X159886225Y-70458649D01*
X159900660Y-70628771D01*
X159902452Y-70639259D01*
X159959801Y-70860211D01*
X159963333Y-70870239D01*
X160057085Y-71078363D01*
X160062265Y-71087669D01*
X160189747Y-71277024D01*
X160196406Y-71285307D01*
X160353971Y-71450478D01*
X160361942Y-71457530D01*
X160545082Y-71593790D01*
X160554119Y-71599394D01*
X160742328Y-71695084D01*
X160793986Y-71743787D01*
X160811112Y-71812687D01*
X160788270Y-71879909D01*
X160732711Y-71924110D01*
X160689182Y-71933339D01*
X160685705Y-71933448D01*
X160680098Y-71933125D01*
X160461504Y-71959578D01*
X160251049Y-72024322D01*
X160055386Y-72125312D01*
X159880699Y-72259354D01*
X159732509Y-72422212D01*
X159615501Y-72608739D01*
X159533373Y-72813038D01*
X159488722Y-73028652D01*
X159485500Y-73084530D01*
X159485500Y-74876866D01*
X157002000Y-74876866D01*
X157002000Y-74268115D01*
X156997525Y-74252876D01*
X156996135Y-74251671D01*
X156988452Y-74250000D01*
X155641000Y-74250000D01*
X155572879Y-74229998D01*
X155526386Y-74176342D01*
X155515000Y-74124000D01*
X155515000Y-73723885D01*
X156023000Y-73723885D01*
X156027475Y-73739124D01*
X156028865Y-73740329D01*
X156036548Y-73742000D01*
X156983885Y-73742000D01*
X156999124Y-73737525D01*
X157000329Y-73736135D01*
X157002000Y-73728452D01*
X157002000Y-73117959D01*
X157001751Y-73112364D01*
X156987917Y-72957367D01*
X156985935Y-72946353D01*
X156930820Y-72744884D01*
X156926926Y-72734411D01*
X156836999Y-72545877D01*
X156831313Y-72536262D01*
X156709424Y-72366635D01*
X156702116Y-72358169D01*
X156552117Y-72212809D01*
X156543435Y-72205779D01*
X156370055Y-72089272D01*
X156360269Y-72083893D01*
X156169004Y-71999933D01*
X156158412Y-71996368D01*
X156040615Y-71968088D01*
X156026530Y-71968793D01*
X156023000Y-71977672D01*
X156023000Y-73723885D01*
X155515000Y-73723885D01*
X155515000Y-71977774D01*
X155506054Y-71947308D01*
X155484136Y-71913203D01*
X155484134Y-71842207D01*
X155522517Y-71782480D01*
X155579155Y-71754389D01*
X155594977Y-71751069D01*
X155594986Y-71751066D01*
X155600211Y-71749970D01*
X155822533Y-71662171D01*
X156026883Y-71538168D01*
X156207419Y-71381507D01*
X156210802Y-71377381D01*
X156210806Y-71377377D01*
X156333031Y-71228312D01*
X156358978Y-71196667D01*
X156368527Y-71179893D01*
X156474584Y-70993577D01*
X156477227Y-70988934D01*
X156558784Y-70764247D01*
X156559734Y-70758995D01*
X156600580Y-70533115D01*
X156600581Y-70533107D01*
X156601318Y-70529031D01*
X156602500Y-70503968D01*
X156602500Y-68735988D01*
X156587383Y-68557825D01*
X156586042Y-68552657D01*
X156528673Y-68331625D01*
X156528671Y-68331620D01*
X156527332Y-68326460D01*
X156518010Y-68305767D01*
X156431347Y-68113381D01*
X156431346Y-68113378D01*
X156429157Y-68108520D01*
X156365770Y-68014367D01*
X156344319Y-67946688D01*
X156362863Y-67878156D01*
X156415514Y-67830529D01*
X156470290Y-67818000D01*
X160013833Y-67818000D01*
X160081954Y-67838002D01*
G37*
%TD.AperFunction*%
%TD*%
%TA.AperFunction,Conductor*%
%TO.N,GND*%
G36*
X170262209Y-79203486D02*
G01*
X170297866Y-79240107D01*
X170320561Y-79277581D01*
X170441819Y-79398839D01*
X170447660Y-79402376D01*
X170447662Y-79402378D01*
X170582655Y-79484132D01*
X170582658Y-79484133D01*
X170588501Y-79487672D01*
X170666135Y-79512001D01*
X170746400Y-79537155D01*
X170746402Y-79537155D01*
X170752138Y-79538953D01*
X170758122Y-79539503D01*
X170758123Y-79539503D01*
X170758134Y-79539504D01*
X170825565Y-79545700D01*
X171082150Y-79545700D01*
X171338834Y-79545699D01*
X171356596Y-79544067D01*
X171406270Y-79539504D01*
X171406275Y-79539503D01*
X171412262Y-79538953D01*
X171575899Y-79487672D01*
X171581742Y-79484133D01*
X171581745Y-79484132D01*
X171716738Y-79402378D01*
X171716740Y-79402376D01*
X171722581Y-79398839D01*
X171777090Y-79344330D01*
X171833121Y-79313734D01*
X171896799Y-79318289D01*
X171947906Y-79356547D01*
X171970216Y-79416362D01*
X171970505Y-79424445D01*
X171970505Y-79804701D01*
X171952519Y-79865956D01*
X171904272Y-79907762D01*
X171841081Y-79916848D01*
X171797754Y-79901150D01*
X171725494Y-79856609D01*
X171713641Y-79851082D01*
X171563525Y-79801290D01*
X171551502Y-79798713D01*
X171459573Y-79789294D01*
X171453820Y-79789000D01*
X171453291Y-79789000D01*
X171439585Y-79793024D01*
X171438503Y-79794273D01*
X171437000Y-79801183D01*
X171437000Y-81738709D01*
X171441024Y-81752415D01*
X171442273Y-81753497D01*
X171449183Y-81755000D01*
X171453769Y-81755000D01*
X171459623Y-81754697D01*
X171552751Y-81745034D01*
X171564794Y-81742433D01*
X171714811Y-81692384D01*
X171726653Y-81686837D01*
X171787577Y-81649136D01*
X171849129Y-81632197D01*
X171910068Y-81651226D01*
X171951046Y-81700179D01*
X171960497Y-81745481D01*
X171960497Y-82737077D01*
X171942511Y-82798332D01*
X171915145Y-82827741D01*
X171816196Y-82901899D01*
X171816193Y-82901902D01*
X171809739Y-82906739D01*
X171722385Y-83023295D01*
X171719552Y-83030853D01*
X171719551Y-83030854D01*
X171689082Y-83112131D01*
X171671255Y-83159684D01*
X171668991Y-83180528D01*
X171664831Y-83218814D01*
X171664830Y-83218824D01*
X171664500Y-83221866D01*
X171664500Y-84418134D01*
X171664831Y-84421177D01*
X171664831Y-84421185D01*
X171668664Y-84456464D01*
X171657399Y-84519302D01*
X171613949Y-84566075D01*
X171556027Y-84582000D01*
X171089973Y-84582000D01*
X171028718Y-84564014D01*
X170986912Y-84515767D01*
X170977336Y-84456464D01*
X170981169Y-84421185D01*
X170981169Y-84421177D01*
X170981500Y-84418134D01*
X170981500Y-83221866D01*
X170981170Y-83218824D01*
X170981169Y-83218814D01*
X170977009Y-83180528D01*
X170974745Y-83159684D01*
X170956919Y-83112131D01*
X170926449Y-83030854D01*
X170926448Y-83030853D01*
X170923615Y-83023295D01*
X170836261Y-82906739D01*
X170719705Y-82819385D01*
X170712147Y-82816552D01*
X170712146Y-82816551D01*
X170589970Y-82770749D01*
X170589967Y-82770748D01*
X170583316Y-82768255D01*
X170551646Y-82764815D01*
X170524186Y-82761831D01*
X170524176Y-82761830D01*
X170521134Y-82761500D01*
X169324866Y-82761500D01*
X169321824Y-82761830D01*
X169321814Y-82761831D01*
X169294354Y-82764815D01*
X169262684Y-82768255D01*
X169256033Y-82770748D01*
X169256030Y-82770749D01*
X169133854Y-82816551D01*
X169133853Y-82816552D01*
X169126295Y-82819385D01*
X169009739Y-82906739D01*
X169004902Y-82913193D01*
X169004898Y-82913197D01*
X168930737Y-83012149D01*
X168879609Y-83050379D01*
X168840074Y-83057500D01*
X167853600Y-83057500D01*
X167792345Y-83039514D01*
X167750539Y-82991267D01*
X167740300Y-82944200D01*
X167740300Y-82360800D01*
X167729326Y-82255034D01*
X167727332Y-82249055D01*
X167675434Y-82093501D01*
X167673350Y-82087254D01*
X167618053Y-81997896D01*
X167583743Y-81942451D01*
X167583742Y-81942450D01*
X167580278Y-81936852D01*
X167567306Y-81923902D01*
X167464349Y-81821125D01*
X167455103Y-81811895D01*
X167423152Y-81792200D01*
X167380446Y-81744746D01*
X167369304Y-81695751D01*
X167369304Y-81317525D01*
X167387290Y-81256270D01*
X167437610Y-81213542D01*
X167438549Y-81213136D01*
X167445401Y-81211145D01*
X167588607Y-81126453D01*
X167647291Y-81067769D01*
X170225000Y-81067769D01*
X170225303Y-81073623D01*
X170234966Y-81166751D01*
X170237567Y-81178794D01*
X170287616Y-81328811D01*
X170293163Y-81340653D01*
X170376177Y-81474802D01*
X170384303Y-81485054D01*
X170495948Y-81596504D01*
X170506214Y-81604612D01*
X170640510Y-81687393D01*
X170652359Y-81692918D01*
X170802475Y-81742710D01*
X170814498Y-81745287D01*
X170906427Y-81754706D01*
X170912180Y-81755000D01*
X170912709Y-81755000D01*
X170926415Y-81750976D01*
X170927497Y-81749727D01*
X170929000Y-81742817D01*
X170929000Y-81042291D01*
X170924976Y-81028585D01*
X170923727Y-81027503D01*
X170916817Y-81026000D01*
X170241291Y-81026000D01*
X170227585Y-81030024D01*
X170226503Y-81031273D01*
X170225000Y-81038183D01*
X170225000Y-81067769D01*
X167647291Y-81067769D01*
X167706253Y-81008807D01*
X167790945Y-80865601D01*
X167794246Y-80854241D01*
X167835746Y-80711394D01*
X167835746Y-80711392D01*
X167837362Y-80705831D01*
X167840300Y-80668502D01*
X167840300Y-80501709D01*
X170225000Y-80501709D01*
X170229024Y-80515415D01*
X170230273Y-80516497D01*
X170237183Y-80518000D01*
X170912709Y-80518000D01*
X170926415Y-80513976D01*
X170927497Y-80512727D01*
X170929000Y-80505817D01*
X170929000Y-79805291D01*
X170924976Y-79791585D01*
X170923727Y-79790503D01*
X170916817Y-79789000D01*
X170912231Y-79789000D01*
X170906377Y-79789303D01*
X170813249Y-79798966D01*
X170801206Y-79801567D01*
X170651189Y-79851616D01*
X170639347Y-79857163D01*
X170505198Y-79940177D01*
X170494946Y-79948303D01*
X170383496Y-80059948D01*
X170375388Y-80070214D01*
X170292607Y-80204510D01*
X170287082Y-80216359D01*
X170237290Y-80366475D01*
X170234713Y-80378498D01*
X170225294Y-80470427D01*
X170225000Y-80476180D01*
X170225000Y-80501709D01*
X167840300Y-80501709D01*
X167840300Y-80235498D01*
X167839496Y-80225273D01*
X167837816Y-80203940D01*
X167837362Y-80198169D01*
X167833038Y-80183285D01*
X167792935Y-80045248D01*
X167792934Y-80045247D01*
X167790945Y-80038399D01*
X167787315Y-80032262D01*
X167784485Y-80025721D01*
X167786125Y-80025011D01*
X167772751Y-79972304D01*
X167785545Y-79928735D01*
X167784023Y-79928077D01*
X167792470Y-79908557D01*
X167832248Y-79771645D01*
X167832211Y-79758962D01*
X167825676Y-79756000D01*
X167583169Y-79756000D01*
X167525494Y-79740222D01*
X167451538Y-79696484D01*
X167451535Y-79696483D01*
X167445401Y-79692855D01*
X167438553Y-79690866D01*
X167438552Y-79690865D01*
X167291194Y-79648054D01*
X167291192Y-79648054D01*
X167285631Y-79646438D01*
X167271066Y-79645292D01*
X167250519Y-79643674D01*
X167250507Y-79643674D01*
X167248302Y-79643500D01*
X166090298Y-79643500D01*
X166088093Y-79643674D01*
X166088081Y-79643674D01*
X166067534Y-79645292D01*
X166052969Y-79646438D01*
X166047408Y-79648054D01*
X166047406Y-79648054D01*
X165900048Y-79690865D01*
X165900047Y-79690866D01*
X165893199Y-79692855D01*
X165887065Y-79696483D01*
X165887062Y-79696484D01*
X165813106Y-79740222D01*
X165755431Y-79756000D01*
X165518098Y-79756000D01*
X165504392Y-79760024D01*
X165487380Y-79779658D01*
X165433674Y-79814173D01*
X165369833Y-79814174D01*
X165321638Y-79785578D01*
X165313607Y-79777547D01*
X165307471Y-79773918D01*
X165266808Y-79749869D01*
X165223240Y-79703206D01*
X165212337Y-79636224D01*
X165220761Y-79577633D01*
X165227000Y-79534237D01*
X165227000Y-79472050D01*
X165224924Y-79443016D01*
X165221974Y-79401782D01*
X165221829Y-79399752D01*
X165216848Y-79365109D01*
X165225934Y-79301918D01*
X165271320Y-79251462D01*
X165307474Y-79230080D01*
X165313607Y-79226453D01*
X165323626Y-79216434D01*
X165379657Y-79185838D01*
X165443335Y-79190393D01*
X165494442Y-79228651D01*
X165498880Y-79235022D01*
X165504930Y-79244377D01*
X165512924Y-79248000D01*
X165755431Y-79248000D01*
X165813106Y-79263778D01*
X165887062Y-79307516D01*
X165887065Y-79307517D01*
X165893199Y-79311145D01*
X165900047Y-79313134D01*
X165900048Y-79313135D01*
X166047406Y-79355946D01*
X166047408Y-79355946D01*
X166052969Y-79357562D01*
X166067534Y-79358708D01*
X166088081Y-79360326D01*
X166088093Y-79360326D01*
X166090298Y-79360500D01*
X167248302Y-79360500D01*
X167250507Y-79360326D01*
X167250519Y-79360326D01*
X167271066Y-79358708D01*
X167285631Y-79357562D01*
X167291192Y-79355946D01*
X167291194Y-79355946D01*
X167438552Y-79313135D01*
X167438553Y-79313134D01*
X167445401Y-79311145D01*
X167451535Y-79307517D01*
X167451538Y-79307516D01*
X167525494Y-79263778D01*
X167583169Y-79248000D01*
X167820502Y-79248000D01*
X167834207Y-79243976D01*
X167850992Y-79224605D01*
X167904698Y-79190090D01*
X167936619Y-79185500D01*
X170200954Y-79185500D01*
X170262209Y-79203486D01*
G37*
%TD.AperFunction*%
%TA.AperFunction,Conductor*%
G36*
X159413346Y-83167976D02*
G01*
X159442866Y-83174251D01*
X159442868Y-83174252D01*
X159442871Y-83174253D01*
X159442872Y-83174253D01*
X159472394Y-83180528D01*
X159494920Y-83187847D01*
X159550074Y-83212403D01*
X159570588Y-83224247D01*
X159619428Y-83259732D01*
X159637029Y-83275580D01*
X159677427Y-83320446D01*
X159691349Y-83339609D01*
X159721536Y-83391894D01*
X159731171Y-83413533D01*
X159749827Y-83470952D01*
X159754751Y-83494120D01*
X159761061Y-83554157D01*
X159761061Y-83577843D01*
X159754751Y-83637880D01*
X159749827Y-83661048D01*
X159731171Y-83718467D01*
X159721538Y-83740105D01*
X159705459Y-83767955D01*
X159691350Y-83792392D01*
X159677429Y-83811552D01*
X159637028Y-83856422D01*
X159619432Y-83872266D01*
X159556867Y-83917722D01*
X159523272Y-83942129D01*
X159523256Y-83942141D01*
X159521964Y-83943080D01*
X159477051Y-83979806D01*
X159455888Y-83999230D01*
X159454757Y-84000394D01*
X159437284Y-84018373D01*
X159381695Y-84049766D01*
X159317958Y-84046121D01*
X159277067Y-84020658D01*
X159259849Y-84003923D01*
X159197289Y-83943120D01*
X159191507Y-83938918D01*
X159188482Y-83937020D01*
X159134538Y-83903177D01*
X159134525Y-83903169D01*
X159132900Y-83902150D01*
X159131201Y-83901239D01*
X159131194Y-83901235D01*
X159104463Y-83886903D01*
X159104454Y-83886899D01*
X159102765Y-83885993D01*
X159096313Y-83883080D01*
X159045243Y-83860022D01*
X159045241Y-83860021D01*
X159039796Y-83857563D01*
X159033960Y-83856299D01*
X159033953Y-83856297D01*
X159026192Y-83854617D01*
X158975971Y-83829509D01*
X158966732Y-83821503D01*
X158959822Y-83820000D01*
X157873305Y-83820000D01*
X157812050Y-83802014D01*
X157770244Y-83753767D01*
X157760005Y-83706700D01*
X157760005Y-83425300D01*
X157777991Y-83364045D01*
X157826238Y-83322239D01*
X157873305Y-83312000D01*
X158836054Y-83312000D01*
X158845747Y-83312415D01*
X158846875Y-83312512D01*
X158846876Y-83312512D01*
X158854947Y-83313205D01*
X158857251Y-83312738D01*
X158860894Y-83313585D01*
X158860894Y-83312000D01*
X158955714Y-83312000D01*
X158972114Y-83307184D01*
X159014736Y-83278040D01*
X159059713Y-83261992D01*
X159059715Y-83261991D01*
X159063527Y-83260631D01*
X159095512Y-83243754D01*
X159109371Y-83238771D01*
X159109459Y-83238968D01*
X159115490Y-83236283D01*
X159115501Y-83236278D01*
X159124436Y-83232300D01*
X159224279Y-83187847D01*
X159246805Y-83180528D01*
X159247695Y-83180339D01*
X159276332Y-83174252D01*
X159276336Y-83174251D01*
X159305856Y-83167976D01*
X159329414Y-83165500D01*
X159389788Y-83165500D01*
X159413346Y-83167976D01*
G37*
%TD.AperFunction*%
%TA.AperFunction,Conductor*%
G36*
X168174071Y-69170486D02*
G01*
X168209728Y-69207107D01*
X168225761Y-69233581D01*
X168330619Y-69338439D01*
X168361215Y-69394470D01*
X168356660Y-69458148D01*
X168330619Y-69498669D01*
X168230991Y-69598297D01*
X168222619Y-69608973D01*
X168140923Y-69743870D01*
X168135346Y-69756221D01*
X168087939Y-69907498D01*
X168085593Y-69919212D01*
X168080359Y-69976175D01*
X168083424Y-69986615D01*
X168084673Y-69987697D01*
X168091583Y-69989200D01*
X170029108Y-69989200D01*
X170042814Y-69985176D01*
X170043896Y-69983927D01*
X170044779Y-69979866D01*
X170039207Y-69919211D01*
X170036861Y-69907500D01*
X169989454Y-69756221D01*
X169983877Y-69743870D01*
X169902181Y-69608973D01*
X169893809Y-69598297D01*
X169794181Y-69498669D01*
X169763585Y-69442638D01*
X169768140Y-69378960D01*
X169794181Y-69338439D01*
X169885935Y-69246685D01*
X169941966Y-69216089D01*
X169966050Y-69213500D01*
X170181731Y-69213500D01*
X170242986Y-69231486D01*
X170278644Y-69268108D01*
X170284723Y-69278145D01*
X170295161Y-69295381D01*
X170416419Y-69416639D01*
X170422260Y-69420176D01*
X170422262Y-69420178D01*
X170557255Y-69501932D01*
X170557258Y-69501933D01*
X170563101Y-69505472D01*
X170585907Y-69512619D01*
X170721000Y-69554955D01*
X170721002Y-69554955D01*
X170726738Y-69556753D01*
X170732722Y-69557303D01*
X170732723Y-69557303D01*
X170732734Y-69557304D01*
X170800165Y-69563500D01*
X171056750Y-69563500D01*
X171313434Y-69563499D01*
X171331196Y-69561867D01*
X171380870Y-69557304D01*
X171380875Y-69557303D01*
X171386862Y-69556753D01*
X171550499Y-69505472D01*
X171556342Y-69501933D01*
X171556345Y-69501932D01*
X171691338Y-69420178D01*
X171691340Y-69420176D01*
X171697181Y-69416639D01*
X171750877Y-69362943D01*
X171806908Y-69332347D01*
X171870586Y-69336902D01*
X171921693Y-69375160D01*
X171944003Y-69434975D01*
X171944292Y-69443058D01*
X171944292Y-69872800D01*
X171926306Y-69934055D01*
X171878059Y-69975861D01*
X171814868Y-69984947D01*
X171771541Y-69969249D01*
X171700094Y-69925209D01*
X171688241Y-69919682D01*
X171538125Y-69869890D01*
X171526102Y-69867313D01*
X171434173Y-69857894D01*
X171428420Y-69857600D01*
X171427891Y-69857600D01*
X171414185Y-69861624D01*
X171413103Y-69862873D01*
X171411600Y-69869783D01*
X171411600Y-71807309D01*
X171415624Y-71821015D01*
X171416873Y-71822097D01*
X171423783Y-71823600D01*
X171428369Y-71823600D01*
X171434223Y-71823297D01*
X171527351Y-71813634D01*
X171539394Y-71811033D01*
X171689411Y-71760984D01*
X171701253Y-71755437D01*
X171787577Y-71702018D01*
X171849129Y-71685079D01*
X171910068Y-71704108D01*
X171951046Y-71753061D01*
X171960497Y-71798363D01*
X171960497Y-72323077D01*
X171942511Y-72384332D01*
X171915145Y-72413741D01*
X171816196Y-72487899D01*
X171816193Y-72487902D01*
X171809739Y-72492739D01*
X171722385Y-72609295D01*
X171719552Y-72616853D01*
X171719551Y-72616854D01*
X171711311Y-72638836D01*
X171671255Y-72745684D01*
X171670488Y-72752749D01*
X171664831Y-72804814D01*
X171664830Y-72804824D01*
X171664500Y-72807866D01*
X171664500Y-74004134D01*
X171664830Y-74007176D01*
X171664831Y-74007186D01*
X171667815Y-74034646D01*
X171671255Y-74066316D01*
X171673748Y-74072967D01*
X171673749Y-74072970D01*
X171719551Y-74195146D01*
X171722385Y-74202705D01*
X171809739Y-74319261D01*
X171926295Y-74406615D01*
X171933853Y-74409448D01*
X171933854Y-74409449D01*
X172056030Y-74455251D01*
X172056033Y-74455252D01*
X172062684Y-74457745D01*
X172094354Y-74461185D01*
X172121814Y-74464169D01*
X172121824Y-74464170D01*
X172124866Y-74464500D01*
X173321134Y-74464500D01*
X173324176Y-74464170D01*
X173324186Y-74464169D01*
X173351646Y-74461185D01*
X173383316Y-74457745D01*
X173389967Y-74455252D01*
X173389970Y-74455251D01*
X173512146Y-74409449D01*
X173512147Y-74409448D01*
X173519705Y-74406615D01*
X173636261Y-74319261D01*
X173723615Y-74202705D01*
X173726449Y-74195146D01*
X173772251Y-74072970D01*
X173772252Y-74072967D01*
X173774745Y-74066316D01*
X173778185Y-74034646D01*
X173781169Y-74007186D01*
X173781170Y-74007176D01*
X173781500Y-74004134D01*
X173781500Y-72807866D01*
X173781170Y-72804824D01*
X173781169Y-72804814D01*
X173775512Y-72752749D01*
X173774745Y-72745684D01*
X173734690Y-72638836D01*
X173726449Y-72616854D01*
X173726448Y-72616853D01*
X173723615Y-72609295D01*
X173636261Y-72492739D01*
X173629807Y-72487902D01*
X173629803Y-72487898D01*
X173530848Y-72413735D01*
X173492619Y-72362607D01*
X173485497Y-72323072D01*
X173485497Y-71620168D01*
X173503483Y-71558913D01*
X173508307Y-71552154D01*
X173512152Y-71548302D01*
X173601902Y-71402701D01*
X173655749Y-71240357D01*
X173666100Y-71139332D01*
X173666100Y-70541868D01*
X173655487Y-70439581D01*
X173601356Y-70277332D01*
X173511352Y-70131887D01*
X173506696Y-70127239D01*
X173506692Y-70127234D01*
X173502545Y-70123094D01*
X173471902Y-70067089D01*
X173469292Y-70042911D01*
X173469292Y-69455800D01*
X173487278Y-69394545D01*
X173535525Y-69352739D01*
X173582592Y-69342500D01*
X174126275Y-69342500D01*
X174187530Y-69360486D01*
X174230874Y-69412258D01*
X174236266Y-69425211D01*
X174243202Y-69488674D01*
X174226747Y-69530371D01*
X174223793Y-69534928D01*
X174213640Y-69548304D01*
X174196044Y-69568228D01*
X174183125Y-69595744D01*
X174175643Y-69609213D01*
X174163498Y-69627951D01*
X174163496Y-69627956D01*
X174159107Y-69634727D01*
X174151488Y-69660202D01*
X174145504Y-69675874D01*
X174134201Y-69699948D01*
X174130612Y-69723000D01*
X174129524Y-69729987D01*
X174126124Y-69745013D01*
X174117413Y-69774141D01*
X174117364Y-69782213D01*
X174117203Y-69808463D01*
X174117166Y-69809358D01*
X174117000Y-69810423D01*
X174117000Y-69841376D01*
X174116998Y-69842068D01*
X174116524Y-69919652D01*
X174116901Y-69920972D01*
X174117000Y-69922419D01*
X174117000Y-72381376D01*
X174116998Y-72382068D01*
X174116805Y-72413735D01*
X174116524Y-72459652D01*
X174118743Y-72467415D01*
X174118743Y-72467417D01*
X174124878Y-72488883D01*
X174128096Y-72503956D01*
X174132405Y-72534045D01*
X174143410Y-72558251D01*
X174149205Y-72574001D01*
X174156512Y-72599565D01*
X174160814Y-72606384D01*
X174160816Y-72606388D01*
X174172732Y-72625273D01*
X174180044Y-72638823D01*
X174192633Y-72666510D01*
X174197903Y-72672626D01*
X174197905Y-72672629D01*
X174209985Y-72686649D01*
X174219973Y-72700147D01*
X174227496Y-72712070D01*
X174244972Y-72773472D01*
X174236276Y-72816070D01*
X174218509Y-72858752D01*
X174215286Y-72869293D01*
X174178138Y-73053527D01*
X174177096Y-73061836D01*
X174177073Y-73062284D01*
X174177000Y-73065164D01*
X174177000Y-73389709D01*
X174181024Y-73403415D01*
X174182273Y-73404497D01*
X174189183Y-73406000D01*
X178575700Y-73406000D01*
X178636955Y-73423986D01*
X178678761Y-73472233D01*
X178689000Y-73519300D01*
X178689000Y-73800700D01*
X178671014Y-73861955D01*
X178622767Y-73903761D01*
X178575700Y-73914000D01*
X174193291Y-73914000D01*
X174179585Y-73918024D01*
X174178503Y-73919273D01*
X174177000Y-73926183D01*
X174177000Y-74254836D01*
X174177073Y-74257716D01*
X174177096Y-74258164D01*
X174178138Y-74266473D01*
X174215287Y-74450711D01*
X174218508Y-74461247D01*
X174236597Y-74504703D01*
X174243532Y-74568166D01*
X174227075Y-74609864D01*
X174223795Y-74614925D01*
X174213640Y-74628304D01*
X174196044Y-74648228D01*
X174185127Y-74671480D01*
X174183125Y-74675744D01*
X174175643Y-74689213D01*
X174163498Y-74707951D01*
X174163496Y-74707956D01*
X174159107Y-74714727D01*
X174151488Y-74740202D01*
X174145504Y-74755874D01*
X174134201Y-74779948D01*
X174132959Y-74787928D01*
X174129524Y-74809987D01*
X174126124Y-74825013D01*
X174117413Y-74854141D01*
X174117364Y-74862213D01*
X174117203Y-74888463D01*
X174117166Y-74889358D01*
X174117000Y-74890423D01*
X174117000Y-74921376D01*
X174116998Y-74922068D01*
X174116524Y-74999652D01*
X174116901Y-75000972D01*
X174117000Y-75002419D01*
X174117000Y-77461376D01*
X174116998Y-77462068D01*
X174116596Y-77527915D01*
X174116524Y-77539652D01*
X174118743Y-77547415D01*
X174118743Y-77547417D01*
X174124878Y-77568883D01*
X174128096Y-77583956D01*
X174132405Y-77614045D01*
X174143410Y-77638251D01*
X174149205Y-77654001D01*
X174156512Y-77679565D01*
X174160814Y-77686384D01*
X174160816Y-77686388D01*
X174172732Y-77705273D01*
X174180044Y-77718823D01*
X174192633Y-77746510D01*
X174197903Y-77752626D01*
X174197905Y-77752629D01*
X174209985Y-77766649D01*
X174219973Y-77780147D01*
X174227496Y-77792070D01*
X174244972Y-77853472D01*
X174236276Y-77896070D01*
X174218509Y-77938752D01*
X174215286Y-77949293D01*
X174178138Y-78133527D01*
X174177096Y-78141836D01*
X174177073Y-78142284D01*
X174177000Y-78145164D01*
X174177000Y-78469709D01*
X174181024Y-78483415D01*
X174182273Y-78484497D01*
X174189183Y-78486000D01*
X178575700Y-78486000D01*
X178636955Y-78503986D01*
X178678761Y-78552233D01*
X178689000Y-78599300D01*
X178689000Y-78880700D01*
X178671014Y-78941955D01*
X178622767Y-78983761D01*
X178575700Y-78994000D01*
X174193291Y-78994000D01*
X174179585Y-78998024D01*
X174178503Y-78999273D01*
X174177000Y-79006183D01*
X174177000Y-79334836D01*
X174177073Y-79337716D01*
X174177096Y-79338164D01*
X174178138Y-79346473D01*
X174215287Y-79530711D01*
X174218508Y-79541247D01*
X174236597Y-79584703D01*
X174243532Y-79648166D01*
X174227075Y-79689864D01*
X174223795Y-79694925D01*
X174213640Y-79708304D01*
X174196044Y-79728228D01*
X174183125Y-79755744D01*
X174175643Y-79769213D01*
X174163498Y-79787951D01*
X174163496Y-79787956D01*
X174159107Y-79794727D01*
X174151488Y-79820202D01*
X174145504Y-79835874D01*
X174134201Y-79859948D01*
X174132959Y-79867928D01*
X174129524Y-79889987D01*
X174126124Y-79905013D01*
X174117413Y-79934141D01*
X174117254Y-79960111D01*
X174117203Y-79968463D01*
X174117166Y-79969358D01*
X174117000Y-79970423D01*
X174117000Y-80001376D01*
X174116998Y-80002068D01*
X174116524Y-80079652D01*
X174116901Y-80080972D01*
X174117000Y-80082419D01*
X174117000Y-82541376D01*
X174116998Y-82542068D01*
X174116615Y-82604825D01*
X174116524Y-82619652D01*
X174118743Y-82627415D01*
X174118743Y-82627417D01*
X174124878Y-82648883D01*
X174128096Y-82663956D01*
X174132405Y-82694045D01*
X174143410Y-82718251D01*
X174149205Y-82734001D01*
X174156512Y-82759565D01*
X174160814Y-82766384D01*
X174160816Y-82766388D01*
X174172732Y-82785273D01*
X174180044Y-82798823D01*
X174192633Y-82826510D01*
X174197903Y-82832626D01*
X174197905Y-82832629D01*
X174209985Y-82846649D01*
X174219974Y-82860148D01*
X174227170Y-82871553D01*
X174244645Y-82932955D01*
X174235948Y-82975553D01*
X174230874Y-82987742D01*
X174190729Y-83037381D01*
X174126275Y-83057500D01*
X173805926Y-83057500D01*
X173744671Y-83039514D01*
X173715263Y-83012149D01*
X173641102Y-82913197D01*
X173641098Y-82913193D01*
X173636261Y-82906739D01*
X173629807Y-82901902D01*
X173629803Y-82901898D01*
X173530848Y-82827735D01*
X173492619Y-82776607D01*
X173485497Y-82737072D01*
X173485497Y-81578720D01*
X173503483Y-81517465D01*
X173518612Y-81498675D01*
X173532899Y-81484363D01*
X173537552Y-81479702D01*
X173627302Y-81334101D01*
X173681149Y-81171757D01*
X173691500Y-81070732D01*
X173691500Y-80473268D01*
X173680887Y-80370981D01*
X173673014Y-80347381D01*
X173654461Y-80291772D01*
X173626756Y-80208732D01*
X173576494Y-80127509D01*
X173540217Y-80068886D01*
X173540216Y-80068885D01*
X173536752Y-80063287D01*
X173528760Y-80055309D01*
X173498115Y-79999305D01*
X173495505Y-79975124D01*
X173495505Y-79306464D01*
X173511892Y-79247772D01*
X173579132Y-79136745D01*
X173579133Y-79136742D01*
X173582672Y-79130899D01*
X173625574Y-78994000D01*
X173632155Y-78973000D01*
X173632155Y-78972998D01*
X173633953Y-78967262D01*
X173640700Y-78893835D01*
X173640699Y-78230566D01*
X173638744Y-78209282D01*
X173634504Y-78163130D01*
X173634503Y-78163125D01*
X173633953Y-78157138D01*
X173628951Y-78141175D01*
X173591895Y-78022933D01*
X173582672Y-77993501D01*
X173575722Y-77982024D01*
X173497378Y-77852662D01*
X173497376Y-77852660D01*
X173493839Y-77846819D01*
X173372581Y-77725561D01*
X173366740Y-77722024D01*
X173366738Y-77722022D01*
X173231745Y-77640268D01*
X173231742Y-77640267D01*
X173225899Y-77636728D01*
X173110258Y-77600488D01*
X173068000Y-77587245D01*
X173067998Y-77587245D01*
X173062262Y-77585447D01*
X173056278Y-77584897D01*
X173056277Y-77584897D01*
X173048240Y-77584159D01*
X172988835Y-77578700D01*
X172732250Y-77578700D01*
X172475566Y-77578701D01*
X172457804Y-77580333D01*
X172408130Y-77584896D01*
X172408125Y-77584897D01*
X172402138Y-77585447D01*
X172238501Y-77636728D01*
X172232658Y-77640267D01*
X172232655Y-77640268D01*
X172097662Y-77722022D01*
X172097660Y-77722024D01*
X172091819Y-77725561D01*
X171987315Y-77830065D01*
X171931284Y-77860661D01*
X171867606Y-77856106D01*
X171827085Y-77830065D01*
X171748885Y-77751865D01*
X171718289Y-77695834D01*
X171715700Y-77671750D01*
X171715700Y-77075058D01*
X171733686Y-77013803D01*
X171748885Y-76994943D01*
X171827439Y-76916389D01*
X171883470Y-76885793D01*
X171947148Y-76890348D01*
X171987669Y-76916389D01*
X172087297Y-77016017D01*
X172097973Y-77024389D01*
X172232870Y-77106085D01*
X172245221Y-77111662D01*
X172396498Y-77159069D01*
X172408212Y-77161415D01*
X172465175Y-77166649D01*
X172475615Y-77163584D01*
X172476697Y-77162335D01*
X172478200Y-77155425D01*
X172478200Y-77151316D01*
X172986200Y-77151316D01*
X172990224Y-77165022D01*
X172991473Y-77166104D01*
X172995534Y-77166987D01*
X173056189Y-77161415D01*
X173067900Y-77159069D01*
X173219179Y-77111662D01*
X173231530Y-77106085D01*
X173366427Y-77024389D01*
X173377103Y-77016017D01*
X173488609Y-76904511D01*
X173496981Y-76893835D01*
X173578677Y-76758938D01*
X173584254Y-76746587D01*
X173631661Y-76595310D01*
X173634007Y-76583596D01*
X173639963Y-76518772D01*
X173640200Y-76513608D01*
X173640200Y-76454899D01*
X173636176Y-76441193D01*
X173634927Y-76440111D01*
X173628017Y-76438608D01*
X173002491Y-76438608D01*
X172988785Y-76442632D01*
X172987703Y-76443881D01*
X172986200Y-76450791D01*
X172986200Y-77151316D01*
X172478200Y-77151316D01*
X172478200Y-75914317D01*
X172986200Y-75914317D01*
X172990224Y-75928023D01*
X172991473Y-75929105D01*
X172998383Y-75930608D01*
X173623908Y-75930608D01*
X173637614Y-75926584D01*
X173638696Y-75925335D01*
X173640199Y-75918425D01*
X173640199Y-75855609D01*
X173639962Y-75850444D01*
X173634007Y-75785619D01*
X173631661Y-75773908D01*
X173584254Y-75622629D01*
X173578677Y-75610278D01*
X173496981Y-75475381D01*
X173488609Y-75464705D01*
X173377103Y-75353199D01*
X173366427Y-75344827D01*
X173231530Y-75263131D01*
X173219179Y-75257554D01*
X173067902Y-75210147D01*
X173056188Y-75207801D01*
X172999225Y-75202567D01*
X172988785Y-75205632D01*
X172987703Y-75206881D01*
X172986200Y-75213791D01*
X172986200Y-75914317D01*
X172478200Y-75914317D01*
X172478200Y-75217900D01*
X172474176Y-75204194D01*
X172472927Y-75203112D01*
X172468866Y-75202229D01*
X172408211Y-75207801D01*
X172396500Y-75210147D01*
X172245221Y-75257554D01*
X172232870Y-75263131D01*
X172097973Y-75344827D01*
X172087297Y-75353199D01*
X171987669Y-75452827D01*
X171931638Y-75483423D01*
X171867960Y-75478868D01*
X171827439Y-75452827D01*
X171722581Y-75347969D01*
X171716740Y-75344432D01*
X171716738Y-75344430D01*
X171581745Y-75262676D01*
X171581742Y-75262675D01*
X171575899Y-75259136D01*
X171454284Y-75221024D01*
X171418000Y-75209653D01*
X171417998Y-75209653D01*
X171412262Y-75207855D01*
X171406278Y-75207305D01*
X171406277Y-75207305D01*
X171388069Y-75205632D01*
X171338835Y-75201108D01*
X171082250Y-75201108D01*
X170825566Y-75201109D01*
X170809696Y-75202567D01*
X170758130Y-75207304D01*
X170758125Y-75207305D01*
X170752138Y-75207855D01*
X170746395Y-75209655D01*
X170746394Y-75209655D01*
X170718160Y-75218503D01*
X170588501Y-75259136D01*
X170582658Y-75262675D01*
X170582655Y-75262676D01*
X170447662Y-75344430D01*
X170447660Y-75344432D01*
X170441819Y-75347969D01*
X170320561Y-75469227D01*
X170317024Y-75475068D01*
X170317022Y-75475070D01*
X170311964Y-75483423D01*
X170231728Y-75615909D01*
X170180447Y-75779546D01*
X170173700Y-75852973D01*
X170173701Y-76516242D01*
X170173938Y-76518820D01*
X170179896Y-76583678D01*
X170179897Y-76583683D01*
X170180447Y-76589670D01*
X170231728Y-76753307D01*
X170235267Y-76759150D01*
X170235268Y-76759153D01*
X170314722Y-76890348D01*
X170320561Y-76899989D01*
X170415515Y-76994943D01*
X170446111Y-77050974D01*
X170448700Y-77075058D01*
X170448700Y-77671750D01*
X170430714Y-77733005D01*
X170415515Y-77751865D01*
X170320561Y-77846819D01*
X170317023Y-77852662D01*
X170317020Y-77852665D01*
X170310220Y-77863893D01*
X170263104Y-77906971D01*
X170213308Y-77918500D01*
X167676490Y-77918500D01*
X167615235Y-77900514D01*
X167596375Y-77885315D01*
X167588607Y-77877547D01*
X167445401Y-77792855D01*
X167438553Y-77790866D01*
X167438552Y-77790865D01*
X167291194Y-77748054D01*
X167291192Y-77748054D01*
X167285631Y-77746438D01*
X167271066Y-77745292D01*
X167250519Y-77743674D01*
X167250507Y-77743674D01*
X167248302Y-77743500D01*
X166090298Y-77743500D01*
X166088093Y-77743674D01*
X166088081Y-77743674D01*
X166067534Y-77745292D01*
X166052969Y-77746438D01*
X166047408Y-77748054D01*
X166047406Y-77748054D01*
X165900048Y-77790865D01*
X165900047Y-77790866D01*
X165893199Y-77792855D01*
X165749993Y-77877547D01*
X165632347Y-77995193D01*
X165628717Y-78001332D01*
X165624350Y-78006961D01*
X165623174Y-78006049D01*
X165582660Y-78043877D01*
X165519850Y-78055302D01*
X165460834Y-78030956D01*
X165439724Y-78006593D01*
X165439250Y-78006961D01*
X165434883Y-78001332D01*
X165431253Y-77995193D01*
X165313607Y-77877547D01*
X165307469Y-77873917D01*
X165266808Y-77849869D01*
X165223240Y-77803206D01*
X165212337Y-77736224D01*
X165221598Y-77671808D01*
X165227000Y-77634237D01*
X165227000Y-77289072D01*
X165221829Y-77216776D01*
X165221543Y-77214787D01*
X165221528Y-77214647D01*
X165232870Y-77151822D01*
X165276377Y-77105102D01*
X165338236Y-77089321D01*
X165393631Y-77106099D01*
X165408705Y-77115391D01*
X165420559Y-77120918D01*
X165570675Y-77170710D01*
X165582698Y-77173287D01*
X165674627Y-77182706D01*
X165680380Y-77183000D01*
X165680909Y-77183000D01*
X165694615Y-77178976D01*
X165695697Y-77177727D01*
X165697200Y-77170817D01*
X165697200Y-77166709D01*
X166205200Y-77166709D01*
X166209224Y-77180415D01*
X166210473Y-77181497D01*
X166217383Y-77183000D01*
X166221969Y-77183000D01*
X166227823Y-77182697D01*
X166320951Y-77173034D01*
X166332994Y-77170433D01*
X166483011Y-77120384D01*
X166494853Y-77114837D01*
X166629002Y-77031823D01*
X166639254Y-77023697D01*
X166750704Y-76912052D01*
X166758812Y-76901786D01*
X166841593Y-76767490D01*
X166847118Y-76755641D01*
X166896910Y-76605525D01*
X166899487Y-76593502D01*
X166908906Y-76501573D01*
X166909200Y-76495820D01*
X166909200Y-76470291D01*
X166905176Y-76456585D01*
X166903927Y-76455503D01*
X166897017Y-76454000D01*
X166221491Y-76454000D01*
X166207785Y-76458024D01*
X166206703Y-76459273D01*
X166205200Y-76466183D01*
X166205200Y-77166709D01*
X165697200Y-77166709D01*
X165697200Y-75929709D01*
X166205200Y-75929709D01*
X166209224Y-75943415D01*
X166210473Y-75944497D01*
X166217383Y-75946000D01*
X166892909Y-75946000D01*
X166906615Y-75941976D01*
X166907697Y-75940727D01*
X166909200Y-75933817D01*
X166909200Y-75904231D01*
X166908897Y-75898377D01*
X166899234Y-75805249D01*
X166896633Y-75793206D01*
X166846584Y-75643189D01*
X166841037Y-75631347D01*
X166758023Y-75497198D01*
X166749897Y-75486946D01*
X166638252Y-75375496D01*
X166627986Y-75367388D01*
X166493690Y-75284607D01*
X166481841Y-75279082D01*
X166331725Y-75229290D01*
X166319702Y-75226713D01*
X166227773Y-75217294D01*
X166222020Y-75217000D01*
X166221491Y-75217000D01*
X166207785Y-75221024D01*
X166206703Y-75222273D01*
X166205200Y-75229183D01*
X166205200Y-75929709D01*
X165697200Y-75929709D01*
X165697200Y-75233291D01*
X165693176Y-75219585D01*
X165691927Y-75218503D01*
X165685017Y-75217000D01*
X165680431Y-75217000D01*
X165674577Y-75217303D01*
X165581449Y-75226966D01*
X165569406Y-75229567D01*
X165419389Y-75279616D01*
X165407545Y-75285164D01*
X165387900Y-75297321D01*
X165326348Y-75314261D01*
X165265408Y-75295233D01*
X165224430Y-75246280D01*
X165216132Y-75184853D01*
X165218361Y-75169348D01*
X165227000Y-75109263D01*
X165227000Y-74991126D01*
X165226173Y-74979555D01*
X165224273Y-74952997D01*
X165222405Y-74926887D01*
X165235974Y-74864507D01*
X165275797Y-74822460D01*
X165300546Y-74807145D01*
X165300548Y-74807143D01*
X165306148Y-74803678D01*
X165358607Y-74751128D01*
X165426452Y-74683164D01*
X165431105Y-74678503D01*
X165434557Y-74672903D01*
X165434560Y-74672899D01*
X165435434Y-74671480D01*
X165436284Y-74670715D01*
X165438640Y-74667732D01*
X165439151Y-74668135D01*
X165482888Y-74628775D01*
X165545897Y-74618504D01*
X165604457Y-74643929D01*
X165628227Y-74671315D01*
X165633322Y-74679548D01*
X165637983Y-74684200D01*
X165637983Y-74684201D01*
X165668562Y-74714727D01*
X165758497Y-74804505D01*
X165764102Y-74807960D01*
X165846390Y-74858683D01*
X165909062Y-74897315D01*
X166076939Y-74952997D01*
X166181400Y-74963700D01*
X167032200Y-74963700D01*
X167137966Y-74952726D01*
X167143842Y-74950766D01*
X167143845Y-74950765D01*
X167252656Y-74914462D01*
X167305746Y-74896750D01*
X167387094Y-74846410D01*
X167450549Y-74807143D01*
X167450550Y-74807142D01*
X167456148Y-74803678D01*
X167508607Y-74751128D01*
X167576452Y-74683164D01*
X167581105Y-74678503D01*
X167673915Y-74527938D01*
X167729597Y-74360061D01*
X167738799Y-74270252D01*
X167762935Y-74211149D01*
X167815192Y-74174478D01*
X167851509Y-74168500D01*
X168840074Y-74168500D01*
X168901329Y-74186486D01*
X168930737Y-74213851D01*
X169004898Y-74312803D01*
X169004902Y-74312807D01*
X169009739Y-74319261D01*
X169126295Y-74406615D01*
X169133853Y-74409448D01*
X169133854Y-74409449D01*
X169256030Y-74455251D01*
X169256033Y-74455252D01*
X169262684Y-74457745D01*
X169294354Y-74461185D01*
X169321814Y-74464169D01*
X169321824Y-74464170D01*
X169324866Y-74464500D01*
X170521134Y-74464500D01*
X170524176Y-74464170D01*
X170524186Y-74464169D01*
X170551646Y-74461185D01*
X170583316Y-74457745D01*
X170589967Y-74455252D01*
X170589970Y-74455251D01*
X170712146Y-74409449D01*
X170712147Y-74409448D01*
X170719705Y-74406615D01*
X170836261Y-74319261D01*
X170923615Y-74202705D01*
X170926449Y-74195146D01*
X170972251Y-74072970D01*
X170972252Y-74072967D01*
X170974745Y-74066316D01*
X170978185Y-74034646D01*
X170981169Y-74007186D01*
X170981170Y-74007176D01*
X170981500Y-74004134D01*
X170981500Y-72807866D01*
X170981170Y-72804824D01*
X170981169Y-72804814D01*
X170975512Y-72752749D01*
X170974745Y-72745684D01*
X170934690Y-72638836D01*
X170926449Y-72616854D01*
X170926448Y-72616853D01*
X170923615Y-72609295D01*
X170836261Y-72492739D01*
X170719705Y-72405385D01*
X170712147Y-72402552D01*
X170712146Y-72402551D01*
X170589970Y-72356749D01*
X170589967Y-72356748D01*
X170583316Y-72354255D01*
X170551646Y-72350815D01*
X170524186Y-72347831D01*
X170524176Y-72347830D01*
X170521134Y-72347500D01*
X169324866Y-72347500D01*
X169321824Y-72347830D01*
X169321814Y-72347831D01*
X169294354Y-72350815D01*
X169262684Y-72354255D01*
X169256033Y-72356748D01*
X169256030Y-72356749D01*
X169133854Y-72402551D01*
X169133853Y-72402552D01*
X169126295Y-72405385D01*
X169009739Y-72492739D01*
X169004902Y-72499193D01*
X169004898Y-72499197D01*
X168930737Y-72598149D01*
X168879609Y-72636379D01*
X168840074Y-72643500D01*
X167853600Y-72643500D01*
X167792345Y-72625514D01*
X167750539Y-72577267D01*
X167740300Y-72530200D01*
X167740300Y-72454800D01*
X167729326Y-72349034D01*
X167720665Y-72323072D01*
X167675434Y-72187501D01*
X167673350Y-72181254D01*
X167615007Y-72086973D01*
X167583743Y-72036451D01*
X167583742Y-72036450D01*
X167580278Y-72030852D01*
X167455103Y-71905895D01*
X167444243Y-71899201D01*
X167423152Y-71886200D01*
X167380446Y-71838746D01*
X167369304Y-71789751D01*
X167369304Y-71284525D01*
X167387290Y-71223270D01*
X167437610Y-71180542D01*
X167438549Y-71180136D01*
X167445401Y-71178145D01*
X167588607Y-71093453D01*
X167706253Y-70975807D01*
X167790945Y-70832601D01*
X167794402Y-70820704D01*
X167835746Y-70678394D01*
X167835746Y-70678392D01*
X167837362Y-70672831D01*
X167840300Y-70635502D01*
X167840300Y-70506534D01*
X168080021Y-70506534D01*
X168085593Y-70567189D01*
X168087939Y-70578900D01*
X168135346Y-70730179D01*
X168140923Y-70742530D01*
X168222619Y-70877427D01*
X168230991Y-70888103D01*
X168342497Y-70999609D01*
X168353173Y-71007981D01*
X168488070Y-71089677D01*
X168500421Y-71095254D01*
X168651698Y-71142661D01*
X168663412Y-71145007D01*
X168728236Y-71150963D01*
X168733400Y-71151200D01*
X168792109Y-71151200D01*
X168805815Y-71147176D01*
X168806897Y-71145927D01*
X168808400Y-71139017D01*
X168808400Y-71134908D01*
X169316400Y-71134908D01*
X169320424Y-71148614D01*
X169321673Y-71149696D01*
X169328583Y-71151199D01*
X169391399Y-71151199D01*
X169396564Y-71150962D01*
X169461389Y-71145007D01*
X169473100Y-71142661D01*
X169493178Y-71136369D01*
X170199600Y-71136369D01*
X170199903Y-71142223D01*
X170209566Y-71235351D01*
X170212167Y-71247394D01*
X170262216Y-71397411D01*
X170267763Y-71409253D01*
X170350777Y-71543402D01*
X170358903Y-71553654D01*
X170470548Y-71665104D01*
X170480814Y-71673212D01*
X170615110Y-71755993D01*
X170626959Y-71761518D01*
X170777075Y-71811310D01*
X170789098Y-71813887D01*
X170881027Y-71823306D01*
X170886780Y-71823600D01*
X170887309Y-71823600D01*
X170901015Y-71819576D01*
X170902097Y-71818327D01*
X170903600Y-71811417D01*
X170903600Y-71110891D01*
X170899576Y-71097185D01*
X170898327Y-71096103D01*
X170891417Y-71094600D01*
X170215891Y-71094600D01*
X170202185Y-71098624D01*
X170201103Y-71099873D01*
X170199600Y-71106783D01*
X170199600Y-71136369D01*
X169493178Y-71136369D01*
X169624379Y-71095254D01*
X169636730Y-71089677D01*
X169771627Y-71007981D01*
X169782303Y-70999609D01*
X169893809Y-70888103D01*
X169902181Y-70877427D01*
X169983877Y-70742530D01*
X169989455Y-70730177D01*
X170019527Y-70634214D01*
X170055007Y-70581140D01*
X170113549Y-70555674D01*
X170176565Y-70565900D01*
X170201838Y-70582467D01*
X170204873Y-70585097D01*
X170211783Y-70586600D01*
X170887309Y-70586600D01*
X170901015Y-70582576D01*
X170902097Y-70581327D01*
X170903600Y-70574417D01*
X170903600Y-69873891D01*
X170899576Y-69860185D01*
X170898327Y-69859103D01*
X170891417Y-69857600D01*
X170886831Y-69857600D01*
X170880977Y-69857903D01*
X170787849Y-69867566D01*
X170775806Y-69870167D01*
X170625789Y-69920216D01*
X170613947Y-69925763D01*
X170479798Y-70008777D01*
X170469546Y-70016903D01*
X170358096Y-70128548D01*
X170349988Y-70138814D01*
X170267207Y-70273110D01*
X170261683Y-70284957D01*
X170210594Y-70438983D01*
X170174238Y-70491460D01*
X170115282Y-70515951D01*
X170052444Y-70504681D01*
X170045112Y-70499788D01*
X170033217Y-70497200D01*
X169332691Y-70497200D01*
X169318985Y-70501224D01*
X169317903Y-70502473D01*
X169316400Y-70509383D01*
X169316400Y-71134908D01*
X168808400Y-71134908D01*
X168808400Y-70513491D01*
X168804376Y-70499785D01*
X168803127Y-70498703D01*
X168796217Y-70497200D01*
X168095692Y-70497200D01*
X168081986Y-70501224D01*
X168080904Y-70502473D01*
X168080021Y-70506534D01*
X167840300Y-70506534D01*
X167840300Y-70202498D01*
X167837362Y-70165169D01*
X167827693Y-70131887D01*
X167792935Y-70012248D01*
X167792934Y-70012247D01*
X167790945Y-70005399D01*
X167787315Y-69999262D01*
X167784485Y-69992721D01*
X167786125Y-69992011D01*
X167772751Y-69939304D01*
X167785545Y-69895735D01*
X167784023Y-69895077D01*
X167792470Y-69875557D01*
X167832248Y-69738645D01*
X167832211Y-69725962D01*
X167825676Y-69723000D01*
X167583169Y-69723000D01*
X167525494Y-69707222D01*
X167451538Y-69663484D01*
X167451535Y-69663483D01*
X167445401Y-69659855D01*
X167438553Y-69657866D01*
X167438552Y-69657865D01*
X167291194Y-69615054D01*
X167291192Y-69615054D01*
X167285631Y-69613438D01*
X167271066Y-69612292D01*
X167250519Y-69610674D01*
X167250507Y-69610674D01*
X167248302Y-69610500D01*
X166090298Y-69610500D01*
X166088093Y-69610674D01*
X166088081Y-69610674D01*
X166067534Y-69612292D01*
X166052969Y-69613438D01*
X166047408Y-69615054D01*
X166047406Y-69615054D01*
X165900048Y-69657865D01*
X165900047Y-69657866D01*
X165893199Y-69659855D01*
X165887065Y-69663483D01*
X165887062Y-69663484D01*
X165813106Y-69707222D01*
X165755431Y-69723000D01*
X165518098Y-69723000D01*
X165504392Y-69727024D01*
X165487380Y-69746658D01*
X165433674Y-69781173D01*
X165369833Y-69781174D01*
X165321638Y-69752578D01*
X165313607Y-69744547D01*
X165307471Y-69740918D01*
X165266808Y-69716869D01*
X165223240Y-69670206D01*
X165212337Y-69603224D01*
X165222811Y-69530371D01*
X165227000Y-69501237D01*
X165227000Y-69439050D01*
X165223812Y-69394470D01*
X165221974Y-69368782D01*
X165221829Y-69366752D01*
X165221282Y-69362943D01*
X165216848Y-69332109D01*
X165225934Y-69268918D01*
X165271320Y-69218462D01*
X165307474Y-69197080D01*
X165313607Y-69193453D01*
X165323626Y-69183434D01*
X165379657Y-69152838D01*
X165443335Y-69157393D01*
X165494442Y-69195651D01*
X165498880Y-69202022D01*
X165504930Y-69211377D01*
X165512924Y-69215000D01*
X165755431Y-69215000D01*
X165813106Y-69230778D01*
X165887062Y-69274516D01*
X165887065Y-69274517D01*
X165893199Y-69278145D01*
X165900047Y-69280134D01*
X165900048Y-69280135D01*
X166047406Y-69322946D01*
X166047408Y-69322946D01*
X166052969Y-69324562D01*
X166067534Y-69325708D01*
X166088081Y-69327326D01*
X166088093Y-69327326D01*
X166090298Y-69327500D01*
X167248302Y-69327500D01*
X167250507Y-69327326D01*
X167250519Y-69327326D01*
X167271066Y-69325708D01*
X167285631Y-69324562D01*
X167291192Y-69322946D01*
X167291194Y-69322946D01*
X167438552Y-69280135D01*
X167438553Y-69280134D01*
X167445401Y-69278145D01*
X167451535Y-69274517D01*
X167451538Y-69274516D01*
X167525494Y-69230778D01*
X167583169Y-69215000D01*
X167820502Y-69215000D01*
X167834207Y-69210976D01*
X167850992Y-69191605D01*
X167904698Y-69157090D01*
X167936619Y-69152500D01*
X168112816Y-69152500D01*
X168174071Y-69170486D01*
G37*
%TD.AperFunction*%
%TA.AperFunction,Conductor*%
G36*
X160920963Y-78693986D02*
G01*
X160962769Y-78742233D01*
X160973008Y-78789300D01*
X160973008Y-79821708D01*
X160977032Y-79835414D01*
X160978281Y-79836496D01*
X160997092Y-79840588D01*
X160996424Y-79843657D01*
X161038410Y-79855985D01*
X161080216Y-79904232D01*
X161084910Y-79916287D01*
X161109235Y-79991151D01*
X161114159Y-80014320D01*
X161120469Y-80074358D01*
X161120470Y-80098037D01*
X161117373Y-80127507D01*
X161117373Y-80127509D01*
X161117372Y-80127513D01*
X161115545Y-80144897D01*
X161115540Y-80144943D01*
X161114159Y-80158083D01*
X161109235Y-80181248D01*
X161090578Y-80238669D01*
X161080943Y-80260309D01*
X161050755Y-80312595D01*
X161036835Y-80331755D01*
X160996439Y-80376620D01*
X160978838Y-80392468D01*
X160929995Y-80427954D01*
X160909482Y-80439797D01*
X160854329Y-80464352D01*
X160831805Y-80471671D01*
X160802276Y-80477948D01*
X160802272Y-80477949D01*
X160772751Y-80484224D01*
X160749194Y-80486700D01*
X160688822Y-80486700D01*
X160665265Y-80484224D01*
X160635744Y-80477949D01*
X160635740Y-80477948D01*
X160606211Y-80471671D01*
X160583688Y-80464353D01*
X160583686Y-80464352D01*
X160528531Y-80439796D01*
X160508021Y-80427955D01*
X160508020Y-80427954D01*
X160459178Y-80392468D01*
X160441581Y-80376623D01*
X160401179Y-80331752D01*
X160387259Y-80312593D01*
X160357069Y-80260302D01*
X160347438Y-80238671D01*
X160328783Y-80181256D01*
X160323860Y-80158093D01*
X160322478Y-80144943D01*
X160322471Y-80144885D01*
X160317547Y-80098041D01*
X160317547Y-80074354D01*
X160323857Y-80014320D01*
X160328781Y-79991152D01*
X160353105Y-79916289D01*
X160389139Y-79863590D01*
X160433722Y-79844749D01*
X160433088Y-79842589D01*
X160462423Y-79833976D01*
X160463505Y-79832727D01*
X160465008Y-79825817D01*
X160465008Y-78789300D01*
X160482994Y-78728045D01*
X160531241Y-78686239D01*
X160578308Y-78676000D01*
X160859708Y-78676000D01*
X160920963Y-78693986D01*
G37*
%TD.AperFunction*%
%TA.AperFunction,Conductor*%
G36*
X146024077Y-77453599D02*
G01*
X146066736Y-77469279D01*
X146074677Y-77472198D01*
X146078635Y-77473039D01*
X146078634Y-77473039D01*
X146166123Y-77491636D01*
X146183794Y-77496927D01*
X146196402Y-77501853D01*
X146252863Y-77514136D01*
X146333743Y-77531731D01*
X146333749Y-77531732D01*
X146337689Y-77532589D01*
X146408504Y-77537654D01*
X146552736Y-77527337D01*
X146560329Y-77524505D01*
X146560333Y-77524504D01*
X146687305Y-77477144D01*
X146726900Y-77470000D01*
X147397700Y-77470000D01*
X147458955Y-77487986D01*
X147500761Y-77536233D01*
X147511000Y-77583300D01*
X147511000Y-77864700D01*
X147493014Y-77925955D01*
X147444767Y-77967761D01*
X147397700Y-77978000D01*
X146365292Y-77978000D01*
X146351586Y-77982024D01*
X146350504Y-77983273D01*
X146349001Y-77990183D01*
X146349001Y-78052999D01*
X146349238Y-78058164D01*
X146352092Y-78089231D01*
X146339786Y-78151874D01*
X146292142Y-78199802D01*
X146270611Y-78211163D01*
X146267345Y-78213536D01*
X146267340Y-78213539D01*
X146260988Y-78218154D01*
X146240478Y-78229995D01*
X146218517Y-78239773D01*
X146185319Y-78254553D01*
X146162795Y-78261872D01*
X146155500Y-78263422D01*
X146133295Y-78268142D01*
X146133264Y-78268149D01*
X146103743Y-78274424D01*
X146080186Y-78276900D01*
X146019810Y-78276900D01*
X145996254Y-78274424D01*
X145985038Y-78272040D01*
X145903591Y-78261514D01*
X145863032Y-78259582D01*
X145860751Y-78259658D01*
X145860745Y-78259658D01*
X145824146Y-78260878D01*
X145780953Y-78262318D01*
X145641112Y-78299076D01*
X145575715Y-78326713D01*
X145572245Y-78328805D01*
X145572242Y-78328807D01*
X145505540Y-78369030D01*
X145451893Y-78401380D01*
X145446411Y-78407353D01*
X145356863Y-78504922D01*
X145356859Y-78504927D01*
X145354124Y-78507907D01*
X145351840Y-78511247D01*
X145351837Y-78511251D01*
X145331414Y-78541119D01*
X145314051Y-78566512D01*
X145312264Y-78570147D01*
X145312262Y-78570150D01*
X145252038Y-78692640D01*
X145250254Y-78696269D01*
X145249007Y-78700108D01*
X145249005Y-78700112D01*
X145227769Y-78765472D01*
X145218134Y-78787112D01*
X145193550Y-78829692D01*
X145192181Y-78832935D01*
X145191864Y-78833573D01*
X145148483Y-78880410D01*
X145122337Y-78891832D01*
X145099585Y-78898512D01*
X145098503Y-78899761D01*
X145097000Y-78906671D01*
X145097000Y-80018188D01*
X145079014Y-80079443D01*
X145030767Y-80121249D01*
X144983700Y-80131488D01*
X144702300Y-80131488D01*
X144641045Y-80113502D01*
X144599239Y-80065255D01*
X144589000Y-80018188D01*
X144589000Y-78910780D01*
X144584976Y-78897074D01*
X144583727Y-78895992D01*
X144571305Y-78893290D01*
X144515273Y-78862695D01*
X144483747Y-78801899D01*
X144469941Y-78722123D01*
X144469940Y-78722121D01*
X144469251Y-78718137D01*
X144465973Y-78708049D01*
X144461049Y-78684883D01*
X144460116Y-78676000D01*
X144457494Y-78651054D01*
X144454739Y-78624840D01*
X144454739Y-78601155D01*
X144461049Y-78541119D01*
X144465973Y-78517951D01*
X144484629Y-78460533D01*
X144494264Y-78438893D01*
X144524451Y-78386609D01*
X144538372Y-78367449D01*
X144578772Y-78322579D01*
X144596368Y-78306735D01*
X144665567Y-78256458D01*
X144689728Y-78238904D01*
X144696758Y-78233156D01*
X144733369Y-78203218D01*
X144733372Y-78203216D01*
X144734637Y-78202181D01*
X144755800Y-78182757D01*
X144756918Y-78181607D01*
X144756931Y-78181594D01*
X144792265Y-78145236D01*
X144792268Y-78145232D01*
X144796211Y-78141175D01*
X144874386Y-78019538D01*
X144880298Y-78006593D01*
X144902202Y-77958633D01*
X144902204Y-77958628D01*
X144903880Y-77954958D01*
X144931568Y-77860661D01*
X144942337Y-77823987D01*
X144942337Y-77823985D01*
X144944619Y-77816214D01*
X144944619Y-77713788D01*
X144962605Y-77652533D01*
X145010852Y-77610727D01*
X145057919Y-77600488D01*
X145620630Y-77600488D01*
X145623672Y-77600158D01*
X145623682Y-77600157D01*
X145651142Y-77597173D01*
X145682812Y-77593733D01*
X145689463Y-77591240D01*
X145689466Y-77591239D01*
X145811642Y-77545437D01*
X145811643Y-77545436D01*
X145819201Y-77542603D01*
X145825658Y-77537764D01*
X145825663Y-77537761D01*
X145917038Y-77469279D01*
X145976841Y-77446935D01*
X146024077Y-77453599D01*
G37*
%TD.AperFunction*%
%TA.AperFunction,Conductor*%
G36*
X150337118Y-74321058D02*
G01*
X150362065Y-74337156D01*
X150385673Y-74357222D01*
X150385677Y-74357225D01*
X150388756Y-74359842D01*
X150473225Y-74412997D01*
X150474450Y-74413780D01*
X150499919Y-74430319D01*
X150501187Y-74431051D01*
X150501205Y-74431062D01*
X150504989Y-74433246D01*
X150505639Y-74433621D01*
X150506229Y-74433908D01*
X150507719Y-74434703D01*
X150511138Y-74436854D01*
X150515256Y-74438688D01*
X150522711Y-74442340D01*
X150541392Y-74452358D01*
X150543127Y-74453141D01*
X150543132Y-74453144D01*
X150598924Y-74478340D01*
X150598928Y-74478341D01*
X150604368Y-74480798D01*
X150610203Y-74482062D01*
X150614288Y-74483410D01*
X150652975Y-74505375D01*
X150672273Y-74522097D01*
X150679183Y-74523600D01*
X151765700Y-74523600D01*
X151826955Y-74541586D01*
X151868761Y-74589833D01*
X151879000Y-74636900D01*
X151879000Y-74918300D01*
X151861014Y-74979555D01*
X151812767Y-75021361D01*
X151765700Y-75031600D01*
X150683291Y-75031600D01*
X150669585Y-75035625D01*
X150662948Y-75043284D01*
X150615407Y-75075796D01*
X150589890Y-75084904D01*
X150590555Y-75086766D01*
X150585139Y-75089757D01*
X150550018Y-75103816D01*
X150542553Y-75106065D01*
X150541919Y-75104642D01*
X150535901Y-75107321D01*
X150530796Y-75109594D01*
X150530795Y-75109594D01*
X150493154Y-75126353D01*
X150428504Y-75155137D01*
X150427120Y-75155753D01*
X150404594Y-75163072D01*
X150375068Y-75169348D01*
X150375064Y-75169349D01*
X150345543Y-75175624D01*
X150321986Y-75178100D01*
X150261614Y-75178100D01*
X150238057Y-75175624D01*
X150208536Y-75169349D01*
X150208532Y-75169348D01*
X150179006Y-75163072D01*
X150156479Y-75155752D01*
X150101324Y-75131195D01*
X150080813Y-75119353D01*
X150043796Y-75092459D01*
X150031974Y-75083870D01*
X150017170Y-75070540D01*
X150017001Y-75070709D01*
X150016999Y-75070707D01*
X150014901Y-75068497D01*
X150014364Y-75068013D01*
X150012911Y-75066399D01*
X149991286Y-75042382D01*
X149973972Y-75023153D01*
X149960051Y-75003992D01*
X149929863Y-74951704D01*
X149920229Y-74930067D01*
X149916406Y-74918300D01*
X149901573Y-74872650D01*
X149896650Y-74849484D01*
X149886764Y-74755428D01*
X149886189Y-74746820D01*
X149883754Y-74661583D01*
X149883646Y-74657802D01*
X149876196Y-74612173D01*
X149884076Y-74548822D01*
X149924956Y-74499787D01*
X149947874Y-74487966D01*
X149959899Y-74483410D01*
X149997448Y-74469184D01*
X150015602Y-74458512D01*
X150195717Y-74352628D01*
X150195718Y-74352627D01*
X150199852Y-74350197D01*
X150203514Y-74347108D01*
X150203518Y-74347105D01*
X150215635Y-74336883D01*
X150274053Y-74311135D01*
X150337118Y-74321058D01*
G37*
%TD.AperFunction*%
%TD*%
%TA.AperFunction,Conductor*%
%TO.N,+BATT*%
G36*
X154647621Y-79649002D02*
G01*
X154694114Y-79702658D01*
X154705500Y-79755000D01*
X154705500Y-80128302D01*
X154705693Y-80130750D01*
X154705693Y-80130758D01*
X154707121Y-80148896D01*
X154708438Y-80165631D01*
X154754855Y-80325401D01*
X154758892Y-80332227D01*
X154835509Y-80461780D01*
X154835511Y-80461783D01*
X154839547Y-80468607D01*
X154957193Y-80586253D01*
X154964017Y-80590289D01*
X154964020Y-80590291D01*
X155057864Y-80645790D01*
X155100399Y-80670945D01*
X155108010Y-80673156D01*
X155108012Y-80673157D01*
X155160231Y-80688328D01*
X155260169Y-80717362D01*
X155266574Y-80717866D01*
X155266579Y-80717867D01*
X155295042Y-80720107D01*
X155295050Y-80720107D01*
X155297498Y-80720300D01*
X155730502Y-80720300D01*
X155732950Y-80720107D01*
X155732958Y-80720107D01*
X155761421Y-80717867D01*
X155761426Y-80717866D01*
X155767831Y-80717362D01*
X155867769Y-80688328D01*
X155919988Y-80673157D01*
X155919990Y-80673156D01*
X155927601Y-80670945D01*
X155970136Y-80645790D01*
X156063980Y-80590291D01*
X156063983Y-80590289D01*
X156070807Y-80586253D01*
X156188453Y-80468607D01*
X156192489Y-80461783D01*
X156192491Y-80461780D01*
X156269108Y-80332227D01*
X156273145Y-80325401D01*
X156319562Y-80165631D01*
X156320880Y-80148896D01*
X156322307Y-80130758D01*
X156322307Y-80130750D01*
X156322500Y-80128302D01*
X156322500Y-79755000D01*
X156342502Y-79686879D01*
X156396158Y-79640386D01*
X156448500Y-79629000D01*
X156479500Y-79629000D01*
X156547621Y-79649002D01*
X156594114Y-79702658D01*
X156605500Y-79755000D01*
X156605500Y-80128302D01*
X156605693Y-80130750D01*
X156605693Y-80130758D01*
X156607121Y-80148896D01*
X156608438Y-80165631D01*
X156654855Y-80325401D01*
X156658892Y-80332227D01*
X156700453Y-80402503D01*
X156718000Y-80466642D01*
X156718000Y-83694017D01*
X156698003Y-83762121D01*
X156644347Y-83808614D01*
X156592005Y-83820000D01*
X155524120Y-83820000D01*
X155508881Y-83824475D01*
X155507676Y-83825865D01*
X155506005Y-83833548D01*
X155506005Y-83861438D01*
X155506342Y-83867953D01*
X155515899Y-83960057D01*
X155518793Y-83973456D01*
X155568386Y-84122107D01*
X155574560Y-84135286D01*
X155656793Y-84268173D01*
X155665829Y-84279574D01*
X155753234Y-84366827D01*
X155787313Y-84429110D01*
X155782310Y-84499930D01*
X155739813Y-84556802D01*
X155673314Y-84581671D01*
X155664216Y-84582000D01*
X154646000Y-84582000D01*
X154577879Y-84561998D01*
X154531386Y-84508342D01*
X154520000Y-84456000D01*
X154520000Y-83838115D01*
X154515525Y-83822876D01*
X154514135Y-83821671D01*
X154506452Y-83820000D01*
X153034000Y-83820000D01*
X152965879Y-83799998D01*
X152919386Y-83746342D01*
X152908000Y-83694000D01*
X152908000Y-83293885D01*
X153416000Y-83293885D01*
X153420475Y-83309124D01*
X153421865Y-83310329D01*
X153429548Y-83312000D01*
X154501884Y-83312000D01*
X154517123Y-83307525D01*
X154518328Y-83306135D01*
X154519999Y-83298452D01*
X154519999Y-83293885D01*
X155506005Y-83293885D01*
X155510480Y-83309124D01*
X155511870Y-83310329D01*
X155519553Y-83312000D01*
X156191890Y-83312000D01*
X156207129Y-83307525D01*
X156208334Y-83306135D01*
X156210005Y-83298452D01*
X156210005Y-82601115D01*
X156205530Y-82585876D01*
X156204140Y-82584671D01*
X156196457Y-82583000D01*
X156193567Y-82583000D01*
X156187052Y-82583337D01*
X156094948Y-82592894D01*
X156081549Y-82595788D01*
X155932898Y-82645381D01*
X155919719Y-82651555D01*
X155786832Y-82733788D01*
X155775431Y-82742824D01*
X155665019Y-82853429D01*
X155656007Y-82864840D01*
X155574001Y-82997880D01*
X155567854Y-83011061D01*
X155518514Y-83159814D01*
X155515647Y-83173190D01*
X155506333Y-83264097D01*
X155506005Y-83270514D01*
X155506005Y-83293885D01*
X154519999Y-83293885D01*
X154519999Y-82671331D01*
X154519629Y-82664510D01*
X154514105Y-82613648D01*
X154510479Y-82598396D01*
X154465324Y-82477946D01*
X154456786Y-82462351D01*
X154380285Y-82360276D01*
X154367724Y-82347715D01*
X154265649Y-82271214D01*
X154250054Y-82262676D01*
X154129606Y-82217522D01*
X154114351Y-82213895D01*
X154063486Y-82208369D01*
X154056672Y-82208000D01*
X153434115Y-82208001D01*
X153418876Y-82212476D01*
X153417671Y-82213866D01*
X153416000Y-82221549D01*
X153416000Y-83293885D01*
X152908000Y-83293885D01*
X152908000Y-81026878D01*
X153415989Y-81026878D01*
X153419962Y-81040409D01*
X153427860Y-81041544D01*
X153567779Y-81000893D01*
X153582210Y-80994648D01*
X153711667Y-80918089D01*
X153724093Y-80908449D01*
X153830438Y-80802104D01*
X153840078Y-80789678D01*
X153916637Y-80660221D01*
X153922882Y-80645790D01*
X153965258Y-80499935D01*
X153967559Y-80487333D01*
X153969796Y-80458916D01*
X153969989Y-80453986D01*
X153969989Y-80149615D01*
X153965514Y-80134376D01*
X153964124Y-80133171D01*
X153956441Y-80131500D01*
X153434104Y-80131500D01*
X153418865Y-80135975D01*
X153417660Y-80137365D01*
X153415989Y-80145048D01*
X153415989Y-81026878D01*
X152908000Y-81026878D01*
X152908000Y-80794802D01*
X152925536Y-80730703D01*
X152967097Y-80660427D01*
X152971134Y-80653601D01*
X152973404Y-80645790D01*
X152997758Y-80561958D01*
X153017551Y-80493831D01*
X153018063Y-80487333D01*
X153020296Y-80458958D01*
X153020296Y-80458950D01*
X153020489Y-80456502D01*
X153020489Y-79749500D01*
X153040491Y-79681379D01*
X153094147Y-79634886D01*
X153121205Y-79629000D01*
X154579500Y-79629000D01*
X154647621Y-79649002D01*
G37*
%TD.AperFunction*%
%TD*%
M02*
