%TF.GenerationSoftware,KiCad,Pcbnew,(6.0.2)*%
%TF.CreationDate,2022-08-31T14:57:05-04:00*%
%TF.ProjectId,PowerSupply,506f7765-7253-4757-9070-6c792e6b6963,rev?*%
%TF.SameCoordinates,Original*%
%TF.FileFunction,Copper,L2,Bot*%
%TF.FilePolarity,Positive*%
%FSLAX46Y46*%
G04 Gerber Fmt 4.6, Leading zero omitted, Abs format (unit mm)*
G04 Created by KiCad (PCBNEW (6.0.2)) date 2022-08-31 14:57:05*
%MOMM*%
%LPD*%
G01*
G04 APERTURE LIST*
G04 Aperture macros list*
%AMRoundRect*
0 Rectangle with rounded corners*
0 $1 Rounding radius*
0 $2 $3 $4 $5 $6 $7 $8 $9 X,Y pos of 4 corners*
0 Add a 4 corners polygon primitive as box body*
4,1,4,$2,$3,$4,$5,$6,$7,$8,$9,$2,$3,0*
0 Add four circle primitives for the rounded corners*
1,1,$1+$1,$2,$3*
1,1,$1+$1,$4,$5*
1,1,$1+$1,$6,$7*
1,1,$1+$1,$8,$9*
0 Add four rect primitives between the rounded corners*
20,1,$1+$1,$2,$3,$4,$5,0*
20,1,$1+$1,$4,$5,$6,$7,0*
20,1,$1+$1,$6,$7,$8,$9,0*
20,1,$1+$1,$8,$9,$2,$3,0*%
G04 Aperture macros list end*
%TA.AperFunction,ComponentPad*%
%ADD10RoundRect,0.500000X-3.250000X-0.500000X3.250000X-0.500000X3.250000X0.500000X-3.250000X0.500000X0*%
%TD*%
%TA.AperFunction,ComponentPad*%
%ADD11R,1.700000X1.700000*%
%TD*%
%TA.AperFunction,ComponentPad*%
%ADD12O,1.700000X1.700000*%
%TD*%
%TA.AperFunction,ComponentPad*%
%ADD13R,3.500000X3.500000*%
%TD*%
%TA.AperFunction,ComponentPad*%
%ADD14RoundRect,0.750000X-0.750000X-1.000000X0.750000X-1.000000X0.750000X1.000000X-0.750000X1.000000X0*%
%TD*%
%TA.AperFunction,ComponentPad*%
%ADD15RoundRect,0.875000X-0.875000X-0.875000X0.875000X-0.875000X0.875000X0.875000X-0.875000X0.875000X0*%
%TD*%
%TA.AperFunction,ViaPad*%
%ADD16C,0.800000*%
%TD*%
G04 APERTURE END LIST*
D10*
%TO.P,J1,1,Pin_1*%
%TO.N,+24V*%
X178435000Y-68580000D03*
%TO.P,J1,2,Pin_2*%
%TO.N,GND*%
X178435000Y-73660000D03*
%TO.P,J1,3,Pin_3*%
X178435000Y-78740000D03*
%TO.P,J1,4,Pin_4*%
%TO.N,+6V*%
X178435000Y-83820000D03*
%TD*%
D11*
%TO.P,BT1,1,+*%
%TO.N,+BATT*%
X152400000Y-83566000D03*
D12*
%TO.P,BT1,2,-*%
%TO.N,GND*%
X149860000Y-83566000D03*
%TD*%
D11*
%TO.P,D3,1,K*%
%TO.N,Net-(D3-Pad1)*%
X144780000Y-83566000D03*
D12*
%TO.P,D3,2,A*%
%TO.N,+5V*%
X142240000Y-83566000D03*
%TD*%
D13*
%TO.P,J2,1*%
%TO.N,+5V*%
X149860000Y-69850000D03*
D14*
%TO.P,J2,2*%
%TO.N,GND*%
X143860000Y-69850000D03*
D15*
%TO.P,J2,3*%
%TO.N,unconnected-(J2-Pad3)*%
X146860000Y-74550000D03*
%TD*%
D11*
%TO.P,SW1,1,A*%
%TO.N,Net-(D1-Pad1)*%
X155930600Y-68891000D03*
D12*
%TO.P,SW1,2,B*%
%TO.N,Net-(C1-Pad1)*%
X158470600Y-68891000D03*
%TD*%
D16*
%TO.N,GND*%
X145237200Y-78232000D03*
X167132000Y-80645000D03*
X157581600Y-84582000D03*
X170129200Y-66776600D03*
X166116000Y-66294000D03*
X167182800Y-69469000D03*
X142240000Y-76962000D03*
X166116000Y-77470000D03*
X172770800Y-76962000D03*
X153339800Y-71755000D03*
X152400000Y-80899000D03*
X168630600Y-82296000D03*
%TD*%
%TA.AperFunction,Conductor*%
%TO.N,GND*%
G36*
X174059121Y-65298002D02*
G01*
X174105614Y-65351658D01*
X174117000Y-65404000D01*
X174117000Y-67301298D01*
X174116998Y-67302068D01*
X174116524Y-67379652D01*
X174118990Y-67388281D01*
X174118991Y-67388286D01*
X174124639Y-67408048D01*
X174128217Y-67424809D01*
X174131130Y-67445152D01*
X174131133Y-67445162D01*
X174132405Y-67454045D01*
X174143021Y-67477395D01*
X174149464Y-67494907D01*
X174156512Y-67519565D01*
X174172274Y-67544548D01*
X174180404Y-67559614D01*
X174192633Y-67586510D01*
X174209374Y-67605939D01*
X174220481Y-67620951D01*
X174223658Y-67625987D01*
X174243088Y-67694273D01*
X174233418Y-67741633D01*
X174215900Y-67783716D01*
X174214681Y-67789760D01*
X174214681Y-67789761D01*
X174181149Y-67956064D01*
X174176808Y-67977592D01*
X174176500Y-67983672D01*
X174176500Y-69176328D01*
X174176808Y-69182408D01*
X174215900Y-69376284D01*
X174218267Y-69381970D01*
X174218269Y-69381977D01*
X174233556Y-69418702D01*
X174241269Y-69489278D01*
X174211674Y-69550529D01*
X174201991Y-69561494D01*
X174196044Y-69568228D01*
X174183490Y-69594966D01*
X174175176Y-69609935D01*
X174159107Y-69634727D01*
X174156535Y-69643327D01*
X174151761Y-69659290D01*
X174145099Y-69676736D01*
X174134201Y-69699948D01*
X174132820Y-69708821D01*
X174129658Y-69729128D01*
X174125874Y-69745849D01*
X174119986Y-69765536D01*
X174119985Y-69765539D01*
X174117413Y-69774141D01*
X174117358Y-69783116D01*
X174117358Y-69783117D01*
X174117203Y-69808546D01*
X174117170Y-69809328D01*
X174117000Y-69810423D01*
X174117000Y-69841298D01*
X174116998Y-69842068D01*
X174116942Y-69851316D01*
X174116524Y-69919652D01*
X174116908Y-69920996D01*
X174117000Y-69922341D01*
X174117000Y-72381298D01*
X174116998Y-72382068D01*
X174116524Y-72459652D01*
X174118990Y-72468281D01*
X174118991Y-72468286D01*
X174124639Y-72488048D01*
X174128217Y-72504809D01*
X174131130Y-72525152D01*
X174131133Y-72525162D01*
X174132405Y-72534045D01*
X174143021Y-72557395D01*
X174149464Y-72574907D01*
X174156512Y-72599565D01*
X174172274Y-72624548D01*
X174180404Y-72639614D01*
X174192633Y-72666510D01*
X174209374Y-72685939D01*
X174220483Y-72700953D01*
X174223986Y-72706506D01*
X174243414Y-72774793D01*
X174233743Y-72822153D01*
X174218747Y-72858179D01*
X174215163Y-72869901D01*
X174178233Y-73053055D01*
X174177077Y-73062267D01*
X174177000Y-73065319D01*
X174177000Y-73387885D01*
X174181475Y-73403124D01*
X174182865Y-73404329D01*
X174190548Y-73406000D01*
X178563000Y-73406000D01*
X178631121Y-73426002D01*
X178677614Y-73479658D01*
X178689000Y-73532000D01*
X178689000Y-73788000D01*
X178668998Y-73856121D01*
X178615342Y-73902614D01*
X178563000Y-73914000D01*
X174195115Y-73914000D01*
X174179876Y-73918475D01*
X174178671Y-73919865D01*
X174177000Y-73927548D01*
X174177000Y-74254681D01*
X174177077Y-74257733D01*
X174178233Y-74266945D01*
X174215163Y-74450099D01*
X174218748Y-74461826D01*
X174233925Y-74498284D01*
X174241638Y-74568860D01*
X174212042Y-74630113D01*
X174196044Y-74648228D01*
X174183490Y-74674966D01*
X174175176Y-74689935D01*
X174159107Y-74714727D01*
X174156535Y-74723327D01*
X174151761Y-74739290D01*
X174145099Y-74756736D01*
X174134201Y-74779948D01*
X174132820Y-74788821D01*
X174129658Y-74809128D01*
X174125874Y-74825849D01*
X174119986Y-74845536D01*
X174119985Y-74845539D01*
X174117413Y-74854141D01*
X174117358Y-74863116D01*
X174117358Y-74863117D01*
X174117203Y-74888546D01*
X174117170Y-74889328D01*
X174117000Y-74890423D01*
X174117000Y-74921298D01*
X174116998Y-74922068D01*
X174116524Y-74999652D01*
X174116908Y-75000996D01*
X174117000Y-75002341D01*
X174117000Y-77461298D01*
X174116998Y-77462068D01*
X174116524Y-77539652D01*
X174118990Y-77548281D01*
X174118991Y-77548286D01*
X174124639Y-77568048D01*
X174128217Y-77584809D01*
X174131130Y-77605152D01*
X174131133Y-77605162D01*
X174132405Y-77614045D01*
X174143021Y-77637395D01*
X174149464Y-77654907D01*
X174156512Y-77679565D01*
X174172274Y-77704548D01*
X174180404Y-77719614D01*
X174192633Y-77746510D01*
X174209374Y-77765939D01*
X174220483Y-77780953D01*
X174223986Y-77786506D01*
X174243414Y-77854793D01*
X174233743Y-77902153D01*
X174218747Y-77938179D01*
X174215163Y-77949901D01*
X174178233Y-78133055D01*
X174177077Y-78142267D01*
X174177000Y-78145319D01*
X174177000Y-78467885D01*
X174181475Y-78483124D01*
X174182865Y-78484329D01*
X174190548Y-78486000D01*
X178563000Y-78486000D01*
X178631121Y-78506002D01*
X178677614Y-78559658D01*
X178689000Y-78612000D01*
X178689000Y-78868000D01*
X178668998Y-78936121D01*
X178615342Y-78982614D01*
X178563000Y-78994000D01*
X174195115Y-78994000D01*
X174179876Y-78998475D01*
X174178671Y-78999865D01*
X174177000Y-79007548D01*
X174177000Y-79334681D01*
X174177077Y-79337733D01*
X174178233Y-79346945D01*
X174215163Y-79530099D01*
X174218748Y-79541826D01*
X174233925Y-79578284D01*
X174241638Y-79648860D01*
X174212042Y-79710113D01*
X174196044Y-79728228D01*
X174183490Y-79754966D01*
X174175176Y-79769935D01*
X174159107Y-79794727D01*
X174156535Y-79803327D01*
X174151761Y-79819290D01*
X174145099Y-79836736D01*
X174134201Y-79859948D01*
X174132820Y-79868821D01*
X174129658Y-79889128D01*
X174125874Y-79905849D01*
X174119986Y-79925536D01*
X174119985Y-79925539D01*
X174117413Y-79934141D01*
X174117358Y-79943116D01*
X174117358Y-79943117D01*
X174117203Y-79968546D01*
X174117170Y-79969328D01*
X174117000Y-79970423D01*
X174117000Y-80001298D01*
X174116998Y-80002068D01*
X174116524Y-80079652D01*
X174116908Y-80080996D01*
X174117000Y-80082341D01*
X174117000Y-82541298D01*
X174116998Y-82542068D01*
X174116524Y-82619652D01*
X174118990Y-82628281D01*
X174118991Y-82628286D01*
X174124639Y-82648048D01*
X174128217Y-82664809D01*
X174131130Y-82685152D01*
X174131133Y-82685162D01*
X174132405Y-82694045D01*
X174143021Y-82717395D01*
X174149464Y-82734907D01*
X174156512Y-82759565D01*
X174172274Y-82784548D01*
X174180404Y-82799614D01*
X174192633Y-82826510D01*
X174209374Y-82845939D01*
X174220481Y-82860951D01*
X174223658Y-82865987D01*
X174243088Y-82934273D01*
X174233418Y-82981633D01*
X174215900Y-83023716D01*
X174176808Y-83217592D01*
X174176500Y-83223672D01*
X174176500Y-84416328D01*
X174176808Y-84422408D01*
X174215900Y-84616284D01*
X174218267Y-84621970D01*
X174218269Y-84621977D01*
X174233556Y-84658702D01*
X174241269Y-84729278D01*
X174211674Y-84790529D01*
X174205800Y-84797181D01*
X174196044Y-84808228D01*
X174183490Y-84834966D01*
X174175176Y-84849935D01*
X174159107Y-84874727D01*
X174156535Y-84883327D01*
X174151761Y-84899290D01*
X174145099Y-84916736D01*
X174134201Y-84939948D01*
X174132820Y-84948821D01*
X174129658Y-84969128D01*
X174125874Y-84985849D01*
X174119986Y-85005536D01*
X174119985Y-85005539D01*
X174117413Y-85014141D01*
X174117358Y-85023116D01*
X174117358Y-85023117D01*
X174117203Y-85048546D01*
X174117170Y-85049328D01*
X174117000Y-85050423D01*
X174117000Y-85081298D01*
X174116998Y-85082068D01*
X174116524Y-85159652D01*
X174116908Y-85160996D01*
X174117000Y-85162341D01*
X174117000Y-86996000D01*
X174096998Y-87064121D01*
X174043342Y-87110614D01*
X173991000Y-87122000D01*
X140334000Y-87122000D01*
X140265879Y-87101998D01*
X140219386Y-87048342D01*
X140208000Y-86996000D01*
X140208000Y-83532695D01*
X140877251Y-83532695D01*
X140890110Y-83755715D01*
X140891247Y-83760761D01*
X140891248Y-83760767D01*
X140905493Y-83823973D01*
X140939222Y-83973639D01*
X141023266Y-84180616D01*
X141139987Y-84371088D01*
X141286250Y-84539938D01*
X141458126Y-84682632D01*
X141651000Y-84795338D01*
X141859692Y-84875030D01*
X141864760Y-84876061D01*
X141864763Y-84876062D01*
X141959862Y-84895410D01*
X142078597Y-84919567D01*
X142083772Y-84919757D01*
X142083774Y-84919757D01*
X142296673Y-84927564D01*
X142296677Y-84927564D01*
X142301837Y-84927753D01*
X142306957Y-84927097D01*
X142306959Y-84927097D01*
X142518288Y-84900025D01*
X142518289Y-84900025D01*
X142523416Y-84899368D01*
X142528366Y-84897883D01*
X142732429Y-84836661D01*
X142732434Y-84836659D01*
X142737384Y-84835174D01*
X142937994Y-84736896D01*
X143119860Y-84607173D01*
X143228091Y-84499319D01*
X143290462Y-84465404D01*
X143361268Y-84470592D01*
X143418030Y-84513238D01*
X143435012Y-84544341D01*
X143464117Y-84621977D01*
X143479385Y-84662705D01*
X143566739Y-84779261D01*
X143683295Y-84866615D01*
X143819684Y-84917745D01*
X143881866Y-84924500D01*
X145678134Y-84924500D01*
X145740316Y-84917745D01*
X145876705Y-84866615D01*
X145993261Y-84779261D01*
X146080615Y-84662705D01*
X146131745Y-84526316D01*
X146138500Y-84464134D01*
X146138500Y-83833966D01*
X148528257Y-83833966D01*
X148558565Y-83968446D01*
X148561645Y-83978275D01*
X148641770Y-84175603D01*
X148646413Y-84184794D01*
X148757694Y-84366388D01*
X148763777Y-84374699D01*
X148903213Y-84535667D01*
X148910580Y-84542883D01*
X149074434Y-84678916D01*
X149082881Y-84684831D01*
X149266756Y-84792279D01*
X149276042Y-84796729D01*
X149475001Y-84872703D01*
X149484899Y-84875579D01*
X149588250Y-84896606D01*
X149602299Y-84895410D01*
X149606000Y-84885065D01*
X149606000Y-84884517D01*
X150114000Y-84884517D01*
X150118064Y-84898359D01*
X150131478Y-84900393D01*
X150138184Y-84899534D01*
X150148262Y-84897392D01*
X150352255Y-84836191D01*
X150361842Y-84832433D01*
X150553095Y-84738739D01*
X150561945Y-84733464D01*
X150735328Y-84609792D01*
X150743193Y-84603145D01*
X150847897Y-84498805D01*
X150910268Y-84464889D01*
X150981075Y-84470077D01*
X151037837Y-84512723D01*
X151054819Y-84543826D01*
X151084117Y-84621977D01*
X151099385Y-84662705D01*
X151186739Y-84779261D01*
X151303295Y-84866615D01*
X151439684Y-84917745D01*
X151501866Y-84924500D01*
X153298134Y-84924500D01*
X153360316Y-84917745D01*
X153496705Y-84866615D01*
X153613261Y-84779261D01*
X153700615Y-84662705D01*
X153751745Y-84526316D01*
X153758500Y-84464134D01*
X153758500Y-82667866D01*
X153751745Y-82605684D01*
X153700615Y-82469295D01*
X153613261Y-82352739D01*
X153496705Y-82265385D01*
X153360316Y-82214255D01*
X153298134Y-82207500D01*
X151501866Y-82207500D01*
X151439684Y-82214255D01*
X151303295Y-82265385D01*
X151186739Y-82352739D01*
X151099385Y-82469295D01*
X151096233Y-82477703D01*
X151096232Y-82477705D01*
X151054722Y-82588433D01*
X151012081Y-82645198D01*
X150945519Y-82669898D01*
X150876170Y-82654691D01*
X150843546Y-82629004D01*
X150792799Y-82573234D01*
X150785273Y-82566215D01*
X150618139Y-82434222D01*
X150609552Y-82428517D01*
X150423117Y-82325599D01*
X150413705Y-82321369D01*
X150212959Y-82250280D01*
X150202988Y-82247646D01*
X150131837Y-82234972D01*
X150118540Y-82236432D01*
X150114000Y-82250989D01*
X150114000Y-84884517D01*
X149606000Y-84884517D01*
X149606000Y-83838115D01*
X149601525Y-83822876D01*
X149600135Y-83821671D01*
X149592452Y-83820000D01*
X148543225Y-83820000D01*
X148529694Y-83823973D01*
X148528257Y-83833966D01*
X146138500Y-83833966D01*
X146138500Y-83300183D01*
X148524389Y-83300183D01*
X148525912Y-83308607D01*
X148538292Y-83312000D01*
X149587885Y-83312000D01*
X149603124Y-83307525D01*
X149604329Y-83306135D01*
X149606000Y-83298452D01*
X149606000Y-82249102D01*
X149602082Y-82235758D01*
X149587806Y-82233771D01*
X149549324Y-82239660D01*
X149539288Y-82242051D01*
X149336868Y-82308212D01*
X149327359Y-82312209D01*
X149138463Y-82410542D01*
X149129738Y-82416036D01*
X148959433Y-82543905D01*
X148951726Y-82550748D01*
X148804590Y-82704717D01*
X148798104Y-82712727D01*
X148678098Y-82888649D01*
X148673000Y-82897623D01*
X148583338Y-83090783D01*
X148579775Y-83100470D01*
X148524389Y-83300183D01*
X146138500Y-83300183D01*
X146138500Y-82667866D01*
X146131745Y-82605684D01*
X146080615Y-82469295D01*
X145993261Y-82352739D01*
X145876705Y-82265385D01*
X145740316Y-82214255D01*
X145678134Y-82207500D01*
X143881866Y-82207500D01*
X143819684Y-82214255D01*
X143683295Y-82265385D01*
X143566739Y-82352739D01*
X143479385Y-82469295D01*
X143476233Y-82477703D01*
X143434919Y-82587907D01*
X143392277Y-82644671D01*
X143325716Y-82669371D01*
X143256367Y-82654163D01*
X143223743Y-82628476D01*
X143173151Y-82572875D01*
X143173142Y-82572866D01*
X143169670Y-82569051D01*
X143165619Y-82565852D01*
X143165615Y-82565848D01*
X142998414Y-82433800D01*
X142998410Y-82433798D01*
X142994359Y-82430598D01*
X142958028Y-82410542D01*
X142942136Y-82401769D01*
X142798789Y-82322638D01*
X142793920Y-82320914D01*
X142793916Y-82320912D01*
X142593087Y-82249795D01*
X142593083Y-82249794D01*
X142588212Y-82248069D01*
X142583119Y-82247162D01*
X142583116Y-82247161D01*
X142373373Y-82209800D01*
X142373367Y-82209799D01*
X142368284Y-82208894D01*
X142294452Y-82207992D01*
X142150081Y-82206228D01*
X142150079Y-82206228D01*
X142144911Y-82206165D01*
X141924091Y-82239955D01*
X141711756Y-82309357D01*
X141513607Y-82412507D01*
X141509474Y-82415610D01*
X141509471Y-82415612D01*
X141339100Y-82543530D01*
X141334965Y-82546635D01*
X141309546Y-82573234D01*
X141194097Y-82694045D01*
X141180629Y-82708138D01*
X141177715Y-82712410D01*
X141177714Y-82712411D01*
X141145548Y-82759565D01*
X141054743Y-82892680D01*
X140960688Y-83095305D01*
X140900989Y-83310570D01*
X140877251Y-83532695D01*
X140208000Y-83532695D01*
X140208000Y-75517364D01*
X144601500Y-75517364D01*
X144604619Y-75574957D01*
X144649620Y-75805393D01*
X144732804Y-76024952D01*
X144851791Y-76227356D01*
X145003181Y-76406819D01*
X145182644Y-76558209D01*
X145385048Y-76677196D01*
X145604607Y-76760380D01*
X145835043Y-76805381D01*
X145839401Y-76805617D01*
X145890948Y-76808409D01*
X145890963Y-76808409D01*
X145892636Y-76808500D01*
X147827364Y-76808500D01*
X147829037Y-76808409D01*
X147829052Y-76808409D01*
X147880599Y-76805617D01*
X147884957Y-76805381D01*
X148115393Y-76760380D01*
X148334952Y-76677196D01*
X148537356Y-76558209D01*
X148716819Y-76406819D01*
X148868209Y-76227356D01*
X148987196Y-76024952D01*
X149070380Y-75805393D01*
X149115381Y-75574957D01*
X149118500Y-75517364D01*
X149118500Y-73582636D01*
X149115381Y-73525043D01*
X149070380Y-73294607D01*
X148987196Y-73075048D01*
X148868209Y-72872644D01*
X148716819Y-72693181D01*
X148537356Y-72541791D01*
X148334952Y-72422804D01*
X148148932Y-72352327D01*
X148092317Y-72309488D01*
X148067849Y-72242840D01*
X148083298Y-72173545D01*
X148133759Y-72123602D01*
X148193573Y-72108500D01*
X151658134Y-72108500D01*
X151720316Y-72101745D01*
X151856705Y-72050615D01*
X151973261Y-71963261D01*
X152060615Y-71846705D01*
X152111745Y-71710316D01*
X152118500Y-71648134D01*
X152118500Y-69789134D01*
X154572100Y-69789134D01*
X154578855Y-69851316D01*
X154629985Y-69987705D01*
X154717339Y-70104261D01*
X154833895Y-70191615D01*
X154970284Y-70242745D01*
X155032466Y-70249500D01*
X156828734Y-70249500D01*
X156890916Y-70242745D01*
X157027305Y-70191615D01*
X157143861Y-70104261D01*
X157231215Y-69987705D01*
X157256727Y-69919652D01*
X157275198Y-69870382D01*
X157317840Y-69813618D01*
X157384402Y-69788918D01*
X157453750Y-69804126D01*
X157488417Y-69832114D01*
X157516850Y-69864938D01*
X157688726Y-70007632D01*
X157881600Y-70120338D01*
X157886425Y-70122180D01*
X157886426Y-70122181D01*
X157959212Y-70149975D01*
X158090292Y-70200030D01*
X158095360Y-70201061D01*
X158095363Y-70201062D01*
X158150433Y-70212266D01*
X158309197Y-70244567D01*
X158314372Y-70244757D01*
X158314374Y-70244757D01*
X158527273Y-70252564D01*
X158527277Y-70252564D01*
X158532437Y-70252753D01*
X158537557Y-70252097D01*
X158537559Y-70252097D01*
X158748888Y-70225025D01*
X158748889Y-70225025D01*
X158754016Y-70224368D01*
X158794354Y-70212266D01*
X158963029Y-70161661D01*
X158963034Y-70161659D01*
X158967984Y-70160174D01*
X159168594Y-70061896D01*
X159350460Y-69932173D01*
X159360327Y-69922341D01*
X159494216Y-69788918D01*
X159508696Y-69774489D01*
X159515130Y-69765536D01*
X159636035Y-69597277D01*
X159639053Y-69593077D01*
X159646562Y-69577885D01*
X159735736Y-69397453D01*
X159735737Y-69397451D01*
X159738030Y-69392811D01*
X159802970Y-69179069D01*
X159832129Y-68957590D01*
X159833756Y-68891000D01*
X159815452Y-68668361D01*
X159761031Y-68451702D01*
X159671954Y-68246840D01*
X159550614Y-68059277D01*
X159400270Y-67894051D01*
X159396219Y-67890852D01*
X159396215Y-67890848D01*
X159229014Y-67758800D01*
X159229010Y-67758798D01*
X159224959Y-67755598D01*
X159203803Y-67743919D01*
X159172736Y-67726769D01*
X159029389Y-67647638D01*
X159024520Y-67645914D01*
X159024516Y-67645912D01*
X158823687Y-67574795D01*
X158823683Y-67574794D01*
X158818812Y-67573069D01*
X158813719Y-67572162D01*
X158813716Y-67572161D01*
X158603973Y-67534800D01*
X158603967Y-67534799D01*
X158598884Y-67533894D01*
X158525052Y-67532992D01*
X158380681Y-67531228D01*
X158380679Y-67531228D01*
X158375511Y-67531165D01*
X158154691Y-67564955D01*
X157942356Y-67634357D01*
X157744207Y-67737507D01*
X157740074Y-67740610D01*
X157740071Y-67740612D01*
X157578793Y-67861703D01*
X157565565Y-67871635D01*
X157509137Y-67930684D01*
X157484883Y-67956064D01*
X157423359Y-67991494D01*
X157352446Y-67988037D01*
X157294660Y-67946791D01*
X157275807Y-67913243D01*
X157234367Y-67802703D01*
X157231215Y-67794295D01*
X157143861Y-67677739D01*
X157027305Y-67590385D01*
X156890916Y-67539255D01*
X156828734Y-67532500D01*
X155032466Y-67532500D01*
X154970284Y-67539255D01*
X154833895Y-67590385D01*
X154717339Y-67677739D01*
X154629985Y-67794295D01*
X154578855Y-67930684D01*
X154572100Y-67992866D01*
X154572100Y-69789134D01*
X152118500Y-69789134D01*
X152118500Y-68051866D01*
X152111745Y-67989684D01*
X152060615Y-67853295D01*
X151973261Y-67736739D01*
X151856705Y-67649385D01*
X151720316Y-67598255D01*
X151658134Y-67591500D01*
X148061866Y-67591500D01*
X147999684Y-67598255D01*
X147863295Y-67649385D01*
X147746739Y-67736739D01*
X147659385Y-67853295D01*
X147608255Y-67989684D01*
X147601500Y-68051866D01*
X147601500Y-71648134D01*
X147608255Y-71710316D01*
X147659385Y-71846705D01*
X147746739Y-71963261D01*
X147863295Y-72050615D01*
X147871696Y-72053764D01*
X147873918Y-72054981D01*
X147924064Y-72105240D01*
X147939077Y-72174631D01*
X147914191Y-72241123D01*
X147857307Y-72283605D01*
X147813408Y-72291500D01*
X145892636Y-72291500D01*
X145890963Y-72291591D01*
X145890948Y-72291591D01*
X145840773Y-72294309D01*
X145835043Y-72294619D01*
X145830757Y-72295456D01*
X145758904Y-72309488D01*
X145604607Y-72339620D01*
X145385048Y-72422804D01*
X145182644Y-72541791D01*
X145003181Y-72693181D01*
X144851791Y-72872644D01*
X144732804Y-73075048D01*
X144649620Y-73294607D01*
X144604619Y-73525043D01*
X144601500Y-73582636D01*
X144601500Y-75517364D01*
X140208000Y-75517364D01*
X140208000Y-70909961D01*
X141852001Y-70909961D01*
X141852209Y-70915071D01*
X141863082Y-71048767D01*
X141864852Y-71059320D01*
X141917967Y-71266185D01*
X141921701Y-71276731D01*
X142010510Y-71470705D01*
X142016046Y-71480412D01*
X142137803Y-71655597D01*
X142144976Y-71664176D01*
X142295824Y-71815024D01*
X142304403Y-71822197D01*
X142479588Y-71943954D01*
X142489295Y-71949490D01*
X142683269Y-72038299D01*
X142693815Y-72042033D01*
X142900679Y-72095147D01*
X142911234Y-72096918D01*
X143044930Y-72107793D01*
X143050036Y-72108000D01*
X143587885Y-72108000D01*
X143603124Y-72103525D01*
X143604329Y-72102135D01*
X143606000Y-72094452D01*
X143606000Y-72089884D01*
X144114000Y-72089884D01*
X144118475Y-72105123D01*
X144119865Y-72106328D01*
X144127548Y-72107999D01*
X144669961Y-72107999D01*
X144675071Y-72107791D01*
X144808767Y-72096918D01*
X144819320Y-72095148D01*
X145026185Y-72042033D01*
X145036731Y-72038299D01*
X145230705Y-71949490D01*
X145240412Y-71943954D01*
X145415597Y-71822197D01*
X145424176Y-71815024D01*
X145575024Y-71664176D01*
X145582197Y-71655597D01*
X145703954Y-71480412D01*
X145709490Y-71470705D01*
X145798299Y-71276731D01*
X145802033Y-71266185D01*
X145855147Y-71059321D01*
X145856918Y-71048766D01*
X145867793Y-70915070D01*
X145868000Y-70909964D01*
X145868000Y-70122115D01*
X145863525Y-70106876D01*
X145862135Y-70105671D01*
X145854452Y-70104000D01*
X144132115Y-70104000D01*
X144116876Y-70108475D01*
X144115671Y-70109865D01*
X144114000Y-70117548D01*
X144114000Y-72089884D01*
X143606000Y-72089884D01*
X143606000Y-70122115D01*
X143601525Y-70106876D01*
X143600135Y-70105671D01*
X143592452Y-70104000D01*
X141870116Y-70104000D01*
X141854877Y-70108475D01*
X141853672Y-70109865D01*
X141852001Y-70117548D01*
X141852001Y-70909961D01*
X140208000Y-70909961D01*
X140208000Y-69577885D01*
X141852000Y-69577885D01*
X141856475Y-69593124D01*
X141857865Y-69594329D01*
X141865548Y-69596000D01*
X143587885Y-69596000D01*
X143603124Y-69591525D01*
X143604329Y-69590135D01*
X143606000Y-69582452D01*
X143606000Y-69577885D01*
X144114000Y-69577885D01*
X144118475Y-69593124D01*
X144119865Y-69594329D01*
X144127548Y-69596000D01*
X145849884Y-69596000D01*
X145865123Y-69591525D01*
X145866328Y-69590135D01*
X145867999Y-69582452D01*
X145867999Y-68790039D01*
X145867791Y-68784929D01*
X145856918Y-68651233D01*
X145855148Y-68640680D01*
X145802033Y-68433815D01*
X145798299Y-68423269D01*
X145709490Y-68229295D01*
X145703954Y-68219588D01*
X145582197Y-68044403D01*
X145575024Y-68035824D01*
X145424176Y-67884976D01*
X145415597Y-67877803D01*
X145240412Y-67756046D01*
X145230705Y-67750510D01*
X145036731Y-67661701D01*
X145026185Y-67657967D01*
X144819321Y-67604853D01*
X144808766Y-67603082D01*
X144675070Y-67592207D01*
X144669964Y-67592000D01*
X144132115Y-67592000D01*
X144116876Y-67596475D01*
X144115671Y-67597865D01*
X144114000Y-67605548D01*
X144114000Y-69577885D01*
X143606000Y-69577885D01*
X143606000Y-67610116D01*
X143601525Y-67594877D01*
X143600135Y-67593672D01*
X143592452Y-67592001D01*
X143050039Y-67592001D01*
X143044929Y-67592209D01*
X142911233Y-67603082D01*
X142900680Y-67604852D01*
X142693815Y-67657967D01*
X142683269Y-67661701D01*
X142489295Y-67750510D01*
X142479588Y-67756046D01*
X142304403Y-67877803D01*
X142295824Y-67884976D01*
X142144976Y-68035824D01*
X142137803Y-68044403D01*
X142016046Y-68219588D01*
X142010510Y-68229295D01*
X141921701Y-68423269D01*
X141917967Y-68433815D01*
X141864853Y-68640679D01*
X141863082Y-68651234D01*
X141852207Y-68784930D01*
X141852000Y-68790036D01*
X141852000Y-69577885D01*
X140208000Y-69577885D01*
X140208000Y-65404000D01*
X140228002Y-65335879D01*
X140281658Y-65289386D01*
X140334000Y-65278000D01*
X173991000Y-65278000D01*
X174059121Y-65298002D01*
G37*
%TD.AperFunction*%
%TD*%
M02*
