%TF.GenerationSoftware,KiCad,Pcbnew,(6.0.2)*%
%TF.CreationDate,2022-09-06T11:12:12-04:00*%
%TF.ProjectId,PowerSupply,506f7765-7253-4757-9070-6c792e6b6963,rev?*%
%TF.SameCoordinates,Original*%
%TF.FileFunction,Legend,Bot*%
%TF.FilePolarity,Positive*%
%FSLAX46Y46*%
G04 Gerber Fmt 4.6, Leading zero omitted, Abs format (unit mm)*
G04 Created by KiCad (PCBNEW (6.0.2)) date 2022-09-06 11:12:12*
%MOMM*%
%LPD*%
G01*
G04 APERTURE LIST*
%ADD10C,0.150000*%
%ADD11C,0.127000*%
%ADD12C,0.076200*%
%ADD13C,0.533400*%
%ADD14C,0.120000*%
G04 APERTURE END LIST*
D10*
X147167600Y-75361800D02*
X147675600Y-75361800D01*
X142621000Y-81280000D02*
X146177000Y-81280000D01*
X152400000Y-82042000D02*
X152908000Y-82042000D01*
X151384000Y-80772000D02*
X151384000Y-81788000D01*
X142875000Y-81788000D02*
X142875000Y-82296000D01*
X143129000Y-82042000D02*
X142621000Y-82042000D01*
X151384000Y-81280000D02*
X149860000Y-81280000D01*
X153416000Y-81280000D02*
X151892000Y-81280000D01*
X145161000Y-81280000D02*
X143637000Y-82042000D01*
X143637000Y-82042000D02*
X143637000Y-80518000D01*
X143637000Y-80518000D02*
X145161000Y-81280000D01*
G36*
X145161000Y-81280000D02*
G01*
X143637000Y-82042000D01*
X143637000Y-80518000D01*
X145161000Y-81280000D01*
G37*
X145161000Y-81280000D02*
X143637000Y-82042000D01*
X143637000Y-80518000D01*
X145161000Y-81280000D01*
X152654000Y-81788000D02*
X152654000Y-82296000D01*
X145161000Y-80518000D02*
X145161000Y-82042000D01*
X151892000Y-80264000D02*
X151892000Y-82296000D01*
X147421600Y-75615800D02*
X147421600Y-75107800D01*
X150245533Y-77465180D02*
X150245533Y-76465180D01*
X150007438Y-76465180D01*
X149864580Y-76512800D01*
X149769342Y-76608038D01*
X149721723Y-76703276D01*
X149674104Y-76893752D01*
X149674104Y-77036609D01*
X149721723Y-77227085D01*
X149769342Y-77322323D01*
X149864580Y-77417561D01*
X150007438Y-77465180D01*
X150245533Y-77465180D01*
X148674104Y-77369942D02*
X148721723Y-77417561D01*
X148864580Y-77465180D01*
X148959819Y-77465180D01*
X149102676Y-77417561D01*
X149197914Y-77322323D01*
X149245533Y-77227085D01*
X149293152Y-77036609D01*
X149293152Y-76893752D01*
X149245533Y-76703276D01*
X149197914Y-76608038D01*
X149102676Y-76512800D01*
X148959819Y-76465180D01*
X148864580Y-76465180D01*
X148721723Y-76512800D01*
X148674104Y-76560419D01*
X147483628Y-77465180D02*
X147483628Y-76798514D01*
X147483628Y-76465180D02*
X147531247Y-76512800D01*
X147483628Y-76560419D01*
X147436009Y-76512800D01*
X147483628Y-76465180D01*
X147483628Y-76560419D01*
X147007438Y-76798514D02*
X147007438Y-77465180D01*
X147007438Y-76893752D02*
X146959819Y-76846133D01*
X146864580Y-76798514D01*
X146721723Y-76798514D01*
X146626485Y-76846133D01*
X146578866Y-76941371D01*
X146578866Y-77465180D01*
X173857604Y-83764428D02*
X173095700Y-83764428D01*
X173476652Y-84145380D02*
X173476652Y-83383476D01*
X172190938Y-83145380D02*
X172381414Y-83145380D01*
X172476652Y-83193000D01*
X172524271Y-83240619D01*
X172619509Y-83383476D01*
X172667128Y-83573952D01*
X172667128Y-83954904D01*
X172619509Y-84050142D01*
X172571890Y-84097761D01*
X172476652Y-84145380D01*
X172286176Y-84145380D01*
X172190938Y-84097761D01*
X172143319Y-84050142D01*
X172095700Y-83954904D01*
X172095700Y-83716809D01*
X172143319Y-83621571D01*
X172190938Y-83573952D01*
X172286176Y-83526333D01*
X172476652Y-83526333D01*
X172571890Y-83573952D01*
X172619509Y-83621571D01*
X172667128Y-83716809D01*
X171809985Y-83145380D02*
X171476652Y-84145380D01*
X171143319Y-83145380D01*
X169857604Y-83145380D02*
X169667128Y-83145380D01*
X169571890Y-83193000D01*
X169476652Y-83288238D01*
X169429033Y-83478714D01*
X169429033Y-83812047D01*
X169476652Y-84002523D01*
X169571890Y-84097761D01*
X169667128Y-84145380D01*
X169857604Y-84145380D01*
X169952842Y-84097761D01*
X170048080Y-84002523D01*
X170095700Y-83812047D01*
X170095700Y-83478714D01*
X170048080Y-83288238D01*
X169952842Y-83193000D01*
X169857604Y-83145380D01*
X168571890Y-83478714D02*
X168571890Y-84145380D01*
X169000461Y-83478714D02*
X169000461Y-84002523D01*
X168952842Y-84097761D01*
X168857604Y-84145380D01*
X168714747Y-84145380D01*
X168619509Y-84097761D01*
X168571890Y-84050142D01*
X168238557Y-83478714D02*
X167857604Y-83478714D01*
X168095700Y-83145380D02*
X168095700Y-84002523D01*
X168048080Y-84097761D01*
X167952842Y-84145380D01*
X167857604Y-84145380D01*
D11*
X159990971Y-68246171D02*
X159736971Y-68246171D01*
X159628114Y-68645314D02*
X159990971Y-68645314D01*
X159990971Y-67883314D01*
X159628114Y-67883314D01*
X159301542Y-68137314D02*
X159301542Y-68645314D01*
X159301542Y-68209885D02*
X159265257Y-68173600D01*
X159192685Y-68137314D01*
X159083828Y-68137314D01*
X159011257Y-68173600D01*
X158974971Y-68246171D01*
X158974971Y-68645314D01*
X158285542Y-68645314D02*
X158285542Y-68246171D01*
X158321828Y-68173600D01*
X158394400Y-68137314D01*
X158539542Y-68137314D01*
X158612114Y-68173600D01*
X158285542Y-68609028D02*
X158358114Y-68645314D01*
X158539542Y-68645314D01*
X158612114Y-68609028D01*
X158648400Y-68536457D01*
X158648400Y-68463885D01*
X158612114Y-68391314D01*
X158539542Y-68355028D01*
X158358114Y-68355028D01*
X158285542Y-68318742D01*
X157922685Y-68645314D02*
X157922685Y-67883314D01*
X157922685Y-68173600D02*
X157850114Y-68137314D01*
X157704971Y-68137314D01*
X157632400Y-68173600D01*
X157596114Y-68209885D01*
X157559828Y-68282457D01*
X157559828Y-68500171D01*
X157596114Y-68572742D01*
X157632400Y-68609028D01*
X157704971Y-68645314D01*
X157850114Y-68645314D01*
X157922685Y-68609028D01*
X157124400Y-68645314D02*
X157196971Y-68609028D01*
X157233257Y-68536457D01*
X157233257Y-67883314D01*
X156543828Y-68609028D02*
X156616400Y-68645314D01*
X156761542Y-68645314D01*
X156834114Y-68609028D01*
X156870400Y-68536457D01*
X156870400Y-68246171D01*
X156834114Y-68173600D01*
X156761542Y-68137314D01*
X156616400Y-68137314D01*
X156543828Y-68173600D01*
X156507542Y-68246171D01*
X156507542Y-68318742D01*
X156870400Y-68391314D01*
X152820914Y-79160914D02*
X152349200Y-79160914D01*
X152603200Y-79451200D01*
X152494342Y-79451200D01*
X152421771Y-79487485D01*
X152385485Y-79523771D01*
X152349200Y-79596342D01*
X152349200Y-79777771D01*
X152385485Y-79850342D01*
X152421771Y-79886628D01*
X152494342Y-79922914D01*
X152712057Y-79922914D01*
X152784628Y-79886628D01*
X152820914Y-79850342D01*
X152022628Y-79850342D02*
X151986342Y-79886628D01*
X152022628Y-79922914D01*
X152058914Y-79886628D01*
X152022628Y-79850342D01*
X152022628Y-79922914D01*
X151732342Y-79160914D02*
X151224342Y-79160914D01*
X151550914Y-79922914D01*
X151042914Y-79160914D02*
X150788914Y-79922914D01*
X150534914Y-79160914D01*
X149337485Y-79922914D02*
X149700342Y-79922914D01*
X149700342Y-79160914D01*
X149083485Y-79922914D02*
X149083485Y-79414914D01*
X149083485Y-79160914D02*
X149119771Y-79197200D01*
X149083485Y-79233485D01*
X149047200Y-79197200D01*
X149083485Y-79160914D01*
X149083485Y-79233485D01*
X148720628Y-79922914D02*
X148720628Y-79160914D01*
X148430342Y-79160914D01*
X148357771Y-79197200D01*
X148321485Y-79233485D01*
X148285200Y-79306057D01*
X148285200Y-79414914D01*
X148321485Y-79487485D01*
X148357771Y-79523771D01*
X148430342Y-79560057D01*
X148720628Y-79560057D01*
X147849771Y-79922914D02*
X147922342Y-79886628D01*
X147958628Y-79850342D01*
X147994914Y-79777771D01*
X147994914Y-79560057D01*
X147958628Y-79487485D01*
X147922342Y-79451200D01*
X147849771Y-79414914D01*
X147740914Y-79414914D01*
X147668342Y-79451200D01*
X147632057Y-79487485D01*
X147595771Y-79560057D01*
X147595771Y-79777771D01*
X147632057Y-79850342D01*
X147668342Y-79886628D01*
X147740914Y-79922914D01*
X147849771Y-79922914D01*
X169174885Y-71380894D02*
X169537742Y-71380894D01*
X169537742Y-70618894D01*
X168920885Y-70981751D02*
X168666885Y-70981751D01*
X168558028Y-71380894D02*
X168920885Y-71380894D01*
X168920885Y-70618894D01*
X168558028Y-70618894D01*
X168231457Y-71380894D02*
X168231457Y-70618894D01*
X168050028Y-70618894D01*
X167941171Y-70655180D01*
X167868600Y-70727751D01*
X167832314Y-70800322D01*
X167796028Y-70945465D01*
X167796028Y-71054322D01*
X167832314Y-71199465D01*
X167868600Y-71272037D01*
X167941171Y-71344608D01*
X168050028Y-71380894D01*
X168231457Y-71380894D01*
X166888885Y-71380894D02*
X166888885Y-70618894D01*
X166598600Y-70618894D01*
X166526028Y-70655180D01*
X166489742Y-70691465D01*
X166453457Y-70764037D01*
X166453457Y-70872894D01*
X166489742Y-70945465D01*
X166526028Y-70981751D01*
X166598600Y-71018037D01*
X166888885Y-71018037D01*
X165800314Y-70872894D02*
X165800314Y-71380894D01*
X166126885Y-70872894D02*
X166126885Y-71272037D01*
X166090600Y-71344608D01*
X166018028Y-71380894D01*
X165909171Y-71380894D01*
X165836600Y-71344608D01*
X165800314Y-71308322D01*
X165328600Y-71380894D02*
X165401171Y-71344608D01*
X165437457Y-71272037D01*
X165437457Y-70618894D01*
X165074600Y-71344608D02*
X165002028Y-71380894D01*
X164856885Y-71380894D01*
X164784314Y-71344608D01*
X164748028Y-71272037D01*
X164748028Y-71235751D01*
X164784314Y-71163180D01*
X164856885Y-71126894D01*
X164965742Y-71126894D01*
X165038314Y-71090608D01*
X165074600Y-71018037D01*
X165074600Y-70981751D01*
X165038314Y-70909180D01*
X164965742Y-70872894D01*
X164856885Y-70872894D01*
X164784314Y-70909180D01*
X164131171Y-71344608D02*
X164203742Y-71380894D01*
X164348885Y-71380894D01*
X164421457Y-71344608D01*
X164457742Y-71272037D01*
X164457742Y-70981751D01*
X164421457Y-70909180D01*
X164348885Y-70872894D01*
X164203742Y-70872894D01*
X164131171Y-70909180D01*
X164094885Y-70981751D01*
X164094885Y-71054322D01*
X164457742Y-71126894D01*
X163768314Y-71380894D02*
X163768314Y-70872894D01*
X163768314Y-71018037D02*
X163732028Y-70945465D01*
X163695742Y-70909180D01*
X163623171Y-70872894D01*
X163550600Y-70872894D01*
X170045742Y-72607714D02*
X170045742Y-71845714D01*
X169755457Y-71845714D01*
X169682885Y-71882000D01*
X169646600Y-71918285D01*
X169610314Y-71990857D01*
X169610314Y-72099714D01*
X169646600Y-72172285D01*
X169682885Y-72208571D01*
X169755457Y-72244857D01*
X170045742Y-72244857D01*
X169174885Y-72607714D02*
X169247457Y-72571428D01*
X169283742Y-72535142D01*
X169320028Y-72462571D01*
X169320028Y-72244857D01*
X169283742Y-72172285D01*
X169247457Y-72136000D01*
X169174885Y-72099714D01*
X169066028Y-72099714D01*
X168993457Y-72136000D01*
X168957171Y-72172285D01*
X168920885Y-72244857D01*
X168920885Y-72462571D01*
X168957171Y-72535142D01*
X168993457Y-72571428D01*
X169066028Y-72607714D01*
X169174885Y-72607714D01*
X168666885Y-72099714D02*
X168521742Y-72607714D01*
X168376600Y-72244857D01*
X168231457Y-72607714D01*
X168086314Y-72099714D01*
X167505742Y-72571428D02*
X167578314Y-72607714D01*
X167723457Y-72607714D01*
X167796028Y-72571428D01*
X167832314Y-72498857D01*
X167832314Y-72208571D01*
X167796028Y-72136000D01*
X167723457Y-72099714D01*
X167578314Y-72099714D01*
X167505742Y-72136000D01*
X167469457Y-72208571D01*
X167469457Y-72281142D01*
X167832314Y-72353714D01*
X167142885Y-72607714D02*
X167142885Y-72099714D01*
X167142885Y-72244857D02*
X167106600Y-72172285D01*
X167070314Y-72136000D01*
X166997742Y-72099714D01*
X166925171Y-72099714D01*
X165836600Y-72208571D02*
X165727742Y-72244857D01*
X165691457Y-72281142D01*
X165655171Y-72353714D01*
X165655171Y-72462571D01*
X165691457Y-72535142D01*
X165727742Y-72571428D01*
X165800314Y-72607714D01*
X166090600Y-72607714D01*
X166090600Y-71845714D01*
X165836600Y-71845714D01*
X165764028Y-71882000D01*
X165727742Y-71918285D01*
X165691457Y-71990857D01*
X165691457Y-72063428D01*
X165727742Y-72136000D01*
X165764028Y-72172285D01*
X165836600Y-72208571D01*
X166090600Y-72208571D01*
X165219742Y-72607714D02*
X165292314Y-72571428D01*
X165328600Y-72535142D01*
X165364885Y-72462571D01*
X165364885Y-72244857D01*
X165328600Y-72172285D01*
X165292314Y-72136000D01*
X165219742Y-72099714D01*
X165110885Y-72099714D01*
X165038314Y-72136000D01*
X165002028Y-72172285D01*
X164965742Y-72244857D01*
X164965742Y-72462571D01*
X165002028Y-72535142D01*
X165038314Y-72571428D01*
X165110885Y-72607714D01*
X165219742Y-72607714D01*
X164312600Y-72607714D02*
X164312600Y-72208571D01*
X164348885Y-72136000D01*
X164421457Y-72099714D01*
X164566600Y-72099714D01*
X164639171Y-72136000D01*
X164312600Y-72571428D02*
X164385171Y-72607714D01*
X164566600Y-72607714D01*
X164639171Y-72571428D01*
X164675457Y-72498857D01*
X164675457Y-72426285D01*
X164639171Y-72353714D01*
X164566600Y-72317428D01*
X164385171Y-72317428D01*
X164312600Y-72281142D01*
X163949742Y-72607714D02*
X163949742Y-72099714D01*
X163949742Y-72244857D02*
X163913457Y-72172285D01*
X163877171Y-72136000D01*
X163804600Y-72099714D01*
X163732028Y-72099714D01*
X163151457Y-72607714D02*
X163151457Y-71845714D01*
X163151457Y-72571428D02*
X163224028Y-72607714D01*
X163369171Y-72607714D01*
X163441742Y-72571428D01*
X163478028Y-72535142D01*
X163514314Y-72462571D01*
X163514314Y-72244857D01*
X163478028Y-72172285D01*
X163441742Y-72136000D01*
X163369171Y-72099714D01*
X163224028Y-72099714D01*
X163151457Y-72136000D01*
X167215457Y-73072534D02*
X166961457Y-73834534D01*
X166707457Y-73072534D01*
X166054314Y-73834534D02*
X166489742Y-73834534D01*
X166272028Y-73834534D02*
X166272028Y-73072534D01*
X166344600Y-73181391D01*
X166417171Y-73253962D01*
X166489742Y-73290248D01*
D10*
X173857604Y-68575228D02*
X173095700Y-68575228D01*
X173476652Y-68956180D02*
X173476652Y-68194276D01*
X172667128Y-68051419D02*
X172619509Y-68003800D01*
X172524271Y-67956180D01*
X172286176Y-67956180D01*
X172190938Y-68003800D01*
X172143319Y-68051419D01*
X172095700Y-68146657D01*
X172095700Y-68241895D01*
X172143319Y-68384752D01*
X172714747Y-68956180D01*
X172095700Y-68956180D01*
X171238557Y-68289514D02*
X171238557Y-68956180D01*
X171476652Y-67908561D02*
X171714747Y-68622847D01*
X171095700Y-68622847D01*
X170857604Y-67956180D02*
X170524271Y-68956180D01*
X170190938Y-67956180D01*
X168905223Y-67956180D02*
X168714747Y-67956180D01*
X168619509Y-68003800D01*
X168524271Y-68099038D01*
X168476652Y-68289514D01*
X168476652Y-68622847D01*
X168524271Y-68813323D01*
X168619509Y-68908561D01*
X168714747Y-68956180D01*
X168905223Y-68956180D01*
X169000461Y-68908561D01*
X169095700Y-68813323D01*
X169143319Y-68622847D01*
X169143319Y-68289514D01*
X169095700Y-68099038D01*
X169000461Y-68003800D01*
X168905223Y-67956180D01*
X167619509Y-68289514D02*
X167619509Y-68956180D01*
X168048080Y-68289514D02*
X168048080Y-68813323D01*
X168000461Y-68908561D01*
X167905223Y-68956180D01*
X167762366Y-68956180D01*
X167667128Y-68908561D01*
X167619509Y-68860942D01*
X167286176Y-68289514D02*
X166905223Y-68289514D01*
X167143319Y-67956180D02*
X167143319Y-68813323D01*
X167095700Y-68908561D01*
X167000461Y-68956180D01*
X166905223Y-68956180D01*
X173333795Y-73160000D02*
X173429033Y-73112380D01*
X173571890Y-73112380D01*
X173714747Y-73160000D01*
X173809985Y-73255238D01*
X173857604Y-73350476D01*
X173905223Y-73540952D01*
X173905223Y-73683809D01*
X173857604Y-73874285D01*
X173809985Y-73969523D01*
X173714747Y-74064761D01*
X173571890Y-74112380D01*
X173476652Y-74112380D01*
X173333795Y-74064761D01*
X173286176Y-74017142D01*
X173286176Y-73683809D01*
X173476652Y-73683809D01*
X172857604Y-74112380D02*
X172857604Y-73112380D01*
X172286176Y-74112380D01*
X172286176Y-73112380D01*
X171809985Y-74112380D02*
X171809985Y-73112380D01*
X171571890Y-73112380D01*
X171429033Y-73160000D01*
X171333795Y-73255238D01*
X171286176Y-73350476D01*
X171238557Y-73540952D01*
X171238557Y-73683809D01*
X171286176Y-73874285D01*
X171333795Y-73969523D01*
X171429033Y-74064761D01*
X171571890Y-74112380D01*
X171809985Y-74112380D01*
D11*
X147859447Y-68656200D02*
X147907828Y-68632009D01*
X147980400Y-68632009D01*
X148052971Y-68656200D01*
X148101352Y-68704580D01*
X148125542Y-68752961D01*
X148149733Y-68849723D01*
X148149733Y-68922295D01*
X148125542Y-69019057D01*
X148101352Y-69067438D01*
X148052971Y-69115819D01*
X147980400Y-69140009D01*
X147932019Y-69140009D01*
X147859447Y-69115819D01*
X147835257Y-69091628D01*
X147835257Y-68922295D01*
X147932019Y-68922295D01*
X147617542Y-69140009D02*
X147617542Y-68632009D01*
X147327257Y-69140009D01*
X147327257Y-68632009D01*
X147085352Y-69140009D02*
X147085352Y-68632009D01*
X146964400Y-68632009D01*
X146891828Y-68656200D01*
X146843447Y-68704580D01*
X146819257Y-68752961D01*
X146795066Y-68849723D01*
X146795066Y-68922295D01*
X146819257Y-69019057D01*
X146843447Y-69067438D01*
X146891828Y-69115819D01*
X146964400Y-69140009D01*
X147085352Y-69140009D01*
X146177000Y-79850342D02*
X146213285Y-79886628D01*
X146322142Y-79922914D01*
X146394714Y-79922914D01*
X146503571Y-79886628D01*
X146576142Y-79814057D01*
X146612428Y-79741485D01*
X146648714Y-79596342D01*
X146648714Y-79487485D01*
X146612428Y-79342342D01*
X146576142Y-79269771D01*
X146503571Y-79197200D01*
X146394714Y-79160914D01*
X146322142Y-79160914D01*
X146213285Y-79197200D01*
X146177000Y-79233485D01*
X145850428Y-79922914D02*
X145850428Y-79160914D01*
X145523857Y-79922914D02*
X145523857Y-79523771D01*
X145560142Y-79451200D01*
X145632714Y-79414914D01*
X145741571Y-79414914D01*
X145814142Y-79451200D01*
X145850428Y-79487485D01*
X144834428Y-79922914D02*
X144834428Y-79523771D01*
X144870714Y-79451200D01*
X144943285Y-79414914D01*
X145088428Y-79414914D01*
X145161000Y-79451200D01*
X144834428Y-79886628D02*
X144907000Y-79922914D01*
X145088428Y-79922914D01*
X145161000Y-79886628D01*
X145197285Y-79814057D01*
X145197285Y-79741485D01*
X145161000Y-79668914D01*
X145088428Y-79632628D01*
X144907000Y-79632628D01*
X144834428Y-79596342D01*
X144471571Y-79922914D02*
X144471571Y-79414914D01*
X144471571Y-79560057D02*
X144435285Y-79487485D01*
X144399000Y-79451200D01*
X144326428Y-79414914D01*
X144253857Y-79414914D01*
X143673285Y-79414914D02*
X143673285Y-80031771D01*
X143709571Y-80104342D01*
X143745857Y-80140628D01*
X143818428Y-80176914D01*
X143927285Y-80176914D01*
X143999857Y-80140628D01*
X143673285Y-79886628D02*
X143745857Y-79922914D01*
X143891000Y-79922914D01*
X143963571Y-79886628D01*
X143999857Y-79850342D01*
X144036142Y-79777771D01*
X144036142Y-79560057D01*
X143999857Y-79487485D01*
X143963571Y-79451200D01*
X143891000Y-79414914D01*
X143745857Y-79414914D01*
X143673285Y-79451200D01*
X143310428Y-79922914D02*
X143310428Y-79414914D01*
X143310428Y-79160914D02*
X143346714Y-79197200D01*
X143310428Y-79233485D01*
X143274142Y-79197200D01*
X143310428Y-79160914D01*
X143310428Y-79233485D01*
X142947571Y-79414914D02*
X142947571Y-79922914D01*
X142947571Y-79487485D02*
X142911285Y-79451200D01*
X142838714Y-79414914D01*
X142729857Y-79414914D01*
X142657285Y-79451200D01*
X142621000Y-79523771D01*
X142621000Y-79922914D01*
X141931571Y-79414914D02*
X141931571Y-80031771D01*
X141967857Y-80104342D01*
X142004142Y-80140628D01*
X142076714Y-80176914D01*
X142185571Y-80176914D01*
X142258142Y-80140628D01*
X141931571Y-79886628D02*
X142004142Y-79922914D01*
X142149285Y-79922914D01*
X142221857Y-79886628D01*
X142258142Y-79850342D01*
X142294428Y-79777771D01*
X142294428Y-79560057D01*
X142258142Y-79487485D01*
X142221857Y-79451200D01*
X142149285Y-79414914D01*
X142004142Y-79414914D01*
X141931571Y-79451200D01*
X146680161Y-75083609D02*
X146922066Y-75083609D01*
X146946257Y-75325514D01*
X146922066Y-75301323D01*
X146873685Y-75277133D01*
X146752733Y-75277133D01*
X146704352Y-75301323D01*
X146680161Y-75325514D01*
X146655971Y-75373895D01*
X146655971Y-75494847D01*
X146680161Y-75543228D01*
X146704352Y-75567419D01*
X146752733Y-75591609D01*
X146873685Y-75591609D01*
X146922066Y-75567419D01*
X146946257Y-75543228D01*
X146510828Y-75083609D02*
X146341495Y-75591609D01*
X146172161Y-75083609D01*
D10*
X173333795Y-78240000D02*
X173429033Y-78192380D01*
X173571890Y-78192380D01*
X173714747Y-78240000D01*
X173809985Y-78335238D01*
X173857604Y-78430476D01*
X173905223Y-78620952D01*
X173905223Y-78763809D01*
X173857604Y-78954285D01*
X173809985Y-79049523D01*
X173714747Y-79144761D01*
X173571890Y-79192380D01*
X173476652Y-79192380D01*
X173333795Y-79144761D01*
X173286176Y-79097142D01*
X173286176Y-78763809D01*
X173476652Y-78763809D01*
X172857604Y-79192380D02*
X172857604Y-78192380D01*
X172286176Y-79192380D01*
X172286176Y-78192380D01*
X171809985Y-79192380D02*
X171809985Y-78192380D01*
X171571890Y-78192380D01*
X171429033Y-78240000D01*
X171333795Y-78335238D01*
X171286176Y-78430476D01*
X171238557Y-78620952D01*
X171238557Y-78763809D01*
X171286176Y-78954285D01*
X171333795Y-79049523D01*
X171429033Y-79144761D01*
X171571890Y-79192380D01*
X171809985Y-79192380D01*
D12*
%TO.C,LOGO1*%
X157902184Y-81281814D02*
X158265041Y-81281814D01*
X158265041Y-80519814D01*
X167751941Y-80519814D02*
X167751941Y-81136671D01*
X167715655Y-81209242D01*
X167679370Y-81245528D01*
X167606798Y-81281814D01*
X167461655Y-81281814D01*
X167389084Y-81245528D01*
X167352798Y-81209242D01*
X167316512Y-81136671D01*
X167316512Y-80519814D01*
X171749048Y-80519814D02*
X171313620Y-80519814D01*
X171531334Y-81281814D02*
X171531334Y-80519814D01*
X162265541Y-81281814D02*
X162265541Y-80519814D01*
X161830112Y-81281814D01*
X161830112Y-80519814D01*
D13*
X166238585Y-76047297D02*
X164177556Y-76047297D01*
X165208070Y-79654097D02*
X165208070Y-76047297D01*
X162975290Y-76047297D02*
X162975290Y-78967088D01*
X162803537Y-79310592D01*
X162631785Y-79482345D01*
X162288280Y-79654097D01*
X161601270Y-79654097D01*
X161257766Y-79482345D01*
X161086013Y-79310592D01*
X160914261Y-78967088D01*
X160914261Y-76047297D01*
X159196737Y-79654097D02*
X159196737Y-76047297D01*
X157135709Y-79654097D01*
X157135709Y-76047297D01*
X153700661Y-79654097D02*
X155418185Y-79654097D01*
X155418185Y-76047297D01*
D12*
X170955062Y-81281209D02*
X171120162Y-81039304D01*
X171238091Y-81281209D02*
X171238091Y-80773209D01*
X171049405Y-80773209D01*
X171002234Y-80797400D01*
X170978648Y-80821590D01*
X170955062Y-80869971D01*
X170955062Y-80942542D01*
X170978648Y-80990923D01*
X171002234Y-81015114D01*
X171049405Y-81039304D01*
X171238091Y-81039304D01*
X170742791Y-81281209D02*
X170742791Y-80773209D01*
X170530520Y-81136066D02*
X170294662Y-81136066D01*
X170577691Y-81281209D02*
X170412591Y-80773209D01*
X170247491Y-81281209D01*
X170082391Y-81281209D02*
X170082391Y-80773209D01*
X169799362Y-81281209D01*
X169799362Y-80773209D01*
X169304062Y-80797400D02*
X169351234Y-80773209D01*
X169421991Y-80773209D01*
X169492748Y-80797400D01*
X169539920Y-80845780D01*
X169563505Y-80894161D01*
X169587091Y-80990923D01*
X169587091Y-81063495D01*
X169563505Y-81160257D01*
X169539920Y-81208638D01*
X169492748Y-81257019D01*
X169421991Y-81281209D01*
X169374820Y-81281209D01*
X169304062Y-81257019D01*
X169280477Y-81232828D01*
X169280477Y-81063495D01*
X169374820Y-81063495D01*
X168832348Y-81281209D02*
X169068205Y-81281209D01*
X169068205Y-80773209D01*
X168667248Y-81015114D02*
X168502148Y-81015114D01*
X168431391Y-81281209D02*
X168667248Y-81281209D01*
X168667248Y-80773209D01*
X168431391Y-80773209D01*
X167087005Y-81281209D02*
X167087005Y-80773209D01*
X166803977Y-81281209D01*
X166803977Y-80773209D01*
X166568120Y-81281209D02*
X166568120Y-80773209D01*
X166403020Y-80773209D02*
X166237920Y-81281209D01*
X166072820Y-80773209D01*
X165907720Y-81015114D02*
X165742620Y-81015114D01*
X165671862Y-81281209D02*
X165907720Y-81281209D01*
X165907720Y-80773209D01*
X165671862Y-80773209D01*
X165176562Y-81281209D02*
X165341662Y-81039304D01*
X165459591Y-81281209D02*
X165459591Y-80773209D01*
X165270905Y-80773209D01*
X165223734Y-80797400D01*
X165200148Y-80821590D01*
X165176562Y-80869971D01*
X165176562Y-80942542D01*
X165200148Y-80990923D01*
X165223734Y-81015114D01*
X165270905Y-81039304D01*
X165459591Y-81039304D01*
X164987877Y-81257019D02*
X164917120Y-81281209D01*
X164799191Y-81281209D01*
X164752020Y-81257019D01*
X164728434Y-81232828D01*
X164704848Y-81184447D01*
X164704848Y-81136066D01*
X164728434Y-81087685D01*
X164752020Y-81063495D01*
X164799191Y-81039304D01*
X164893534Y-81015114D01*
X164940705Y-80990923D01*
X164964291Y-80966733D01*
X164987877Y-80918352D01*
X164987877Y-80869971D01*
X164964291Y-80821590D01*
X164940705Y-80797400D01*
X164893534Y-80773209D01*
X164775605Y-80773209D01*
X164704848Y-80797400D01*
X164492577Y-81281209D02*
X164492577Y-80773209D01*
X164327477Y-80773209D02*
X164044448Y-80773209D01*
X164185962Y-81281209D02*
X164185962Y-80773209D01*
X163879348Y-81281209D02*
X163879348Y-80773209D01*
X163643491Y-81015114D02*
X163478391Y-81015114D01*
X163407634Y-81281209D02*
X163643491Y-81281209D01*
X163643491Y-80773209D01*
X163407634Y-80773209D01*
X163218948Y-81257019D02*
X163148191Y-81281209D01*
X163030262Y-81281209D01*
X162983091Y-81257019D01*
X162959505Y-81232828D01*
X162935920Y-81184447D01*
X162935920Y-81136066D01*
X162959505Y-81087685D01*
X162983091Y-81063495D01*
X163030262Y-81039304D01*
X163124605Y-81015114D01*
X163171777Y-80990923D01*
X163195362Y-80966733D01*
X163218948Y-80918352D01*
X163218948Y-80869971D01*
X163195362Y-80821590D01*
X163171777Y-80797400D01*
X163124605Y-80773209D01*
X163006677Y-80773209D01*
X162935920Y-80797400D01*
X161591534Y-80773209D02*
X161591534Y-81184447D01*
X161567948Y-81232828D01*
X161544362Y-81257019D01*
X161497191Y-81281209D01*
X161402848Y-81281209D01*
X161355677Y-81257019D01*
X161332091Y-81232828D01*
X161308505Y-81184447D01*
X161308505Y-80773209D01*
X160789620Y-81232828D02*
X160813205Y-81257019D01*
X160883962Y-81281209D01*
X160931134Y-81281209D01*
X161001891Y-81257019D01*
X161049062Y-81208638D01*
X161072648Y-81160257D01*
X161096234Y-81063495D01*
X161096234Y-80990923D01*
X161072648Y-80894161D01*
X161049062Y-80845780D01*
X161001891Y-80797400D01*
X160931134Y-80773209D01*
X160883962Y-80773209D01*
X160813205Y-80797400D01*
X160789620Y-80821590D01*
X160341491Y-81281209D02*
X160577348Y-81281209D01*
X160577348Y-80773209D01*
X160176391Y-81015114D02*
X160011291Y-81015114D01*
X159940534Y-81281209D02*
X160176391Y-81281209D01*
X160176391Y-80773209D01*
X159940534Y-80773209D01*
X159751848Y-81136066D02*
X159515991Y-81136066D01*
X159799020Y-81281209D02*
X159633920Y-80773209D01*
X159468820Y-81281209D01*
X159020691Y-81281209D02*
X159185791Y-81039304D01*
X159303720Y-81281209D02*
X159303720Y-80773209D01*
X159115034Y-80773209D01*
X159067862Y-80797400D01*
X159044277Y-80821590D01*
X159020691Y-80869971D01*
X159020691Y-80942542D01*
X159044277Y-80990923D01*
X159067862Y-81015114D01*
X159115034Y-81039304D01*
X159303720Y-81039304D01*
X157699891Y-81136066D02*
X157464034Y-81136066D01*
X157747062Y-81281209D02*
X157581962Y-80773209D01*
X157416862Y-81281209D01*
X157086662Y-81015114D02*
X157015905Y-81039304D01*
X156992320Y-81063495D01*
X156968734Y-81111876D01*
X156968734Y-81184447D01*
X156992320Y-81232828D01*
X157015905Y-81257019D01*
X157063077Y-81281209D01*
X157251762Y-81281209D01*
X157251762Y-80773209D01*
X157086662Y-80773209D01*
X157039491Y-80797400D01*
X157015905Y-80821590D01*
X156992320Y-80869971D01*
X156992320Y-80918352D01*
X157015905Y-80966733D01*
X157039491Y-80990923D01*
X157086662Y-81015114D01*
X157251762Y-81015114D01*
X156662120Y-80773209D02*
X156567777Y-80773209D01*
X156520605Y-80797400D01*
X156473434Y-80845780D01*
X156449848Y-80942542D01*
X156449848Y-81111876D01*
X156473434Y-81208638D01*
X156520605Y-81257019D01*
X156567777Y-81281209D01*
X156662120Y-81281209D01*
X156709291Y-81257019D01*
X156756462Y-81208638D01*
X156780048Y-81111876D01*
X156780048Y-80942542D01*
X156756462Y-80845780D01*
X156709291Y-80797400D01*
X156662120Y-80773209D01*
X155954548Y-81281209D02*
X156119648Y-81039304D01*
X156237577Y-81281209D02*
X156237577Y-80773209D01*
X156048891Y-80773209D01*
X156001720Y-80797400D01*
X155978134Y-80821590D01*
X155954548Y-80869971D01*
X155954548Y-80942542D01*
X155978134Y-80990923D01*
X156001720Y-81015114D01*
X156048891Y-81039304D01*
X156237577Y-81039304D01*
X155765862Y-81136066D02*
X155530005Y-81136066D01*
X155813034Y-81281209D02*
X155647934Y-80773209D01*
X155482834Y-81281209D01*
X155388491Y-80773209D02*
X155105462Y-80773209D01*
X155246977Y-81281209D02*
X155246977Y-80773209D01*
X154846020Y-80773209D02*
X154751677Y-80773209D01*
X154704505Y-80797400D01*
X154657334Y-80845780D01*
X154633748Y-80942542D01*
X154633748Y-81111876D01*
X154657334Y-81208638D01*
X154704505Y-81257019D01*
X154751677Y-81281209D01*
X154846020Y-81281209D01*
X154893191Y-81257019D01*
X154940362Y-81208638D01*
X154963948Y-81111876D01*
X154963948Y-80942542D01*
X154940362Y-80845780D01*
X154893191Y-80797400D01*
X154846020Y-80773209D01*
X154138448Y-81281209D02*
X154303548Y-81039304D01*
X154421477Y-81281209D02*
X154421477Y-80773209D01*
X154232791Y-80773209D01*
X154185620Y-80797400D01*
X154162034Y-80821590D01*
X154138448Y-80869971D01*
X154138448Y-80942542D01*
X154162034Y-80990923D01*
X154185620Y-81015114D01*
X154232791Y-81039304D01*
X154421477Y-81039304D01*
X153831834Y-81039304D02*
X153831834Y-81281209D01*
X153996934Y-80773209D02*
X153831834Y-81039304D01*
X153666734Y-80773209D01*
D14*
%TO.C,J2*%
X148522496Y-70261988D02*
X148522496Y-69341988D01*
X145722496Y-69341988D02*
X148522496Y-69341988D01*
%TO.C,SW1*%
X158194000Y-70346000D02*
X158194000Y-70846000D01*
X157694000Y-74096000D02*
X157194000Y-74096000D01*
X159694000Y-69596000D02*
X159194000Y-69596000D01*
X159194000Y-74096000D02*
X158694000Y-74096000D01*
X157194000Y-69596000D02*
X156694000Y-69596000D01*
X158694000Y-74096000D02*
X157694000Y-74096000D01*
X158694000Y-73596000D02*
X158694000Y-74596000D01*
X159194000Y-70346000D02*
X157194000Y-70346000D01*
X157444000Y-69596000D02*
G75*
G03*
X157444000Y-69596000I-250000J0D01*
G01*
X159444000Y-69596000D02*
G75*
G03*
X159444000Y-69596000I-250000J0D01*
G01*
X157694000Y-74596000D02*
X158694000Y-74096000D01*
X158694000Y-74096000D02*
X157694000Y-73596000D01*
X157694000Y-73596000D02*
X157694000Y-74596000D01*
G36*
X158694000Y-74096000D02*
G01*
X157694000Y-74596000D01*
X157694000Y-73596000D01*
X158694000Y-74096000D01*
G37*
X158694000Y-74096000D02*
X157694000Y-74596000D01*
X157694000Y-73596000D01*
X158694000Y-74096000D01*
D12*
%TO.C,LOGO1*%
X170611800Y-77851000D02*
X171754800Y-75819000D01*
X171754800Y-75819000D02*
X169468800Y-75819000D01*
X169468800Y-75819000D02*
X170611800Y-77851000D01*
G36*
X170611800Y-77851000D02*
G01*
X169468800Y-75819000D01*
X171754800Y-75819000D01*
X170611800Y-77851000D01*
G37*
X170611800Y-77851000D02*
X169468800Y-75819000D01*
X171754800Y-75819000D01*
X170611800Y-77851000D01*
X168325800Y-77851000D02*
X169468800Y-75819000D01*
X169468800Y-75819000D02*
X167182800Y-75819000D01*
X167182800Y-75819000D02*
X168325800Y-77851000D01*
G36*
X168325800Y-77851000D02*
G01*
X167182800Y-75819000D01*
X169468800Y-75819000D01*
X168325800Y-77851000D01*
G37*
X168325800Y-77851000D02*
X167182800Y-75819000D01*
X169468800Y-75819000D01*
X168325800Y-77851000D01*
X169468800Y-79883000D02*
X170611800Y-77851000D01*
X170611800Y-77851000D02*
X168325800Y-77851000D01*
X168325800Y-77851000D02*
X169468800Y-79883000D01*
G36*
X169468800Y-79883000D02*
G01*
X168325800Y-77851000D01*
X170611800Y-77851000D01*
X169468800Y-79883000D01*
G37*
X169468800Y-79883000D02*
X168325800Y-77851000D01*
X170611800Y-77851000D01*
X169468800Y-79883000D01*
%TD*%
M02*
